<svg width="50" height="50" viewBox="0 0 50 50" fill="none" xmlns="http://www.w3.org/2000/svg">
<path d="M45.165 15.4593L39.9648 7.75674C38.5962 5.72949 36.979 3.87197 35.1581 2.23584C33.5534 0.794043 31.4786 0 29.3157 0H2.01719C0.90498 0 0 0.904981 0 2.01729V2.22656V46.1852C0 47.8626 1.36475 49.2272 3.04209 49.2272H21.1797C21.5843 49.2272 21.9121 48.8993 21.9121 48.4948C21.9121 48.0903 21.5843 47.7624 21.1797 47.7624H3.04209C2.17236 47.7624 1.46484 47.0549 1.46484 46.1852V40.3476L20.9754 40.3946H20.9793C21.6362 40.3946 22.2349 39.9833 22.4697 39.3701C22.8593 38.3522 23.3589 37.613 23.9146 37.2324C24.7792 36.6402 25.4102 35.762 25.6948 34.7557L27.3337 30.6681C27.3386 30.6562 27.3434 30.6429 27.3479 30.6294L27.6546 30.8437C28.3856 31.3545 28.765 32.2533 28.6211 33.1335L28.4236 34.3416C28.3478 34.8055 28.2507 35.2006 28.1271 35.5494C27.6583 36.8718 27.7444 38.4363 28.3518 39.6325C28.8692 40.6518 29.72 41.3631 30.8119 41.6896C31.6988 41.9549 32.4996 42.0638 33.2207 42.0637C35.6292 42.0635 37.1438 40.848 37.9705 40.1846C37.9974 40.163 38.0228 40.1395 38.0464 40.1143C38.221 39.9279 44.6077 32.4501 44.6077 32.4501C44.927 32.0172 45.5386 31.9246 45.9714 32.2436C46.1811 32.3981 46.3181 32.625 46.357 32.8826C46.396 33.1401 46.3324 33.3975 46.1779 33.6071C46.16 33.6314 46.1436 33.6568 46.1288 33.6832L40.5264 43.6648C40.2 44.2462 39.6761 44.6939 39.0509 44.9256L31.8643 47.5874C31.5505 47.7036 24.5977 47.7625 24.5977 47.7625C24.1931 47.7625 23.8652 48.0904 23.8652 48.4949C23.8652 48.8994 24.1931 49.2273 24.5977 49.2273H40.5724C45.7707 49.2273 50 44.9981 50 39.7996V31.2618C50 25.6088 48.3281 20.1443 45.165 15.4593ZM43.4285 31.5811C43.4285 31.5811 37.423 38.6359 37.0128 39.0749C35.9949 39.8913 34.3032 41.2045 31.2315 40.2862C30.5234 40.0745 29.9939 39.6314 29.6579 38.9694C29.2326 38.1317 29.1736 36.9814 29.5078 36.0389C29.6608 35.6069 29.7791 35.1292 29.8692 34.5782L30.0667 33.37C30.301 31.9374 29.6835 30.4745 28.4937 29.6432L28.1522 29.4046C27.7703 29.1376 27.2808 29.073 26.8426 29.2317C26.42 29.3848 26.0937 29.7279 25.9613 30.1555L24.7522 33.1711L21.4165 30.5866C21.8473 29.4371 22.138 28.68 22.2805 28.337C22.3846 28.0861 22.4327 27.8216 22.4234 27.5506L22.306 24.1175C22.299 23.9142 22.4451 23.7361 22.6458 23.7034L24.0688 23.4713C24.5968 23.3851 25.0646 23.0758 25.3523 22.6228C26.3004 21.1296 27.8507 20.0804 29.9604 19.5043C31.8814 18.9797 33.7163 19.0087 34.4159 19.0455C37.4576 19.2056 40.2698 20.5856 42.3345 22.9315C44.229 25.0841 45.2635 27.7806 45.2895 30.5925C44.5768 30.6233 43.8836 30.9636 43.4285 31.5811ZM48.5352 39.7996C48.5352 44.1903 44.9631 47.7625 40.5724 47.7625H35.609L39.5597 46.2992C40.5105 45.947 41.3075 45.266 41.8037 44.3817L47.3858 34.4363C47.7516 33.9191 47.9006 33.2914 47.8054 32.6633C47.7077 32.0188 47.365 31.4511 46.8403 31.0644C46.8109 31.0428 46.7812 31.0222 46.7512 31.0021C46.8271 27.6861 45.6575 24.4901 43.4339 21.9636C41.1066 19.3193 37.9312 17.7634 34.4927 17.5825C33.9544 17.5542 33.0196 17.5383 31.9044 17.6564C31.0328 15.2287 29.5214 13.3892 28.3753 12.2526C27.8447 11.7265 27.5525 11.0274 27.5525 10.2843V8.75381C27.5525 8.34932 27.2247 8.02139 26.8201 8.02139C26.4155 8.02139 26.0877 8.34932 26.0877 8.75381V10.2844C26.0877 11.4211 26.5338 12.4896 27.3438 13.2929C28.3375 14.2782 29.6327 15.8441 30.425 17.8843C28.1891 18.3428 25.6534 19.4152 24.1154 21.8374C24.0517 21.9379 23.9485 22.0064 23.8326 22.0253L22.4097 22.2574C21.4838 22.4085 20.8097 23.2296 20.8416 24.1673L20.9592 27.6003C20.9612 27.6604 20.9505 27.7191 20.9273 27.775C20.7987 28.0848 20.5594 28.7044 20.215 29.6184C16.3052 26.3584 13.0891 22.4391 10.6471 17.9452C10.454 17.5898 10.0094 17.4582 9.65381 17.6514C9.29834 17.8445 9.16689 18.2892 9.35996 18.6446C12.1339 23.7493 15.8689 28.1417 20.4613 31.6996L24.2048 34.5999C23.9877 35.1748 23.5981 35.6736 23.0867 36.0238C22.273 36.5812 21.6051 37.5308 21.1016 38.8464C21.0821 38.8971 21.0342 38.9298 20.9792 38.9298C20.9791 38.9298 20.979 38.9298 20.9789 38.9298L1.46484 38.8828V2.22656C1.46484 1.92197 1.7126 1.67422 2.01719 1.67422H4.36445L4.56875 3.46328C5.03203 7.52227 6.08643 11.4823 7.70264 15.2337C7.8626 15.6052 8.29356 15.7766 8.66504 15.6165C9.03652 15.4564 9.20801 15.0255 9.04785 14.6541C7.48857 11.0345 6.47119 7.21348 6.02412 3.29707L5.81494 1.46484H29.3158C31.1166 1.46484 32.8438 2.12559 34.1792 3.32549C35.911 4.88164 37.4492 6.64834 38.7509 8.57637L43.9511 16.2789C46.95 20.721 48.5352 25.902 48.5352 31.2618V39.7996Z" fill="#C75B4A"/>
<path d="M8.61907 29.8795C9.60012 32.2341 11.0376 34.0488 12.8915 35.273C13.0157 35.355 13.1559 35.3943 13.2945 35.3943C13.5323 35.3943 13.7655 35.2787 13.9064 35.0654C14.1292 34.7278 14.0363 34.2735 13.6988 34.0506C12.0924 32.9899 10.8382 31.397 9.97122 29.3162C9.81555 28.9427 9.38694 28.7662 9.0134 28.9217C8.64006 29.0773 8.4634 29.5061 8.61907 29.8795Z" fill="#C75B4A"/>
</svg>
