<svg width="136" height="176" viewBox="0 0 136 176" fill="none" xmlns="http://www.w3.org/2000/svg">
<path fill-rule="evenodd" clip-rule="evenodd" d="M56.7452 0.0758094C61.5182 0.407809 64.9422 0.226803 68.2602 1.1008C72.1042 2.1138 75.2702 4.28081 78.0992 7.00281C82.1622 10.9128 85.7122 15.1958 87.8322 20.4998C88.1372 21.2628 88.5032 21.1648 88.9412 20.7698C92.5092 17.5668 96.2642 19.4688 98.7012 22.0958C100.839 24.4008 101.946 27.1368 101.363 30.3518C101.099 31.8068 100.167 32.9298 99.2102 33.9668C98.4712 34.7668 98.4242 35.5638 98.5722 36.5508C99.1022 40.0748 99.8732 43.5628 99.8422 47.1668C99.7952 52.6128 98.8702 57.9338 96.7342 62.8788C94.8452 67.2498 96.4762 70.4448 99.0002 73.6838C105.02 81.4108 112.481 87.8048 118.85 95.2048C123.485 100.592 127.686 106.291 130.976 112.619C132.49 115.533 132.831 118.773 133.502 121.914C134.355 125.906 135.242 129.9 135.48 133.992C135.782 139.201 134.685 144.222 132.747 148.972C127.089 162.839 116.953 171.617 102.231 174.779C88.4932 177.73 75.7812 175.314 64.3612 166.943C61.1772 164.609 58.5302 161.724 56.3252 158.445C49.5442 148.361 44.7312 137.371 41.8352 125.611C39.9662 118.025 38.7862 110.273 37.0302 102.652C36.2382 99.2158 35.4022 95.7998 33.8682 92.6008C33.1632 91.1338 32.1892 89.8998 30.6862 89.1768C26.0062 86.9288 22.0092 83.8078 18.5472 79.9408C16.8852 78.0838 15.0182 76.4118 13.2772 74.6228C12.8272 74.1578 12.5142 74.0568 12.0182 74.5408C10.7402 75.7848 9.43224 76.9608 7.40524 76.5878C5.07824 76.1578 3.25924 74.9138 1.88924 73.0658C-0.12776 70.3468 -0.494758 67.3298 0.621242 64.1378C1.25324 62.3308 2.54824 61.2018 4.38224 60.7588C5.41324 60.5098 5.64124 60.0138 5.36324 59.0358C4.22724 55.0278 3.71724 50.9418 4.16724 46.7858C4.90624 39.9478 5.65924 33.1058 9.01524 26.8948C11.0302 23.1648 14.1752 20.3698 16.9002 17.2228C25.1722 7.67181 36.1682 3.3228 48.1322 0.781803C51.4462 0.079803 54.7712 -0.131191 56.7452 0.0758094Z" fill="#010101"/>
<path fill-rule="evenodd" clip-rule="evenodd" d="M38.8243 5.95099C39.4553 5.36699 40.0504 5.06997 40.7123 4.83197C46.8144 2.62897 53.0574 1.62899 59.5723 2.04499C62.8503 2.25399 66.1233 2.29899 69.1863 3.58399C77.2313 6.95699 82.3553 13.123 85.5673 21.039C86.1513 22.478 86.9434 23.57 88.4623 24.094C89.1814 24.342 89.5473 24.182 89.8883 23.514C91.1533 21.035 92.8573 20.526 95.2633 21.893C98.0443 23.474 99.2064 25.997 99.2454 29.082C99.2644 30.553 98.5643 31.779 97.3303 32.555C95.8443 33.489 95.5634 34.701 95.9844 36.315C99.4864 49.732 96.3144 61.964 89.0254 73.299C86.1703 77.74 81.7694 80.735 77.3794 83.561C72.0104 87.014 66.3544 90.17 60.0664 91.268C49.7854 93.063 39.7604 92.299 30.3604 86.856C24.2004 83.29 19.1693 78.659 14.8373 73.129C14.7583 73.027 14.6794 72.926 14.6004 72.824C13.1144 70.927 12.8364 70.906 11.0944 72.539C10.9374 72.687 10.7724 72.826 10.6134 72.971C8.01735 75.336 6.32635 75.27 3.90335 72.705C1.95335 70.641 1.39935 67.051 2.64835 64.51C3.30835 63.164 4.29236 62.401 5.89636 62.432C7.97836 62.474 8.44736 61.76 7.73036 59.809C5.85636 54.709 5.87935 49.438 6.33635 44.138C6.63635 40.659 7.43836 37.274 8.35436 33.909C9.97536 27.948 13.5394 23.216 17.7354 18.87C21.6114 14.856 25.9244 11.407 30.7534 8.581C34.5554 6.355 38.0953 6.59398 41.5173 9.31598C44.5714 11.745 47.1604 14.501 47.9804 18.494C48.8894 22.912 46.9904 27.626 43.3054 30.15C40.2814 32.222 37.1364 31.874 34.6344 29.147C34.0854 28.548 33.6134 27.87 33.1624 27.19C31.3444 24.443 32.8744 21.047 36.1374 20.434C37.6614 20.147 38.4414 21.067 39.2164 22.067C39.6304 22.602 40.0934 23.548 40.7204 23.12C41.3224 22.708 40.5984 21.867 40.2904 21.302C38.7934 18.547 36.7584 18.009 34.0934 19.659C30.7574 21.723 29.9064 23.772 30.9194 26.479C32.0924 29.616 34.4403 31.924 38.0053 32.624C40.9123 33.193 43.3034 32.373 45.4654 30.411C50.6844 25.677 51.5494 19.091 47.6553 13.204C45.4804 9.91998 42.5733 7.51899 38.8243 5.95099Z" fill="#FED4B1"/>
<path fill-rule="evenodd" clip-rule="evenodd" d="M45.2712 104.951C51.3202 108.291 57.7042 110.783 64.4392 112.316C67.9702 113.119 71.6032 113.267 75.2062 113.336C83.2972 113.492 91.4162 113.108 99.4782 113.633C108.587 114.227 117.795 114.795 126.444 118.221C131.961 120.407 130.79 119.387 131.969 124.549C133.379 130.729 133.819 136.967 132.123 143.196C131.658 144.907 131.625 144.995 130.008 144.372C120.59 140.741 110.607 139.546 100.795 137.653C95.6152 136.655 90.3212 136.255 85.1022 135.442C82.5202 135.042 79.9842 134.334 77.4352 133.735C75.9992 133.399 74.6952 132.76 73.4972 131.889C72.6112 131.244 71.6842 130.655 70.4122 130.11C71.1712 131.538 72.1582 132.389 73.2352 133.126C76.1062 135.087 79.3962 135.989 82.7592 136.464C94.4662 138.11 106.167 139.765 117.703 142.411C121.697 143.325 125.513 144.757 129.285 146.313C130.866 146.965 130.949 147.233 130.401 148.813C128.826 153.358 126.232 157.264 122.942 160.743C122.072 161.663 121.16 161.807 120.049 161.241C113.062 157.677 105.549 156.356 97.8012 155.845C89.4812 155.292 81.1462 154.736 72.9992 152.769C68.9902 151.8 65.0572 150.574 61.4082 148.589C60.3532 148.015 59.3032 147.423 58.4262 146.581C55.3992 143.329 53.6522 139.339 52.1222 135.272C49.4652 128.214 47.4222 120.959 45.6952 113.62C45.1122 111.143 44.8282 108.614 44.4962 106.097C44.4302 105.588 44.2012 104.777 45.2712 104.951Z" fill="#FEBAD6"/>
<path fill-rule="evenodd" clip-rule="evenodd" d="M99.7102 78.1107C105.785 84.1417 111.564 90.4547 117.428 96.6867C121.075 100.564 123.815 105.101 126.989 109.318C128.492 111.316 129.216 113.75 129.892 116.156C130.156 117.095 129.815 117.254 129.003 117.004C125.845 116.037 122.717 114.973 119.477 114.276C114.624 113.231 109.676 113.02 104.768 112.454C101.213 112.044 97.6602 111.979 94.0832 112.042C87.0262 112.169 79.9822 111.817 72.9462 111.253C69.7002 110.993 66.4052 111.333 63.2172 110.376C58.5692 108.981 53.9602 107.493 49.6572 105.198C49.7272 104.561 50.2572 104.651 50.6412 104.641C54.9302 104.534 59.0522 103.366 63.2422 102.657C68.3592 101.79 73.2612 100.139 77.9222 97.8887C81.0172 96.3947 83.9662 94.5937 86.6632 92.4257C87.2662 91.9417 87.9102 91.5057 88.6682 91.2827C89.1132 91.4177 89.5552 91.5637 90.0052 91.6827C90.4032 91.7867 90.8682 91.9987 91.0982 91.4427C91.3072 90.9347 90.9782 90.6557 90.5612 90.4547C90.3702 90.3607 90.1792 90.2667 89.9892 90.1737C89.8642 89.7167 90.1792 89.4397 90.4512 89.1857C93.7072 86.1387 96.2122 82.5097 98.5792 78.7717C98.8252 78.3837 99.0002 77.7547 99.7102 78.1107Z" fill="#FEBAD6"/>
<path fill-rule="evenodd" clip-rule="evenodd" d="M62.3338 150.687C66.3858 152.208 70.3758 153.935 74.6488 154.767C81.6998 156.14 88.8188 157.033 95.9918 157.417C103.338 157.812 110.483 159.034 117.227 162.11C120.123 163.432 120.164 163.663 117.68 165.669C113.239 169.255 108.274 171.778 102.663 172.966C95.2908 174.081 88.7108 171.911 82.5628 168.056C77.5608 164.919 72.8788 161.331 68.2698 157.654C66.2158 156.015 64.4298 154.076 62.6758 152.125C62.3648 151.777 61.6248 151.355 62.3338 150.687Z" fill="#FEBAD6"/>
<path fill-rule="evenodd" clip-rule="evenodd" d="M88.6701 91.2828C86.6831 93.0558 84.4481 94.4858 82.2151 95.9198C77.1991 99.1408 71.6671 101.176 65.9191 102.439C60.7961 103.566 55.6631 104.871 50.3561 104.957C50.0991 104.961 49.8351 104.951 49.6591 105.197C45.8021 103.297 42.2041 100.941 38.4881 98.7928C38.2421 98.6508 37.9701 98.4118 37.8811 98.1578C37.2291 96.2928 36.6171 94.4138 36.0011 92.5368C35.8831 92.1758 35.9811 91.9588 36.4241 91.9938C36.8941 92.0288 37.3581 92.0328 37.8191 92.1948C42.6971 93.9058 47.7511 93.9288 52.8461 93.9588C58.1031 93.9878 63.0811 92.9548 67.9471 91.0918C68.5661 90.8558 69.0861 90.5018 69.6291 90.1638C71.5711 88.9548 73.7281 88.4858 75.9421 88.7618C79.7321 89.2348 83.5031 89.8808 87.2281 90.7498C87.7241 90.8668 88.1911 91.1008 88.6701 91.2828Z" fill="#BE8BA0"/>
<path fill-rule="evenodd" clip-rule="evenodd" d="M62.334 150.687C62.115 151.359 62.692 151.658 63.019 152.027C66.207 155.65 69.921 158.668 73.805 161.509C77.022 163.861 80.211 166.249 83.616 168.324C89.065 171.644 94.975 173.262 101.381 172.949C101.808 172.927 102.236 172.959 102.665 172.967C99.014 174.405 95.185 174.326 91.365 174.264C80.903 174.098 71.56 170.828 63.51 164.082C59.719 160.906 57.176 156.764 54.815 152.5C53.693 150.471 52.572 148.443 51.457 146.41C51.293 146.111 51.147 145.797 51.036 145.475C50.929 145.162 50.721 144.801 51.064 144.524C51.426 144.233 51.696 144.592 51.976 144.745C52.427 144.995 52.861 145.272 53.304 145.536C56.283 147.308 59.16 149.259 62.334 150.687Z" fill="#BE8BA0"/>
<path fill-rule="evenodd" clip-rule="evenodd" d="M45.2716 104.951C44.5306 105.066 44.7536 105.605 44.8006 106.051C45.5676 113.301 47.6636 120.25 49.7326 127.19C51.0666 131.667 52.5366 136.128 54.6806 140.307C55.6406 142.18 56.6866 144.012 57.9686 145.694C58.1746 145.966 58.4626 146.186 58.4266 146.581C55.8306 144.772 52.8256 143.622 50.5016 141.356C47.4296 138.362 46.2476 134.461 44.9856 130.584C42.5586 123.129 41.3396 115.399 39.8346 107.734C39.4246 105.648 38.8726 103.58 38.7666 101.304C41.1676 102.338 43.2786 103.537 45.2716 104.951Z" fill="#BE8BA0"/>
<path fill-rule="evenodd" clip-rule="evenodd" d="M99.7104 78.1108C98.7604 78.2558 98.6544 79.2068 98.2964 79.7948C95.9644 83.6128 93.1434 87.0208 89.9904 90.1738C86.2814 88.7418 82.3954 88.0308 78.4994 87.3688C78.0694 87.2968 77.5225 87.2638 77.4185 86.8178C77.3265 86.4218 77.8764 86.2708 78.1644 86.0468C80.9724 83.8398 83.7984 81.6558 86.6004 79.4428C89.5594 77.1048 91.7534 74.1678 93.3174 70.7458C93.4754 70.3998 93.6595 70.0638 93.9074 69.5718C95.5735 72.7128 97.6404 75.4138 99.7104 78.1108Z" fill="#BE8BA0"/>
<path fill-rule="evenodd" clip-rule="evenodd" d="M48.5915 79.4289C45.0115 78.5599 42.4715 75.4929 41.8865 71.3329C40.9335 64.5579 43.9635 60.4409 51.1865 58.7119C53.2415 58.2199 55.3225 57.9409 57.4415 57.9209C60.5395 57.8919 63.2125 56.7939 65.5075 54.7019C68.3475 52.1139 71.7255 51.4989 75.3695 52.3149C78.5365 53.0239 81.2485 57.2209 81.0365 60.8149C80.9465 62.3399 80.5505 63.7699 79.8485 65.1219C79.7145 65.9309 79.1915 66.4889 78.6155 67.0069C77.8865 67.6609 77.4905 68.4029 77.9535 69.3819C78.1835 69.8699 77.9625 70.3819 78.0495 70.8759C78.5195 73.9249 78.2695 76.8309 76.4885 79.4849C75.2545 81.3209 73.5555 82.5609 71.6175 83.5319C71.3485 83.8189 71.0415 84.0459 70.6565 84.1489C65.6535 85.5079 60.9525 85.4399 57.1155 81.2859C56.8835 81.0339 56.6025 80.8189 56.3925 80.5519C55.5235 79.4429 54.4305 79.1199 53.0815 79.4989C52.2105 79.7429 51.2935 79.7139 50.4045 79.8639C49.7395 79.9779 49.1235 79.8779 48.5915 79.4289Z" fill="#020101"/>
<path fill-rule="evenodd" clip-rule="evenodd" d="M30.2296 76.5369C28.1656 76.6089 26.9296 74.9299 25.7176 73.3279C23.2746 70.1009 23.8466 67.2049 27.1546 64.5079C28.5786 63.3459 29.9356 63.3439 31.5536 63.8479C33.5016 64.4569 35.2936 65.2839 36.2006 67.1939C37.3966 69.7099 36.4476 71.9989 34.9326 74.0089C33.8726 75.4159 32.5186 76.6069 30.2296 76.5369Z" fill="#F5B093"/>
<path fill-rule="evenodd" clip-rule="evenodd" d="M86.3424 50.95C83.2444 50.949 80.6464 48.642 80.6504 45.895C80.6554 42.619 83.4234 39.191 86.1164 39.349C89.0644 39.523 91.5214 41.46 91.7224 44.954C91.9144 48.318 89.4664 50.951 86.3424 50.95Z" fill="#F5B093"/>
<path fill-rule="evenodd" clip-rule="evenodd" d="M48.5908 79.4289C50.2278 79.6299 51.8528 79.4289 53.4248 79.0519C54.8118 78.7219 55.7588 79.1809 56.5578 80.2099C58.5248 82.7489 61.0938 84.2119 64.2928 84.5149C66.8048 84.7509 69.2348 84.3099 71.6158 83.5329C71.6868 84.4879 71.1758 85.0699 70.3608 85.4219C67.0758 86.8399 63.7368 86.9099 60.3718 85.7439C58.7058 85.1679 57.6608 83.7829 56.6198 82.5039C56.0228 81.7709 55.5888 81.7269 54.8078 81.9919C53.2718 82.5129 51.7528 82.1029 50.2908 81.6339C49.2888 81.3139 48.6688 80.5409 48.5908 79.4289Z" fill="#E5BA9A"/>
<path fill-rule="evenodd" clip-rule="evenodd" d="M76.4765 30.265C76.4845 34.044 74.1455 37.538 70.9405 38.8C67.7795 40.045 64.5455 40.437 61.2515 39.316C60.6365 39.106 59.6305 38.921 59.8935 38.126C60.1615 37.316 61.1295 37.337 61.9165 37.659C65.3215 39.052 68.4495 38.567 71.3695 36.358C73.4605 34.778 74.3075 32.626 74.3675 30.1C74.3785 29.653 74.4105 29.258 74.6615 28.885C74.9235 28.496 75.2435 28.274 75.7405 28.385C76.2085 28.488 76.3355 28.838 76.3835 29.238C76.4395 29.707 76.4685 30.178 76.4765 30.265Z" fill="#030203"/>
<path fill-rule="evenodd" clip-rule="evenodd" d="M30.1912 53.6478C28.3962 53.6268 26.5972 53.4978 24.8112 53.2138C24.6432 53.1888 24.4812 53.1178 24.3222 53.0538C23.8062 52.8428 23.0902 52.5428 23.1702 52.0318C23.2802 51.3198 24.0682 51.3738 24.6782 51.4428C26.1712 51.6118 27.6582 51.8887 29.1562 51.9647C33.0512 52.1627 35.8982 50.3328 38.0002 47.1798C38.4762 46.4658 38.9162 45.7257 39.3652 44.9947C39.7712 44.3337 40.4082 43.9087 41.0882 44.2707C41.8182 44.6617 41.2712 45.4568 41.0382 45.8378C38.5292 49.9468 35.6562 53.6068 30.1912 53.6478Z" fill="#030203"/>
<path fill-rule="evenodd" clip-rule="evenodd" d="M55.7594 47.3078C57.3864 47.3498 58.5484 48.2458 59.4984 49.4678C59.7444 49.7858 60.0214 50.2848 59.6734 50.6078C59.3694 50.8878 58.8504 50.7948 58.4624 50.5428C57.8874 50.1678 57.3284 49.7698 56.7584 49.3868C55.2434 48.3738 54.9054 48.4508 53.9584 50.0578C53.6764 50.5368 53.4584 51.0548 53.1724 51.5308C52.7854 52.1708 52.3934 52.8388 51.4574 52.2938C50.4734 51.7218 51.2604 51.1898 51.5314 50.7268C52.1324 49.6968 52.6104 48.5528 53.6664 47.8678C54.2894 47.4608 54.9894 47.2498 55.7594 47.3078Z" fill="#040304"/>
<path fill-rule="evenodd" clip-rule="evenodd" d="M78.0492 70.8756C77.1882 69.0336 77.1752 67.3816 79.0332 66.0826C79.3662 65.8506 79.5802 65.4456 79.8482 65.1216C79.9562 67.2606 79.6302 69.2646 78.0492 70.8756Z" fill="#E5BA9A"/>
<path fill-rule="evenodd" clip-rule="evenodd" d="M94.863 29.0006C93.967 28.5046 93.398 27.9546 92.949 27.2646C92.606 26.7396 92.47 26.1726 92.553 25.5656C92.635 24.9626 93.021 24.4576 93.578 24.4196C94.137 24.3786 94.425 24.9276 94.494 25.4696C94.637 26.5946 94.921 27.7106 94.863 29.0006Z" fill="#060504"/>
<path fill-rule="evenodd" clip-rule="evenodd" d="M8.19452 69.0888C7.23752 68.6508 6.32552 68.2218 5.39952 67.8188C4.82052 67.5688 4.41952 67.1508 4.64652 66.5458C4.89352 65.8878 5.54652 65.8248 6.17052 65.9618C7.29452 66.2068 8.09452 67.4268 8.19452 69.0888Z" fill="#060505"/>
<path fill-rule="evenodd" clip-rule="evenodd" d="M53.7512 72.1947C53.7912 73.4017 53.9202 74.6007 54.2362 75.7647C54.4332 76.4877 54.1932 76.8277 53.5122 77.1297C49.6552 78.8507 45.4222 76.7707 44.2612 72.2367C42.9102 66.9617 44.4232 63.5026 49.0982 61.6326C51.6052 60.6306 54.1702 60.0427 56.8692 60.0367C60.8482 60.0277 64.3512 58.8137 67.3482 56.1127C69.6192 54.0657 72.4042 53.5776 75.1712 54.6326C78.5622 55.9226 79.7032 60.8837 77.5722 64.0177C77.4752 64.1607 77.3712 64.2967 77.2642 64.4317C75.7952 66.3067 75.7962 66.3047 73.7452 65.0977C71.0792 63.5277 68.1662 62.6397 65.1412 62.1537C59.9112 61.3137 53.5392 66.9657 53.7512 72.1947Z" fill="#FA7C96"/>
<path fill-rule="evenodd" clip-rule="evenodd" d="M65.9468 82.4897C61.4748 82.7867 58.7258 80.3667 56.8428 76.6307C56.5728 76.0957 56.3898 75.5177 56.1298 74.9767C54.8938 72.4107 55.5828 70.1857 57.2538 68.0787C60.0778 64.5157 63.2748 63.3966 67.6108 64.6896C69.5638 65.2716 71.6638 65.6156 73.2158 67.1326C75.8958 69.7476 76.4628 72.9196 75.3828 76.3786C74.3258 79.7636 70.9978 82.2477 67.4908 82.4857C66.9788 82.5187 66.4618 82.4897 65.9468 82.4897Z" fill="#FA7B96"/>
<path fill-rule="evenodd" clip-rule="evenodd" d="M71.092 72.6109C71.031 76.6149 68.6391 78.9979 65.0561 78.6399C64.1721 78.5519 63.356 78.2608 62.705 77.6888C60.963 76.1558 59.972 74.1929 59.69 71.8979C59.528 70.5779 60.104 69.4999 61.21 68.8389C63.019 67.7549 64.996 67.1939 67.123 67.5749C69.762 68.0459 71.134 69.8259 71.092 72.6109Z" fill="#020102"/>
<path fill-rule="evenodd" clip-rule="evenodd" d="M63.5764 73.0349C63.1964 72.9299 62.5334 73.2229 62.3114 72.6109C62.0704 71.9429 62.1974 71.2559 62.7024 70.6869C63.8024 69.4469 66.6154 69.2629 67.8044 70.3349C68.0774 70.5809 68.1564 70.7279 67.8834 71.0439C67.0714 71.9919 64.8974 73.0429 63.5764 73.0349Z" fill="#F77B95"/>
<path fill-rule="evenodd" clip-rule="evenodd" d="M68.3476 73.291C68.4726 75.363 67.2206 76.764 65.4326 76.748C64.8766 76.744 64.3596 76.537 64.1936 76.006C64.0086 75.416 64.6606 75.393 64.9846 75.199C66.0676 74.552 67.1776 73.951 68.3476 73.291Z" fill="#E5BA9A"/>
</svg>
