<svg width="60" height="72" viewBox="0 0 60 72" fill="none" xmlns="http://www.w3.org/2000/svg">
<path d="M33.3917 58.7089C33.5979 56.8777 33.7927 55.1482 34.5009 53.9215C35.2746 52.5814 37.0261 50.6403 38.8806 48.5852C41.9862 45.1437 45.1975 41.585 45.4815 39.0922C45.5944 38.1018 45.2717 37.039 44.6752 35.9685L46.5226 32.7687C47.7816 30.588 47.3425 27.8855 45.6186 26.2016L46.3497 24.9353C46.8593 24.0527 46.9861 22.9859 46.6976 22.0083L46.3592 20.8619C45.8843 19.2527 46.3534 17.544 47.5837 16.4029C47.9627 16.0513 47.985 15.459 47.6333 15.08C47.2817 14.7009 46.6894 14.6788 46.3104 15.0304C44.5554 16.6584 43.8861 19.0959 44.5637 21.3919L44.9019 22.5382C45.0459 23.0261 44.9826 23.5586 44.7282 23.9992L44.081 25.1203L32.71 18.5552L33.3572 17.4341C33.6116 16.9935 34.0411 16.6725 34.5356 16.5532L35.6975 16.273C38.0246 15.7118 39.801 13.9133 40.3334 11.5794C40.5048 10.8273 40.9538 10.1792 41.5976 9.75417C42.2381 9.3313 43.007 9.1724 43.7627 9.30689C44.8546 9.5011 45.8495 10.0755 46.5638 10.9241C46.7216 11.1115 46.856 11.3182 46.9631 11.5385C47.1896 12.0033 47.7497 12.1965 48.2146 11.9702C48.6794 11.7438 48.8727 11.1835 48.6463 10.7187C48.4718 10.3603 48.2529 10.0236 47.996 9.71851C47 8.53528 45.613 7.7345 44.0904 7.46361C42.8603 7.24484 41.6085 7.50341 40.566 8.19181C39.518 8.88369 38.7871 9.93893 38.5079 11.1632C38.1348 12.7991 36.8896 14.0597 35.2585 14.4531L34.0964 14.7332C33.1057 14.9722 32.2451 15.6155 31.7356 16.498L31.0631 17.6628C28.602 16.6539 25.7045 17.5946 24.3384 19.9607L22.491 23.1605C21.2657 23.1791 20.184 23.4311 19.3827 24.024C18.2204 24.8842 17.1539 26.7719 15.9246 30.1447C15.7476 30.6305 15.9977 31.1679 16.4836 31.3447C16.9693 31.5217 17.5066 31.2715 17.6836 30.7857C18.0756 29.7103 19.2684 26.4377 20.4964 25.5289C22.7768 23.8414 30.6587 26.7533 34.0692 28.7223C37.4796 30.6913 43.9424 36.0614 43.6212 38.88C43.4051 40.7762 40.1255 44.4105 37.4903 47.3307C35.5678 49.4613 33.7518 51.4738 32.8792 52.9852C31.9757 54.5502 31.7597 56.4684 31.5309 58.4993C31.1887 61.5382 30.8655 64.4086 28.3247 66.0978C27.0251 66.9618 25.1414 67.029 22.7244 66.2983L7.19998 57.3352C5.35858 55.6076 4.47504 53.9425 4.5735 52.385C4.76594 49.3401 7.09027 47.625 9.55088 45.8091C11.1953 44.5957 12.7485 43.4494 13.652 41.8844C14.5244 40.3735 15.342 37.8477 16.2078 35.1737C16.367 34.6818 16.0974 34.1537 15.6055 33.9948C15.1137 33.8356 14.5858 34.1052 14.4266 34.5971C13.6289 37.061 12.804 39.6089 12.0307 40.9483C11.3225 42.175 9.92193 43.2084 8.4393 44.3026C5.86753 46.2004 2.95254 48.3515 2.70506 52.2669C2.56797 54.4344 3.67771 56.6255 6.00361 58.7793C6.05478 58.8268 6.11116 58.8684 6.17158 58.9033L21.8809 67.973C21.9413 68.0079 22.0055 68.036 22.0722 68.0565C25.1004 68.9938 27.5529 68.8594 29.3615 67.6569C32.6285 65.4849 33.034 61.885 33.3917 58.7089ZM24.5636 23.3157L25.96 20.8971C26.9334 19.2111 29.0971 18.6313 30.7832 19.6047L43.609 27.0097C45.2949 27.9831 45.8748 30.1467 44.9013 31.8328L43.5049 34.2514C40.8931 30.9728 36.4787 27.9517 35.0056 27.1013C33.5326 26.2508 28.7089 23.9383 24.5636 23.3157Z" fill="#C75B4A"/>
<path d="M16.8512 58.1829L19.6934 59.8239C20.1411 60.0823 20.7137 59.9289 20.9721 59.4812C21.2306 59.0335 21.0772 58.461 20.6295 58.2025L17.7872 56.5615C17.3395 56.3031 16.767 56.4565 16.5085 56.9042C16.25 57.3519 16.4035 57.9244 16.8512 58.1829Z" fill="#C75B4A"/>
<path d="M18.9176 54.5969L24.6022 57.879C25.0499 58.1375 25.6224 57.984 25.8809 57.5363C26.1394 57.0886 25.986 56.5161 25.5383 56.2577L19.8536 52.9756C19.4059 52.7171 18.8334 52.8705 18.5749 53.3182C18.3165 53.7659 18.4699 54.3384 18.9176 54.5969Z" fill="#C75B4A"/>
<path d="M20.9293 51.1077L23.7716 52.7487C24.2193 53.0071 24.7918 52.8537 25.0503 52.406C25.3087 51.9583 25.1553 51.3858 24.7076 51.1273L21.8653 49.4863C21.4176 49.2279 20.8451 49.3813 20.5867 49.829C20.3282 50.2767 20.4816 50.8492 20.9293 51.1077Z" fill="#C75B4A"/>
<path d="M22.9449 47.6196L25.7872 49.2606C26.2349 49.5191 26.8074 49.3657 27.0659 48.918C27.3244 48.4703 27.171 47.8978 26.7233 47.6393L23.881 45.9983C23.4333 45.7398 22.8608 45.8932 22.6023 46.3409C22.3438 46.7886 22.4972 47.3611 22.9449 47.6196Z" fill="#C75B4A"/>
<path d="M24.9605 44.1304L27.8028 45.7714C28.2505 46.0298 28.823 45.8764 29.0815 45.4287C29.34 44.981 29.1866 44.4085 28.7389 44.15L25.8966 42.5091C25.4489 42.2506 24.8764 42.404 24.6179 42.8517C24.3594 43.2994 24.5128 43.8719 24.9605 44.1304Z" fill="#C75B4A"/>
<path d="M27.0308 40.5449L32.7155 43.827C33.1632 44.0855 33.7357 43.932 33.9942 43.4843C34.2527 43.0366 34.0993 42.4641 33.6516 42.2056L27.9669 38.9236C27.5192 38.6651 26.9467 38.8185 26.6882 39.2662C26.4297 39.7139 26.5831 40.2864 27.0308 40.5449Z" fill="#C75B4A"/>
<path d="M29.0465 37.0564L31.8887 38.6974C32.3364 38.9559 32.909 38.8025 33.1674 38.3548C33.4259 37.9071 33.2725 37.3345 32.8248 37.0761L29.9825 35.4351C29.5348 35.1766 28.9623 35.33 28.7038 35.7777C28.4454 36.2254 28.5988 36.7979 29.0465 37.0564Z" fill="#C75B4A"/>
<path d="M31.0582 33.5676L33.9005 35.2086C34.3482 35.4671 34.9207 35.3137 35.1792 34.866C35.4376 34.4183 35.2842 33.8458 34.8365 33.5873L31.9943 31.9463C31.5466 31.6878 30.974 31.8412 30.7156 32.2889C30.4571 32.7366 30.6105 33.3091 31.0582 33.5676Z" fill="#C75B4A"/>
<path d="M14.7034 55.8639L28.915 31.2487C29.1735 30.801 29.0201 30.2285 28.5724 29.97C28.1247 29.7115 27.5522 29.8649 27.2937 30.3126L13.0821 54.9279C12.8236 55.3756 12.977 55.9481 13.4247 56.2066C13.8724 56.465 14.4449 56.3116 14.7034 55.8639Z" fill="#C75B4A"/>
</svg>
