<svg width="674" height="800" viewBox="0 0 674 800" fill="none" xmlns="http://www.w3.org/2000/svg">
<path d="M611.74 114.286H562.136C561.102 114.286 560.183 114.641 559.222 114.874V62.785C559.222 28.1625 530.415 0 494.998 0H64.7159C29.2997 0 0.492188 28.1625 0.492188 62.785V648.326C0.492188 682.949 29.2997 711.111 64.7159 711.111H140.175V739.46C140.175 772.843 167.878 800 201.943 800H611.74C645.805 800 673.508 772.843 673.508 739.46V174.826C673.508 141.444 645.805 114.286 611.74 114.286ZM25.8884 648.326V62.785C25.8884 42.175 43.3122 25.3975 64.7159 25.3975H494.998C516.402 25.3975 533.826 42.175 533.826 62.785V648.326C533.826 668.936 516.402 685.715 494.998 685.715H64.7159C43.3122 685.715 25.8884 668.936 25.8884 648.326ZM648.111 739.46C648.111 758.843 631.792 774.604 611.74 774.604H201.943C181.891 774.604 165.571 758.843 165.571 739.46V711.111H494.998C530.415 711.111 559.222 682.949 559.222 648.326V139.095C560.183 139.328 561.102 139.682 562.136 139.682H611.74C631.792 139.682 648.111 155.444 648.111 174.826V739.46Z" fill="#FDF1E7"/>
<path d="M419.539 165.08H140.174C133.156 165.08 127.476 170.759 127.476 177.778C127.476 184.798 133.156 190.476 140.174 190.476H419.539C426.558 190.476 432.238 184.798 432.238 177.778C432.238 170.759 426.558 165.08 419.539 165.08Z" fill="#FDF1E7"/>
<path d="M419.539 266.667H140.174C133.156 266.667 127.476 272.346 127.476 279.365C127.476 286.384 133.156 292.064 140.174 292.064H419.539C426.558 292.064 432.238 286.384 432.238 279.365C432.238 272.346 426.558 266.667 419.539 266.667Z" fill="#FDF1E7"/>
<path d="M419.539 368.254H140.174C133.156 368.254 127.476 373.934 127.476 380.952C127.476 387.971 133.156 393.651 140.174 393.651H419.539C426.558 393.651 432.238 387.971 432.238 380.952C432.238 373.934 426.558 368.254 419.539 368.254Z" fill="#FDF1E7"/>
<path d="M292.556 469.841H140.174C133.156 469.841 127.476 475.521 127.476 482.54C127.476 489.559 133.156 495.239 140.174 495.239H292.556C299.574 495.239 305.253 489.559 305.253 482.54C305.253 475.521 299.574 469.841 292.556 469.841Z" fill="#FDF1E7"/>
</svg>
