<svg width="50" height="49" viewBox="0 0 50 49" fill="none" xmlns="http://www.w3.org/2000/svg">
<path d="M48.6554 9.07519H47.5934V6.30107C47.5934 4.99795 46.5333 3.93779 45.2302 3.93779H45.133V2.08984C45.133 0.9375 44.1954 0 43.0432 0H15.951C15.5464 0 15.2186 0.32793 15.2186 0.732422C15.2186 1.13691 15.5464 1.46484 15.951 1.46484H43.0432C43.3878 1.46484 43.6682 1.74521 43.6682 2.08984V3.93779H6.33193V2.08984C6.33193 1.74521 6.6123 1.46484 6.95684 1.46484H12.3377C12.7423 1.46484 13.0701 1.13691 13.0701 0.732422C13.0701 0.32793 12.7423 0 12.3377 0H6.95684C5.80449 0 4.86709 0.9375 4.86709 2.08984V3.93779H4.76992C3.4668 3.93779 2.40664 4.99795 2.40664 6.30107V9.07519H1.34463C0.603223 9.07519 0 9.67842 0 10.4198V13.9756C0 14.717 0.603223 15.3202 1.34463 15.3202H2.40664V21.1593C2.40664 22.0214 2.90762 22.7638 3.64932 23.109V29.5014C3.64932 33.2008 4.77852 36.7446 6.91494 39.7498C8.98594 42.6629 11.8401 44.856 15.1732 46.0978C15.3966 46.5733 15.7887 46.9526 16.2766 47.1571C19.0419 48.3156 21.977 48.903 25.0001 48.903C28.5009 48.903 31.8574 48.1232 34.9766 46.5853C35.3951 46.3789 35.725 46.0494 35.9339 45.6418C42.2764 42.7765 46.3507 36.4887 46.3507 29.5014V23.3019C47.0943 22.9558 47.5934 22.2043 47.5934 21.3497V15.3204H48.6554C49.3968 15.3204 50 14.7172 50 13.9758V10.42C50 9.67842 49.3968 9.07519 48.6554 9.07519ZM1.46484 10.54H8.44062C9.15391 10.54 9.73408 11.1203 9.73408 11.8336V12.5618C9.73408 13.2751 9.15391 13.8554 8.44062 13.8554H1.46484V10.54ZM15.2563 44.0945C15.1849 44.2198 15.1271 44.3509 15.0821 44.4854C12.2835 43.3145 9.88291 41.3963 8.10889 38.9008C6.14971 36.1449 5.11416 32.8946 5.11416 29.5012V23.3916C8.28936 23.842 11.21 25.3745 13.402 27.757C15.7748 30.3359 17.0815 33.6876 17.0815 37.1945C17.0814 39.6169 16.4503 42.0029 15.2563 44.0945ZM36.0556 43.9581C36.0209 43.8589 35.9812 43.7608 35.9313 43.6661C34.8908 41.6849 34.3408 39.4471 34.3408 37.1945C34.3408 30.7483 38.7213 25.2052 44.8858 23.6691V29.5012C44.8859 35.6403 41.4573 41.1911 36.0556 43.9581ZM46.1285 21.3494C46.1285 21.684 45.8904 21.9692 45.5622 22.0276C38.2113 23.338 32.876 29.7166 32.876 37.1945C32.876 39.6833 33.4841 42.1566 34.6346 44.3473C34.6842 44.4416 34.7091 44.5445 34.7102 44.6487C34.5902 44.7807 34.5219 44.9524 34.5191 45.131C34.4648 45.1876 34.4012 45.2354 34.3287 45.2712C31.4128 46.7089 28.274 47.4379 24.9999 47.4379C22.1722 47.4379 19.4275 46.8888 16.8425 45.8058C16.6653 45.7315 16.5332 45.5893 16.4706 45.4052C16.4052 45.2126 16.4263 44.9996 16.5284 44.8207C17.8485 42.5082 18.5462 39.8711 18.5462 37.1944C18.5462 33.319 17.1021 29.6151 14.4798 26.7651C11.8734 23.9323 8.33428 22.1859 4.51455 21.8478C4.14785 21.8152 3.87129 21.5192 3.87129 21.1591V15.32H8.44043C9.96133 15.32 11.1987 14.0826 11.1987 12.5616V11.8334C11.1987 10.3124 9.96133 9.075 8.44043 9.075H3.87148V6.30107C3.87148 5.80566 4.27451 5.40264 4.76992 5.40264H45.2302C45.7255 5.40264 46.1285 5.80566 46.1285 6.30107V9.07519H41.5595C40.0385 9.07519 38.8011 10.3126 38.8011 11.8336V12.5618C38.8011 14.0828 40.0385 15.3202 41.5595 15.3202H46.1285V21.3494ZM48.5352 13.8553H41.5595C40.8462 13.8553 40.2659 13.275 40.2659 12.5617V11.8335C40.2659 11.1202 40.8462 10.5399 41.5595 10.5399H48.5352V13.8553Z" fill="#C75B4A"/>
<path d="M28.7645 12.0426C27.387 12.0131 26.0623 12.4697 25.0011 13.3322C23.9383 12.4684 22.6044 12.012 21.2327 12.0427C18.2283 12.1098 15.7534 14.5108 15.5979 17.509C15.5015 19.3706 16.2731 21.1133 17.7151 22.2903C18.3824 22.835 21.6984 25.1244 23.6158 26.4407C23.989 26.6969 24.4188 26.8252 24.8487 26.8252C25.2684 26.8252 25.6883 26.703 26.0562 26.458L26.2759 26.3118C27.055 25.7933 27.938 25.2057 29.0895 24.4227C29.424 24.1953 29.5107 23.7397 29.2833 23.4052C29.0558 23.0707 28.6001 22.9839 28.2657 23.2115C27.1203 23.9904 26.2406 24.5758 25.4643 25.0923L25.2444 25.2387C25.0003 25.4012 24.6863 25.3991 24.4448 25.2331C21.2616 23.0479 19.092 21.5236 18.6414 21.1556C17.5649 20.2768 16.9887 18.9753 17.0608 17.5849C17.1767 15.3484 19.0236 13.5573 21.2653 13.5073C22.3509 13.4831 23.3945 13.8637 24.2075 14.5792C24.66 14.9775 25.3414 14.9785 25.7923 14.5814C26.6046 13.8654 27.6511 13.4835 28.7331 13.5072C29.9097 13.5325 30.9929 14.0226 31.783 14.8874C32.5993 15.7809 33.0186 17.0041 32.9333 18.2433C32.8564 19.3592 32.4759 20.115 31.6201 20.8522C31.5623 20.902 31.4332 21.0054 31.1463 21.2146C30.8196 21.4531 30.748 21.9113 30.9864 22.2379C31.2249 22.5648 31.6833 22.6362 32.0097 22.3979C32.2755 22.204 32.4609 22.0612 32.5762 21.9618C33.7297 20.9683 34.2907 19.8525 34.3946 18.3439C34.5073 16.7071 33.9495 15.0871 32.8643 13.8993C31.8014 12.7358 30.3454 12.0764 28.7645 12.0426Z" fill="#C75B4A"/>
</svg>
