<svg width="60" height="62" viewBox="0 0 60 62" fill="none" xmlns="http://www.w3.org/2000/svg">
<path d="M39.56 15.6469C39.56 12.7753 37.3043 10.421 34.4717 10.2616C32.2718 4.279 26.5162 0 19.78 0C16.5115 0 13.3803 0.997603 10.7247 2.88507C10.32 3.17258 10.2252 3.73382 10.5127 4.13842C10.8002 4.54303 11.3612 4.63794 11.7661 4.35043C14.1158 2.68037 16.8869 1.7977 19.78 1.7977C27.4165 1.7977 33.6292 8.01043 33.6292 15.6469C33.6292 18.0038 33.0312 20.3135 31.8965 22.3589C31.0799 22.353 30.1823 22.5223 29.2091 22.8671C26.7535 23.7369 23.444 25.4195 20.3183 27.383C16.858 25.2891 13.5881 23.7265 11.3243 22.9246C9.97555 22.4468 8.76055 22.274 7.689 22.4018C6.53811 20.3452 5.93109 18.0231 5.93109 15.6469C5.93109 12.2874 7.14897 9.04746 9.36026 6.52397C9.68732 6.15065 9.65005 5.58269 9.27673 5.25551C8.90316 4.92833 8.33545 4.96572 8.00827 5.33905C6.72951 6.79794 5.74581 8.4692 5.08905 10.2616C2.25611 10.4207 0 12.775 0 15.6469C0 18.5182 2.25515 20.8722 5.08725 21.0321C5.32742 21.6879 5.6111 22.3283 5.93852 22.9485C5.88663 22.9766 5.83401 23.0035 5.78308 23.0337C3.06076 24.6498 2.4046 28.7474 1.8255 32.3627C1.73166 32.9492 1.64298 33.5031 1.54686 34.0412C0.5 39.9106 4.48802 42.8762 4.66 43.0007C4.75264 43.0676 5.10151 43.3188 5.64753 43.7089V48.4732C5.64753 55.5797 11.4293 61.3615 18.5361 61.3615H21.024C24.316 61.3615 27.4495 60.1206 29.8476 57.8676C29.8727 57.844 29.8957 57.819 29.9175 57.7934C30.5893 57.6352 31.2361 57.3159 31.8412 56.8374C34.4919 54.7415 35.9998 49.7524 35.6829 44.127C35.6261 43.1194 35.3516 42.1075 34.9149 41.1075C35.1158 40.9636 35.2245 40.8853 35.2257 40.8842C35.3791 40.773 38.9722 38.1013 38.0308 32.8237C37.9797 32.5382 37.9309 32.2456 37.8824 31.948C37.8027 31.4582 37.3425 31.1249 36.8509 31.2053C36.361 31.285 36.0284 31.7469 36.1082 32.2368C36.1581 32.5435 36.2087 32.845 36.261 33.1394C36.999 37.2766 34.283 39.3453 34.1727 39.4271C34.1723 39.4274 34.1369 39.4529 34.0727 39.4989C32.6643 37.1821 30.7638 35.2089 28.7236 33.441C27.7463 32.5941 26.7336 31.7854 25.7005 31.0076C25.3211 30.722 22.3325 28.2544 22.0183 28.4455C24.8082 26.7488 27.6624 25.322 29.8094 24.5614C31.2699 24.0441 32.3877 24.0159 33.2266 24.4756C34.2223 25.0209 34.9267 26.3106 35.4432 28.5346C35.5397 28.9498 35.9094 29.2303 36.318 29.2303C36.3853 29.2303 36.4537 29.2228 36.5222 29.2069C37.0056 29.0944 37.3067 28.6115 37.1943 28.1279C36.3524 24.5036 35.0195 23.4077 34.0901 22.8989C33.9748 22.8357 33.8557 22.7801 33.735 22.7279C34.0147 22.177 34.26 21.6105 34.4717 21.032C37.3042 20.873 39.56 18.5187 39.56 15.6469ZM1.7977 15.6469C1.7977 13.9627 2.96141 12.5459 4.52685 12.1565C4.26702 13.2933 4.13315 14.4636 4.13315 15.6469C4.13315 16.8291 4.26822 17.999 4.52792 19.1375C2.96189 18.7486 1.7977 17.3315 1.7977 15.6469ZM18.5361 59.5638C12.4205 59.5638 7.44523 54.5885 7.44523 48.473V44.9859C12.6732 48.6817 23.6912 56.3158 27.3007 57.616C25.4644 58.8799 23.2882 59.5638 21.024 59.5638H18.5361ZM14.7873 44.9702C14.7293 44.8056 14.6449 44.629 14.5349 44.4412C15.6572 44.602 16.6206 45.414 16.939 46.5627C17.1759 47.417 16.9981 48.3335 16.4871 49.0445C15.8589 48.6221 15.2303 48.1963 14.6074 47.7717C15.0435 46.9154 15.1192 45.9089 14.7873 44.9702ZM33.8878 44.2282C34.1685 49.2094 32.8979 53.7099 30.726 55.4271C29.9077 56.0742 29.0209 56.2626 28.09 55.9855C26.4959 55.5116 22.3786 52.9618 17.9793 50.0416C18.7748 48.9015 19.0489 47.4449 18.6713 46.0825C18.0296 43.7676 15.7626 42.3014 13.3953 42.6709C12.9334 42.7433 12.5427 43.0596 12.3757 43.4964C12.2087 43.9332 12.2887 44.4294 12.5845 44.7912C12.9656 45.2579 13.0695 45.5044 13.0923 45.5692C13.2289 45.9558 13.2254 46.3655 13.0966 46.7367C10.1321 44.6964 7.42665 42.7795 5.71477 41.5451C5.56052 41.4304 2.47627 39.0677 3.31652 34.3568C3.41527 33.8029 3.50515 33.2413 3.60043 32.6467C4.11709 29.4213 4.70254 25.7655 6.70062 24.5792C6.93696 24.4389 7.19307 24.334 7.46884 24.2626C7.47088 24.2621 7.4728 24.2615 7.47471 24.2609C8.34552 24.0374 9.41719 24.156 10.7238 24.6188C13.7605 25.6946 18.6948 28.2042 23.4047 31.556C23.0789 31.7139 22.7065 31.7731 22.3376 31.7105C22.1098 31.6719 21.8956 31.591 21.7017 31.4706C21.2833 31.2105 20.7607 31.2088 20.3379 31.4666C19.913 31.7256 19.6739 32.1936 19.7137 32.688C19.8979 34.9726 21.6926 36.7882 23.9811 37.0052C24.1286 37.0191 24.2757 37.026 24.422 37.026C25.8459 37.0259 27.1856 36.3724 28.0742 35.283C31.7085 38.5882 33.7452 41.696 33.8878 44.2282ZM26.7197 34.1043C26.1149 34.877 25.1483 35.3103 24.151 35.2156C23.0388 35.1101 22.1149 34.3968 21.7126 33.4125C21.819 33.4408 21.9271 33.4643 22.0369 33.483C23.0845 33.6606 24.1475 33.3547 24.9396 32.686C25.5584 33.1572 26.1535 33.6315 26.7197 34.1043ZM37.7623 15.6469C37.7623 17.3316 36.598 18.7487 35.032 19.1376C35.2919 17.9984 35.4269 16.828 35.4269 15.6469C35.4269 14.4476 35.2909 13.2795 35.034 12.1568C36.599 12.5463 37.7623 13.963 37.7623 15.6469Z" fill="#C75B4A"/>
<path d="M14.4807 17.9935C15.7732 17.9935 16.9236 17.1262 17.2781 15.8841C17.4144 15.4067 17.1379 14.9093 16.6605 14.773C16.1828 14.6368 15.6857 14.9133 15.5494 15.3906C15.4141 15.8646 14.9747 16.1957 14.4807 16.1957C13.9866 16.1957 13.5472 15.8646 13.4119 15.3906C13.2756 14.9133 12.778 14.637 12.3008 14.773C11.8234 14.9093 11.5469 15.4066 11.6832 15.8841C12.0377 17.1261 13.1881 17.9935 14.4807 17.9935Z" fill="#C75B4A"/>
<path d="M25.0783 17.9935C26.3709 17.9935 27.5213 17.1262 27.8758 15.8841C28.012 15.4067 27.7356 14.9093 27.2582 14.773C26.7807 14.6368 26.2834 14.9133 26.1471 15.3906C26.0118 15.8646 25.5723 16.1957 25.0783 16.1957C24.5843 16.1957 24.1448 15.8646 24.0094 15.3904C23.873 14.9132 23.3763 14.637 22.8983 14.773C22.4211 14.9094 22.1446 15.4067 22.2809 15.8841C22.6355 17.1261 23.7859 17.9935 25.0783 17.9935Z" fill="#C75B4A"/>
<path d="M20.6805 21.2677V20.0693C20.6805 19.5727 20.2782 19.1704 19.7817 19.1704C19.2851 19.1704 18.8828 19.5727 18.8828 20.0693V21.2677C18.8828 21.7642 19.2851 22.1666 19.7817 22.1666C20.2782 22.1666 20.6805 21.7642 20.6805 21.2677Z" fill="#C75B4A"/>
<path d="M52.4653 8.34682H49.9271L53.0335 3.84251C53.2232 3.56758 53.2447 3.21008 53.0895 2.91441C52.9341 2.61863 52.6276 2.43335 52.2936 2.43335H48.3226C47.826 2.43335 47.4237 2.83567 47.4237 3.3322C47.4237 3.82872 47.826 4.23105 48.3226 4.23105H50.5818L47.4754 8.73536C47.2856 9.01029 47.2642 9.36779 47.4194 9.66346C47.5747 9.95924 47.8813 10.1445 48.2153 10.1445H52.4653C52.9618 10.1445 53.3641 9.7422 53.3641 9.24567C53.3641 8.74915 52.9617 8.34682 52.4653 8.34682Z" fill="#C75B4A"/>
<path d="M44.4704 8.34712H40.9035L44.997 2.4116C45.1867 2.13667 45.2082 1.77917 45.053 1.48351C44.8976 1.18772 44.5911 1.00244 44.2571 1.00244H39.3251C38.8286 1.00244 38.4263 1.40477 38.4263 1.90129C38.4263 2.39782 38.8286 2.80014 39.3251 2.80014H42.5454L38.4519 8.73566C38.2622 9.01059 38.2408 9.36809 38.396 9.66376C38.5513 9.95954 38.8578 10.1448 39.1919 10.1448H44.4705C44.967 10.1448 45.3694 9.7425 45.3694 9.24597C45.3694 8.74945 44.9669 8.34712 44.4704 8.34712Z" fill="#C75B4A"/>
<path d="M59.0982 8.34719H57.9739L59.7236 5.81028C59.9133 5.53535 59.9347 5.17797 59.7795 4.88219C59.6242 4.58641 59.3177 4.40112 58.9836 4.40112H56.3338C55.8373 4.40112 55.435 4.80345 55.435 5.29997C55.435 5.7965 55.8373 6.19882 56.3338 6.19882H57.2719L55.5222 8.73573C55.3325 9.01066 55.3111 9.36805 55.4663 9.66383C55.6216 9.95961 55.9282 10.1449 56.2622 10.1449H59.0982C59.5947 10.1449 59.9971 9.74257 59.9971 9.24604C59.9971 8.74952 59.5947 8.34719 59.0982 8.34719Z" fill="#C75B4A"/>
<path d="M13.0707 30.59C12.6098 30.6686 12.2234 30.9901 12.0624 31.4289C11.8548 31.9946 11.6955 32.2097 11.6514 32.2621C11.348 32.6244 10.9217 32.847 10.451 32.8887C9.98012 32.9298 9.52146 32.7864 9.15905 32.4829C8.98179 32.3347 8.83786 32.1571 8.73119 31.9551C8.5048 31.5268 8.06581 31.2635 7.58079 31.2635C7.57252 31.2635 7.56401 31.2635 7.55562 31.2637C7.05814 31.2731 6.61542 31.5564 6.40042 32.0034C5.40701 34.069 6.04052 36.542 7.90689 37.8837C8.72748 38.4736 9.68973 38.7618 10.6481 38.7618C11.8959 38.7617 13.1371 38.2731 14.0495 37.3252C15.7155 35.5945 15.8232 32.8957 14.3 31.0472C14.0028 30.6868 13.5315 30.5116 13.0707 30.59ZM12.7546 36.0787C11.7568 37.115 10.1241 37.2637 8.95651 36.4242C8.04951 35.7723 7.61159 34.6902 7.7608 33.6373C7.83846 33.7153 7.91995 33.7902 8.00528 33.8617C9.51355 35.1241 11.7676 34.9241 13.0301 33.4159C13.0301 33.4158 13.0301 33.4158 13.0302 33.4158C13.1421 33.2821 13.2512 33.1196 13.3568 32.9293C13.7897 33.9775 13.5811 35.2199 12.7546 36.0787Z" fill="#C75B4A"/>
<path d="M25.8556 40.0372C23.4582 40.1949 21.5613 42.1177 21.443 44.5099C21.4201 44.9768 21.6502 45.4235 22.0439 45.6759C22.4376 45.928 22.9397 45.9507 23.3544 45.7346C23.8886 45.4563 24.1511 45.4046 24.2189 45.3954H24.2192C24.6871 45.3318 25.1523 45.4543 25.5287 45.7403C25.9049 46.0265 26.1469 46.4419 26.2106 46.9102C26.2417 47.1392 26.2284 47.3674 26.1714 47.5887C26.0482 48.0658 26.2028 48.565 26.5748 48.8913C26.8194 49.1059 27.1256 49.218 27.4369 49.218C27.6015 49.218 27.7678 49.1865 27.927 49.1224C30.0523 48.2644 31.2492 46.0094 30.7728 43.7607C30.2906 41.4852 28.1764 39.8843 25.8556 40.0372ZM29.014 44.1332C29.2456 45.226 28.8406 46.3209 28.0213 46.9986C28.0166 46.8886 28.0067 46.7783 27.9917 46.6679C27.8634 45.7239 27.375 44.8863 26.6167 44.3095C25.9895 43.8324 25.2395 43.5809 24.4647 43.5809C24.3029 43.5809 24.1401 43.5918 23.9771 43.614C23.8042 43.6374 23.6139 43.6841 23.4076 43.7538C23.7932 42.6872 24.7838 41.9092 25.9735 41.8308C27.4091 41.7376 28.7161 42.7264 29.014 44.1332Z" fill="#C75B4A"/>
<path d="M31.4478 27.1745C31.0667 26.8566 30.4998 26.9075 30.1818 27.2889L29.4392 28.1791C29.1212 28.5603 29.1723 29.1271 29.5535 29.445C29.7215 29.5853 29.9257 29.6537 30.1289 29.6537C30.3862 29.6537 30.6417 29.5438 30.8195 29.3307L31.5622 28.4405C31.8801 28.0594 31.829 27.4926 31.4478 27.1745Z" fill="#C75B4A"/>
<path d="M28.9411 51L27.8437 51.3738C27.3738 51.5339 27.1226 52.0446 27.2826 52.5145C27.4099 52.8884 27.7593 53.1238 28.1334 53.1238C28.2295 53.1238 28.3273 53.1082 28.4233 53.0756L29.5207 52.7018C29.9906 52.5417 30.2418 52.031 30.0818 51.5611C29.9219 51.0912 29.4111 50.8403 28.9411 51Z" fill="#C75B4A"/>
<path d="M18.8345 55.4228C18.4534 55.105 17.8866 55.1558 17.5686 55.5371L16.8259 56.4273C16.5079 56.8086 16.559 57.3753 16.9402 57.6933C17.1082 57.8335 17.3125 57.9019 17.5156 57.9019C17.7729 57.9019 18.0284 57.792 18.2063 57.5789L18.949 56.6887C19.2668 56.3076 19.2156 55.7409 18.8345 55.4228Z" fill="#C75B4A"/>
<path d="M18.7368 37.6171C18.3557 37.2993 17.7889 37.3501 17.4709 37.7315L16.7282 38.6217C16.4103 39.0029 16.4613 39.5697 16.8426 39.8876C17.0106 40.0278 17.2148 40.0963 17.4179 40.0963C17.6752 40.0963 17.9308 39.9864 18.1086 39.7733L18.8513 38.8831C19.1693 38.502 19.1181 37.9351 18.7368 37.6171Z" fill="#C75B4A"/>
<path d="M9.49872 28.8363C9.67454 29.0793 9.94911 29.2083 10.2276 29.2083C10.4102 29.2083 10.5946 29.1527 10.7539 29.0376C11.1561 28.7465 11.2461 28.1846 10.9552 27.7824L10.2756 26.8432C9.98446 26.441 9.42238 26.351 9.02041 26.6418C8.61821 26.9329 8.5282 27.4948 8.81907 27.897L9.49872 28.8363Z" fill="#C75B4A"/>
<path d="M32.1837 33.7969L33.2847 34.1603C33.3783 34.1913 33.4733 34.2059 33.5667 34.2059C33.944 34.2059 34.2954 33.9664 34.4202 33.5887C34.5759 33.1172 34.3199 32.6089 33.8484 32.4533L32.7474 32.0898C32.2756 31.9341 31.7676 32.1902 31.6119 32.6615C31.4564 33.1329 31.7124 33.6412 32.1837 33.7969Z" fill="#C75B4A"/>
<path d="M13.3757 51.7501L12.2748 51.3866C11.8035 51.231 11.295 51.487 11.1393 51.9584C10.9836 52.4297 11.2396 52.9381 11.7111 53.0938L12.812 53.4573C12.9055 53.4882 13.0005 53.5028 13.094 53.5028C13.4713 53.5028 13.8227 53.2634 13.9475 52.8856C14.1031 52.4142 13.8471 51.9058 13.3757 51.7501Z" fill="#C75B4A"/>
</svg>
