<svg width="959" height="904" viewBox="0 0 959 904" fill="none" xmlns="http://www.w3.org/2000/svg">
<path d="M518.946 521.302C470.516 529.222 377.696 524.843 377.696 524.843L352.616 510.713C347.166 501.513 346.326 483.272 340.556 482.512C334.786 481.762 327.866 490.152 327.116 492.792C325.826 497.342 336.126 525.522 338.376 529.292C338.376 529.292 322.466 510.063 319.236 497.343C317.956 492.283 304.226 505.423 305.586 510.703C306.946 515.993 315.936 533.793 324.806 543.743C324.806 543.743 304.676 532.822 301.496 531.002C298.316 529.182 296.036 544.753 297.406 548.113C298.766 551.473 327.126 563.772 327.126 563.772C327.126 563.772 302.416 561.462 300.136 561.252C297.856 561.032 299.456 572.403 304.226 573.083C307.956 573.613 324.706 576.043 331.876 577.083C332.156 577.483 332.446 577.892 332.756 578.282C352.816 604.302 374.106 584.502 374.106 584.502L532.756 603.443L518.946 521.302Z" fill="#FFDAAE"/>
<path d="M174.103 386C78.1289 386 0 464.052 0 560.027C0 645.055 61.4797 716.03 141.951 731.126V783.722H96.3309C80.2164 783.722 67.1822 796.807 67.1822 812.896C67.1822 828.985 80.2164 842.07 96.3309 842.07H141.951V874.834C141.951 890.948 155.036 904.008 171.15 904.008C187.265 904.008 200.375 890.897 200.375 874.834V842.07H248.286C264.401 842.07 277.461 828.934 277.461 812.896C277.461 796.73 264.401 783.722 248.286 783.722H200.375V732.068C284.156 719.34 348.105 647.041 348.105 560.027C348.105 464.052 270.078 386 174.103 386ZM174.103 675.68C110.282 675.68 58.3994 623.772 58.3994 559.976C58.3994 496.18 110.282 444.272 174.103 444.272C237.874 444.272 289.782 496.18 289.782 559.976C289.782 623.772 237.9 675.68 174.103 675.68Z" fill="#C75B4A"/>
<path d="M362.667 557.993C355.917 557.843 349.317 556.412 343.197 553.532C340.327 552.182 336.997 550.593 335.167 547.873C333.447 545.323 333.167 541.873 333.297 538.873C333.417 536.193 333.907 532.623 337.117 532.113C339.977 531.663 343.257 533.552 345.887 534.432C352.367 536.612 359.057 537.963 365.897 538.113C367.267 538.143 367.617 536.172 366.197 535.942C361.357 535.192 356.537 534.242 351.847 532.802C348.097 531.652 344.577 529.812 340.807 528.772C333.887 526.852 329.557 531.662 329.257 538.312C328.927 545.672 331.237 551.402 337.707 555.192C341.397 557.352 345.347 558.993 349.447 560.123C349.427 563.483 350.227 567.022 352.417 569.672C354.087 571.692 357.197 574.393 359.997 573.973C360.297 573.933 360.407 573.593 360.257 573.353C358.927 571.303 356.877 570.032 355.677 567.802C354.537 565.682 353.727 563.503 353.687 561.093C356.467 561.613 359.287 561.902 362.127 561.962C364.677 562.032 365.257 558.053 362.667 557.993Z" fill="#F29570"/>
<path d="M359.484 556.317C354.139 556.188 359.347 557.459 354.5 555C352.227 553.847 362.244 559.823 360.795 557.5C359.433 555.322 362.177 553.062 362.28 550.5C362.375 548.211 363.958 538.436 366.5 538C368.765 537.616 344.113 535.446 346.195 536.197C351.327 538.059 356.625 539.212 362.042 539.34C363.127 539.366 363.404 537.683 362.28 537.487C358.447 536.846 354.63 536.035 350.915 534.805C347.946 533.823 345.158 532.252 342.172 531.364C336.692 529.724 333.238 532.821 333.001 538.5C332.739 544.785 334.593 550.689 339.717 553.925C342.639 555.77 345.768 557.171 349.015 558.135C348.999 561.005 347.766 555.872 349.501 558.135C350.823 559.86 347.783 558.494 350.001 558.135C350.238 558.101 347.07 557.5 352.501 558.673C353.501 558.673 353.451 560.904 352.501 559C351.598 557.19 353.98 561.058 353.949 559C356.15 559.444 356.808 559.655 359.057 559.707C361.076 559.766 361.535 556.368 359.484 556.317Z" fill="#FFDAAE"/>
<path d="M566.835 637.062C566.835 637.062 541.465 685.842 544.535 715.532C547.605 745.222 623.805 747.503 639.815 740.963C655.825 734.423 678.405 715.022 678.405 715.022L566.835 637.062Z" fill="#FFDAAE"/>
<path d="M562.157 618.122C562.157 618.122 550.767 630.582 565.907 661.882C581.047 693.182 632.527 735.052 722.977 728.662C813.417 722.272 861.497 685.672 868.317 613.342C874.017 552.912 835.907 488.812 772.557 496.892C772.557 496.892 750.297 483.082 732.977 497.342L562.157 618.122Z" fill="#EFF5F9"/>
<path d="M795.874 526.423C794.034 522.983 791.864 519.752 789.374 516.752C788.144 515.272 786.824 513.873 785.434 512.553C784.734 511.883 784.024 511.233 783.284 510.613C782.914 510.303 782.474 509.893 782.034 509.673C781.654 509.493 781.184 509.513 780.774 509.483C780.654 509.473 780.574 509.603 780.604 509.703C780.684 510.063 780.724 510.483 780.904 510.803C781.074 511.103 781.394 511.373 781.634 511.633C782.234 512.283 782.884 512.903 783.484 513.553C784.644 514.813 785.734 516.123 786.784 517.473C788.804 520.073 790.604 522.853 792.194 525.743C795.434 531.643 797.634 538.053 798.904 544.653C801.544 558.333 799.394 572.753 793.854 585.473C792.234 589.193 790.344 592.783 788.194 596.223C787.144 597.913 786.024 599.553 784.854 601.163C783.654 602.813 782.174 604.353 781.244 606.163C780.964 606.713 781.014 607.383 781.464 607.833C781.864 608.233 782.654 608.413 783.134 608.053C783.534 607.743 783.994 607.453 784.344 607.093C784.674 606.753 784.954 606.353 785.244 605.983C785.874 605.193 786.494 604.393 787.094 603.583C788.184 602.123 789.234 600.623 790.234 599.083C792.274 595.953 794.114 592.693 795.734 589.323C798.954 582.623 801.314 575.513 802.504 568.163C804.824 553.923 802.704 539.193 795.874 526.423Z" fill="#A1C9DB"/>
<path d="M682.884 669.473C679.544 670.103 676.254 671.003 672.924 671.693C669.594 672.373 666.244 672.973 662.884 673.463C656.264 674.443 649.564 674.993 642.884 675.213C629.424 675.663 615.934 674.633 602.684 672.233C595.184 670.873 587.734 669.063 580.374 667.113C579.124 666.783 578.684 668.573 579.854 669.013C592.694 673.913 606.364 676.563 620.024 677.823C633.664 679.083 647.434 678.833 661.014 677.073C664.884 676.573 668.734 675.983 672.574 675.253C676.324 674.543 680.154 673.843 683.774 672.633C685.764 671.953 684.944 669.083 682.884 669.473Z" fill="#A1C9DB"/>
<path d="M794.425 694.113C793.625 693.803 792.825 693.512 792.025 693.192C791.835 693.112 791.645 693.043 791.455 692.963C791.455 692.963 791.455 692.963 791.445 692.963C791.335 692.913 791.215 692.862 791.105 692.812C790.695 692.632 790.295 692.452 789.895 692.252C788.355 691.512 786.865 690.682 785.425 689.772C784.675 689.292 783.945 688.802 783.225 688.282C782.965 688.092 782.485 687.732 782.365 687.642C782.215 687.532 781.725 687.132 781.445 686.902C780.085 685.802 778.795 684.632 777.565 683.392C772.825 678.592 769.035 672.832 766.755 666.392C765.455 662.722 764.525 658.843 764.135 654.963C764.055 654.163 762.915 654.143 762.875 654.963C762.525 662.283 764.385 669.513 767.785 675.993C771.175 682.463 776.045 688.072 781.995 692.302C781.865 692.272 781.735 692.243 781.595 692.213C779.315 691.633 777.085 690.863 774.945 689.873C770.635 687.893 766.625 685.352 763.165 682.082C762.165 681.142 761.195 680.182 760.285 679.162C759.385 678.152 758.545 677.073 757.605 676.103C757.265 675.743 756.525 676.113 756.725 676.613C757.655 678.903 759.265 680.983 760.855 682.853C762.485 684.763 764.355 686.512 766.335 688.052C770.395 691.232 774.945 693.632 779.885 695.132C782.645 695.972 785.615 696.643 788.505 696.723C788.775 696.733 789.035 696.652 789.275 696.532C790.605 697.132 791.965 697.652 793.345 698.052C794.405 698.362 795.575 697.673 795.865 696.623C796.175 695.483 795.465 694.513 794.425 694.113Z" fill="#A1C9DB"/>
<path d="M871.863 602.373C871.783 601.123 871.703 599.873 871.603 598.613C871.413 596.103 871.173 593.603 870.883 591.113C870.293 585.993 869.533 580.893 868.513 575.843C866.513 565.923 863.593 556.143 859.433 546.913C855.603 538.413 850.613 530.503 844.523 523.453C838.753 516.763 831.993 510.923 824.413 506.353C816.923 501.843 808.683 498.702 799.963 497.502C798.843 497.352 797.753 497.243 796.623 497.223C795.413 497.203 795.163 499.023 796.333 499.333C798.373 499.863 800.443 500.303 802.483 500.873C804.553 501.453 806.583 502.153 808.593 502.923C812.423 504.373 816.173 506.173 819.763 508.303C821.593 509.383 823.383 510.513 825.133 511.733C827.013 513.043 828.383 514.083 830.053 515.463C833.363 518.193 836.503 521.102 839.403 524.252C840.853 525.832 842.253 527.462 843.593 529.142C843.753 529.342 843.913 529.543 844.063 529.743C844.143 529.843 844.223 529.943 844.303 530.043C844.313 530.053 844.313 530.063 844.323 530.073C844.673 530.533 845.023 531.003 845.373 531.463C845.993 532.313 846.603 533.163 847.203 534.033C849.833 537.863 852.153 541.913 854.253 546.053C858.643 554.743 861.843 563.993 864.073 573.563C866.293 583.123 867.523 592.842 868.203 602.632C868.253 603.322 868.333 604.033 868.483 604.713C868.623 605.323 868.963 605.893 869.243 606.453C869.703 607.393 870.963 607.003 871.273 606.183C871.513 605.543 871.753 604.952 871.813 604.262C871.893 603.622 871.893 603.003 871.863 602.373Z" fill="#A1C9DB"/>
<path d="M494.016 507.302C494.016 507.302 498.216 572.202 530.746 615.802C563.276 659.392 588.126 665.883 635.076 665.203C682.026 664.523 748.406 654.932 780.046 586.272C798.706 545.792 773.156 511.012 752.276 507.162C740.736 505.042 752.306 443.343 684.756 432.813C617.206 422.283 499.796 458.582 494.016 507.302Z" fill="#FFDAAE"/>
<path d="M551.115 549.672C546.635 548.492 542.235 547.892 537.915 546.032C533.715 544.222 529.795 541.832 526.025 539.272C523.895 537.832 521.615 540.992 523.335 542.752C526.895 546.392 531.145 549.242 535.805 551.292C540.285 553.272 545.405 555.172 550.355 555.212C553.535 555.252 554.215 550.492 551.115 549.672Z" fill="#F29570"/>
<path d="M627.936 542.723C621.066 544.803 614.426 547.372 607.436 549.072C600.316 550.812 593.126 551.572 585.826 551.962C582.166 552.162 582.106 557.692 585.826 557.692C593.426 557.692 601.076 556.482 608.416 554.562C615.566 552.682 623.096 549.862 629.086 545.452C630.366 544.512 629.686 542.193 627.936 542.723Z" fill="#F29570"/>
<path d="M932.964 704.782C929.894 701.712 933.474 697.623 927.844 689.683C913.664 669.693 900.204 684.823 900.204 684.823C894.644 682.973 889.094 682.473 884.044 682.673C877.294 648.842 862.534 609.012 845.004 599.542C816.934 584.382 776.794 625.602 776.684 655.412C776.504 702.262 807.574 738.553 825.924 744.943C836.714 748.703 853.064 750.073 866.264 746.193C870.204 745.033 873.874 743.403 877.024 741.233C887.904 736.373 904.034 729.653 910.714 729.313C921.224 728.773 952.914 737.533 957.524 729.313C962.134 721.093 936.034 707.852 932.964 704.782Z" fill="#FFDAAE"/>
<path d="M885.693 689.193C885.523 688.213 883.913 688.443 883.963 689.423C884.693 703.813 883.243 717.772 878.843 731.522C878.143 733.712 881.593 734.653 882.283 732.473C886.713 718.653 888.123 703.543 885.693 689.193Z" fill="#F29570"/>
<path d="M682.716 524.843C637.336 521.633 645.286 570.263 645.866 592.193C646.546 617.783 656.106 696.983 656.446 705.123C656.606 709.013 655.756 715.873 654.826 721.983C654.826 721.983 645.156 730.653 641.416 732.723C637.676 734.793 628.636 733.992 629.576 737.802C630.516 741.612 636.366 745.332 642.166 746.422C641.506 747.132 640.866 747.813 640.266 748.443C635.356 753.563 649.966 762.043 654.726 757.562C659.486 753.082 669.736 744.012 669.736 744.012C669.736 744.012 663.936 758.343 663.596 764.213C663.256 770.083 680.656 766.862 681.956 764.172C683.256 761.472 686.456 746.052 686.456 746.052C686.456 746.052 688.846 755.262 689.216 760.752C689.586 766.242 703.176 766.522 703.176 762.012C703.176 757.502 701.816 747.083 701.816 747.083C701.816 747.083 704.206 754.593 709.046 759.193C713.886 763.793 721.096 760.053 720.576 757.573C719.586 752.753 714.436 749.992 714.096 743.502C713.756 737.022 711.706 724.223 711.196 717.743C709.956 701.973 725.576 613.332 727.046 588.782C728.516 564.232 724.456 527.793 682.716 524.843Z" fill="#FFDAAE"/>
<path d="M657.498 724.873C657.438 724.713 657.268 724.613 657.108 724.713C656.208 725.263 656.178 725.432 656.008 726.552C655.598 729.282 655.638 731.113 653.778 733.453C651.268 736.613 648.388 739.472 645.398 742.172C644.298 743.162 645.918 744.762 647.018 743.792C650.228 740.952 653.228 737.832 655.818 734.412C656.888 733.002 657.608 731.753 657.758 729.953C657.888 728.453 658.028 726.283 657.498 724.873Z" fill="#F29570"/>
<path d="M726.425 596.593C724.445 604.523 723.545 612.812 722.295 620.882C721.045 629.012 719.885 637.162 718.725 645.302C717.595 653.192 716.485 661.093 715.425 668.993C714.905 672.883 714.385 676.782 713.875 680.672C713.315 684.892 712.585 689.213 713.025 693.473C713.085 694.033 713.795 694.133 713.995 693.603C715.355 690.013 715.795 686.133 716.305 682.343C716.885 678.013 717.465 673.683 718.065 669.353C719.175 661.193 720.285 653.042 721.415 644.882C722.545 636.722 723.745 628.582 724.865 620.422C725.945 612.592 727.456 604.682 727.906 596.782C727.946 595.942 726.635 595.773 726.425 596.593Z" fill="#F29570"/>
<path d="M656.127 695.042C655.957 694.312 654.787 694.462 654.817 695.222C655.037 700.502 655.297 705.792 655.057 711.082C654.937 713.682 654.717 716.272 654.417 718.862C654.347 719.442 654.427 720.052 654.227 720.612C654.027 721.182 653.507 721.572 653.067 721.962C652.087 722.822 651.117 723.672 650.137 724.532C648.147 726.282 646.167 728.022 644.177 729.772C642.427 731.312 640.747 732.762 638.387 733.222C636.087 733.682 633.687 733.442 631.407 734.072C630.387 734.352 629.347 734.872 628.767 735.792C628.167 736.762 628.227 737.922 628.677 738.932C629.187 740.092 630.117 740.992 631.067 741.792C632.047 742.602 633.077 743.352 634.167 744.002C636.277 745.262 638.757 746.402 641.207 746.752C642.567 746.942 643.197 745.042 641.797 744.632C639.717 744.022 637.707 743.452 635.797 742.392C634.847 741.862 633.927 741.272 633.067 740.592C632.277 739.972 631.417 739.292 630.877 738.432C630.357 737.582 630.387 736.812 631.327 736.332C632.227 735.862 633.347 735.732 634.337 735.612C636.587 735.352 638.887 735.372 641.007 734.442C643.107 733.522 644.797 731.812 646.497 730.322C648.417 728.642 650.327 726.952 652.247 725.272C653.167 724.472 654.117 723.692 654.997 722.842C655.867 722.002 656.287 720.982 656.597 719.832C656.917 718.642 656.957 717.312 657.077 716.082C657.207 714.782 657.297 713.492 657.367 712.192C657.677 706.472 657.427 700.642 656.127 695.042Z" fill="#F29570"/>
<path d="M652.617 646.343C652.537 645.123 652.457 643.903 652.367 642.683C652.197 640.293 652.027 637.902 651.857 635.502C651.497 630.622 651.117 625.753 650.707 620.873C649.897 611.213 648.867 601.563 647.747 591.943C647.427 589.233 647.107 586.512 646.777 583.802C646.617 582.452 646.427 581.102 646.237 579.762C646.137 579.062 646.047 578.372 645.947 577.672C645.847 576.972 645.707 576.583 645.197 576.073C644.997 575.873 644.687 575.932 644.537 576.152C644.257 576.602 644.107 576.953 644.127 577.483C644.157 578.133 644.237 578.793 644.287 579.443C644.387 580.663 644.467 581.873 644.577 583.093C644.787 585.483 645.007 587.863 645.207 590.243C645.627 595.113 645.997 599.973 646.407 604.843C647.217 614.493 647.967 624.142 648.667 633.802C648.867 636.522 649.047 639.243 649.237 641.963C649.327 643.323 649.417 644.682 649.507 646.042C649.597 647.492 649.627 648.943 649.907 650.373C650.047 651.073 650.837 651.512 651.497 651.412C652.237 651.302 652.697 650.733 652.757 649.993C652.847 648.783 652.697 647.563 652.617 646.343Z" fill="#F29570"/>
<path d="M656.105 169.132C656.105 169.132 648.575 159.142 647.575 150.372C646.575 141.602 626.085 126.492 613.455 130.242C600.835 133.992 585.816 129.563 591.276 112.843C596.736 96.1225 612.455 88.5725 620.415 98.2125C625.735 104.653 619.935 67.8025 596.055 75.3125C572.175 82.8225 575.926 105.333 574.906 107.383C573.886 109.433 569.726 107.323 568.396 100.013C567.066 92.7025 562.965 84.4825 550.345 86.2125C537.725 87.9325 527.946 94.5825 530.896 102.602C533.846 110.622 510.345 87.9525 521.985 74.2925C533.625 60.6325 553.075 56.6825 561.945 61.2125C570.815 65.7425 561.035 50.1725 540.735 45.8525C520.665 41.5825 506.055 47.3725 498.195 59.2725C491.435 69.5125 489.275 83.4925 497.465 92.7125C497.465 92.7125 467.335 80.8525 463.715 56.2025C460.095 31.5425 479.725 19.7025 492.685 20.3825C505.645 21.0625 511.106 25.8425 515.886 26.8625C520.666 27.8825 517.595 8.78251 507.355 1.95251C497.115 -4.87749 469.145 6.99252 456.415 25.4025C443.685 43.8125 427.315 83.0325 455.035 102.982C455.035 102.982 421.035 88.6825 417.965 105.362C414.895 122.042 437.415 134.702 444.575 132.122C444.575 132.122 428.345 137.362 420.355 128.862C414.895 123.062 428.125 156.572 456.175 142.852L656.105 169.132Z" fill="#6D4F3A"/>
<path d="M340.577 263.983C341.007 208.713 390.007 129.883 508.447 127.513C628.017 125.123 749.757 196.603 740.707 300.312C734.277 374.012 694.317 395.672 694.317 395.672C694.317 395.672 713.407 416.472 682.717 450.262C652.027 484.052 567.857 531.732 471.187 528.052C399.017 525.302 335.437 471.173 340.577 418.873C343.587 388.163 369.197 381.543 360.147 354.493C351.097 327.443 340.277 301.893 340.577 263.983Z" fill="#FFDAAE"/>
<path d="M691.246 335.713C700.456 295.373 778.236 292.432 783.906 340.382C790.066 392.492 729.336 412.732 694.316 395.672L691.246 335.713Z" fill="#FFDAAE"/>
<path d="M420.087 233.882C416.187 229.742 409.377 227.862 403.887 227.412C398.537 226.962 392.737 228.292 388.327 231.412C380.867 236.692 372.677 247.932 375.457 257.572C375.657 258.282 376.237 258.612 376.927 258.692C377.037 258.712 377.137 258.702 377.247 258.672C378.607 258.122 378.477 256.812 378.867 255.562C379.507 253.482 380.627 251.522 381.827 249.712C384.217 246.132 387.267 242.593 390.897 240.223C394.377 237.953 398.457 236.743 402.627 237.213C407.397 237.763 410.937 240.492 415.277 242.132C420.157 243.972 423.227 237.202 420.087 233.882Z" fill="#6D4F3A"/>
<path d="M582.277 224.752C576.957 212.072 564.567 203.932 550.987 202.532C536.457 201.042 523.107 212.252 515.247 223.502C511.397 229.002 519.907 235.353 524.457 230.613C528.607 226.293 531.917 221.323 536.707 217.603C540.637 214.543 545.547 212.162 550.557 211.752C562.437 210.772 572.557 217.462 580.137 226.012C580.947 226.902 582.777 225.942 582.277 224.752Z" fill="#6D4F3A"/>
<path d="M481.464 109.552C481.464 109.552 445.984 127.402 454.434 146.852C462.894 166.302 506.094 185.352 533.144 146.852C533.144 146.852 512.604 160.482 499.404 159.642C486.194 158.792 473.504 146.002 473.814 139.352C474.124 132.702 503.154 125.703 503.154 125.703L481.464 109.552Z" fill="#6D4F3A"/>
<path d="M534.414 286.042C535.094 276.492 542.474 260.453 547.884 258.693C553.294 256.933 578.774 254.883 588.554 270.573C598.334 286.263 602.914 301.612 593.344 314.412C583.774 327.212 553.664 327.233 547.884 324.313C542.104 321.383 534.414 286.042 534.414 286.042Z" fill="white"/>
<path d="M430.687 296.412C426.377 287.862 413.647 277.022 404.397 277.022C398.147 277.022 385.257 285.922 382.277 304.172C379.297 322.422 385.667 334.723 394.767 340.873C406.627 348.893 420.187 344.113 425.017 340.873C430.387 337.263 430.687 296.412 430.687 296.412Z" fill="white"/>
<path d="M394.054 306.262C398.344 296.702 409.954 282.322 423.984 288.542C436.604 294.142 439.334 315.792 434.844 329.592C430.254 343.692 414.074 349.952 401.634 339.892C390.144 330.602 390.284 314.672 394.054 306.262Z" fill="#230D03"/>
<path d="M533.175 286.742C537.465 277.182 549.075 262.802 563.105 269.022C575.725 274.622 578.455 296.272 573.965 310.072C569.375 324.172 553.195 330.433 540.755 320.373C529.265 311.073 529.415 295.152 533.175 286.742Z" fill="#230D03"/>
<path d="M429.677 286.142C424.737 280.862 417.897 276.633 411.057 274.353C404.427 272.133 397.597 272.373 392.367 277.423C388.117 281.523 385.317 287.163 383.067 292.553C381.107 297.243 378.027 304.513 380.647 309.443C380.797 309.723 381.117 309.892 381.427 309.892C381.537 309.902 381.637 309.913 381.747 309.923C381.867 309.943 381.977 309.893 382.017 309.773C382.657 307.853 382.477 305.613 383.127 303.563C384.117 300.463 385.657 297.503 387.207 294.653C388.537 292.213 390.037 289.913 391.577 287.603C393.557 284.643 395.917 281.263 399.337 279.853C406.227 277.013 415.127 282.523 420.447 286.443C423.427 288.633 426.437 291.163 428.897 293.933C431.737 297.133 432.907 301.513 434.707 305.313C435.017 305.973 435.877 305.672 436.087 305.132C438.837 298.412 434.187 290.962 429.677 286.142Z" fill="#230D03"/>
<path d="M592.995 272.272C589.175 264.782 582.775 260.162 575.065 257.292C567.635 254.522 558.825 252.622 550.975 254.612C534.155 258.862 532.975 280.222 531.065 294.112C530.935 295.042 532.115 295.712 532.675 294.792C536.235 288.952 537.285 282.362 539.575 276.002C541.735 270.012 545.555 263.373 552.205 261.743C558.715 260.143 566.245 262.092 572.385 264.312C575.345 265.382 578.095 266.782 580.705 268.542C583.825 270.652 585.635 273.253 588.015 276.123C590.415 279.023 594.555 275.332 592.995 272.272Z" fill="#230D03"/>
<path d="M502.887 353.063C492.227 344.803 477.997 338.903 464.337 341.493C452.047 343.823 447.667 355.683 445.817 366.613C445.557 368.173 447.867 369.523 448.627 367.803C452.227 359.613 456.167 350.113 466.257 349.153C477.657 348.073 488.737 353.153 497.667 359.813C501.547 362.703 506.747 356.053 502.887 353.063Z" fill="#F29570"/>
<path d="M629.376 417.682C624.776 437.512 613.186 456.002 592.806 470.602C577.426 481.602 557.046 490.392 530.896 495.882C519.726 498.222 508.916 498.942 498.576 498.422C457.216 496.352 423.446 474.342 404.646 456.072C374.636 426.902 372.476 381.532 412.596 379.772C439.496 378.592 451.406 419.562 483.476 414.102C515.546 408.642 520.326 359.283 565.356 350.873C610.386 342.453 636.006 389.052 629.376 417.682Z" fill="#5C0000"/>
<path d="M592.804 470.603C577.424 481.603 557.044 490.392 530.894 495.882C519.724 498.222 508.914 498.942 498.574 498.422C489.524 494.832 484.784 489.612 490.054 477.152C502.584 447.542 567.424 423.892 587.194 438.332C599.844 447.572 597.774 460.383 592.804 470.603Z" fill="#F99582"/>
<path d="M766.604 342.323C765.994 338.513 765.194 334.732 764.304 331.002C762.844 324.872 760.484 322.062 755.464 320.182C744.544 316.082 732.814 318.913 722.564 324.323C717.264 327.123 712.254 330.643 707.354 334.373C702.914 337.753 699.284 340.372 701.014 347.432C704.174 360.302 708.874 373.063 716.294 383.103C720.134 388.293 724.674 392.283 730.644 390.963C736.464 389.673 741.334 383.993 744.424 378.073C746.274 374.543 742.194 371.013 739.824 373.723C736.314 377.723 732.034 385.563 726.284 383.073C721.654 381.073 717.904 373.533 715.464 368.623C712.714 363.113 710.604 357.192 708.754 351.152C708.234 349.452 707.734 347.752 707.264 346.032C706.864 344.562 706.684 344.402 707.054 343.532C707.544 342.412 710.024 341.112 710.904 340.402C712.034 339.502 713.174 338.613 714.314 337.743C715.814 336.603 717.334 335.502 718.884 334.432C729.414 342.422 739.434 351.272 745.054 365.302C745.684 366.882 747.694 365.763 747.334 364.123C744.124 349.623 734.394 339.403 724.744 330.733C731.364 326.963 738.384 324.402 745.794 324.502C748.634 324.542 751.444 324.982 754.184 325.922C755.634 326.422 757.614 326.943 758.694 328.333C759.454 329.303 759.824 331.192 760.174 332.402C761.164 335.822 761.984 339.312 762.784 342.812C763.504 345.972 763.864 349.422 765.734 351.892C766.104 352.392 766.674 352.072 766.854 351.532C767.814 348.562 767.094 345.353 766.604 342.323Z" fill="#F29570"/>
<path d="M401.636 311.802C397.856 306.282 407.226 292.012 412.596 294.142C417.966 296.272 420.536 305.273 417.436 309.983C414.326 314.703 404.636 316.182 401.636 311.802Z" fill="white"/>
<path d="M539.754 285.292C540.404 278.672 549.034 271.162 553.434 274.502C557.834 277.852 556.234 290.353 552.034 292.863C547.834 295.373 538.954 293.422 539.754 285.292Z" fill="white"/>
<path d="M734.495 302.203C729.845 301.353 724.035 303.163 719.665 304.713C714.845 306.423 710.285 308.923 706.185 311.973C702.275 314.883 698.825 318.252 695.875 322.152C694.265 324.282 692.865 326.532 691.685 328.922C690.965 330.382 689.665 332.372 690.655 333.912C691.175 334.712 692.245 334.492 692.565 333.662C694.005 329.932 697.365 326.162 700.035 323.262C703.045 319.992 706.445 317.083 710.185 314.693C713.805 312.383 717.685 310.573 721.765 309.223C723.765 308.563 725.795 308.022 727.855 307.632C730.035 307.212 732.365 307.282 734.485 306.642C736.515 306.022 736.845 302.633 734.495 302.203Z" fill="#F29570"/>
<path d="M696.246 394.412C695.146 393.272 692.886 394.442 693.476 396.022C695.416 401.302 696.815 406.242 696.665 411.932C696.515 417.382 694.945 422.733 692.565 427.613C687.645 437.683 679.846 446.323 671.906 454.123C656.256 469.483 637.755 482.173 618.315 492.233C608.605 497.263 594.695 504.332 574.925 510.542C569.085 512.372 563.166 513.962 557.246 515.522C545.406 518.642 533.366 520.822 521.276 522.752C497.896 526.492 474.396 526.892 450.986 523.272C449.606 523.062 448.226 522.822 446.856 522.572C446.686 522.282 446.375 522.052 445.935 522.012C444.025 521.832 442.116 521.573 440.226 521.243C436.616 520.453 433.036 519.563 429.466 518.603C418.556 515.183 408.166 509.762 398.516 503.962C384.726 495.662 371.525 485.562 361.045 473.272C350.685 461.122 343.286 445.912 342.366 429.812C341.406 413.022 348.215 396.963 356.945 382.983C359.335 379.153 362.096 375.522 363.846 371.342C365.716 366.892 365.035 362.372 363.785 357.842C362.395 352.812 360.526 347.882 358.846 342.942C357.246 338.222 355.706 333.383 353.576 328.863C353.106 327.873 351.326 328.322 351.456 329.442C352.546 338.792 355.246 348.233 357.516 357.363C358.646 361.913 359.865 366.572 357.815 371.082C356.075 374.902 353.405 378.373 351.295 381.993C342.925 396.423 336.116 412.332 336.726 429.342C337.316 445.642 344.446 461.173 354.386 473.873C364.796 487.163 378.286 496.793 392.506 505.623C404.286 512.933 416.805 520.112 430.315 523.012C446.205 528.722 463.546 530.762 480.266 531.042C492.306 531.242 504.336 530.363 516.266 528.743C528.606 527.063 540.556 524.142 552.626 521.132C559.436 519.432 566.215 517.572 572.945 515.592C579.505 513.672 605.095 504.852 617.165 497.772C627.475 491.722 638.326 486.642 648.366 480.142C658.136 473.822 667.245 466.592 675.565 458.452C683.935 450.272 692.265 441.062 697.425 430.462C702.605 419.822 705.346 403.882 696.246 394.412Z" fill="#F29570"/>
<path d="M517.177 588.023C516.777 587.143 516.377 586.253 515.987 585.363C515.267 583.723 514.577 582.083 513.907 580.423C512.507 576.983 511.157 573.533 509.907 570.043C507.427 563.143 505.327 556.133 503.387 549.063C502.297 545.073 501.347 541.033 500.107 537.093C499.907 536.463 498.867 536.542 498.907 537.252C499.107 541.002 499.737 544.683 500.457 548.363C501.177 552.043 502.077 555.693 503.057 559.313C504.997 566.453 507.297 573.522 510.067 580.382C510.887 582.402 511.727 584.423 512.607 586.423C513.027 587.393 513.457 588.363 513.897 589.323C514.117 589.803 514.327 590.292 514.557 590.762C514.847 591.372 515.237 591.723 515.777 592.123C516.757 592.863 517.977 591.843 518.037 590.823C518.097 589.793 517.597 588.963 517.177 588.023Z" fill="#F29570"/>
</svg>
