<svg width="867" height="768" viewBox="0 0 867 768" fill="none" xmlns="http://www.w3.org/2000/svg">
<path d="M420.584 331.53C420.584 331.53 326.744 420.59 317.464 441.81C308.184 463.03 332.494 520.55 375.404 509C388.764 505.4 445.484 399.96 459.524 361.77C459.524 361.77 480.984 343.21 485.344 338.85C489.704 334.49 502.214 332.11 505.314 328.62C508.414 325.13 506.044 320.28 502.354 320.09C498.674 319.9 483.774 326.68 482.724 327.07C481.674 327.46 480.034 325.69 481.394 323.12C482.754 320.55 500.154 314.37 502.864 311.07C505.574 307.77 503.054 300.07 497.624 301.62C492.194 303.17 477.614 310.37 473.844 312.38C472.754 312.96 472.264 312.21 473.044 310.85C473.824 309.49 495.294 296.96 496.824 294.05C498.444 290.96 494.255 281.86 487.665 284.38C481.075 286.9 465.684 299.16 464.324 299.94C462.964 300.72 474.094 281.88 475.254 278.59C476.414 275.29 466.884 269.97 463.214 275.15C459.544 280.33 452.864 294.15 450.704 296.61C448.544 299.06 440.354 304.38 438.604 304.77C438.604 304.77 436.664 288.09 433.564 286.93C430.464 285.77 423.864 288.09 422.904 291.78C421.944 295.47 424.304 304.81 422.264 309.16C420.224 313.51 417.524 318.15 420.584 331.53Z" fill="#FFDAAE"/>
<path d="M446.625 319.69C446.045 317.53 444.785 315.51 443.205 313.95C442.005 312.76 440.235 311.12 438.455 311.47C438.115 311.54 438.005 311.95 438.145 312.23C438.785 313.47 440.235 313.99 441.185 315.01C442.535 316.44 443.465 318.19 443.905 320.1C444.885 324.32 443.065 327.28 440.785 330.59C439.995 331.74 441.595 333.42 442.755 332.56C446.515 329.76 447.815 324.08 446.625 319.69Z" fill="#F29570"/>
<path d="M469.076 340.42C467.336 337.82 464.316 335.82 462.166 333.51C459.746 330.91 457.595 328.09 455.555 325.2C453.555 322.37 451.715 319.44 449.945 316.47C448.285 313.67 446.855 310.66 444.795 308.12C444.205 307.39 442.995 308.18 443.255 309.02C444.285 312.38 446.216 315.52 447.896 318.59C449.616 321.74 451.416 324.84 453.416 327.82C454.366 329.24 455.375 330.64 456.435 331.99C451.075 332.12 445.845 334.05 441.815 337.66C441.385 338.05 441.936 338.65 442.406 338.42C447.686 335.91 453.195 334.7 459.005 335.07C459.255 335.35 459.495 335.64 459.745 335.92C461.855 338.24 464.525 341.33 467.555 342.38C468.655 342.75 469.716 341.37 469.076 340.42Z" fill="#F29570"/>
<path d="M452.976 357.23C449.796 356.09 446.675 355.28 443.705 353.57C440.765 351.88 438.326 349.61 435.736 347.45C435.106 346.92 434.096 347.58 434.546 348.37C437.956 354.26 445.826 359.32 452.586 360.09C454.316 360.28 454.416 357.75 452.976 357.23Z" fill="#F29570"/>
<path d="M425.012 644.81C425.012 644.81 487.492 672.05 498.012 677.04C498.012 677.04 518.542 661.65 523.762 654.56C528.982 647.47 531.162 628.42 537.692 631.97C544.222 635.51 550.752 664.53 549.012 677.04C547.272 689.55 534.293 707.23 534.653 717.02C535.013 726.82 530.922 749.86 511.462 749.86C499.392 749.86 490.692 744.82 490.692 744.82L380.562 749.86L425.012 644.81Z" fill="#FFDAAE"/>
<path d="M293.181 556.66C243.751 556.83 141.891 572.4 142.981 604.88C143.421 618.13 151.211 625.35 159.441 633.76C159.441 633.76 143.651 651.38 139.291 685.28C134.941 719.17 147.501 739.71 165.411 753.17C177.031 761.9 367.761 760.42 389.051 751.99C400.751 747.35 440.241 733.1 441.701 704.31C442.301 692.5 431.252 629.31 422.912 620.91C422.912 620.91 436.121 602.04 431.461 591.79C426.801 581.54 393.731 556.31 293.181 556.66Z" fill="#EFF5F9"/>
<path d="M343.159 640.06C345.539 638.99 348.089 638.67 350.659 638.25C353.319 637.82 355.959 637.35 358.619 636.93C364.249 636.05 369.849 634.94 375.399 633.67C386.369 631.17 397.099 627.79 407.539 623.67C409.399 622.94 410.189 625.82 408.399 626.57C397.899 630.95 387.069 634.53 375.999 637.28C370.619 638.62 365.169 639.69 359.699 640.58C354.609 641.4 348.409 642.65 343.339 641.36C342.789 641.21 342.569 640.33 343.159 640.06Z" fill="#A1C9DB"/>
<path d="M190.442 634.3C192.342 633.63 194.432 634.33 196.352 634.7C198.482 635.11 200.602 635.55 202.722 635.97C207.122 636.82 211.532 637.65 215.952 638.42C224.582 639.91 233.282 641.15 241.992 642.12C250.612 643.07 259.262 643.82 267.922 644.28C276.892 644.75 285.882 644.75 294.852 645.19C295.962 645.24 295.952 646.73 294.872 646.85C277.192 648.89 258.802 647.97 241.122 646.31C232.292 645.48 223.512 644.33 214.772 642.84C210.502 642.12 206.252 641.32 202.022 640.39C199.912 639.93 197.802 639.46 195.702 638.94C193.682 638.43 191.332 638.13 189.862 636.6C189.112 635.81 189.432 634.65 190.442 634.3Z" fill="#A1C9DB"/>
<path d="M170.631 633.53C176.741 636.37 182.811 639.14 189.161 641.44C195.321 643.66 201.631 645.55 207.931 647.35C208.421 647.49 208.211 648.14 207.731 648.08C194.431 646.44 180.971 642.25 169.081 636.19C167.291 635.27 168.831 632.69 170.631 633.53Z" fill="#A1C9DB"/>
<path d="M170.041 637.62C174.071 640.47 178.201 643.06 182.571 645.4C183.281 645.78 182.811 647.02 182.021 646.72C177.341 644.96 172.861 642.64 168.821 639.72C167.571 638.81 168.751 636.7 170.041 637.62Z" fill="#A1C9DB"/>
<path d="M383.391 670.2C386.141 666.83 390.131 664.23 393.271 661.18C396.481 658.08 399.501 654.79 402.321 651.35C405.131 647.92 407.731 644.31 410.141 640.6C411.351 638.74 412.491 636.83 413.631 634.93C414.611 633.28 415.311 631.03 417.011 630.01C417.691 629.6 418.411 630.13 418.491 630.82C418.711 632.7 417.171 634.81 416.341 636.44C415.331 638.41 414.211 640.33 413.051 642.22C410.651 646.13 407.971 649.87 405.091 653.46C402.221 657.04 399.141 660.45 395.861 663.67C392.741 666.74 389.241 670.58 385.201 672.46C383.671 673.16 382.331 671.5 383.391 670.2Z" fill="#A1C9DB"/>
<path d="M393.571 667.58C402.111 661.07 409.111 653.04 415.111 644.27C415.771 643.3 417.251 644.11 416.731 645.17C411.851 654.98 404.421 663.46 395.791 670.33C393.781 671.91 391.501 669.15 393.571 667.58Z" fill="#A1C9DB"/>
<path d="M141.681 670.29C142.981 665.59 144.541 660.96 146.411 656.44C148.171 652.18 150.151 648.01 152.361 643.95C153.561 641.74 154.821 639.55 156.131 637.4C156.661 636.52 157.131 635.44 157.821 634.66C157.491 634.38 157.181 634.11 156.871 633.86C154.321 631.71 151.911 629.34 149.741 626.81C145.461 621.8 142.221 616.01 141.231 609.49C140.301 603.32 141.651 597.17 145.531 592.16C149.551 586.97 155.421 582.94 161.211 579.84C168.061 576.18 175.681 573.27 183.471 572.4C184.481 572.29 184.621 573.79 183.721 574.07C175.781 576.56 168.221 579.29 161.121 583.66C154.761 587.58 147.631 592.5 145.301 599.87C142.991 607.17 145.561 615.09 149.811 621.2C152.011 624.36 154.701 627.15 157.541 629.75C160.131 632.11 164.111 634.67 165.671 637.83C165.961 638.43 165.501 639.15 164.791 638.98C163.361 638.64 161.951 637.84 160.621 636.89C160.281 637.47 159.811 638.04 159.371 638.71C158.151 640.59 156.991 642.51 155.881 644.46C153.501 648.66 151.381 653 149.511 657.44C147.691 661.75 146.071 666.15 144.701 670.62C143.321 675.12 142.461 679.87 140.861 684.3C140.551 685.16 139.141 685.11 139.141 684.09C139.171 679.54 140.471 674.68 141.681 670.29Z" fill="#A1C9DB"/>
<path d="M440.092 673.81C439.822 671.27 439.492 668.76 439.042 666.25C438.102 660.95 436.952 655.68 435.582 650.47C432.942 640.4 429.272 630.66 424.872 621.23C425.232 620.6 425.582 619.97 425.922 619.37C427.242 617.05 428.422 614.65 429.482 612.2C431.502 607.53 433.742 602.21 433.732 597.04C433.722 592.34 431.262 588.32 428.102 585.02C424.582 581.35 420.162 577.86 415.222 576.45C414.522 576.25 413.852 577.24 414.472 577.74C420.912 583.02 431.332 588.73 430.272 598.53C429.782 603.14 427.802 607.86 425.892 612.04C424.952 614.08 423.922 616.09 422.802 618.04C421.722 619.92 420.162 621.77 419.672 623.9C419.442 624.88 420.552 625.94 421.492 625.3C422.022 624.94 422.492 624.51 422.922 624.03C426.522 632.97 429.552 642.13 432.062 651.43C433.382 656.34 434.522 661.3 435.462 666.3C435.962 668.94 436.452 671.58 436.932 674.23C437.312 676.34 437.252 678.93 438.722 680.58C439.052 680.95 439.702 680.84 439.932 680.42C441.022 678.48 440.312 675.93 440.092 673.81Z" fill="#A1C9DB"/>
<path d="M266.37 675.65C266.19 672.63 265.55 669.75 264.76 666.84C263.6 662.53 262.43 656.36 258.36 653.77C258 653.54 257.5 654.01 257.76 654.37C260.48 658.12 260.91 663.24 261.7 667.68C262.1 669.94 262.39 672.28 262.52 674.59C261.1 671.06 259.4 667.67 257.25 664.53C253.41 658.92 248.28 652.24 241.13 651.24C240.61 651.17 240.16 651.9 240.73 652.18C247 655.24 251.39 661.52 254.62 667.49C256.37 670.72 257.92 674.03 259.09 677.51C260.18 680.76 260.58 684.34 261.97 687.45C262.8 689.31 265.34 688.15 265.47 686.5C265.54 685.67 265.5 684.81 265.39 683.93C266.64 681.52 266.53 678.28 266.37 675.65Z" fill="#A1C9DB"/>
<path d="M405.29 684.5C405.07 683.33 403.53 683.39 402.96 684.2C401.72 685.97 401.59 688.56 401.05 690.63C400.44 692.97 399.78 695.29 399.06 697.59C397.56 702.35 395.8 707.02 393.77 711.57C391.86 715.85 389.74 720.05 387.45 724.13C386.27 726.23 385.01 728.29 383.73 730.34C382.24 732.72 380.94 735.48 378.05 736.36C377.91 736.4 377.9 736.61 378.05 736.65C382.13 737.69 385.08 732.01 386.93 729.26C390.02 724.66 392.81 719.88 395.24 714.9C397.59 710.07 399.67 705.1 401.44 700.02C402.38 697.34 403.23 694.63 403.98 691.89C404.62 689.57 405.74 686.9 405.29 684.5Z" fill="#A1C9DB"/>
<path d="M410.79 688.07C409.18 690.45 408.68 693.89 407.61 696.57C406.44 699.51 404.8 702.29 403.79 705.28C403.58 705.9 404.44 706.38 404.88 705.91C407.1 703.56 408.6 700.45 409.98 697.56C411.22 694.96 413.11 691.59 413.08 688.68C413.07 687.42 411.46 687.08 410.79 688.07Z" fill="#A1C9DB"/>
<path d="M281.274 685.68C281.274 685.68 278.814 667.34 282.004 657.67C285.184 648 310.244 622.06 326.124 630.89C342.004 639.72 350.384 661.93 340.844 689.24C331.304 716.55 337.724 768.13 312.814 767.48C303.824 767.25 295.654 764.97 289.054 758.44C289.054 758.44 268.034 755.99 246.424 757.35C224.804 758.7 202.004 759.71 189.894 746.46C174.234 729.32 174.994 671.83 204.054 656.58C233.114 641.33 257.504 672.56 262.144 675.52C266.784 678.48 281.274 685.68 281.274 685.68Z" fill="#FFDAAE"/>
<path d="M180.682 456.74C173.362 471.34 157.422 493.98 178.802 541C181.512 546.96 170.082 587.67 178.802 599.3C187.522 610.93 227.392 627.57 304.812 621.95C368.422 617.33 395.182 596.39 401.582 583.59C407.982 570.79 405.152 476.36 329.202 425.27L180.682 456.74Z" fill="#FFDAAE"/>
<path d="M53.2148 203.96C53.2148 203.96 56.3048 192.63 54.1248 184.64C51.9548 176.65 64.5647 156.36 76.8647 155.24C89.1747 154.13 100.715 145.04 90.1448 132.37C79.5748 119.7 63.2548 118.58 59.6648 129.75C57.2648 137.21 49.5248 103.08 72.9448 101.33C96.3648 99.5702 100.915 120.5 102.525 121.93C104.125 123.36 107.015 120.08 105.645 113.25C104.275 106.42 104.985 97.8301 116.585 94.9501C128.185 92.0701 139.015 94.4602 139.225 102.48C139.435 110.5 152.045 82.5702 137.155 74.7102C122.265 66.8502 103.935 70.1601 97.7848 77.2001C91.6348 84.2401 94.7448 67.2602 110.935 56.4402C126.935 45.7502 141.695 45.7202 152.675 53.3602C162.125 59.9302 168.865 71.3702 164.935 82.2502C164.935 82.2502 187.075 61.4502 181.665 38.7102C176.255 15.9602 155.035 12.4602 143.975 17.5602C132.915 22.6602 129.815 28.7202 126.005 31.2702C122.195 33.8202 118.235 16.1002 124.785 6.60017C131.335 -2.89983 159.835 -2.27984 177.325 9.34016C194.815 20.9602 222.705 49.4602 205.475 76.4802C205.475 76.4802 230.145 52.2002 238.615 65.6702C247.085 79.1402 231.855 98.0002 224.725 98.2402C224.725 98.2402 240.685 97.1702 244.705 86.9802C247.445 80.0302 247.555 113.83 218.345 111.62L53.2148 203.96Z" fill="#6D4F3A"/>
<path d="M361.153 177C341.573 128.98 271.483 77.3001 167.443 116.39C62.4127 155.85 -18.8573 260.44 25.0627 347.68C56.2727 409.68 98.6226 414.67 98.6226 414.67C98.6226 414.67 89.2027 439.43 127.693 458.21C166.183 476.99 256.093 489.31 339.063 452.51C401.003 425.04 437.603 355.78 414.963 311.99C401.673 286.28 377.043 289.4 375.543 262.68C374.033 235.96 374.583 209.94 361.153 177Z" fill="#FFDAAE"/>
<path d="M80.4631 361.34C58.4231 329.38 -10.3869 353.84 1.33311 397.61C14.0631 445.16 74.023 441.71 98.623 414.67L80.4631 361.34Z" fill="#FFDAAE"/>
<path d="M184.705 91.3601C184.705 91.3601 221.835 94.5901 221.215 114.48C220.605 134.36 189.575 165.98 152.625 141.82C152.625 141.82 175.265 146.57 186.475 141.24C197.695 135.91 204.305 120.36 201.725 114.67C199.145 108.98 171.415 112.97 171.415 112.97L184.705 91.3601Z" fill="#6D4F3A"/>
<path d="M219.365 268.12C215.455 259.74 200.805 244.1 195.475 244.46C190.145 244.82 167.235 252.14 164.165 269.82C161.095 287.5 162.435 303.01 175.215 311.12C187.995 319.23 215.815 309.39 218.265 303.69C225.585 286.71 219.365 268.12 219.365 268.12Z" fill="white"/>
<path d="M302.164 249.11C299.024 234.73 309.634 217.14 316.694 213.92C321.464 211.75 334.004 215.03 341.834 229.9C349.664 244.77 348.534 257.7 343.464 266.22C336.854 277.33 325.114 277.51 320.384 276.73C308.014 274.7 302.164 249.11 302.164 249.11Z" fill="white"/>
<path d="M342.202 228.15C338.012 219.91 328.012 208.27 318.652 216.08C310.232 223.1 310.782 243.57 315.602 255.7C320.532 268.11 332.882 271.56 340.652 260.42C347.832 250.14 345.882 235.4 342.202 228.15Z" fill="#230D03"/>
<path d="M217.703 263.27C213.273 254.47 202.253 241.77 190.943 249.23C180.763 255.94 180.303 277.15 185.263 290.02C190.333 303.18 204.523 307.56 214.173 296.55C223.073 286.39 221.603 271.01 217.703 263.27Z" fill="#230D03"/>
<path d="M300.174 230.66C302.344 224.34 306.274 218.28 310.794 213.91C315.174 209.68 320.464 207.51 325.994 210.09C330.484 212.19 334.334 216.13 337.694 220.04C340.614 223.45 345.174 228.71 344.674 233.92C344.644 234.21 344.454 234.48 344.214 234.58C344.134 234.63 344.064 234.67 343.984 234.72C343.894 234.78 343.794 234.77 343.734 234.68C342.664 233.23 342.114 231.21 340.994 229.66C339.294 227.3 337.224 225.25 335.174 223.31C333.424 221.65 331.574 220.16 329.694 218.68C327.284 216.79 324.454 214.66 321.414 214.63C315.294 214.55 310.184 222.44 307.304 227.7C305.704 230.64 304.174 233.9 303.134 237.17C301.944 240.95 302.384 245.17 302.164 249.11C302.124 249.79 301.384 249.82 301.054 249.43C296.914 244.54 298.194 236.43 300.174 230.66Z" fill="#230D03"/>
<path d="M160.884 272.95C161.614 264.81 165.584 258.34 171.304 252.97C176.824 247.8 183.834 242.91 191.374 241.88C207.504 239.66 211.944 252.79 218.434 264.64C218.874 265.43 220.514 272.96 219.914 272.12C216.024 266.69 212.944 262 208.744 257.09C204.784 252.46 199.144 247.84 192.784 248.76C186.554 249.66 180.664 254.13 176.094 258.34C173.884 260.37 171.974 262.62 170.314 265.15C168.334 268.18 167.654 271.18 166.574 274.62C165.474 278.11 160.584 276.27 160.884 272.95Z" fill="#230D03"/>
<path d="M285.335 296.52C289.615 286.47 297.105 277.52 307.175 276.13C316.225 274.87 323.285 284.04 328.325 293.07C329.045 294.36 327.955 296.16 326.845 294.86C321.585 288.68 315.645 281.46 308.535 283.33C300.515 285.43 294.845 292.83 291.175 301.02C289.585 304.57 283.785 300.16 285.335 296.52Z" fill="#F29570"/>
<path d="M373.043 383.41C368.963 395.67 359.014 411.41 344.394 424.55C316.854 449.32 272.743 464.87 220.043 430.62C213.963 426.66 207.774 422.05 201.474 416.71C180.524 398.94 163.164 343.9 201.474 332.36C239.784 320.82 285.084 335.2 312.124 326.54C332.854 319.9 325.953 304.41 347.483 295.12C362.353 288.73 394.243 319.75 373.043 383.41Z" fill="#5C0000"/>
<path d="M344.395 424.56C316.855 449.33 272.745 464.88 220.045 430.63C218.095 424.76 217.855 418.23 220.455 411.12C230.075 384.76 305.015 379.42 334.785 406.98C342.045 413.7 344.685 419.33 344.395 424.56Z" fill="#F99582"/>
<path d="M17.0721 393.28C16.2821 389.75 15.662 386.18 15.142 382.62C14.282 376.77 15.3621 373.5 19.0821 370.12C27.1721 362.76 38.3821 361.14 49.1921 362.3C54.7821 362.9 60.3721 364.23 65.9421 365.77C70.9821 367.17 75.062 368.2 76.012 374.95C77.732 387.26 78.0721 400.02 75.0821 411.34C73.5421 417.19 70.972 422.25 65.312 423.17C59.792 424.07 53.5821 420.81 48.8221 416.72C45.9821 414.28 48.3121 409.8 51.3221 411.33C55.7721 413.6 62.222 418.94 66.372 414.77C69.712 411.41 70.362 403.54 70.782 398.42C71.262 392.66 71.042 386.77 70.562 380.87C70.432 379.21 70.2721 377.55 70.0821 375.89C69.9221 374.47 70.022 374.26 69.392 373.64C68.582 372.84 65.9621 372.56 64.9521 372.25C63.6521 371.86 62.352 371.48 61.052 371.12C59.352 370.65 57.632 370.21 55.922 369.82C49.522 380.44 43.8621 391.64 43.8321 405.82C43.8321 407.41 41.6921 407.14 41.4421 405.59C39.2021 391.84 44.132 379.55 49.532 368.64C42.452 367.65 35.442 367.86 29.032 370.53C26.572 371.55 24.2721 372.91 22.2121 374.68C21.1221 375.62 19.582 376.76 19.112 378.35C18.792 379.46 19.122 381.23 19.242 382.41C19.572 385.74 20.0621 389.06 20.5821 392.38C21.0521 395.39 21.932 398.51 21.172 401.32C21.022 401.88 20.4121 401.8 20.0721 401.39C18.1921 399.14 17.7021 396.1 17.0721 393.28Z" fill="#F29570"/>
<path d="M322.103 218.99C317.923 219.08 314.093 231.91 317.133 234.44C320.173 236.97 325.683 234.46 326.943 230.21C328.213 225.97 325.423 218.92 322.103 218.99Z" fill="white"/>
<path d="M198.661 268.37C201.391 262.7 198.991 251.94 194.301 252.22C189.611 252.5 184.711 263.42 186.441 267.73C188.171 272.04 195.311 275.33 198.661 268.37Z" fill="white"/>
<path d="M31.1248 347.17C34.8848 344.81 40.5749 344.37 44.9249 344.2C49.7249 344.02 54.5649 344.61 59.1949 345.84C63.6149 347.02 67.7949 348.76 71.7149 351.13C73.8549 352.43 75.8549 353.9 77.7149 355.58C78.8449 356.6 80.6749 357.88 80.3449 359.57C80.1749 360.45 79.1649 360.63 78.5949 360.02C76.0449 357.27 71.8049 355.15 68.4649 353.55C64.7149 351.75 60.7349 350.39 56.6449 349.61C52.6849 348.85 48.6749 348.63 44.6549 348.87C42.6849 348.99 40.7249 349.23 38.7849 349.6C36.7449 349.99 34.7249 350.87 32.6649 351.04C30.6949 351.2 29.2348 348.36 31.1248 347.17Z" fill="#F29570"/>
<path d="M96.492 414.24C97.052 412.86 99.4221 413.1 99.4721 414.68C99.6221 419.96 100.112 424.74 102.222 429.66C104.242 434.36 107.472 438.48 111.242 441.9C119.032 448.97 128.832 453.79 138.452 457.83C157.422 465.78 177.962 470.41 198.392 472.43C208.602 473.44 223.182 474.77 242.572 473.31C248.302 472.88 254.012 472.21 259.712 471.51C271.112 470.11 282.362 467.83 293.572 465.32C315.252 460.46 335.862 452.64 355.012 441.35C356.142 440.68 357.262 440 358.372 439.31C358.422 439 358.612 438.69 358.982 438.5C360.592 437.68 362.152 436.79 363.692 435.85C366.562 433.91 369.382 431.89 372.152 429.81C380.472 423.04 387.652 414.71 394.042 406.29C403.172 394.27 411.172 380.88 416.042 366.53C420.852 352.34 422.012 336.52 417.222 322.16C412.232 307.2 400.712 295.57 388.252 286.41C384.842 283.91 381.172 281.69 378.192 278.66C375.012 275.43 374.042 271.26 373.552 266.88C373.012 262.02 372.932 257.07 372.672 252.18C372.432 247.51 372.082 242.76 372.372 238.08C372.432 237.05 374.152 236.83 374.422 237.84C376.722 246.37 377.652 255.53 378.842 264.28C379.432 268.64 379.992 273.13 383.352 276.34C386.192 279.06 389.732 281.16 392.822 283.59C405.132 293.26 416.592 304.75 421.962 319.79C427.112 334.2 426.292 350.21 422.042 364.73C417.582 379.93 409.172 393.01 399.852 405.64C392.122 416.11 383.702 426.71 372.942 433.93C361.082 444.43 346.672 452.23 332.192 458.28C321.762 462.64 310.982 466.05 300.022 468.78C288.682 471.61 277.252 473.21 265.692 474.78C259.162 475.67 252.612 476.4 246.052 477.02C239.662 477.62 214.302 478.83 201.322 476.85C190.232 475.16 179.012 474.5 168.002 472.32C157.292 470.2 146.842 467.07 136.762 462.87C126.622 458.64 116.172 453.52 107.982 446.07C99.782 438.6 91.852 425.66 96.492 414.24Z" fill="#F29570"/>
<path d="M194.483 186.72C188.773 182.82 182.243 179.73 175.483 178.18C172.053 177.39 168.413 176.94 164.953 177.8C161.793 178.58 159.473 180.48 157.123 182.62C152.553 186.79 149.473 192.47 146.893 198.02C144.083 204.06 141.913 210.37 141.323 217.02C141.173 218.71 143.583 218.79 144.103 217.4C147.793 207.46 151.923 195.52 160.703 188.79C164.673 185.74 169.693 186.56 174.133 187.87C179.643 189.51 184.693 192.11 189.363 195.45C191.583 197.04 195.003 195.84 196.293 193.63C197.763 191.14 196.753 188.26 194.483 186.72Z" fill="#6D4F3A"/>
<path d="M319.603 171.2C312.913 161.92 304.333 154.71 294.453 149.02C291.723 147.45 288.963 147.08 286.183 148.79C283.913 150.19 281.863 152.22 280.163 154.26C276.693 158.42 272.993 164.61 273.183 170.23C273.323 174.42 279.753 176.96 281.753 172.55C282.703 170.44 283.113 168.19 283.983 166.05C284.683 164.33 285.643 162.72 286.643 161.15C287.713 159.48 288.973 157.86 290.473 156.54C292.083 155.12 293.293 156.05 295.083 156.95C303.303 161.11 310.813 166.5 317.493 172.83C318.543 173.85 320.533 172.5 319.603 171.2Z" fill="#6D4F3A"/>
<path d="M207.282 535.91C186.372 533.04 166.722 503.32 172.002 475.43C176.112 453.76 209.092 365.96 215.512 346.09C215.882 344.94 216.152 344.02 216.312 343.35C219.192 331.06 199.112 310.27 206.022 297.59C211.202 288.09 220.602 295.1 225.752 306.73C225.752 306.73 235.472 284.07 237.722 280.02C239.972 275.97 247.222 252.45 251.082 250.2C254.942 247.95 261.382 251.95 261.382 256.49C261.382 261.03 255.532 278.7 253.432 286.33C252.932 288.16 256.282 289.69 257.492 287.26C261.162 279.92 270.112 262.1 273.292 259C277.482 254.92 287.782 259.87 286.492 267.72C285.202 275.57 272.002 297.1 272.002 297.1C272.002 297.1 291.002 280.49 296.152 276.58C301.302 272.67 308.962 281.88 304.812 286.31C300.662 290.74 283.912 305.53 283.912 305.53C283.912 305.53 300.712 298.26 306.002 299.13C311.282 300 311.932 306.69 309.672 309.31C307.422 311.93 289.712 318.91 289.712 318.91C289.712 318.91 287.782 348.87 277.152 354.39C277.152 354.39 277.202 469.27 273.152 494.72C269.122 520.19 249.652 541.73 207.282 535.91Z" fill="#FFDAAE"/>
<path d="M204.131 375.76C197.611 393.06 191.761 410.6 185.741 428.08C182.741 436.81 179.801 445.56 176.791 454.29C175.341 458.5 173.881 462.71 172.411 466.92C170.941 471.15 168.681 475.69 168.151 480.13C167.901 482.23 170.911 482.67 171.881 481.14C173.151 479.12 173.751 476.66 174.531 474.42C175.271 472.32 176.001 470.21 176.741 468.11C178.211 463.9 179.671 459.69 181.121 455.48C184.131 446.75 187.151 438.03 190.041 429.26C195.811 411.75 201.511 394.17 206.271 376.35C206.631 374.95 204.621 374.45 204.131 375.76Z" fill="#F29570"/>
<path d="M276.411 447.41C276.361 447.11 275.891 447.13 275.831 447.41C273.551 457.36 273.461 467.91 272.491 478.05C271.491 488.52 269.931 498.98 269.131 509.46C268.951 511.87 272.981 512.45 273.391 510.04C275.141 499.7 275.751 489 276.371 478.54C276.971 468.31 278.031 457.56 276.411 447.41Z" fill="#F29570"/>
<path d="M310.633 300.85C307.903 296.17 302.293 298.04 298.313 299.55C295.873 300.48 293.363 301.27 290.873 302.09C292.343 300.9 293.783 299.67 295.233 298.41C298.133 295.89 301.133 293.3 303.713 290.44C307.533 286.2 309.003 279.74 303.643 276.02C297.583 271.82 292.203 277.04 287.733 280.91C284.643 283.6 281.563 286.3 278.533 289.06C278.163 289.39 277.793 289.73 277.423 290.07C278.553 287.36 279.733 284.68 281.063 282.07C282.843 278.56 284.993 275.23 286.273 271.49C287.423 268.15 287.953 264.58 286.543 261.24C285.363 258.45 282.893 256.19 279.903 255.5C272.553 253.82 268.303 262.8 265.603 268.03C262.393 274.26 259.033 280.51 256.453 287.04C256.453 287.04 256.453 287.04 256.443 287.04C255.163 286.88 257.013 281.07 257.213 280.24C257.743 278.06 258.283 275.88 258.813 273.69C259.823 269.57 261.193 265.53 262.053 261.38C263.163 256.04 262.023 247.91 255.023 247.66C252.333 247.56 250.313 249 249.043 251.29C247.113 254.77 245.563 258.51 243.913 262.12C240.513 269.56 237.353 277.07 233.783 284.44C231.803 288.52 229.913 292.66 228.053 296.79C227.333 298.4 226.513 300.03 225.743 301.68C224.893 299.4 223.953 297.29 222.253 295.24C220.193 292.76 217.453 290.93 214.243 290.4C207.543 289.29 203.033 294.69 202.943 301.02C202.883 304.98 204.293 308.68 205.703 312.31C207.293 316.42 208.893 320.52 210.473 324.64C213.153 331.61 218.023 341.01 213.803 348.24C213.263 349.16 214.553 350.2 215.303 349.4C219.393 344.99 219.453 338.7 217.783 333.22C215.603 326.07 212.543 319.13 209.833 312.17C208.563 308.9 206.863 305.5 206.533 301.97C206.253 298.98 207.433 295.32 210.583 294.35C217.203 292.3 221.643 300.92 224.023 305.57C224.043 305.6 224.063 305.62 224.073 305.65C223.633 306.84 223.273 308.04 223.023 309.26C222.903 309.85 223.593 310.32 224.063 309.86C227.313 306.7 229.393 302.22 231.433 298.24C233.563 294.07 235.563 289.77 237.333 285.44C241.073 276.32 245.113 267.38 249.343 258.48C250.263 256.54 251.053 254.2 252.313 252.45C253.823 250.35 256.483 250.88 257.913 252.83C260.743 256.69 258.253 262.67 257.403 266.8C256.363 271.83 255.083 276.81 253.863 281.8C253.213 284.43 252.143 288.71 255.433 289.79C255.183 290.5 254.933 291.2 254.713 291.92C254.523 292.5 255.313 292.73 255.623 292.31C259.893 286.53 263.153 280.15 266.443 273.78C268.013 270.75 269.513 267.68 271.313 264.78C272.863 262.28 275.033 258.84 278.423 259.05C281.773 259.26 283.473 262.63 283.773 265.56C284.163 269.31 282.613 272.57 280.893 275.8C277.663 281.85 274.943 288.02 272.403 294.38C272.273 294.7 272.263 294.99 272.333 295.24C271.533 296.2 270.813 297.21 270.193 298.27C269.883 298.8 270.483 299.29 270.983 299.06C276.383 296.57 280.993 291.79 285.393 287.89C287.753 285.8 290.113 283.72 292.493 281.65C294.663 279.76 297.243 277.2 300.363 278.38C302.953 279.36 304.233 282.02 303.663 284.7C303.033 287.64 300.743 289.96 298.423 291.69C293.363 295.45 288.313 299.53 284.153 304.29C284.043 304.42 283.973 304.55 283.933 304.7C282.973 305.13 282.023 305.59 281.093 306.09C280.903 306.19 281.013 306.44 281.193 306.46C285.563 306.96 289.923 306.07 294.103 304.82C296.403 304.13 298.643 303.23 300.883 302.38C302.683 301.7 305.193 300.63 306.943 301.97C308.543 303.2 308.593 306.06 307.803 307.76C306.843 309.84 304.693 310.74 302.713 311.59C298.783 313.27 294.893 315.04 291.003 316.8C290.313 315.91 288.493 316.42 288.473 317.74C288.383 325.2 287.643 332.39 284.893 339.4C283.603 342.68 281.973 346.06 279.893 348.92C279.073 350.05 278.123 351.14 277.023 352.02C276.813 352.12 276.633 352.25 276.483 352.43C275.203 353.32 273.613 353.56 272.373 354.49C271.983 354.78 271.943 355.3 272.373 355.59C273.483 356.33 274.773 356.3 276.053 355.9C275.933 366.65 275.963 377.41 275.893 388.16C275.813 399.62 275.173 411.34 276.213 422.77C276.313 423.87 277.783 423.85 277.913 422.77C279.213 411.36 278.843 399.63 279.023 388.16C279.203 376.74 279.513 365.33 279.623 353.91C279.973 353.64 280.303 353.36 280.593 353.1C283.683 350.33 285.783 346.49 287.423 342.74C290.493 335.71 292.233 327.76 291.573 320.05C294.503 318.76 297.433 317.48 300.363 316.19C302.923 315.07 305.753 314.02 307.953 312.26C311.093 309.69 312.803 304.58 310.633 300.85Z" fill="#F29570"/>
<path d="M857.564 69.7331C857.411 69.6058 857.208 69.504 857.106 69.3767C850.232 62.605 840.711 59.932 831.903 61.3831L730.022 62.7068C713.908 62.936 701.026 76.1484 701.23 92.2629C701.434 108.327 713.628 120.317 730.761 121.03L764.874 120.597L714.951 170.519C685.268 148.626 649.526 136.788 611.925 136.788C565.44 136.788 521.73 154.888 488.864 187.754C421.045 255.598 421.045 366.007 488.864 433.851C521.73 466.716 565.44 484.817 611.925 484.817C658.385 484.817 702.121 466.716 734.986 433.851C795.066 373.72 802.016 280.215 755.632 212.473L808.049 160.209V198.37C808.049 214.484 821.134 227.518 837.224 227.518C853.389 227.518 866.398 214.459 866.398 198.37V90.43C866.398 82.6909 863.114 75.2065 857.564 69.7331ZM693.745 392.61C650.06 436.295 573.866 436.295 530.13 392.61C485.02 347.525 485.02 274.105 530.13 228.995C551.998 207.152 581.045 195.111 611.951 195.111C642.881 195.111 671.878 207.152 693.796 228.995C738.881 274.08 738.881 347.525 693.745 392.61Z" fill="#C75B4A"/>
</svg>
