<svg width="800" height="678" viewBox="0 0 800 678" fill="none" xmlns="http://www.w3.org/2000/svg">
<path d="M778.949 468.209H709.105C697.48 468.209 688.056 477.634 688.056 489.259V655.967C688.056 667.593 697.48 677.019 709.105 677.019H778.949C790.574 677.019 800 667.594 800 655.967V489.259C800 477.634 790.576 468.209 778.949 468.209Z" fill="#F6F0EB"/>
<path d="M606.935 388.166H537.091C525.466 388.166 516.04 397.59 516.04 409.216V655.967C516.04 667.593 525.464 677.019 537.091 677.019H606.935C618.56 677.019 627.984 667.594 627.984 655.967V409.217C627.986 397.59 618.562 388.166 606.935 388.166Z" fill="#F6F0EB"/>
<path d="M262.908 468.209H193.065C181.44 468.209 172.016 477.634 172.016 489.259V655.967C172.016 667.593 181.44 677.019 193.065 677.019H262.908C274.534 677.019 283.96 667.594 283.96 655.967V489.259C283.96 477.634 274.534 468.209 262.908 468.209Z" fill="#F6F0EB"/>
<path d="M90.8946 388.166H21.0514C9.42425 388.166 0 397.59 0 409.217V655.969C0 667.594 9.42425 677.02 21.0514 677.02H90.8946C102.52 677.02 111.944 667.596 111.944 655.969V409.217C111.944 397.59 102.52 388.166 90.8946 388.166Z" fill="#F6F0EB"/>
<path d="M434.922 281.739H365.079C353.453 281.739 344.027 291.163 344.027 302.791V655.969C344.027 667.594 353.452 677.02 365.079 677.02H434.922C446.547 677.02 455.973 667.596 455.973 655.969V302.791C455.973 291.163 446.547 281.739 434.922 281.739Z" fill="#F6F0EB"/>
<path d="M760.186 364.657C774.35 364.657 786.287 353.116 786.287 338.556V254.199C786.287 239.784 774.601 228.098 760.186 228.098C745.771 228.098 734.085 239.784 734.085 254.199V275.287L468.986 8.67961C463.508 3.17227 455.873 0.384668 448.124 1.0894C440.388 1.79065 433.365 5.90071 428.964 12.3042L229.247 302.998L53.8418 191.257C41.6839 183.512 25.5482 187.088 17.8049 199.248C10.0598 211.405 13.6356 227.539 25.7953 235.285L222.46 360.57C226.802 363.335 231.659 364.661 236.461 364.661C244.784 364.661 252.948 360.685 257.996 353.338L454.166 67.8091L697.423 312.455H675.829C661.414 312.455 649.727 324.141 649.727 338.556C649.727 352.971 661.414 364.657 675.829 364.657C687.505 364.657 748.301 364.657 760.123 364.657H760.186Z" fill="#F6F0EB"/>
</svg>
