<svg width="50" height="48" viewBox="0 0 50 48" fill="none" xmlns="http://www.w3.org/2000/svg">
<path d="M49.5 24C49.5 36.9597 38.5504 47.5 25 47.5C11.4496 47.5 0.5 36.9597 0.5 24C0.5 11.0403 11.4496 0.5 25 0.5C38.5504 0.5 49.5 11.0403 49.5 24Z" stroke="#67CDFD"/>
<path fill-rule="evenodd" clip-rule="evenodd" d="M9.64709 23.8772C9.64709 23.3152 9.24612 23.0742 8.76212 23.0742H4.34012C3.93912 23.0742 3.53711 23.3152 3.53711 23.8772C3.53711 24.3592 3.93812 24.6812 4.34012 24.6812H8.76212C9.24512 24.6812 9.64709 24.3602 9.64709 23.8772Z" fill="#67CDFD"/>
<path fill-rule="evenodd" clip-rule="evenodd" d="M40.1162 23.8772C40.1162 24.3592 40.4382 24.6812 40.9212 24.6812H45.3432C45.8252 24.6812 46.1462 24.3602 46.1462 23.8772C46.1462 23.3152 45.8252 23.0742 45.3432 23.0742H40.9212C40.4382 23.0752 40.1162 23.3152 40.1162 23.8772Z" fill="#67CDFD"/>
<path fill-rule="evenodd" clip-rule="evenodd" d="M24.9211 9.56711C25.4031 9.56711 25.7251 9.24612 25.7251 8.76312V4.34012C25.7251 3.93912 25.4041 3.53711 24.9211 3.53711C24.4391 3.53711 24.0381 3.93912 24.0381 4.34012V8.76312C24.0381 9.24512 24.4401 9.56711 24.9211 9.56711Z" fill="#67CDFD"/>
<path fill-rule="evenodd" clip-rule="evenodd" d="M24.9211 40.0361C24.4391 40.0361 24.0381 40.4381 24.0381 40.8421V45.2631C24.0381 45.7441 24.4391 46.1461 24.9211 46.1461C25.4031 46.1461 25.7251 45.7451 25.7251 45.2631V40.8421C25.7251 40.4381 25.4041 40.0361 24.9211 40.0361Z" fill="#67CDFD"/>
<path fill-rule="evenodd" clip-rule="evenodd" d="M9.80685 15.0353C9.80685 15.6773 9.40587 16.0783 8.76187 16.0783C8.27987 16.0783 7.79688 15.6763 7.79688 15.0353C7.79688 14.5523 8.27987 14.0703 8.76187 14.0703C9.40587 14.0703 9.80685 14.5523 9.80685 15.0353Z" fill="#67CDFD"/>
<path fill-rule="evenodd" clip-rule="evenodd" d="M42.8499 15.0353C42.8499 15.6773 42.3679 16.0783 41.8849 16.0783C41.3229 16.0783 40.9209 15.6763 40.9209 15.0353C40.9209 14.5523 41.3229 14.0703 41.8849 14.0703C42.4479 14.0703 42.8499 14.5523 42.8499 15.0353Z" fill="#67CDFD"/>
<path fill-rule="evenodd" clip-rule="evenodd" d="M16.0783 7.55627C16.0783 8.04027 15.5963 8.44226 15.1143 8.44226C14.5513 8.44226 14.0693 8.04027 14.0693 7.55627C14.0693 6.99327 14.5513 6.59326 15.1143 6.59326C15.5963 6.59326 16.0783 6.99327 16.0783 7.55627Z" fill="#67CDFD"/>
<path fill-rule="evenodd" clip-rule="evenodd" d="M35.6956 7.55627C35.6956 8.04027 35.2136 8.44226 34.7306 8.44226C34.2486 8.44226 33.7666 8.04027 33.7666 7.55627C33.7666 6.99327 34.2486 6.59326 34.7306 6.59326C35.2136 6.59326 35.6956 6.99327 35.6956 7.55627Z" fill="#67CDFD"/>
<path fill-rule="evenodd" clip-rule="evenodd" d="M9.888 34.572C9.888 35.054 9.40598 35.535 8.92398 35.535C8.36098 35.535 7.95898 35.054 7.95898 34.572C7.95898 34.006 8.36098 33.605 8.92398 33.605C9.40598 33.605 9.888 34.006 9.888 34.572Z" fill="#67CDFD"/>
<path fill-rule="evenodd" clip-rule="evenodd" d="M42.93 34.572C42.93 35.054 42.529 35.535 41.966 35.535C41.403 35.535 41.001 35.054 41.001 34.572C41.001 34.006 41.403 33.605 41.966 33.605C42.529 33.605 42.93 34.006 42.93 34.572Z" fill="#67CDFD"/>
<path fill-rule="evenodd" clip-rule="evenodd" d="M16.1585 42.047C16.1585 42.609 15.6765 43.091 15.1945 43.091C14.6305 43.091 14.2295 42.609 14.2295 42.047C14.2295 41.565 14.6315 41.083 15.1945 41.083C15.6765 41.083 16.1585 41.565 16.1585 42.047Z" fill="#67CDFD"/>
<path fill-rule="evenodd" clip-rule="evenodd" d="M35.8557 42.047C35.8557 42.609 35.3747 43.091 34.8097 43.091C34.2477 43.091 33.8467 42.609 33.8467 42.047C33.8467 41.565 34.2477 41.083 34.8097 41.083C35.3737 41.083 35.8557 41.565 35.8557 42.047Z" fill="#67CDFD"/>
<path fill-rule="evenodd" clip-rule="evenodd" d="M22.3492 24.8422C22.0282 24.4412 21.7062 24.1992 21.3852 23.8782C21.1442 23.4772 20.8212 23.1552 20.5802 22.8352L20.1782 22.2702L19.6952 21.7892C19.5342 21.5472 19.4542 21.3872 19.2942 21.1462C19.2132 21.0662 18.9722 20.8242 18.8122 20.6642C18.5712 20.2632 18.3302 19.8612 18.0892 19.5402C17.8472 19.1362 17.6062 18.6542 17.3652 18.3332C17.8472 18.4132 18.3302 18.5742 18.7322 18.7342C19.2142 18.9752 19.5352 19.1362 20.0192 19.2962C20.1792 19.4572 20.4202 19.5402 20.5812 19.6202C20.8222 19.7812 20.9842 19.7812 21.2262 19.9412L21.7872 20.2632L22.3502 20.5842C22.8312 20.8242 23.2352 21.0662 23.6372 21.3072C23.9592 21.5472 24.2812 21.7892 24.6822 22.0302C24.7622 22.1102 25.0032 22.1912 25.0832 22.2712C25.6452 21.6282 26.2092 20.9062 26.7712 20.1832C27.8172 19.1362 28.8622 18.0112 29.9082 16.8872C30.4712 16.4022 31.0322 15.9212 31.6752 15.3582C31.9182 15.1182 32.2392 14.7962 32.4802 14.5552C32.8012 14.3142 33.1242 14.1542 33.3652 13.9132C33.6872 13.5922 34.0082 13.3482 34.3292 13.1872C34.6502 12.9462 34.9732 12.7052 35.2942 12.4642C35.6162 12.2232 35.9382 11.9822 36.2592 11.8212C36.6612 11.6612 36.9822 11.3392 37.3032 11.1782C37.1432 11.5792 37.0632 11.9812 36.9012 12.3832C36.7412 12.7042 36.5802 13.1062 36.4192 13.4302C36.2582 13.8312 36.0982 14.1532 35.9372 14.5542C35.6952 14.7952 35.5342 15.1972 35.2932 15.5182C35.1322 15.9202 34.9722 16.1612 34.7302 16.5652C34.5692 16.8862 34.3282 17.2082 34.2482 17.5302C33.7662 18.1722 33.3642 18.8142 32.8832 19.4572C31.9982 20.6652 31.0322 21.8702 30.1492 23.0772C29.1042 24.2012 28.1382 25.4062 27.1742 26.4532C26.6112 27.0152 26.0492 27.5772 25.5652 28.0592L24.1992 26.6932C23.5552 26.1292 22.9922 25.4872 22.3492 24.8422Z" fill="#67CDFD"/>
</svg>
