<svg width="416" height="769" viewBox="0 0 416 769" fill="none" xmlns="http://www.w3.org/2000/svg">
<path d="M287.221 658.35C284.051 648.98 283.341 614.12 309.511 611.56C335.681 609 351.961 614.75 357.461 620.58C362.961 626.41 376.621 667.84 378.301 694.26C379.851 718.66 361.691 744.66 361.691 744.66C361.691 744.66 376.161 750.16 373.561 757.37C368.511 771.41 327.611 770.89 315.101 761.91C302.311 752.73 304.021 742.86 315.381 736.1C315.381 736.1 323.531 718.09 317.801 704.75C312.091 691.4 293.441 676.73 287.221 658.35Z" fill="#FFDAAE"/>
<path d="M249.96 495.11C289.07 492.41 345.48 486.75 362.24 501.42C378.99 516.09 365.53 536.07 365.53 536.07C365.53 536.07 370.77 545.3 376.61 564.57C382.45 583.84 372.23 614.99 358.22 633.92C344.21 652.85 316.31 684.35 255.14 688.52C193.97 692.69 123.04 653.46 112.16 627.33C101.29 601.2 128.5 544.01 139.54 535.34C139.54 535.34 132.5 526.27 139.93 515.62C147.36 504.97 199.09 498.62 249.96 495.11Z" fill="#EFF5F9"/>
<path d="M249.049 583.79C245.639 582.54 241.969 582.26 238.369 581.82C234.369 581.33 230.379 580.75 226.399 580.12C218.949 578.94 211.519 577.67 204.139 576.06C190.659 573.13 177.579 568.49 165.689 561.43C159.089 557.51 153.159 552.73 147.419 547.66C146.619 546.95 145.589 548.01 146.259 548.82C154.889 559.33 167.349 566.76 179.689 572.08C193.289 577.95 207.859 581.81 222.539 583.69C226.969 584.26 231.419 584.69 235.859 585.12C240.229 585.54 244.689 586.18 249.039 585.48C249.989 585.32 249.779 584.05 249.049 583.79Z" fill="#A1C9DB"/>
<path d="M317.16 558.93C316.56 560 316.34 561.21 315.79 562.31C315.16 563.59 314.35 564.79 313.4 565.85C311.74 567.7 309.7 568.82 307.63 570.06C307.76 569.89 307.9 569.73 308.02 569.56C309.24 567.94 311.52 565.11 310.73 562.96C310.5 562.34 309.91 562.11 309.32 562.39C307.56 563.21 306.78 565.93 305.7 567.47C304.37 569.38 302.79 571.1 301 572.58C297.31 575.63 292.75 577.53 288.04 578.3C286.91 578.48 287.17 580.36 288.31 580.3C293.56 580.01 298.44 578.1 302.63 574.92C304.12 573.79 305.49 572.52 306.72 571.13C306.79 571.34 306.97 571.51 307.23 571.51C310.23 571.46 313.04 569.65 315.11 567.59C317.08 565.64 319.4 562.42 319.28 559.52C319.25 558.4 317.74 557.9 317.16 558.93Z" fill="#A1C9DB"/>
<path d="M325.401 557.98C325.381 557.33 324.391 556.94 324.071 557.62C323.751 558.3 323.311 558.88 323.051 559.58C322.721 560.45 322.531 561.39 322.231 562.28C321.971 563.06 321.801 563.99 321.351 564.68C321.171 564.95 320.561 565.81 320.281 565.74C320.191 565.72 320.151 565.82 320.201 565.88C320.381 566.11 320.481 566.34 320.681 566.56C320.861 566.76 321.211 566.86 321.471 566.77C322.941 566.23 323.641 565.12 324.261 563.72C324.641 562.87 324.981 561.96 325.241 561.07C325.561 559.93 325.431 559.15 325.401 557.98Z" fill="#A1C9DB"/>
<path d="M355.54 536.91C349 544.04 341.63 549.83 333.58 555.15C333.17 555.42 333.42 556.2 333.94 556C343.05 552.5 351.4 546.54 358.21 539.58C359.92 537.84 357.18 535.12 355.54 536.91Z" fill="#A1C9DB"/>
<path d="M245.47 649.49C243.38 651.72 242.38 654.85 240.37 657.22C238.22 659.76 235.69 661.92 232.9 663.73C226.58 667.82 219.47 669.7 212.59 672.56C211.31 673.09 211.28 675.3 212.95 675.21C216.77 675 220.88 673.37 224.48 672.13C228.33 670.8 232.16 669.22 235.64 667.09C238.67 665.24 241.57 662.98 243.91 660.29C246.08 657.81 248.91 654.34 248.79 650.86C248.76 649.25 246.67 648.21 245.47 649.49Z" fill="#A1C9DB"/>
<path d="M258.76 660.43C255.89 661.46 253.34 663.75 250.66 665.23C247.81 666.81 244.84 668.17 241.8 669.35C238.87 670.48 235.86 671.42 232.8 672.13C231.34 672.47 229.86 672.78 228.39 673.08C227.2 673.33 226.1 673.22 225.41 674.28C225.34 674.39 225.37 674.55 225.46 674.64C226.35 675.55 227.46 675.21 228.67 675.13C230.28 675.02 231.87 674.79 233.46 674.5C236.68 673.92 239.85 673.1 242.95 672.06C245.94 671.06 248.85 669.81 251.66 668.39C254.46 666.98 258.23 665.36 260.21 662.88C261.02 661.88 260.31 659.88 258.76 660.43Z" fill="#A1C9DB"/>
<path d="M266.518 661.46C264.558 662.81 263.038 664.75 261.078 666.15C259.128 667.54 256.868 668.41 254.908 669.77C254.488 670.06 254.618 670.77 255.178 670.77C257.688 670.76 260.188 669.52 262.318 668.29C264.428 667.07 267.038 665.36 268.238 663.19C268.808 662.15 267.598 660.71 266.518 661.46Z" fill="#A1C9DB"/>
<path d="M168.72 669.7C164.45 666.08 159.47 663.55 154.63 660.76C150.07 658.13 145.49 655.54 140.97 652.85C133.34 648.32 125.86 643.34 120.2 636.4C114.04 628.85 111.73 619.67 112.21 610.04C112.73 599.69 115.48 589.23 118.36 579.31C119.94 573.84 121.7 568.45 123.83 563.17C124.93 560.44 126.09 557.75 127.35 555.09C128.6 552.47 130.04 549.93 130.76 547.11C130.87 546.69 130.39 546.49 130.1 546.72C126.07 549.86 123.6 555.13 121.34 559.61C118.94 564.37 117.03 569.4 115.31 574.44C111.84 584.61 109.15 595.45 108.01 606.15C106.93 616.32 108.19 626.84 114.08 635.44C119.31 643.09 126.96 648.75 134.68 653.69C139.56 656.81 144.58 659.7 149.57 662.65C155.33 666.05 160.96 669.95 167.24 672.26C168.64 672.79 169.87 670.68 168.72 669.7Z" fill="#A1C9DB"/>
<path d="M377.119 561.81C375.399 552.66 372.579 541.92 365.929 534.95C369.219 531.19 371.489 526.4 371.899 521.44C372.339 516.14 370.619 509.34 366.159 506.04C365.639 505.65 365.039 506.39 365.319 506.88C366.629 509.19 367.989 511.35 368.639 513.96C369.269 516.51 369.279 519.13 368.789 521.7C367.809 526.83 364.969 530.99 361.149 534.44C359.409 536.01 361.819 538.53 363.609 537.28C365.379 540.58 367.149 543.83 368.519 547.35C370.139 551.51 371.349 555.78 372.309 560.13C374.359 569.47 375.979 579.51 375.189 589.09C374.409 598.65 370.699 607.61 366.209 615.97C361.519 624.69 356.429 633.44 350.249 641.2C346.789 645.55 342.769 649.29 338.939 653.29C337.099 655.21 335.379 657.13 333.409 658.93C331.269 660.88 329.069 662.77 326.889 664.67C325.859 665.56 327.359 667.04 328.379 666.16C336.189 659.42 344.189 653.07 350.939 645.22C357.689 637.36 363.419 628.56 368.489 619.54C373.289 610.99 377.609 601.71 379.049 591.93C380.499 581.98 378.959 571.62 377.119 561.81Z" fill="#A1C9DB"/>
<path d="M415.439 434.9C414.369 431.75 404.419 427.28 403.369 424.65C402.319 422.02 403.899 407.04 407.049 400.73C410.199 394.42 415.589 383.35 414.019 382.06C412.439 380.78 409.549 379.92 405.999 381.8C402.449 383.68 394.699 395.47 390.749 397.31C386.809 399.15 381.019 403.09 381.019 403.09C349.759 401.14 319.439 393.05 306.159 394.42C305.609 393.87 178.199 411.9 178.199 411.9C162.419 398.1 83.1592 442.66 83.1592 442.66L64.4092 434.78C60.1792 427.65 59.5393 413.51 55.0693 412.93C50.5993 412.35 45.2293 418.85 44.6493 420.9C43.6493 424.43 51.6293 446.27 53.3693 449.18C53.3693 449.18 41.0392 434.28 38.5392 424.42C37.5392 420.5 26.9093 430.68 27.9593 434.78C29.0193 438.88 35.9792 452.67 42.8492 460.38C42.8492 460.38 27.2492 451.92 24.7892 450.51C22.3192 449.1 20.5593 461.17 21.6193 463.77C22.6793 466.37 44.6493 475.91 44.6493 475.91C44.6493 475.91 25.4992 474.12 23.7392 473.95C21.9692 473.78 23.2092 482.59 26.9092 483.12C29.7992 483.53 42.7793 485.42 48.3393 486.22C48.5593 486.53 48.7793 486.84 49.0193 487.15C64.5593 507.31 80.6293 493.43 80.6293 493.43C95.3393 490.05 133.359 489.77 160.119 488.55C161.189 492.87 162.029 496.34 162.419 498.09C164.129 505.88 162.069 519.1 162.419 526.92C162.769 534.74 196.999 562.82 252.349 561.56C284.479 560.82 339.369 534.18 345.009 519.56C350.649 504.94 344.999 467.18 341.319 453.67C340.779 451.67 339.919 449.24 338.809 446.51C353.899 442.15 377.729 435.43 381.289 435.43C386.549 435.43 391.279 435.69 396.009 436.96C400.739 438.23 409.939 445.96 413.099 443.84C416.249 441.72 416.509 438.06 415.439 434.9Z" fill="#FFDAAE"/>
<path d="M72.1782 471.42C66.9482 471.3 61.8382 470.2 57.0882 467.96C54.8582 466.91 52.2882 465.68 50.8682 463.58C49.5382 461.6 49.3182 458.93 49.4182 456.61C49.5082 454.53 49.8882 451.77 52.3782 451.37C54.5982 451.02 57.1382 452.48 59.1682 453.17C64.1882 454.86 69.3782 455.91 74.6782 456.02C75.7382 456.04 76.0182 454.51 74.9082 454.34C71.1582 453.76 67.4182 453.02 63.7882 451.9C60.8882 451.01 58.1482 449.59 55.2282 448.78C49.8682 447.29 46.5082 451.02 46.2782 456.18C46.0182 461.89 47.8182 466.33 52.8282 469.26C55.6882 470.93 58.7482 472.21 61.9282 473.08C61.9082 475.68 62.5382 478.43 64.2282 480.48C65.5182 482.05 67.9282 484.14 70.0982 483.81C70.3282 483.78 70.4182 483.52 70.2982 483.33C69.2682 481.74 67.6782 480.76 66.7482 479.03C65.8682 477.39 65.2382 475.7 65.1982 473.83C67.3482 474.23 69.5382 474.46 71.7382 474.51C73.7382 474.55 74.1882 471.46 72.1782 471.42Z" fill="#F29570"/>
<path d="M179.64 486.14C178.02 484.68 175.74 485.17 173.69 485.21C171.11 485.25 168.53 485.31 165.95 485.38C160.79 485.52 155.64 485.72 150.48 486.02C145.46 486.32 140.46 486.7 135.46 487.16C130.38 487.64 125.21 487.94 120.22 489.03C119.2 489.26 119.47 490.77 120.46 490.81C125.45 490.98 130.47 490.44 135.46 490.2C140.61 489.95 145.76 489.72 150.91 489.51C155.92 489.31 160.93 489.11 165.95 488.97C168.39 488.9 170.82 488.84 173.26 488.8C175.36 488.76 178.01 489.26 179.64 487.72C180.07 487.32 180.08 486.53 179.64 486.14Z" fill="#F29570"/>
<path d="M85 153.58C85 153.58 90.01 144.74 89.9 137.58C89.79 130.41 104.7 116.1 115.26 117.8C125.82 119.5 137.44 114.35 131.29 101.47C125.14 88.5801 111.7 84.1501 106.29 92.7501C102.68 98.4901 103.49 68.2201 123.51 71.7601C143.53 75.3001 142.86 93.8201 143.9 95.3601C144.94 96.9001 148.06 94.7701 148.37 88.7501C148.68 82.7301 151.11 75.6801 161.46 75.7401C171.8 75.8001 180.37 80.1301 178.84 86.9001C177.31 93.6701 193.85 72.9501 183.04 63.1701C172.24 53.3901 156.16 52.2501 149.5 56.8301C142.84 61.4101 149.08 47.8401 164.97 42.2401C180.68 36.7001 193.05 39.8301 200.63 48.5801C207.15 56.1101 210.35 67.1501 204.73 75.4201C204.73 75.4201 227.74 62.7201 228.07 42.4901C228.4 22.2601 211.36 14.78 200.99 16.69C190.62 18.6 186.73 23.0201 182.99 24.3401C179.25 25.6601 179.72 9.96011 187.25 3.39011C194.78 -3.17989 218.54 3.44015 230.72 16.9302C242.9 30.4202 260.19 60.2801 239.96 79.2501C239.96 79.2501 265.84 64.1701 270.06 77.2801C274.28 90.3901 257.48 102.94 251.44 101.62C251.44 101.62 265.05 104.14 270.6 96.4601C274.39 91.2201 267.25 119.59 243.22 111.48L85 153.58Z" fill="#6D4F3A"/>
<path d="M348.99 196.86C342.85 152.41 295.13 94.0703 199.52 104.58C103 115.19 12.4802 185.5 30.6302 268.06C43.5302 326.73 77.9801 339.97 77.9801 339.97C77.9801 339.97 64.7901 358.72 93.0401 382.7C121.29 406.69 194.06 436.25 271.5 423.15C329.32 413.37 374.83 363.12 365.22 321.56C359.57 297.15 338.26 294.5 342.71 271.77C347.17 249.06 353.2 227.35 348.99 196.86Z" fill="#FFDAAE"/>
<path d="M74.1694 291.37C62.5194 259.86 -0.410616 265.64 0.0493841 304.85C0.549384 347.45 51.5694 357.38 77.9794 339.98L74.1694 291.37Z" fill="#FFDAAE"/>
<path d="M281.81 180.96C284.52 177.22 289.8 174.99 294.18 174.05C298.44 173.13 303.25 173.59 307.13 175.64C313.69 179.11 321.46 187.3 320.23 195.36C320.14 195.95 319.71 196.28 319.17 196.41C319.09 196.44 319 196.44 318.91 196.43C317.76 196.13 317.72 195.06 317.28 194.1C316.54 192.49 315.44 191.03 314.28 189.7C311.98 187.06 309.15 184.54 305.98 183.01C302.94 181.55 299.53 181 296.22 181.82C292.43 182.76 289.88 185.34 286.55 187.11C282.81 189.09 279.63 183.97 281.81 180.96Z" fill="#6D4F3A"/>
<path d="M150.271 190.61C153.221 179.84 162.341 171.99 173.131 169.44C184.671 166.71 196.601 174.35 204.101 182.57C207.771 186.6 201.591 192.6 197.431 189.26C193.641 186.21 190.451 182.57 186.201 180.07C182.711 178.02 178.521 176.62 174.441 176.81C164.771 177.26 157.331 183.71 152.121 191.39C151.571 192.21 149.991 191.62 150.271 190.61Z" fill="#6D4F3A"/>
<path d="M219.36 87.29C219.36 87.29 249.8 97.94 245.03 114.49C240.26 131.04 207.48 150.9 181.66 122.74C181.66 122.74 199.62 131.56 210.17 129.5C220.71 127.43 229.59 115.81 228.64 110.48C227.7 105.15 203.59 102.57 203.59 102.57L219.36 87.29Z" fill="#6D4F3A"/>
<path d="M195.229 234.95C193.679 227.33 186.059 215.19 181.519 214.34C176.979 213.49 156.249 214.51 150.019 228.17C143.789 241.83 141.709 254.66 150.759 263.97C159.799 273.27 184.049 270.13 188.399 267.17C192.739 264.21 195.229 234.95 195.229 234.95Z" fill="white"/>
<path d="M279.84 232.42C282.41 225.08 291.53 215.02 298.98 214.05C304.02 213.39 315.32 219.21 319.63 233.59C323.94 247.97 320.1 258.54 313.42 264.45C304.71 272.15 293.29 269.73 289.06 267.62C284.36 265.28 279.84 232.42 279.84 232.42Z" fill="white"/>
<path d="M310.359 236.51C305.909 229.26 295.049 218.9 284.409 225.38C274.839 231.21 274.909 248.93 279.969 259.57C285.139 270.45 298.829 273.79 307.789 264.38C316.059 255.69 314.279 242.89 310.359 236.51Z" fill="#230D03"/>
<path d="M196.3 235.38C191.85 228.13 180.99 217.77 170.35 224.25C160.78 230.08 160.85 247.8 165.91 258.44C171.08 269.32 184.77 272.66 193.73 263.25C202 254.56 200.22 241.76 196.3 235.38Z" fill="#230D03"/>
<path d="M279.569 224.04C282.999 219.27 288.059 215.15 293.329 212.59C298.429 210.11 303.959 209.59 308.699 213.1C312.549 215.96 315.399 220.2 317.779 224.3C319.849 227.87 323.089 233.4 321.499 237.64C321.409 237.88 321.169 238.05 320.919 238.08C320.839 238.1 320.749 238.12 320.669 238.14C320.569 238.17 320.479 238.14 320.439 238.04C319.719 236.56 319.629 234.74 318.889 233.16C317.769 230.77 316.219 228.54 314.669 226.41C313.349 224.59 311.889 222.89 310.409 221.19C308.499 219.01 306.249 216.54 303.349 215.77C297.499 214.21 290.919 219.57 287.039 223.29C284.869 225.37 282.709 227.72 281.029 230.21C279.079 233.09 278.599 236.74 277.539 239.99C277.359 240.55 276.639 240.4 276.409 239.99C273.489 234.88 276.439 228.4 279.569 224.04Z" fill="#230D03"/>
<path d="M146.62 230C148.91 223.56 153.58 219.18 159.49 216.06C165.18 213.05 172.08 210.6 178.61 211.37C192.6 213.03 195.79 230.1 198.78 241.09C198.98 241.83 198.1 242.48 197.56 241.8C194.08 237.47 192.55 232.28 190.03 227.4C187.67 222.81 183.89 217.86 178.37 217.24C172.96 216.63 167.1 219 162.39 221.43C160.12 222.6 158.05 224.01 156.14 225.71C153.85 227.74 152.67 230.02 151.05 232.58C149.41 235.16 145.69 232.62 146.62 230Z" fill="#230D03"/>
<path d="M227.638 285.6C235.358 277.83 246.188 271.59 257.458 272.24C267.598 272.83 272.368 281.91 274.998 290.53C275.378 291.76 273.648 293.09 272.858 291.78C269.098 285.56 264.938 278.33 256.708 278.62C247.418 278.94 239.028 284.2 232.538 290.5C229.728 293.22 224.848 288.41 227.638 285.6Z" fill="#F29570"/>
<path d="M132.579 350.89C138.359 366.38 149.629 380.05 167.569 389.66C181.099 396.91 198.439 401.85 220.069 403.52C229.309 404.23 238.089 403.68 246.359 402.18C279.439 396.18 304.329 374.92 317.549 358.23C338.649 331.6 335.639 294.84 303.149 297.63C281.369 299.5 276.079 333.74 249.679 332.7C223.289 331.67 214.269 292.42 177.129 290.37C139.979 288.33 124.239 328.53 132.579 350.89Z" fill="#5C0000"/>
<path d="M167.569 389.66C181.099 396.91 198.439 401.85 220.069 403.52C229.309 404.23 238.089 403.68 246.359 402.18C253.269 398.34 256.539 393.64 250.989 384.16C237.799 361.63 183.109 349.39 168.709 363.09C159.489 371.86 162.499 381.95 167.569 389.66Z" fill="#F99582"/>
<path d="M14.1899 304.59C14.2799 301.46 14.5299 298.33 14.8499 295.24C15.3799 290.15 16.99 287.64 20.83 285.6C29.19 281.16 38.9299 282.2 47.7499 285.48C52.3099 287.18 56.7199 289.49 61.0499 291.98C64.9799 294.24 68.18 295.97 67.53 301.83C66.34 312.52 63.89 323.29 58.96 332.15C56.41 336.73 53.1799 340.42 48.2299 339.98C43.4099 339.55 38.9 335.49 35.78 331.05C33.92 328.4 36.83 325.14 39.03 327.06C42.28 329.91 46.5499 335.78 50.9099 333.17C54.4299 331.07 56.6599 324.61 58.1099 320.4C59.7399 315.67 60.8199 310.69 61.6799 305.63C61.9199 304.21 62.1499 302.78 62.3499 301.35C62.5199 300.12 62.6499 299.97 62.2499 299.31C61.7399 298.46 59.6099 297.67 58.8199 297.2C57.8199 296.59 56.8099 296 55.7899 295.42C54.4599 294.66 53.1199 293.93 51.7599 293.24C44.1199 300.78 36.9799 308.95 33.9199 320.84C33.5799 322.18 31.84 321.49 31.96 320.13C33.02 308.12 39.79 298.87 46.65 290.88C40.93 288.54 34.9999 287.21 29.0499 288.07C26.7699 288.4 24.5499 289.05 22.4399 290.09C21.3199 290.64 19.7899 291.27 19.0599 292.5C18.5499 293.36 18.4499 294.92 18.2999 295.93C17.8699 298.79 17.5699 301.68 17.2899 304.58C17.0399 307.2 17.1099 310.01 15.8699 312.2C15.6199 312.64 15.1299 312.44 14.9299 312.03C13.8699 309.75 14.1099 307.09 14.1899 304.59Z" fill="#F29570"/>
<path d="M288.178 228C283.508 227.96 278.898 238.94 282.228 241.22C285.558 243.5 291.768 241.48 293.288 237.85C294.808 234.22 291.888 228.04 288.178 228Z" fill="white"/>
<path d="M178.211 240.06C180.691 235.26 178.121 226.34 173.651 226.67C169.171 227.01 164.741 236.24 166.501 239.8C168.261 243.36 175.171 245.95 178.211 240.06Z" fill="white"/>
<path d="M35.8387 268.93C39.4987 267.75 44.3687 268.6 48.0487 269.39C52.1087 270.26 56.0387 271.79 59.6587 273.82C63.1087 275.76 66.2487 278.11 69.0187 280.93C70.5387 282.48 71.8987 284.14 73.0987 285.94C73.8287 287.04 75.0887 288.5 74.4487 289.85C74.1187 290.55 73.2287 290.49 72.8787 289.85C71.3287 287 68.2287 284.32 65.7687 282.26C63.0087 279.94 59.9587 277.96 56.6987 276.43C53.5387 274.95 50.2287 273.9 46.8087 273.24C45.1287 272.92 43.4387 272.7 41.7387 272.6C39.9387 272.49 38.0687 272.79 36.2987 272.5C34.6087 272.22 33.9887 269.53 35.8387 268.93Z" fill="#F29570"/>
<path d="M76.2975 339.16C77.0575 338.12 78.9976 338.83 78.6976 340.17C77.6876 344.62 77.0775 348.75 77.7975 353.32C78.4875 357.69 80.3176 361.84 82.7476 365.51C87.7676 373.1 94.9475 379.24 102.158 384.69C116.368 395.42 132.598 403.69 149.298 409.76C157.638 412.79 169.588 417.03 186.148 419.95C191.048 420.81 195.978 421.47 200.908 422.11C210.768 423.38 220.688 423.87 230.628 424.16C249.848 424.72 268.808 422.58 287.278 417.21C288.368 416.89 289.448 416.56 290.528 416.22C290.638 415.97 290.858 415.75 291.218 415.67C292.738 415.33 294.248 414.92 295.728 414.45C298.548 413.44 301.348 412.35 304.118 411.2C312.548 407.3 320.348 401.85 327.508 396.16C337.738 388.03 347.308 378.52 354.458 367.52C361.528 356.65 365.888 343.63 364.938 330.57C363.948 316.96 356.778 304.74 348.288 294.39C345.968 291.56 343.358 288.92 341.508 285.74C339.538 282.35 339.608 278.64 340.138 274.87C340.728 270.68 341.718 266.51 342.548 262.35C343.348 258.38 344.068 254.32 345.318 250.46C345.588 249.61 347.078 249.79 347.088 250.7C347.188 258.34 346.008 266.22 345.138 273.81C344.698 277.59 344.218 281.47 346.338 284.89C348.138 287.78 350.658 290.3 352.728 292.99C360.978 303.73 368.128 315.82 369.418 329.58C370.658 342.77 366.548 356.02 359.868 367.28C352.878 379.07 343.028 388.24 332.508 396.84C323.788 403.96 314.458 411.05 303.888 414.8C291.688 421.06 277.948 424.52 264.508 426.5C254.838 427.92 245.058 428.48 235.278 428.42C225.168 428.36 215.238 427.26 205.208 426.11C199.548 425.46 193.898 424.67 188.268 423.78C182.778 422.92 161.258 418.5 150.798 414.07C141.858 410.28 132.598 407.33 123.828 403.14C115.308 399.07 107.208 394.21 99.6575 388.53C92.0575 382.82 84.3876 376.28 79.1276 368.28C73.8376 360.29 69.9675 347.74 76.2975 339.16Z" fill="#F29570"/>
<path d="M147.168 623.02C150.918 613.87 166.998 609.62 188.438 624.85C209.878 640.08 218.398 655.09 218.728 663.1C219.058 671.11 202.518 710.53 195.148 719.49C187.778 728.45 146.808 737.01 146.808 737.01C146.808 737.01 154.128 750.65 147.438 754.4C134.428 761.69 103.878 734.48 100.328 719.49C96.6979 704.17 104.458 697.84 117.468 700.19C117.468 700.19 135.428 691.94 139.858 678.11C144.278 664.28 139.818 640.97 147.168 623.02Z" fill="#FFDAAE"/>
</svg>
