<svg width="250" height="250" viewBox="0 0 250 250" fill="none" xmlns="http://www.w3.org/2000/svg">
<path d="M180.608 174.82C208.854 146.574 208.854 100.779 180.608 72.5336C152.363 44.2881 106.567 44.2881 78.3218 72.5336C50.0763 100.779 50.0763 146.574 78.3218 174.82C106.567 203.065 152.363 203.065 180.608 174.82Z" fill="#A3D4F0"/>
<path d="M114.3 101.205C114.514 101.205 114.668 101.252 114.762 101.345C114.864 101.438 114.916 101.56 114.916 101.709C114.916 101.952 114.841 102.166 114.692 102.353C114.552 102.54 114.328 102.638 114.02 102.647C113.282 102.656 112.62 102.6 112.032 102.479C111.378 103.87 110.59 105.027 109.666 105.951C108.751 106.866 107.846 107.323 106.95 107.323C106.128 107.323 105.512 106.889 105.102 106.021C104.691 105.144 104.458 103.972 104.402 102.507C103.842 104.131 103.207 105.34 102.498 106.133C101.798 106.926 101.051 107.323 100.258 107.323C99.3617 107.323 98.685 106.768 98.2277 105.657C97.7703 104.537 97.5417 103.034 97.5417 101.149C97.5417 99.7769 97.663 98.2696 97.9057 96.6269C97.971 96.1603 98.0877 95.8383 98.2557 95.6609C98.433 95.4743 98.7083 95.3809 99.0817 95.3809C99.3617 95.3809 99.5763 95.4416 99.7257 95.5629C99.8843 95.6843 99.9637 95.9083 99.9637 96.2349C99.9637 96.3003 99.9543 96.4263 99.9357 96.6129C99.6557 98.5263 99.5157 100.155 99.5157 101.499C99.5157 102.75 99.623 103.716 99.8377 104.397C100.052 105.078 100.342 105.419 100.706 105.419C101.032 105.419 101.424 105.078 101.882 104.397C102.348 103.706 102.81 102.689 103.268 101.345C103.725 99.9916 104.112 98.3816 104.43 96.5149C104.504 96.0856 104.64 95.7916 104.836 95.6329C105.041 95.4649 105.316 95.3809 105.662 95.3809C105.951 95.3809 106.161 95.4463 106.292 95.5769C106.432 95.6983 106.502 95.8849 106.502 96.1369C106.502 96.2863 106.492 96.4029 106.474 96.4869C106.212 98.0083 106.082 99.5296 106.082 101.051C106.082 102.087 106.114 102.913 106.18 103.529C106.254 104.145 106.39 104.616 106.586 104.943C106.791 105.26 107.085 105.419 107.468 105.419C107.916 105.419 108.415 105.083 108.966 104.411C109.516 103.73 110.02 102.885 110.478 101.877C109.908 101.522 109.479 101.065 109.19 100.505C108.9 99.9356 108.756 99.2823 108.756 98.5449C108.756 97.8076 108.868 97.1869 109.092 96.6829C109.325 96.1696 109.638 95.7869 110.03 95.5349C110.431 95.2829 110.874 95.1569 111.36 95.1569C111.957 95.1569 112.428 95.3716 112.774 95.8009C113.128 96.2303 113.306 96.8183 113.306 97.5649C113.306 98.6196 113.077 99.7909 112.62 101.079C113.096 101.163 113.656 101.205 114.3 101.205ZM110.17 98.4469C110.17 99.3616 110.464 100.038 111.052 100.477C111.416 99.4316 111.598 98.5683 111.598 97.8869C111.598 97.4949 111.546 97.2103 111.444 97.0329C111.341 96.8463 111.201 96.7529 111.024 96.7529C110.772 96.7529 110.566 96.9023 110.408 97.2009C110.249 97.4903 110.17 97.9056 110.17 98.4469ZM119.799 104.131C119.92 104.131 120.013 104.187 120.079 104.299C120.153 104.411 120.191 104.565 120.191 104.761C120.191 105.134 120.102 105.424 119.925 105.629C119.579 106.049 119.089 106.436 118.455 106.791C117.829 107.146 117.157 107.323 116.439 107.323C115.459 107.323 114.698 107.057 114.157 106.525C113.615 105.993 113.345 105.265 113.345 104.341C113.345 103.697 113.48 103.1 113.751 102.549C114.021 101.989 114.395 101.546 114.871 101.219C115.356 100.892 115.902 100.729 116.509 100.729C117.05 100.729 117.484 100.892 117.811 101.219C118.137 101.536 118.301 101.97 118.301 102.521C118.301 103.165 118.067 103.72 117.601 104.187C117.143 104.644 116.364 105.008 115.263 105.279C115.496 105.708 115.939 105.923 116.593 105.923C117.013 105.923 117.489 105.778 118.021 105.489C118.562 105.19 119.029 104.803 119.421 104.327C119.533 104.196 119.659 104.131 119.799 104.131ZM116.271 102.101C115.925 102.101 115.631 102.302 115.389 102.703C115.155 103.104 115.039 103.59 115.039 104.159V104.187C115.589 104.056 116.023 103.86 116.341 103.599C116.658 103.338 116.817 103.034 116.817 102.689C116.817 102.512 116.765 102.372 116.663 102.269C116.569 102.157 116.439 102.101 116.271 102.101ZM124.357 104.131C124.478 104.131 124.572 104.187 124.637 104.299C124.712 104.411 124.749 104.565 124.749 104.761C124.749 105.134 124.66 105.424 124.483 105.629C124.082 106.124 123.643 106.53 123.167 106.847C122.7 107.164 122.168 107.323 121.571 107.323C120.75 107.323 120.138 106.95 119.737 106.203C119.345 105.456 119.149 104.49 119.149 103.305C119.149 102.166 119.294 100.869 119.583 99.4129C119.882 97.9569 120.316 96.7063 120.885 95.6609C121.464 94.6156 122.15 94.0929 122.943 94.0929C123.391 94.0929 123.741 94.3029 123.993 94.7229C124.254 95.1336 124.385 95.7263 124.385 96.5009C124.385 97.6116 124.077 98.8996 123.461 100.365C122.845 101.83 122.01 103.282 120.955 104.719C121.02 105.102 121.128 105.377 121.277 105.545C121.426 105.704 121.622 105.783 121.865 105.783C122.248 105.783 122.584 105.676 122.873 105.461C123.162 105.237 123.531 104.859 123.979 104.327C124.091 104.196 124.217 104.131 124.357 104.131ZM122.635 95.4789C122.42 95.4789 122.178 95.8663 121.907 96.6409C121.636 97.4156 121.398 98.3769 121.193 99.5249C120.988 100.673 120.876 101.774 120.857 102.829C121.52 101.737 122.047 100.645 122.439 99.5529C122.831 98.4516 123.027 97.4483 123.027 96.5429C123.027 95.8336 122.896 95.4789 122.635 95.4789ZM126.291 107.323C125.377 107.323 124.663 107.066 124.149 106.553C123.645 106.03 123.393 105.344 123.393 104.495C123.393 103.739 123.543 103.076 123.841 102.507C124.14 101.938 124.527 101.499 125.003 101.191C125.479 100.883 125.979 100.729 126.501 100.729C127.015 100.729 127.411 100.883 127.691 101.191C127.981 101.49 128.125 101.877 128.125 102.353C128.125 102.745 128.037 103.076 127.859 103.347C127.691 103.618 127.467 103.753 127.187 103.753C127.01 103.753 126.865 103.711 126.753 103.627C126.651 103.543 126.599 103.426 126.599 103.277C126.599 103.212 126.609 103.137 126.627 103.053C126.646 102.969 126.66 102.908 126.669 102.871C126.716 102.731 126.739 102.6 126.739 102.479C126.739 102.358 126.707 102.264 126.641 102.199C126.585 102.134 126.501 102.101 126.389 102.101C126.175 102.101 125.974 102.199 125.787 102.395C125.601 102.582 125.451 102.838 125.339 103.165C125.227 103.492 125.171 103.851 125.171 104.243C125.171 105.326 125.643 105.867 126.585 105.867C126.968 105.867 127.379 105.741 127.817 105.489C128.265 105.228 128.704 104.84 129.133 104.327C129.245 104.196 129.371 104.131 129.511 104.131C129.633 104.131 129.726 104.187 129.791 104.299C129.866 104.411 129.903 104.565 129.903 104.761C129.903 105.116 129.815 105.405 129.637 105.629C129.199 106.17 128.671 106.59 128.055 106.889C127.449 107.178 126.861 107.323 126.291 107.323ZM135.912 102.955C136.033 102.955 136.126 103.016 136.192 103.137C136.257 103.258 136.29 103.412 136.29 103.599C136.29 104.047 136.154 104.313 135.884 104.397C135.324 104.593 134.708 104.705 134.036 104.733C133.858 105.517 133.508 106.147 132.986 106.623C132.463 107.09 131.87 107.323 131.208 107.323C130.648 107.323 130.167 107.188 129.766 106.917C129.374 106.646 129.075 106.287 128.87 105.839C128.664 105.391 128.562 104.906 128.562 104.383C128.562 103.674 128.697 103.044 128.968 102.493C129.238 101.933 129.612 101.499 130.088 101.191C130.564 100.874 131.091 100.715 131.67 100.715C132.379 100.715 132.948 100.962 133.378 101.457C133.816 101.942 134.073 102.544 134.148 103.263C134.586 103.235 135.109 103.142 135.716 102.983C135.79 102.964 135.856 102.955 135.912 102.955ZM131.32 105.839C131.618 105.839 131.875 105.718 132.09 105.475C132.314 105.232 132.463 104.882 132.538 104.425C132.248 104.229 132.024 103.972 131.866 103.655C131.716 103.338 131.642 103.002 131.642 102.647C131.642 102.498 131.656 102.348 131.684 102.199H131.614C131.24 102.199 130.928 102.381 130.676 102.745C130.433 103.1 130.312 103.604 130.312 104.257C130.312 104.77 130.41 105.162 130.606 105.433C130.811 105.704 131.049 105.839 131.32 105.839ZM136.082 107.323C135.727 107.323 135.475 107.136 135.326 106.763C135.186 106.39 135.116 105.792 135.116 104.971C135.116 103.758 135.289 102.605 135.634 101.513C135.718 101.242 135.853 101.046 136.04 100.925C136.236 100.794 136.507 100.729 136.852 100.729C137.039 100.729 137.169 100.752 137.244 100.799C137.319 100.846 137.356 100.934 137.356 101.065C137.356 101.214 137.286 101.55 137.146 102.073C137.053 102.446 136.978 102.773 136.922 103.053C136.866 103.324 136.819 103.664 136.782 104.075C137.034 103.347 137.333 102.731 137.678 102.227C138.033 101.723 138.392 101.35 138.756 101.107C139.129 100.855 139.479 100.729 139.806 100.729C140.133 100.729 140.361 100.804 140.492 100.953C140.632 101.102 140.702 101.331 140.702 101.639C140.702 101.938 140.613 102.479 140.436 103.263C140.361 103.599 140.31 103.851 140.282 104.019C140.749 102.871 141.267 102.036 141.836 101.513C142.405 100.99 142.937 100.729 143.432 100.729C144.039 100.729 144.342 101.032 144.342 101.639C144.342 102.003 144.239 102.661 144.034 103.613C143.857 104.425 143.768 104.962 143.768 105.223C143.768 105.596 143.903 105.783 144.174 105.783C144.361 105.783 144.58 105.671 144.832 105.447C145.093 105.214 145.439 104.84 145.868 104.327C145.98 104.196 146.106 104.131 146.246 104.131C146.367 104.131 146.461 104.187 146.526 104.299C146.601 104.411 146.638 104.565 146.638 104.761C146.638 105.134 146.549 105.424 146.372 105.629C145.971 106.124 145.537 106.53 145.07 106.847C144.613 107.164 144.09 107.323 143.502 107.323C143.026 107.323 142.667 107.188 142.424 106.917C142.181 106.637 142.06 106.236 142.06 105.713C142.06 105.452 142.125 104.985 142.256 104.313C142.377 103.725 142.438 103.319 142.438 103.095C142.438 102.946 142.387 102.871 142.284 102.871C142.163 102.871 141.99 103.03 141.766 103.347C141.542 103.655 141.318 104.066 141.094 104.579C140.87 105.092 140.688 105.634 140.548 106.203C140.445 106.651 140.324 106.95 140.184 107.099C140.053 107.248 139.839 107.323 139.54 107.323C139.232 107.323 138.999 107.178 138.84 106.889C138.691 106.59 138.616 106.231 138.616 105.811C138.616 105.456 138.663 104.943 138.756 104.271C138.831 103.674 138.868 103.282 138.868 103.095C138.868 102.946 138.817 102.871 138.714 102.871C138.574 102.871 138.397 103.039 138.182 103.375C137.967 103.711 137.757 104.14 137.552 104.663C137.356 105.186 137.197 105.699 137.076 106.203C136.973 106.642 136.852 106.94 136.712 107.099C136.581 107.248 136.371 107.323 136.082 107.323ZM150.518 104.551C150.639 104.551 150.733 104.607 150.798 104.719C150.873 104.831 150.91 104.985 150.91 105.181C150.91 105.517 150.831 105.806 150.672 106.049C150.411 106.45 150.065 106.763 149.636 106.987C149.216 107.211 148.712 107.323 148.124 107.323C147.228 107.323 146.533 107.057 146.038 106.525C145.543 105.984 145.296 105.256 145.296 104.341C145.296 103.697 145.431 103.1 145.702 102.549C145.973 101.989 146.346 101.546 146.822 101.219C147.307 100.892 147.853 100.729 148.46 100.729C149.001 100.729 149.435 100.892 149.762 101.219C150.089 101.536 150.252 101.97 150.252 102.521C150.252 103.165 150.019 103.72 149.552 104.187C149.095 104.644 148.311 105.008 147.2 105.279C147.424 105.708 147.802 105.923 148.334 105.923C148.717 105.923 149.029 105.834 149.272 105.657C149.524 105.48 149.813 105.181 150.14 104.761C150.252 104.621 150.378 104.551 150.518 104.551ZM148.222 102.101C147.877 102.101 147.583 102.302 147.34 102.703C147.107 103.104 146.99 103.59 146.99 104.159V104.187C147.541 104.056 147.975 103.86 148.292 103.599C148.609 103.338 148.768 103.034 148.768 102.689C148.768 102.512 148.717 102.372 148.614 102.269C148.521 102.157 148.39 102.101 148.222 102.101Z" fill="white"/>
<path d="M114.024 121.272C114.119 121.272 114.193 121.316 114.244 121.404C114.303 121.492 114.332 121.613 114.332 121.767C114.332 122.06 114.262 122.288 114.123 122.449C113.808 122.838 113.463 123.157 113.089 123.406C112.715 123.655 112.286 123.78 111.802 123.78C110.306 123.78 109.558 122.728 109.558 120.623C109.558 120.3 109.569 119.974 109.591 119.644H109.162C108.942 119.644 108.792 119.604 108.711 119.523C108.638 119.442 108.601 119.314 108.601 119.138C108.601 118.727 108.766 118.522 109.096 118.522H109.723C109.848 117.715 110.038 116.978 110.295 116.311C110.552 115.644 110.86 115.112 111.219 114.716C111.586 114.32 111.978 114.122 112.396 114.122C112.704 114.122 112.946 114.258 113.122 114.529C113.298 114.8 113.386 115.141 113.386 115.552C113.386 116.689 112.909 117.679 111.956 118.522H113.188C113.305 118.522 113.39 118.548 113.441 118.599C113.492 118.65 113.518 118.746 113.518 118.885C113.518 119.391 113.104 119.644 112.275 119.644H110.933C110.918 120.011 110.911 120.297 110.911 120.502C110.911 121.265 110.999 121.8 111.175 122.108C111.358 122.416 111.644 122.57 112.033 122.57C112.348 122.57 112.627 122.475 112.869 122.284C113.111 122.093 113.397 121.807 113.727 121.426C113.815 121.323 113.914 121.272 114.024 121.272ZM112.099 115.178C111.989 115.178 111.864 115.317 111.725 115.596C111.593 115.867 111.465 116.249 111.34 116.74C111.223 117.224 111.124 117.763 111.043 118.357C111.476 117.983 111.798 117.565 112.011 117.103C112.231 116.634 112.341 116.208 112.341 115.827C112.341 115.394 112.26 115.178 112.099 115.178ZM115.295 123.78C114.863 123.78 114.492 123.674 114.184 123.461C113.884 123.241 113.656 122.955 113.502 122.603C113.348 122.251 113.271 121.873 113.271 121.47C113.271 120.913 113.374 120.418 113.579 119.985C113.792 119.545 114.078 119.204 114.437 118.962C114.797 118.713 115.2 118.588 115.647 118.588C116.08 118.588 116.45 118.698 116.758 118.918C117.066 119.131 117.297 119.413 117.451 119.765C117.605 120.117 117.682 120.495 117.682 120.898C117.682 121.455 117.576 121.954 117.363 122.394C117.151 122.827 116.861 123.168 116.494 123.417C116.135 123.659 115.735 123.78 115.295 123.78ZM115.416 122.592C115.666 122.592 115.875 122.456 116.043 122.185C116.219 121.914 116.307 121.518 116.307 120.997C116.307 120.594 116.234 120.289 116.087 120.084C115.941 119.879 115.765 119.776 115.559 119.776C115.295 119.776 115.075 119.912 114.899 120.183C114.731 120.447 114.646 120.843 114.646 121.371C114.646 121.789 114.72 122.097 114.866 122.295C115.013 122.493 115.196 122.592 115.416 122.592ZM126.238 121.272C126.333 121.272 126.406 121.316 126.458 121.404C126.516 121.492 126.546 121.613 126.546 121.767C126.546 122.06 126.476 122.288 126.337 122.449C126.021 122.838 125.677 123.157 125.303 123.406C124.929 123.655 124.5 123.78 124.016 123.78C122.52 123.78 121.772 122.728 121.772 120.623C121.772 120.3 121.783 119.974 121.805 119.644H121.376C121.156 119.644 121.005 119.604 120.925 119.523C120.851 119.442 120.815 119.314 120.815 119.138C120.815 118.727 120.98 118.522 121.31 118.522H121.937C122.061 117.715 122.252 116.978 122.509 116.311C122.765 115.644 123.073 115.112 123.433 114.716C123.799 114.32 124.192 114.122 124.61 114.122C124.918 114.122 125.16 114.258 125.336 114.529C125.512 114.8 125.6 115.141 125.6 115.552C125.6 116.689 125.123 117.679 124.17 118.522H125.402C125.519 118.522 125.603 118.548 125.655 118.599C125.706 118.65 125.732 118.746 125.732 118.885C125.732 119.391 125.317 119.644 124.489 119.644H123.147C123.132 120.011 123.125 120.297 123.125 120.502C123.125 121.265 123.213 121.8 123.389 122.108C123.572 122.416 123.858 122.57 124.247 122.57C124.562 122.57 124.841 122.475 125.083 122.284C125.325 122.093 125.611 121.807 125.941 121.426C126.029 121.323 126.128 121.272 126.238 121.272ZM124.313 115.178C124.203 115.178 124.078 115.317 123.939 115.596C123.807 115.867 123.678 116.249 123.554 116.74C123.436 117.224 123.337 117.763 123.257 118.357C123.689 117.983 124.012 117.565 124.225 117.103C124.445 116.634 124.555 116.208 124.555 115.827C124.555 115.394 124.474 115.178 124.313 115.178ZM131.755 121.272C131.85 121.272 131.924 121.316 131.975 121.404C132.034 121.492 132.063 121.613 132.063 121.767C132.063 122.06 131.993 122.288 131.854 122.449C131.517 122.838 131.168 123.157 130.809 123.406C130.457 123.655 130.054 123.78 129.599 123.78C129.225 123.78 128.943 123.674 128.752 123.461C128.561 123.241 128.466 122.926 128.466 122.515C128.466 122.31 128.517 121.943 128.62 121.415C128.715 120.953 128.763 120.634 128.763 120.458C128.763 120.341 128.723 120.282 128.642 120.282C128.547 120.282 128.411 120.407 128.235 120.656C128.059 120.898 127.883 121.221 127.707 121.624C127.531 122.027 127.388 122.453 127.278 122.9C127.139 123.487 126.794 123.78 126.244 123.78C126.024 123.78 125.877 123.703 125.804 123.549C125.738 123.388 125.705 123.102 125.705 122.691C125.705 122.456 125.709 122.269 125.716 122.13L125.727 121.25C125.727 120.121 125.841 118.944 126.068 117.719C126.303 116.494 126.644 115.468 127.091 114.639C127.546 113.803 128.088 113.385 128.719 113.385C129.056 113.385 129.328 113.532 129.533 113.825C129.746 114.111 129.852 114.485 129.852 114.947C129.852 115.688 129.636 116.458 129.203 117.257C128.77 118.049 128.066 118.977 127.091 120.04C127.069 120.421 127.058 120.814 127.058 121.217C127.3 120.594 127.568 120.088 127.861 119.699C128.162 119.303 128.455 119.021 128.741 118.852C129.034 118.683 129.302 118.599 129.544 118.599C130.021 118.599 130.259 118.837 130.259 119.314C130.259 119.6 130.178 120.117 130.017 120.865C129.878 121.503 129.808 121.925 129.808 122.13C129.808 122.423 129.914 122.57 130.127 122.57C130.274 122.57 130.446 122.482 130.644 122.306C130.849 122.123 131.121 121.829 131.458 121.426C131.546 121.323 131.645 121.272 131.755 121.272ZM128.488 114.474C128.356 114.474 128.209 114.665 128.048 115.046C127.887 115.42 127.729 115.93 127.575 116.575C127.428 117.213 127.307 117.91 127.212 118.665C127.667 118.13 128.041 117.547 128.334 116.916C128.635 116.285 128.785 115.713 128.785 115.2C128.785 114.965 128.759 114.786 128.708 114.661C128.657 114.536 128.583 114.474 128.488 114.474ZM135.11 121.602C135.205 121.602 135.278 121.646 135.33 121.734C135.388 121.822 135.418 121.943 135.418 122.097C135.418 122.361 135.355 122.588 135.231 122.779C135.025 123.094 134.754 123.34 134.417 123.516C134.087 123.692 133.691 123.78 133.229 123.78C132.525 123.78 131.978 123.571 131.59 123.153C131.201 122.728 131.007 122.156 131.007 121.437C131.007 120.931 131.113 120.462 131.326 120.029C131.538 119.589 131.832 119.241 132.206 118.984C132.587 118.727 133.016 118.599 133.493 118.599C133.918 118.599 134.259 118.727 134.516 118.984C134.772 119.233 134.901 119.574 134.901 120.007C134.901 120.513 134.717 120.949 134.351 121.316C133.991 121.675 133.375 121.961 132.503 122.174C132.679 122.511 132.976 122.68 133.394 122.68C133.694 122.68 133.94 122.61 134.131 122.471C134.329 122.332 134.556 122.097 134.813 121.767C134.901 121.657 135 121.602 135.11 121.602ZM133.306 119.677C133.034 119.677 132.803 119.835 132.613 120.15C132.429 120.465 132.338 120.847 132.338 121.294V121.316C132.77 121.213 133.111 121.059 133.361 120.854C133.61 120.649 133.735 120.41 133.735 120.139C133.735 120 133.694 119.89 133.614 119.809C133.54 119.721 133.438 119.677 133.306 119.677Z" fill="white"/>
<path d="M134.181 131.942C134.209 131.933 134.256 131.928 134.321 131.928C134.461 131.928 134.569 131.975 134.643 132.068C134.718 132.162 134.755 132.288 134.755 132.446C134.755 132.736 134.699 132.964 134.587 133.132C134.475 133.291 134.307 133.408 134.083 133.482C133.654 133.622 133.197 133.692 132.711 133.692C132.301 133.692 131.913 133.636 131.549 133.524C131.279 133.963 130.98 134.416 130.653 134.882C130.28 135.414 129.958 135.778 129.687 135.974C129.426 136.17 129.127 136.268 128.791 136.268C128.418 136.268 128.133 136.124 127.937 135.834C127.751 135.545 127.634 135.069 127.587 134.406L127.517 133.384C127.228 134.168 126.967 134.766 126.733 135.176C126.509 135.587 126.281 135.872 126.047 136.03C125.823 136.189 125.557 136.268 125.249 136.268C124.867 136.268 124.563 136.119 124.339 135.82C124.125 135.522 123.989 135.05 123.933 134.406C123.821 133.1 123.765 131.956 123.765 130.976V130.486C123.775 130.178 123.859 129.964 124.017 129.842C124.176 129.721 124.414 129.66 124.731 129.66C124.974 129.66 125.151 129.716 125.263 129.828C125.385 129.931 125.445 130.108 125.445 130.36C125.445 131.434 125.511 132.829 125.641 134.546C126.276 133.212 126.859 131.821 127.391 130.374C127.494 130.094 127.615 129.908 127.755 129.814C127.905 129.712 128.082 129.66 128.287 129.66C128.539 129.66 128.712 129.712 128.805 129.814C128.908 129.917 128.959 130.099 128.959 130.36C128.959 131.434 129.025 132.829 129.155 134.546C129.715 133.716 130.135 133.053 130.415 132.558C130.275 132.288 130.205 131.966 130.205 131.592C130.205 131.275 130.275 130.967 130.415 130.668C130.555 130.37 130.747 130.127 130.989 129.94C131.232 129.754 131.507 129.66 131.815 129.66C132.086 129.66 132.305 129.758 132.473 129.954C132.641 130.141 132.725 130.416 132.725 130.78C132.725 131.2 132.613 131.681 132.389 132.222C132.744 132.204 133.215 132.134 133.803 132.012L134.181 131.942ZM140.68 131.9C140.801 131.9 140.895 131.961 140.96 132.082C141.025 132.204 141.058 132.358 141.058 132.544C141.058 132.992 140.923 133.258 140.652 133.342C140.092 133.538 139.476 133.65 138.804 133.678C138.627 134.462 138.277 135.092 137.754 135.568C137.231 136.035 136.639 136.268 135.976 136.268C135.416 136.268 134.935 136.133 134.534 135.862C134.142 135.592 133.843 135.232 133.638 134.784C133.433 134.336 133.33 133.851 133.33 133.328C133.33 132.619 133.465 131.989 133.736 131.438C134.007 130.878 134.38 130.444 134.856 130.136C135.332 129.819 135.859 129.66 136.438 129.66C137.147 129.66 137.717 129.908 138.146 130.402C138.585 130.888 138.841 131.49 138.916 132.208C139.355 132.18 139.877 132.087 140.484 131.928C140.559 131.91 140.624 131.9 140.68 131.9ZM136.088 134.784C136.387 134.784 136.643 134.663 136.858 134.42C137.082 134.178 137.231 133.828 137.306 133.37C137.017 133.174 136.793 132.918 136.634 132.6C136.485 132.283 136.41 131.947 136.41 131.592C136.41 131.443 136.424 131.294 136.452 131.144H136.382C136.009 131.144 135.696 131.326 135.444 131.69C135.201 132.045 135.08 132.549 135.08 133.202C135.08 133.716 135.178 134.108 135.374 134.378C135.579 134.649 135.817 134.784 136.088 134.784ZM140.851 136.268C140.496 136.268 140.244 136.082 140.095 135.708C139.955 135.335 139.885 134.738 139.885 133.916C139.885 132.703 140.057 131.55 140.403 130.458C140.487 130.188 140.622 129.992 140.809 129.87C141.005 129.74 141.275 129.674 141.621 129.674C141.807 129.674 141.938 129.698 142.013 129.744C142.087 129.791 142.125 129.88 142.125 130.01C142.125 130.16 142.055 130.496 141.915 131.018C141.821 131.392 141.747 131.718 141.691 131.998C141.635 132.278 141.588 132.624 141.551 133.034C141.859 132.232 142.204 131.578 142.587 131.074C142.969 130.57 143.343 130.211 143.707 129.996C144.08 129.782 144.421 129.674 144.729 129.674C145.335 129.674 145.639 129.978 145.639 130.584C145.639 130.706 145.597 131 145.513 131.466C145.438 131.84 145.401 132.073 145.401 132.166C145.401 132.493 145.517 132.656 145.751 132.656C146.012 132.656 146.348 132.451 146.759 132.04C146.88 131.919 147.006 131.858 147.137 131.858C147.258 131.858 147.351 131.914 147.417 132.026C147.491 132.129 147.529 132.269 147.529 132.446C147.529 132.792 147.435 133.062 147.249 133.258C146.987 133.529 146.679 133.762 146.325 133.958C145.979 134.145 145.611 134.238 145.219 134.238C144.724 134.238 144.346 134.112 144.085 133.86C143.833 133.608 143.707 133.268 143.707 132.838C143.707 132.698 143.721 132.558 143.749 132.418C143.767 132.232 143.777 132.106 143.777 132.04C143.777 131.891 143.725 131.816 143.623 131.816C143.483 131.816 143.296 131.975 143.063 132.292C142.839 132.6 142.615 133.011 142.391 133.524C142.167 134.038 141.985 134.579 141.845 135.148C141.742 135.587 141.621 135.886 141.481 136.044C141.35 136.194 141.14 136.268 140.851 136.268ZM151.534 133.076C151.655 133.076 151.748 133.132 151.814 133.244C151.888 133.356 151.926 133.51 151.926 133.706C151.926 134.08 151.837 134.369 151.66 134.574C151.258 135.069 150.82 135.475 150.344 135.792C149.877 136.11 149.345 136.268 148.748 136.268C147.926 136.268 147.315 135.895 146.914 135.148C146.522 134.402 146.326 133.436 146.326 132.25C146.326 131.112 146.47 129.814 146.76 128.358C147.058 126.902 147.492 125.652 148.062 124.606C148.64 123.561 149.326 123.038 150.12 123.038C150.568 123.038 150.918 123.248 151.17 123.668C151.431 124.079 151.562 124.672 151.562 125.446C151.562 126.557 151.254 127.845 150.638 129.31C150.022 130.776 149.186 132.227 148.132 133.664C148.197 134.047 148.304 134.322 148.454 134.49C148.603 134.649 148.799 134.728 149.042 134.728C149.424 134.728 149.76 134.621 150.05 134.406C150.339 134.182 150.708 133.804 151.156 133.272C151.268 133.142 151.394 133.076 151.534 133.076ZM149.812 124.424C149.597 124.424 149.354 124.812 149.084 125.586C148.813 126.361 148.575 127.322 148.37 128.47C148.164 129.618 148.052 130.72 148.034 131.774C148.696 130.682 149.224 129.59 149.616 128.498C150.008 127.397 150.204 126.394 150.204 125.488C150.204 124.779 150.073 124.424 149.812 124.424ZM155.753 133.076C155.856 133.842 156.005 134.598 156.201 135.344C156.239 135.466 156.257 135.592 156.257 135.722C156.257 136.142 156.001 136.352 155.487 136.352C155.198 136.352 154.974 136.273 154.815 136.114C154.666 135.956 154.526 135.657 154.395 135.218L154.381 135.162C154.027 135.601 153.705 135.895 153.415 136.044C153.135 136.194 152.809 136.268 152.435 136.268C151.866 136.268 151.395 136.058 151.021 135.638C150.657 135.209 150.475 134.654 150.475 133.972C150.475 133.226 150.634 132.535 150.951 131.9C151.269 131.266 151.703 130.748 152.253 130.346C152.804 129.936 153.42 129.688 154.101 129.604C154.279 127.84 154.615 126.305 155.109 124.998C155.613 123.692 156.281 123.038 157.111 123.038C157.513 123.038 157.844 123.22 158.105 123.584C158.376 123.948 158.511 124.499 158.511 125.236C158.511 126.263 158.259 127.462 157.755 128.834C157.251 130.206 156.584 131.62 155.753 133.076ZM156.957 124.41C156.687 124.41 156.43 125.101 156.187 126.482C155.954 127.864 155.795 129.366 155.711 130.99C156.747 128.75 157.265 126.93 157.265 125.53C157.265 125.176 157.233 124.9 157.167 124.704C157.111 124.508 157.041 124.41 156.957 124.41ZM152.925 134.854C153.112 134.854 153.289 134.784 153.457 134.644C153.635 134.504 153.859 134.234 154.129 133.832C154.036 133.151 153.989 132.446 153.989 131.718C153.989 131.429 153.994 131.205 154.003 131.046C153.49 131.196 153.065 131.536 152.729 132.068C152.393 132.6 152.225 133.188 152.225 133.832C152.225 134.514 152.459 134.854 152.925 134.854Z" fill="white"/>
<path d="M87.3412 57.2814C87.9492 58.6339 87.4087 60.1954 86.1332 60.7689C84.8572 61.3419 83.3302 60.7104 82.7222 59.3579C82.1142 58.0054 82.6552 56.4439 83.9307 55.8704C85.2062 55.2969 86.7332 55.9289 87.3412 57.2814Z" fill="#BFEDFD"/>
<path d="M91.962 57.2544C91.7955 58.3249 90.843 59.0659 89.834 58.9099C88.824 58.7534 88.1405 57.7584 88.306 56.6884C88.472 55.6179 89.4245 54.8769 90.434 55.0329C91.4435 55.1889 92.1275 56.1829 91.962 57.2544Z" fill="#BFEDFD"/>
<path d="M95.6609 58.2712C95.5164 59.2067 94.6834 59.8542 93.8014 59.7187C92.9189 59.5822 92.3214 58.7127 92.4659 57.7772C92.6109 56.8417 93.4434 56.1932 94.3259 56.3297C95.2079 56.4667 95.8059 57.3357 95.6609 58.2712Z" fill="#BFEDFD"/>
<path d="M97.5228 60.9514C97.1813 61.5229 96.4678 61.7259 95.9283 61.4044C95.3888 61.0819 95.2288 60.3574 95.5698 59.7864C95.9113 59.2144 96.6248 59.0109 97.1638 59.3334C97.7038 59.6549 97.8638 60.3794 97.5228 60.9514Z" fill="#BFEDFD"/>
<path d="M98.7434 63.2485C98.4489 63.7425 97.8324 63.9175 97.3669 63.64C96.9009 63.3615 96.7624 62.7355 97.0574 62.2425C97.3514 61.7485 97.9684 61.5735 98.4339 61.851C98.8994 62.1295 99.0384 62.7555 98.7434 63.2485Z" fill="#BFEDFD"/>
<path d="M87.5903 68.9953C88.4108 68.2103 85.2688 66.9818 85.3368 63.9738C85.4048 60.9658 88.3493 58.9963 92.2353 60.7423C96.1208 62.4893 99.0898 69.1263 92.7588 75.4573C86.4283 81.7883 80.0203 76.2423 87.5903 68.9953Z" fill="#BFEDFD"/>
<path d="M77.1871 48.2125C76.5791 49.565 77.1201 51.1265 78.3956 51.701C79.6711 52.274 81.1976 51.6425 81.8061 50.29C82.4146 48.9375 81.8736 47.376 80.5976 46.8025C79.3226 46.229 77.7956 46.861 77.1871 48.2125Z" fill="#BFEDFD"/>
<path d="M72.5668 48.1861C72.7323 49.2566 73.6848 49.9976 74.6948 49.8406C75.7043 49.6841 76.3883 48.6901 76.2223 47.6201C76.0563 46.5486 75.1043 45.8086 74.0948 45.9646C73.0848 46.1206 72.4008 47.1146 72.5668 48.1861Z" fill="#BFEDFD"/>
<path d="M68.8683 49.2028C69.0133 50.1383 69.8458 50.7858 70.7283 50.6493C71.6103 50.5128 72.2083 49.6433 72.0633 48.7078C71.9183 47.7723 71.0858 47.1248 70.2033 47.2613C69.3218 47.3983 68.7233 48.2673 68.8683 49.2028Z" fill="#BFEDFD"/>
<path d="M67.0066 51.8836C67.3476 52.4551 68.0611 52.6581 68.6006 52.3356C69.1401 52.0141 69.3001 51.2896 68.9586 50.7176C68.6176 50.1461 67.9041 49.9431 67.3646 50.2656C66.8256 50.5866 66.6651 51.3111 67.0066 51.8836Z" fill="#BFEDFD"/>
<path d="M65.7859 54.1802C66.0804 54.6742 66.6969 54.8492 67.1624 54.5707C67.6284 54.2932 67.7669 53.6672 67.4724 53.1732C67.1774 52.6802 66.5609 52.5052 66.0949 52.7827C65.6294 53.0612 65.4909 53.6862 65.7859 54.1802Z" fill="#BFEDFD"/>
<path d="M76.9377 59.9265C76.1177 59.1415 79.2592 57.913 79.1912 54.906C79.1232 51.898 76.1787 49.9285 72.2922 51.6745C68.4067 53.4215 65.4372 60.0575 71.7682 66.3885C78.0997 72.7195 84.5082 67.1745 76.9377 59.9265Z" fill="#BFEDFD"/>
<path d="M46.9096 161.57C45.4651 161.051 44.7151 159.459 45.2336 158.015C45.7526 156.57 47.3446 155.82 48.7886 156.339L46.9096 161.57Z" fill="#6AA3E1"/>
<path d="M47.0851 161.944L46.8106 161.844C45.2166 161.272 44.3861 159.509 44.9581 157.916C45.4741 156.481 46.9331 155.649 48.4276 155.938C48.5831 155.968 48.7376 156.01 48.8871 156.064L49.1621 156.163L47.0851 161.944ZM48.3171 156.511C47.1271 156.281 45.9196 156.97 45.5086 158.113C45.0786 159.309 45.6266 160.625 46.7391 161.179L48.4091 156.53C48.3781 156.524 48.3476 156.517 48.3171 156.511Z" fill="#6AA3E1"/>
<path d="M47.3285 160.992L47.141 160.924C46.615 160.735 46.1935 160.352 45.955 159.846C45.716 159.34 45.6895 158.772 45.8785 158.245C46.266 157.167 47.4445 156.581 48.557 156.983L48.7445 157.051L47.3285 160.992ZM48.1685 157.288C47.3565 157.132 46.533 157.601 46.2535 158.38C46.1 158.807 46.122 159.267 46.315 159.677C46.4795 160.026 46.7515 160.302 47.0915 160.471L48.2305 157.302C48.21 157.297 48.1895 157.292 48.1685 157.288Z" fill="#6AA3E1"/>
<path d="M46.2538 166.753C44.7308 166.561 43.6518 165.171 43.8433 163.648C44.0343 162.125 45.4243 161.046 46.9468 161.238L46.2538 166.753Z" fill="#6AA3E1"/>
<path d="M46.0158 167.01C44.4338 166.705 43.3523 165.211 43.5533 163.612C43.6558 162.797 44.0688 162.072 44.7168 161.569C45.3648 161.066 46.1698 160.845 46.9843 160.948L47.2743 160.984L46.5078 167.078L46.2173 167.042C46.1493 167.033 46.0823 167.023 46.0158 167.01ZM46.6188 161.507C46.0608 161.502 45.5223 161.683 45.0753 162.03C44.5508 162.438 44.2158 163.025 44.1333 163.685C43.9763 164.938 44.7903 166.11 46.0023 166.409L46.6188 161.507Z" fill="#6AA3E1"/>
<path d="M46.2023 166.05C45.1233 165.842 44.3858 164.825 44.5233 163.733C44.5933 163.179 44.8748 162.684 45.3163 162.341C45.7578 161.997 46.3068 161.847 46.8618 161.916L47.0598 161.941L46.5378 166.097L46.3398 166.071C46.2928 166.067 46.2473 166.059 46.2023 166.05ZM46.6128 162.298C46.2328 162.295 45.8653 162.419 45.5608 162.656C45.2033 162.933 44.9753 163.334 44.9188 163.783C44.8113 164.637 45.3663 165.436 46.1933 165.641L46.6128 162.298Z" fill="#6AA3E1"/>
<path d="M47.0795 171.013C45.56 171.23 44.1525 170.174 43.9355 168.655C43.7185 167.135 44.774 165.728 46.294 165.511L47.0795 171.013Z" fill="#6AA3E1"/>
<path d="M46.1047 171.279C44.8197 171.031 43.8317 169.993 43.6467 168.697C43.5307 167.885 43.7382 167.076 44.2302 166.42C44.7227 165.763 45.4412 165.338 46.2532 165.222L46.5422 165.181L47.4107 171.262L47.1212 171.304C46.7812 171.351 46.4392 171.343 46.1047 171.279ZM46.0487 165.859C45.5092 166.001 45.0372 166.317 44.6977 166.77C44.2992 167.302 44.1312 167.956 44.2252 168.614C44.3752 169.664 45.1752 170.504 46.2157 170.705C46.3907 170.739 46.5687 170.754 46.7472 170.749L46.0487 165.859Z" fill="#6AA3E1"/>
<path d="M46.2904 170.319C45.4144 170.15 44.7404 169.442 44.6139 168.559C44.4509 167.416 45.2479 166.353 46.3909 166.19L46.5884 166.161L47.1809 170.308L46.9834 170.336C46.7514 170.368 46.5184 170.363 46.2904 170.319ZM46.2514 166.624C45.4324 166.841 44.8859 167.643 45.0084 168.502C45.1104 169.218 45.6559 169.791 46.3654 169.928C46.4849 169.951 46.6059 169.961 46.7274 169.958L46.2514 166.624Z" fill="#6AA3E1"/>
<path d="M48.9882 175.785C47.5667 176.362 45.9457 175.678 45.3672 174.256C44.7897 172.834 45.4737 171.213 46.8962 170.636L48.9882 175.785Z" fill="#6AA3E1"/>
<path d="M47.3633 176.227C46.3373 176.028 45.4903 175.333 45.0968 174.366C44.4598 172.797 45.2173 171.002 46.7863 170.365L47.0573 170.255L49.3698 175.945L49.0988 176.056C48.5463 176.28 47.9468 176.339 47.3633 176.227ZM46.7418 171.032C45.6533 171.631 45.1593 172.967 45.6383 174.147C45.9568 174.929 46.6428 175.492 47.4738 175.653C47.8498 175.725 48.2343 175.71 48.6013 175.609L46.7418 171.032Z" fill="#6AA3E1"/>
<path d="M47.5476 175.266C46.8481 175.131 46.2706 174.657 46.0026 173.999C45.5681 172.929 46.0846 171.705 47.1541 171.27L47.3386 171.195L48.9161 175.076L48.7311 175.15C48.3541 175.303 47.9451 175.343 47.5476 175.266ZM47.1236 171.725C46.3816 172.134 46.0451 173.045 46.3716 173.849C46.5886 174.382 47.0566 174.766 47.6226 174.875C47.8791 174.925 48.1416 174.914 48.3921 174.845L47.1236 171.725Z" fill="#6AA3E1"/>
<path d="M51.8226 179.167C50.5921 180.085 48.8506 179.831 47.9331 178.601C47.0156 177.37 47.2696 175.629 48.4996 174.712L51.8226 179.167Z" fill="#6AA3E1"/>
<path d="M49.5776 179.954C48.8246 179.809 48.1571 179.39 47.6986 178.775C46.6866 177.418 46.9676 175.49 48.3246 174.477L48.5591 174.302L52.2316 179.227L51.9971 179.401C51.3061 179.917 50.4246 180.118 49.5776 179.954ZM48.4501 175.134C47.5481 175.988 47.4066 177.406 48.1676 178.426C48.5386 178.924 49.0796 179.263 49.6886 179.381C50.2781 179.495 50.8876 179.391 51.4031 179.094L48.4501 175.134Z" fill="#6AA3E1"/>
<path d="M49.7626 178.995C49.2496 178.896 48.7941 178.61 48.4816 178.191C48.1471 177.743 48.0071 177.191 48.0876 176.638C48.1686 176.084 48.4596 175.595 48.9081 175.261L49.0681 175.142L51.5721 178.499L51.4121 178.618C50.9411 178.97 50.3396 179.107 49.7626 178.995ZM48.9936 175.709C48.7176 175.97 48.5381 176.313 48.4821 176.695C48.4171 177.144 48.5301 177.59 48.8006 177.953C49.2986 178.621 50.2921 178.819 51.0066 178.408L48.9936 175.709Z" fill="#6AA3E1"/>
<path d="M55.4543 182.185C54.4438 183.341 52.6883 183.459 51.5323 182.449C50.3763 181.438 50.2588 179.683 51.2688 178.527L55.4543 182.185Z" fill="#6AA3E1"/>
<path d="M52.776 183.372C52.2455 183.269 51.749 183.026 51.3395 182.669C50.065 181.554 49.934 179.61 51.048 178.335L51.2405 178.115L55.866 182.158L55.6735 182.378C54.9565 183.198 53.8465 183.579 52.776 183.372ZM51.309 178.951C50.6065 179.975 50.7669 181.391 51.7244 182.229C52.0554 182.518 52.4575 182.715 52.887 182.798C53.6575 182.947 54.453 182.72 55.0285 182.202L51.309 178.951Z" fill="#6AA3E1"/>
<path d="M52.9619 182.413C52.5999 182.342 52.2614 182.176 51.9824 181.932C51.1129 181.172 51.0244 179.847 51.7839 178.978L51.9149 178.828L55.0679 181.585L54.9369 181.735C54.4489 182.294 53.6919 182.553 52.9619 182.413ZM51.9619 179.398C51.4834 180.097 51.5924 181.062 52.2454 181.633C52.4709 181.831 52.7449 181.965 53.0379 182.021C53.5634 182.123 54.1059 181.968 54.4979 181.615L51.9619 179.398Z" fill="#6AA3E1"/>
<path d="M60.0449 184.043C59.3904 185.431 57.7339 186.026 56.3459 185.372C54.9579 184.717 54.3624 183.061 55.0169 181.673L60.0449 184.043Z" fill="#6AA3E1"/>
<path d="M56.9499 185.875C56.6994 185.826 56.4539 185.746 56.2214 185.636C54.6899 184.914 54.0309 183.081 54.7529 181.548L54.8774 181.284L60.4344 183.903L60.3094 184.168C59.7099 185.439 58.3284 186.141 56.9499 185.875ZM55.1719 182.07C54.7774 183.248 55.3194 184.565 56.4704 185.107C56.6594 185.196 56.8579 185.262 57.0609 185.301C58.0799 185.498 59.1009 185.041 59.6404 184.176L55.1719 182.07Z" fill="#6AA3E1"/>
<path d="M57.1351 184.914C56.9641 184.882 56.7971 184.827 56.6386 184.752C55.5941 184.261 55.1451 183.01 55.6371 181.966L55.7221 181.785L59.5111 183.571L59.4261 183.751C59.0166 184.617 58.0751 185.096 57.1351 184.914ZM55.9231 182.32C55.6536 183.124 56.0241 184.022 56.8086 184.392C56.9371 184.452 57.0731 184.497 57.2111 184.524C57.9061 184.658 58.6021 184.346 58.9696 183.757L55.9231 182.32Z" fill="#6AA3E1"/>
<path d="M64.9413 185.228C64.5698 186.717 63.0613 187.622 61.5718 187.251C60.0828 186.88 59.1763 185.372 59.5483 183.883L64.9413 185.228Z" fill="#6AA3E1"/>
<path d="M61.6634 187.571C61.6094 187.561 61.5554 187.549 61.5014 187.536C59.8579 187.126 58.8549 185.456 59.2644 183.812L59.3354 183.529L65.2959 185.016L65.2254 185.299C64.8294 186.882 63.2649 187.88 61.6634 187.571ZM59.7769 184.241C59.6194 185.474 60.4079 186.66 61.6419 186.968C62.8839 187.285 64.1319 186.596 64.5699 185.436L59.7769 184.241Z" fill="#6AA3E1"/>
<path d="M61.8487 186.612C61.8117 186.605 61.7747 186.596 61.7372 186.587C60.6172 186.308 59.9327 185.169 60.2117 184.049L60.2602 183.855L64.3242 184.868L64.2762 185.062C64.0067 186.142 62.9407 186.823 61.8487 186.612ZM60.5617 184.341C60.4547 185.182 60.9922 185.991 61.8337 186.201C62.6772 186.412 63.5312 185.947 63.8297 185.157L60.5617 184.341Z" fill="#6AA3E1"/>
<path d="M70.3213 185.277C70.3088 186.812 69.0543 188.045 67.5193 188.034C65.9843 188.021 64.7503 186.767 64.7628 185.232L70.3213 185.277Z" fill="#6AA3E1"/>
<path d="M66.9568 188.27C65.5043 187.99 64.4588 186.711 64.4708 185.23L64.4733 184.938L70.6158 184.987L70.6138 185.279C70.5993 186.973 69.2103 188.34 67.5173 188.327C67.3288 188.324 67.1403 188.305 66.9568 188.27ZM65.0703 185.527C65.1873 186.599 65.9888 187.488 67.0678 187.696C67.2168 187.725 67.3698 187.74 67.5228 187.742C68.7948 187.752 69.8548 186.8 70.0103 185.567L65.0703 185.527Z" fill="#6AA3E1"/>
<path d="M67.1433 187.31C66.1533 187.119 65.4398 186.248 65.4483 185.238L65.4498 185.039L69.6378 185.072L69.6363 185.271C69.6313 185.83 69.4093 186.355 69.0113 186.746C68.6128 187.139 68.0848 187.353 67.5258 187.348C67.3968 187.348 67.2683 187.335 67.1433 187.31ZM65.8568 185.44C65.9473 186.272 66.6678 186.942 67.5283 186.95C67.9808 186.954 68.4083 186.781 68.7308 186.463C69.0058 186.192 69.1768 185.845 69.2243 185.468L65.8568 185.44Z" fill="#6AA3E1"/>
<path d="M75.2519 183.844C75.6439 185.329 74.7584 186.849 73.2749 187.242C71.7909 187.633 70.2704 186.749 69.8779 185.265L75.2519 183.844Z" fill="#6AA3E1"/>
<path d="M71.9845 187.572C70.833 187.35 69.8955 186.473 69.596 185.339L69.5215 185.057L75.4605 183.487L75.5355 183.77C75.968 185.406 74.9875 187.091 73.35 187.525C72.8985 187.644 72.439 187.659 71.9845 187.572ZM70.2525 185.468C70.563 186.249 71.259 186.836 72.0955 186.997C72.4635 187.069 72.835 187.056 73.2005 186.959C74.4305 186.634 75.202 185.436 75.028 184.205L70.2525 185.468Z" fill="#6AA3E1"/>
<path d="M72.1693 186.612C71.3843 186.46 70.7448 185.863 70.5403 185.089L70.4893 184.897L74.5383 183.826L74.5893 184.019C74.7328 184.56 74.6563 185.124 74.3753 185.608C74.0943 186.091 73.6413 186.437 73.1008 186.579C72.7928 186.66 72.4798 186.672 72.1693 186.612ZM70.9883 185.177C71.1998 185.71 71.6748 186.11 72.2448 186.22C72.4958 186.269 72.7493 186.26 72.9983 186.193C73.4363 186.078 73.8028 185.799 74.0303 185.407C74.2238 185.074 74.2973 184.693 74.2433 184.316L70.9883 185.177Z" fill="#6AA3E1"/>
<path d="M79.7141 180.986C80.4976 182.305 80.0635 184.01 78.744 184.794C77.4245 185.579 75.72 185.145 74.9355 183.825L79.7141 180.986Z" fill="#6AA3E1"/>
<path d="M76.7427 185.421C75.8817 185.255 75.1317 184.728 74.6842 183.975L74.5352 183.723L79.8157 180.584L79.9647 180.836C80.8292 182.292 80.3487 184.18 78.8932 185.045C78.2462 185.43 77.4822 185.564 76.7427 185.421ZM75.3512 183.918C75.7192 184.399 76.2532 184.732 76.8542 184.848C77.4522 184.963 78.0707 184.855 78.5947 184.543C79.6887 183.893 80.1027 182.53 79.5972 181.395L75.3512 183.918Z" fill="#6AA3E1"/>
<path d="M76.9274 184.462C76.3404 184.348 75.8294 183.989 75.5239 183.476L75.4219 183.304L79.0224 181.165L79.1244 181.336C79.4099 181.816 79.4914 182.38 79.3534 182.922C79.2159 183.464 78.8749 183.92 78.3939 184.206C77.9524 184.468 77.4314 184.559 76.9274 184.462ZM75.9784 183.437C76.4794 184.091 77.4739 184.289 78.1904 183.863C78.5799 183.632 78.8559 183.263 78.9674 182.824C79.0624 182.45 79.0284 182.064 78.8734 181.717L75.9784 183.437Z" fill="#6AA3E1"/>
<path d="M83.9249 177.004C84.9714 178.127 84.9089 179.886 83.7864 180.933C82.6629 181.979 80.9049 181.917 79.8584 180.794L83.9249 177.004Z" fill="#6AA3E1"/>
<path d="M81.3063 181.915C80.6658 181.791 80.0908 181.472 79.6443 180.993L79.4453 180.779L83.9398 176.591L84.1388 176.805C85.2933 178.044 85.2243 179.991 83.9853 181.146C83.2693 181.813 82.2678 182.101 81.3063 181.915ZM80.2833 180.797C80.6083 181.073 80.9948 181.259 81.4173 181.341C82.1958 181.492 83.0068 181.259 83.5868 180.719C84.5173 179.851 84.6328 178.431 83.8973 177.429L80.2833 180.797Z" fill="#6AA3E1"/>
<path d="M81.4926 180.954C81.0556 180.87 80.6636 180.653 80.3596 180.327L80.2236 180.181L83.2881 177.326L83.4241 177.472C83.8051 177.881 84.0041 178.414 83.9851 178.973C83.9651 179.532 83.7291 180.05 83.3196 180.431C82.8316 180.886 82.1481 181.081 81.4926 180.954ZM80.7956 180.193C81.0166 180.381 81.2806 180.508 81.5681 180.564C82.0996 180.666 82.6526 180.507 83.0481 180.139C83.3796 179.831 83.5706 179.411 83.5866 178.959C83.6001 178.574 83.4851 178.203 83.2601 177.897L80.7956 180.193Z" fill="#6AA3E1"/>
<path d="M86.0927 171.871C87.4912 172.504 88.1122 174.15 87.4802 175.549C86.8477 176.948 85.2022 177.569 83.8037 176.936L86.0927 171.871Z" fill="#6AA3E1"/>
<path d="M84.368 177.421C84.1335 177.376 83.903 177.302 83.683 177.203L83.417 177.083L85.946 171.485L86.2125 171.605C87.7555 172.303 88.443 174.126 87.746 175.67C87.158 176.971 85.769 177.692 84.368 177.421ZM84.1975 176.775C84.29 176.805 84.384 176.828 84.479 176.847C85.6125 177.066 86.737 176.482 87.2135 175.428C87.7375 174.269 87.2955 172.913 86.231 172.273L84.1975 176.775Z" fill="#6AA3E1"/>
<path d="M84.5513 176.461C84.3918 176.431 84.2348 176.381 84.0853 176.312L83.9033 176.231L85.6283 172.414L85.8098 172.496C86.3198 172.726 86.7088 173.141 86.9063 173.665C87.1038 174.188 87.0858 174.757 86.8553 175.266C86.4548 176.154 85.5073 176.645 84.5513 176.461ZM84.4358 176.021C85.2553 176.281 86.1408 175.881 86.4928 175.102C86.6798 174.69 86.6938 174.229 86.5343 173.805C86.3978 173.444 86.1488 173.147 85.8228 172.952L84.4358 176.021Z" fill="#6AA3E1"/>
<path d="M87.2004 166.375C88.7139 166.631 89.7334 168.065 89.4789 169.578C89.2234 171.091 87.7899 172.111 86.2764 171.856L87.2004 166.375Z" fill="#6AA3E1"/>
<path d="M85.9395 172.095L86.9605 166.039L87.3215 166.1C88.944 166.414 90.041 167.996 89.7665 169.627C89.6305 170.436 89.187 171.143 88.5185 171.619C87.85 172.094 87.0365 172.281 86.2275 172.144L85.9395 172.095ZM87.4375 166.729L86.616 171.6C87.1725 171.629 87.719 171.47 88.18 171.142C88.7215 170.757 89.0805 170.184 89.1905 169.529C89.4 168.286 88.625 167.078 87.4375 166.729Z" fill="#6AA3E1"/>
<path d="M86.1934 171.148L86.8904 167.018L87.1369 167.06C88.2439 167.274 88.9919 168.352 88.8034 169.464C88.6109 170.602 87.5284 171.372 86.3899 171.182L86.1934 171.148ZM87.2154 167.489L86.6549 170.81C87.5009 170.852 88.2659 170.253 88.4099 169.398C88.5534 168.55 88.0254 167.727 87.2154 167.489Z" fill="#6AA3E1"/>
<path d="M86.9814 160.877C88.5159 160.859 89.7754 162.088 89.7944 163.623C89.8124 165.157 88.5839 166.417 87.0484 166.435L86.9814 160.877Z" fill="#6AA3E1"/>
<path d="M86.7606 166.731L86.6855 160.589L86.9781 160.585C87.1876 160.583 87.3965 160.601 87.6005 160.64C89.023 160.915 90.0685 162.168 90.0865 163.62C90.1065 165.313 88.7456 166.707 87.0526 166.727L86.7606 166.731ZM87.2775 161.183L87.3375 166.122C88.5695 165.963 89.517 164.899 89.5025 163.626C89.4865 162.38 88.5215 161.312 87.2775 161.183Z" fill="#6AA3E1"/>
<path d="M86.842 165.753L86.791 161.565L86.99 161.563C87.133 161.561 87.276 161.574 87.415 161.6C88.385 161.788 89.098 162.642 89.1095 163.631C89.123 164.785 88.1955 165.736 87.0415 165.751L86.842 165.753ZM87.194 161.97L87.2355 165.337C88.0755 165.228 88.721 164.502 88.711 163.635C88.701 162.786 88.0455 162.057 87.194 161.97Z" fill="#6AA3E1"/>
<path d="M86.1943 155.961C87.7018 155.671 89.1583 156.657 89.4488 158.165C89.7393 159.672 88.7528 161.129 87.2453 161.419L86.1943 155.961Z" fill="#6AA3E1"/>
<path d="M87.0131 161.761L85.8516 155.729L86.1386 155.674C86.5261 155.6 86.9166 155.6 87.3006 155.674C88.5401 155.913 89.4961 156.869 89.7351 158.109C89.8901 158.915 89.7226 159.733 89.2626 160.412C88.8031 161.091 88.1061 161.55 87.3001 161.706L87.0131 161.761ZM86.5396 156.209L87.4741 161.06C88.0056 160.892 88.4626 160.552 88.7791 160.085C89.1516 159.534 89.2876 158.872 89.1621 158.22C88.9686 157.216 88.1946 156.441 87.1906 156.248C86.9756 156.206 86.7571 156.193 86.5396 156.209Z" fill="#6AA3E1"/>
<path d="M86.9204 160.783L86.1279 156.671L86.3234 156.634C86.5874 156.582 86.8544 156.582 87.1159 156.633C87.9619 156.796 88.6129 157.448 88.7754 158.293C88.9934 159.427 88.2489 160.527 87.1159 160.745L86.9204 160.783ZM86.5964 156.999L87.2334 160.306C88.0404 160.049 88.5474 159.22 88.3834 158.368C88.2524 157.685 87.7249 157.156 87.0399 157.024C86.8939 156.996 86.7454 156.988 86.5964 156.999Z" fill="#6AA3E1"/>
<path d="M48.8415 156.727C47.463 156.051 46.893 154.387 47.568 153.009C48.243 151.63 49.908 151.06 51.2865 151.735L48.8415 156.727Z" fill="#6AA3E1"/>
<path d="M48.976 157.118L48.7135 156.989C47.1925 156.244 46.561 154.4 47.306 152.879C47.915 151.637 49.288 150.952 50.6455 151.214C50.9115 151.265 51.17 151.352 51.4155 151.472L51.678 151.601L48.976 157.118ZM50.534 151.788C49.435 151.576 48.3235 152.131 47.831 153.137C47.271 154.279 47.671 155.647 48.7155 156.32L50.8885 151.884C50.772 151.844 50.654 151.811 50.534 151.788Z" fill="#6AA3E1"/>
<path d="M49.3216 156.2L49.1426 156.112C48.1056 155.604 47.6751 154.347 48.1831 153.31C48.5986 152.462 49.5346 151.995 50.4601 152.174C50.6411 152.209 50.8176 152.269 50.9846 152.35L51.1636 152.438L49.3216 156.2ZM50.3841 152.566C49.6351 152.421 48.8766 152.8 48.5406 153.486C48.1591 154.265 48.4316 155.197 49.1436 155.656L50.6246 152.632C50.5466 152.603 50.4661 152.582 50.3841 152.566Z" fill="#6AA3E1"/>
<path d="M50.9401 152.43C49.6466 151.603 49.1451 150.079 49.8191 149.024C50.4926 147.97 52.0876 147.785 53.3806 148.613L50.9401 152.43Z" fill="#6AA3E1"/>
<path d="M51.0198 152.795L50.7978 152.653C49.3848 151.749 48.8458 150.058 49.5968 148.883C50.1188 148.065 51.1738 147.677 52.2838 147.891C52.7188 147.975 53.1358 148.144 53.5228 148.391L53.7453 148.533L51.0198 152.795ZM52.1843 148.409C51.2738 148.233 50.4528 148.523 50.0418 149.167C49.4858 150.037 49.8588 151.288 50.8658 152.056L53.0108 148.702C52.7463 148.562 52.4693 148.465 52.1843 148.409Z" fill="#6AA3E1"/>
<path d="M51.3833 152.072L51.2318 151.975C50.7703 151.68 50.4298 151.255 50.2728 150.777C50.1113 150.286 50.1609 149.798 50.4134 149.405C50.7694 148.848 51.4883 148.582 52.2453 148.728C52.5418 148.786 52.8259 148.9 53.0899 149.069L53.2414 149.167L51.3833 152.072ZM52.1769 149.081C51.5559 148.961 50.9964 149.159 50.7159 149.598C50.5234 149.899 50.4873 150.277 50.6138 150.664C50.7283 151.011 50.9614 151.327 51.2779 151.568L52.7399 149.281C52.5604 149.185 52.3714 149.119 52.1769 149.081Z" fill="#6AA3E1"/>
<path d="M76.7728 136.572C79.8243 141.363 83.5748 149.113 82.1183 156.653C80.7193 163.894 73.8413 167.976 66.5988 166.577C59.3573 165.178 54.4933 158.829 55.8918 151.587C57.3483 144.048 63.7153 138.252 68.3313 134.941C61.3828 139.484 49.2963 149.069 46.7888 162.054C44.6618 173.065 52.0573 182.721 63.0698 184.848C74.0818 186.975 84.5413 180.769 86.6683 169.757C89.1768 156.772 81.5293 143.375 76.7728 136.572Z" fill="#BFEDFD"/>
<path d="M73.57 173.743C73.933 171.863 72.7035 170.044 70.823 169.681C68.9475 169.319 67.1335 170.543 66.7645 172.415C67.119 170.54 65.891 168.729 64.015 168.366C62.1355 168.003 60.317 169.233 59.954 171.113C58.9805 176.152 65.0105 181.322 65.0385 181.345C65.0385 181.345 72.596 178.783 73.57 173.743Z" fill="white"/>
<path d="M109.502 30.5669C107.105 25.8644 101.35 23.9939 96.6467 26.3904C96.6352 26.3964 96.6242 26.4024 96.6132 26.4079C91.9352 28.8154 90.0797 34.5539 92.4707 39.2459C94.8672 43.9489 100.623 45.8189 105.326 43.4219C105.337 43.4164 105.348 43.4099 105.359 43.4044C110.038 40.9974 111.893 35.2589 109.502 30.5669Z" fill="#F2CF4F"/>
<path d="M108.156 44.4072L106.349 45.3282L104.49 46.2757L109.353 55.8192C109.787 55.2722 110.341 54.8072 111.003 54.4697C111.017 54.4627 111.03 54.4572 111.044 54.4502C111.676 54.1347 112.344 53.9657 113.009 53.9307L108.156 44.4072Z" fill="#BFEDFD"/>
<path d="M117.748 56.661C116.819 54.8375 114.928 53.828 113.009 53.9305C112.345 53.9655 111.677 54.1345 111.044 54.45C111.031 54.457 111.017 54.4625 111.004 54.4695C110.341 54.8075 109.787 55.272 109.354 55.819C108.172 57.309 107.893 59.409 108.813 61.2135C110.07 63.6815 113.09 64.662 115.557 63.405C115.582 63.3925 115.607 63.3775 115.631 63.365C118.043 62.085 118.993 59.1035 117.748 56.661ZM114.215 60.7705C113.202 61.286 111.964 60.884 111.448 59.871C110.932 58.8595 111.334 57.62 112.347 57.1045C112.364 57.0955 112.381 57.088 112.398 57.08C113.4 56.6025 114.607 57.0075 115.114 58.003C115.619 58.994 115.244 60.201 114.279 60.7355C114.257 60.747 114.236 60.76 114.215 60.7705Z" fill="#F2CF4F"/>
<path d="M108.084 41.1143L104.991 42.6903L101.607 44.4143L102.77 46.6953C102.872 46.8958 103.117 46.9758 103.317 46.8728L104.49 46.2758L106.349 45.3283L108.156 44.4073L109.068 43.9418C109.269 43.8403 109.348 43.5948 109.246 43.3948L108.084 41.1143Z" fill="#F2CF4F"/>
<path d="M109.38 29.3387C109.182 28.9507 108.707 28.7957 108.318 28.9942L100.099 33.1817L91.8531 37.3837C91.4646 37.5817 91.3101 38.0577 91.5081 38.4457L93.0871 41.5447C93.2851 41.9327 93.7611 42.0877 94.1496 41.8892L102.413 37.6787L110.614 33.4997C111.003 33.3017 111.157 32.8257 110.959 32.4372L109.38 29.3387Z" fill="#F6E278"/>
<path d="M160.942 208.03H147.013H133.138C130.819 208.03 128.922 209.927 128.922 212.246C128.922 214.565 130.819 216.462 133.138 216.462H147.013H160.942C163.262 216.462 165.159 214.565 165.159 212.246C165.159 209.927 163.261 208.03 160.942 208.03Z" fill="#6AA3E1"/>
<path d="M157.095 198.537H147.012H136.984C134.664 198.537 132.768 200.434 132.768 202.753C132.768 205.072 134.664 206.969 136.984 206.969H147.012H157.095C159.415 206.969 161.312 205.072 161.312 202.753C161.312 200.434 159.415 198.537 157.095 198.537Z" fill="#D65593"/>
<path d="M153.76 189.288H147.013H140.32C138.076 189.288 136.241 191.124 136.241 193.368C136.241 195.612 138.076 197.447 140.32 197.447H147.013H153.76C156.004 197.447 157.84 195.612 157.84 193.368C157.84 191.124 156.004 189.288 153.76 189.288Z" fill="#F2CF4F"/>
<path d="M148.598 180.176H147.013H145.483C143.239 180.176 141.403 182.012 141.403 184.256C141.403 186.5 143.239 188.336 145.483 188.336H147.013H148.598C150.842 188.336 152.677 186.5 152.677 184.256C152.677 182.012 150.842 180.176 148.598 180.176Z" fill="#F0D2EE"/>
<path d="M120.847 196.093L118.736 195.179L110.648 191.678C109.004 190.967 107.077 191.73 106.366 193.374L97.2253 214.494C96.5143 216.137 97.2768 218.064 98.9203 218.775L104.02 220.982L109.12 223.189C110.763 223.901 112.69 223.138 113.401 221.494L122.542 200.375C123.253 198.731 122.491 196.804 120.847 196.093Z" fill="#BFEDFD"/>
<path d="M124.492 195.162L120.988 193.645L116.652 191.768L116.586 191.74L116.495 191.701L116.43 191.672L112.094 189.795L108.762 188.353C107.831 187.95 106.574 188.782 105.956 190.209C105.412 191.467 105.546 192.769 106.222 193.337C106.313 193.413 106.413 193.477 106.524 193.525L114.258 196.872L114.349 196.911L122.254 200.333C122.363 200.38 122.475 200.408 122.591 200.423C123.469 200.533 124.514 199.739 125.06 198.477C125.678 197.05 125.424 195.565 124.492 195.162Z" fill="#D65593"/>
<path d="M122.443 191.51C122.233 190.408 121.314 189.756 120.808 188.943C119.958 187.576 120.439 186.439 122.039 185.43C122.788 184.958 123.239 183.996 123.259 183.255C123.308 181.494 121.909 180.783 121.372 180.575C120.853 180.325 119.376 179.792 118.127 181.033C117.601 181.556 117.208 182.543 117.376 183.412C117.735 185.27 117.236 186.398 115.657 186.714C114.719 186.901 113.614 186.678 112.667 187.279C111.246 188.181 111.213 189.415 111.213 189.415L116.375 191.649L116.532 191.718L116.561 191.73L116.718 191.798L121.88 194.032C121.88 194.032 122.758 193.163 122.443 191.51Z" fill="#F0D2EE"/>
<path d="M117.706 202.259C117.741 202.273 117.783 202.257 117.798 202.222L118.107 201.507C118.122 201.472 118.106 201.43 118.071 201.415L116.527 200.746L116.012 200.524L114.599 199.912C114.564 199.897 114.522 199.914 114.507 199.949L114.198 200.663C114.182 200.699 114.199 200.739 114.234 200.755L115.601 201.348L114.81 203.175L113.865 202.766C113.829 202.751 113.788 202.767 113.773 202.802L113.463 203.518C113.448 203.553 113.464 203.594 113.5 203.61L114.444 204.018L113.844 205.406L112.899 204.997C112.863 204.982 112.822 204.999 112.807 205.033L112.497 205.749C112.482 205.784 112.498 205.825 112.534 205.841L113.479 206.25L112.87 207.656L111.925 207.247C111.89 207.232 111.849 207.248 111.833 207.283L111.524 207.998C111.509 208.034 111.525 208.075 111.56 208.091L112.505 208.5L111.859 209.992L110.914 209.585C110.879 209.569 110.837 209.586 110.822 209.621L110.512 210.336C110.497 210.371 110.513 210.413 110.549 210.428L111.494 210.837L110.817 212.401L109.872 211.991C109.837 211.977 109.795 211.993 109.78 212.028L109.471 212.743C109.455 212.778 109.471 212.82 109.507 212.835L110.452 213.244L109.806 214.738L108.861 214.329C108.825 214.314 108.784 214.33 108.768 214.365L108.459 215.08C108.444 215.115 108.46 215.157 108.496 215.172L109.441 215.581L108.756 217.162L107.39 216.571C107.355 216.556 107.313 216.572 107.297 216.608L106.988 217.322C106.973 217.357 106.989 217.399 107.024 217.415L108.438 218.026L108.952 218.249L110.496 218.917C110.532 218.932 110.573 218.915 110.588 218.88L110.898 218.166C110.913 218.131 110.897 218.089 110.862 218.073L109.364 217.424L110.048 215.843L110.947 216.232C110.982 216.247 111.023 216.231 111.039 216.196L111.348 215.481C111.363 215.446 111.347 215.405 111.312 215.389L110.413 215L111.059 213.506L111.958 213.895C111.993 213.91 112.034 213.894 112.05 213.859L112.359 213.143C112.374 213.108 112.358 213.067 112.323 213.052L111.424 212.662L112.101 211.099L113 211.488C113.035 211.503 113.077 211.486 113.092 211.451L113.401 210.736C113.416 210.701 113.4 210.659 113.365 210.644L112.466 210.255L113.112 208.762L114.011 209.15C114.046 209.165 114.088 209.149 114.103 209.114L114.412 208.399C114.427 208.364 114.411 208.322 114.376 208.306L113.477 207.918L114.086 206.512L114.984 206.901C115.019 206.916 115.061 206.9 115.076 206.865L115.386 206.15C115.401 206.115 115.385 206.073 115.35 206.057L114.451 205.668L115.052 204.28L115.95 204.669C115.985 204.685 116.027 204.668 116.042 204.633L116.351 203.918C116.367 203.883 116.35 203.841 116.315 203.826L115.417 203.436L116.208 201.61L117.706 202.259Z" fill="#9ED9F5"/>
<path d="M191.302 132.827L191.301 132.828C191.308 132.843 191.309 132.842 191.302 132.827Z" fill="white"/>
<path d="M203.16 133.09C202.001 133.01 200.878 133.151 199.829 133.475L201.148 135.254C201.751 135.136 202.379 135.091 203.019 135.135C206.948 135.403 209.926 138.818 209.656 142.747C209.526 144.645 208.661 146.318 207.36 147.514C205.967 148.792 204.075 149.523 202.044 149.383C198.116 149.114 195.139 145.7 195.408 141.771C195.465 140.938 195.665 140.148 195.98 139.422L194.495 137.803C193.859 138.946 193.458 140.242 193.363 141.632C193.016 146.687 196.848 151.083 201.904 151.429C204.511 151.606 206.941 150.675 208.733 149.037C210.416 147.499 211.534 145.336 211.702 142.887C212.048 137.831 208.216 133.436 203.16 133.09Z" fill="#6AA3E1"/>
<path d="M189.192 118.449C186.809 118.286 184.626 119.349 183.26 121.1C182.439 122.151 181.913 123.45 181.815 124.881C181.65 127.294 182.744 129.501 184.534 130.865L184.537 130.866C185.575 131.656 186.848 132.162 188.247 132.257C188.582 132.28 190.171 132.604 190.583 132.787C191.826 133.339 192.313 134.233 192.366 134.341C192.366 134.341 193.151 133.824 194.062 133.094C194.223 132.964 194.388 132.83 194.554 132.689C195.655 131.755 196.772 130.602 196.772 130.602C196.772 130.602 196.151 129.916 195.698 128.731C195.544 128.329 195.261 126.344 195.298 125.804C195.558 121.99 193.005 118.71 189.192 118.449Z" fill="#F2CF4F"/>
<path d="M203.332 123.65C203.013 123.37 202.528 123.399 202.246 123.718C201.026 125.097 197.757 128.701 194.163 131.888C193.999 132.034 193.668 132.322 193.668 132.322C190.201 135.339 186.555 137.923 185.104 138.923C184.749 139.168 184.665 139.657 184.918 140.008L185.871 141.331C186.09 141.636 186.496 141.738 186.833 141.574C187.546 141.228 188.82 140.588 190.173 139.812C191.358 139.132 192.649 138.297 193.359 137.828C193.676 137.619 194.097 137.671 194.352 137.95L194.527 138.141L196.105 139.862L196.263 140.034C196.512 140.306 196.919 140.363 197.234 140.171C197.765 139.845 198.602 139.3 199.372 138.657C199.44 138.601 199.507 138.543 199.573 138.485C200.428 137.74 201.162 136.891 201.58 136.375C201.802 136.102 201.81 135.714 201.601 135.43L200.197 133.539L200.001 133.274C199.78 132.977 199.802 132.564 200.053 132.293C200.669 131.626 201.825 130.334 202.772 129.024C203.699 127.742 204.429 126.443 204.806 125.736C204.974 125.421 204.902 125.032 204.634 124.796L203.332 123.65Z" fill="#D65593"/>
<path d="M223.397 135.394C223.378 135.387 223.358 135.379 223.338 135.371C220.138 134.249 216.634 135.934 215.512 139.135L213.061 146.124L217.159 147.562C217.176 147.437 217.204 147.313 217.248 147.19C217.595 146.2 218.679 145.68 219.669 146.026C220.659 146.374 221.18 147.458 220.833 148.447C220.79 148.57 220.736 148.686 220.671 148.794L224.65 150.189L227.101 143.198C228.217 140.018 226.559 136.538 223.397 135.394ZM222.963 140.271L221.263 143.969C221.043 144.596 220.715 145.052 220.088 144.832C219.461 144.613 219.489 144.051 219.71 143.425L220.692 139.476C220.912 138.849 221.597 138.519 222.224 138.739L222.225 138.739C222.851 138.957 223.181 139.645 222.963 140.271Z" fill="#F2CF4F"/>
<path d="M222.439 149.413L217.72 162.869C217.144 161.639 216.096 160.632 214.716 160.149C213.337 159.665 211.889 159.795 210.67 160.398L215.389 146.942L213.956 146.44L207.948 163.572C206.989 166.306 208.433 169.31 211.167 170.269V170.268C213.902 171.228 216.906 169.783 217.865 167.049L223.873 149.916L222.439 149.413ZM216.646 165.933L216.432 166.546C216.405 166.622 216.375 166.697 216.343 166.77C215.51 168.435 213.544 169.263 211.742 168.632C209.939 167.999 208.921 166.125 209.31 164.303C209.332 164.227 209.355 164.15 209.382 164.073L209.597 163.462C210.412 161.755 212.404 160.899 214.23 161.539C216.053 162.178 217.074 164.092 216.646 165.933Z" fill="#BFEDFD"/>
<path d="M92.0382 199.593L82.2897 197.599C82.0622 197.553 81.8577 197.456 81.6822 197.325L80.5972 202.633L80.5957 202.629L80.5922 202.648L74.8122 201.466C74.0272 201.306 73.2452 201.31 72.5017 201.452C72.5142 201.464 72.5272 201.477 72.5402 201.488C70.2507 201.953 68.3357 203.74 67.8402 206.163C67.3652 208.486 68.3187 210.782 70.0912 212.138C70.0722 212.143 70.0537 212.149 70.0347 212.154C70.7187 212.666 71.5207 213.039 72.4087 213.221L83.3777 215.464C83.3802 215.472 83.3822 215.479 83.3852 215.487L83.5442 215.519C85.4862 215.917 86.9177 215.541 87.9637 214.86C90.0837 213.479 90.6232 210.845 90.6232 210.845L91.1397 208.318L92.9427 199.501C92.6662 199.618 92.3532 199.657 92.0382 199.593Z" fill="#BFEDFD"/>
<path d="M93.0821 194.487L88.3146 193.512L83.3336 192.494C82.5041 192.324 81.6876 192.864 81.5181 193.693L81.0906 195.783C80.9676 196.385 81.2191 196.979 81.6826 197.325C81.8581 197.456 82.0626 197.553 82.2901 197.599L87.2711 198.618L92.0386 199.593C92.3531 199.657 92.6666 199.618 92.9426 199.501C93.3946 199.309 93.7491 198.908 93.8541 198.393L94.2816 196.302C94.4506 195.474 93.9111 194.657 93.0821 194.487Z" fill="#6AA3E1"/>
<path d="M74.2898 207.367C74.7593 205.068 74.0028 202.834 72.4988 201.473C70.1793 201.917 68.2318 203.715 67.7308 206.163C67.2513 208.507 68.2273 210.826 70.0318 212.175C72.0823 211.601 73.7948 209.783 74.2898 207.367Z" fill="#6AA3E1"/>
<path d="M89.9125 207.911C87.974 207.515 86.0595 208.193 84.7545 209.544C84.003 210.322 83.453 211.323 83.2185 212.471C83.005 213.514 83.0795 214.548 83.3845 215.487L83.5435 215.519C85.4855 215.916 86.917 215.54 87.963 214.86C90.083 213.479 90.6225 210.844 90.6225 210.844L91.139 208.318C90.754 208.138 90.3445 208 89.9125 207.911Z" fill="#6AA3E1"/>
<path d="M219.469 77.9227C219.469 77.9227 219.416 77.9012 219.319 77.8572C218.624 77.5402 215.615 76.0367 213.134 72.7082C212.164 71.4082 211.279 69.7327 210.558 68.1607C209.631 66.1457 208.973 64.3007 208.745 63.6372L208.026 63.8132L205.388 65.0197C205.574 65.4707 206.717 68.4612 205.509 71.5367C204.705 73.5832 203.066 75.1827 200.634 76.2952C200.581 76.3187 200.528 76.3417 200.477 76.3652L200.476 76.3637C200.474 76.3642 200.473 76.3647 200.472 76.3652C196.536 78.0607 193.605 76.9152 191.838 75.6552C189.994 74.3402 189.045 72.6477 188.976 72.5227L185.212 74.2437C185.848 75.3277 188.768 79.3662 189.521 83.5037C189.523 83.5137 189.525 83.5237 189.526 83.5342C190.458 88.0282 188.804 91.9422 188.804 91.9422C188.804 91.9422 191.351 98.4127 193.912 103.554C196.412 108.575 198.929 112.269 198.929 112.269C198.929 112.269 202.88 111.601 206.522 112.957C209.747 114.158 212.714 117.404 212.714 117.404L217.987 114.994L218.111 114.937L223.426 112.507C223.426 112.507 222.93 108.583 224.379 104.585C225.512 101.463 228.67 98.0482 228.67 98.0482C228.67 98.0482 226.807 92.6072 224.468 87.4917C222.795 83.8322 222.377 82.9187 219.469 77.9227Z" fill="#BFEDFD"/>
<path d="M185.339 74.186L185.306 74.201L185.247 74.2615L175.703 84.0715L184.179 92.0575L188.962 91.736C189.177 91.0045 190.431 87.804 189.653 83.4755C189.651 83.465 189.65 83.4555 189.648 83.445C188.895 79.3085 185.975 75.27 185.339 74.186Z" fill="#F0D2EE"/>
<path d="M213.697 113.513C213.195 113.742 212.975 114.336 213.204 114.837C213.434 115.339 214.027 115.56 214.527 115.33C215.029 115.101 215.25 114.508 215.021 114.007C214.792 113.505 214.199 113.284 213.697 113.513Z" fill="#6AA3E1"/>
<path d="M175.703 84.0723L175.16 84.6943C174.812 85.0923 174.846 85.6958 175.238 86.0508L181.669 91.8883C181.859 92.0613 182.109 92.1508 182.365 92.1398L184.178 92.0583" fill="#E8A2CC"/>
<path d="M210.432 68.2183C211.153 69.7908 212.039 71.4663 213.008 72.7658C215.489 76.0943 218.498 77.5978 219.194 77.9143L222.495 74.5313L222.002 62.9238L208.617 63.6873C208.618 63.6893 208.619 63.6923 208.62 63.6948C208.845 64.3533 209.504 66.1993 210.432 68.2183Z" fill="#F0D2EE"/>
<path d="M204.074 65.5343C203.82 65.6463 203.689 65.9308 203.772 66.1948C204.039 67.0403 204.468 68.9408 203.723 70.8353C203.091 72.4438 201.73 73.7153 199.678 74.6193L199.677 74.6178C194.69 76.7433 191.774 73.2718 190.918 72.0163C190.76 71.7843 190.452 71.7103 190.206 71.8443L188.972 72.5163C188.973 72.5178 188.974 72.5203 188.976 72.5223C189.044 72.6473 189.993 74.3398 191.837 75.6548C193.585 76.9008 196.475 78.0343 200.348 76.4153L200.35 76.4198C200.445 76.3788 200.539 76.3373 200.633 76.2948C203.065 75.1823 204.704 73.5828 205.508 71.5363C206.716 68.4608 205.573 65.4703 205.387 65.0193C205.374 64.9908 205.366 64.9718 205.362 64.9648L204.074 65.5343ZM189.107 72.4773C189.115 72.4918 189.131 72.5208 189.156 72.5613C189.131 72.5208 189.114 72.4918 189.107 72.4773ZM198.845 76.6128C199.278 76.4893 199.726 76.3303 200.188 76.1313C199.726 76.3298 199.279 76.4888 198.845 76.6128Z" fill="#6AA3E1"/>
<path d="M219.679 110.779C219.177 111.009 218.956 111.602 219.186 112.103C219.415 112.605 220.008 112.825 220.51 112.596C221.011 112.367 221.231 111.774 221.002 111.273C220.774 110.771 220.181 110.55 219.679 110.779Z" fill="#6AA3E1"/>
<path d="M224.081 72.4896L223.874 63.8206C223.86 63.2811 223.41 62.8551 222.87 62.8741L222.003 62.9241L222.496 74.5316L223.805 73.1901C223.988 73.0036 224.087 72.7506 224.081 72.4896Z" fill="#E8A2CC"/>
<path d="M207.319 91.3281L207.194 91.3851L197.561 95.7891C200.615 101.015 205.186 103.934 211.625 101.077L211.626 101.08C211.641 101.073 211.655 101.068 211.67 101.061C218.823 97.7906 219.159 92.5951 217.066 86.8721L207.319 91.3281Z" fill="#F2CF4F"/>
<path d="M206.26 89.0144L206.135 89.0714L196.954 93.2694C196.642 93.4119 196.508 93.7839 196.658 94.0924C196.943 94.6804 197.244 95.2469 197.56 95.7889L207.193 91.3849L207.318 91.3279L217.065 86.8719C216.85 86.2824 216.609 85.6879 216.347 85.0894C216.21 84.7754 215.842 84.6334 215.531 84.7754L206.26 89.0144Z" fill="#F6E278"/>
<path d="M46.1574 87.9667L45.7871 88.1763L65.8848 123.691L66.2551 123.481L46.1574 87.9667Z" fill="#F2CF4F"/>
<path d="M25.6402 99.8477L25.3496 99.9585L35.9863 127.861L36.2769 127.75L25.6402 99.8477Z" fill="#F2CF4F"/>
<path d="M66.0277 76.9355L65.7832 77.1284L84.2794 100.57L84.5239 100.377L66.0277 76.9355Z" fill="#F2CF4F"/>
<path d="M35.6224 94.0947L35.2939 94.2383L49.071 125.751L49.3995 125.607L35.6224 94.0947Z" fill="#F2CF4F"/>
<path d="M56.7195 82.0622L56.4248 82.2646L75.9007 110.61L76.1954 110.408L56.7195 82.0622Z" fill="#F2CF4F"/>
<path d="M55.1312 111.11L57.1507 108.26L57.2902 108.064L57.2947 108.058L61.0237 107.771L58.7867 104.773L59.6657 101.146L56.1172 102.333L52.9422 100.375V100.388L52.9462 100.839L52.9782 104.112L50.1357 106.545L53.6987 107.655L55.1312 111.11Z" fill="#D65593"/>
<path d="M64.638 122.228C61.6985 121.821 59.848 120.159 58.987 117.345C58.983 117.354 58.979 117.363 58.974 117.372C57.7885 119.848 58.2595 123.144 60.7535 125.176C63.061 127.056 66.4825 127.174 68.959 125.165C71.187 123.359 71.6695 120.559 71.14 118.655C71.1385 118.645 71.1355 118.637 71.133 118.628C69.723 121.169 67.5805 122.413 64.638 122.228Z" fill="#F2CF4F"/>
<path d="M31.08 115.774C29.126 115.242 28.0185 113.956 27.681 111.975C27.6775 111.981 27.6735 111.987 27.67 111.993C26.651 113.565 26.683 115.837 28.194 117.43C29.5915 118.903 31.897 119.282 33.749 118.138C35.4145 117.11 35.985 115.257 35.793 113.922C35.792 113.915 35.7915 113.909 35.7905 113.903C34.614 115.5 33.055 116.155 31.08 115.774Z" fill="#F2CF4F"/>
<path d="M34.1926 122.664L34.1916 122.674L34.1411 123.03L33.7771 125.617L31.2441 127.2L33.9241 128.5L34.6451 131.397L36.5776 129.388L36.7111 129.25L36.7151 129.245L39.6931 129.463L38.2831 126.83L39.4086 124.072L36.4666 124.587L34.1926 122.664Z" fill="#D65593"/>
<path d="M79.6923 91.6524C80.9298 90.1359 80.8638 88.1989 80.2448 86.9989C80.2418 86.9934 80.2393 86.9879 80.2368 86.9824C79.6473 88.8759 78.3888 90.0054 76.3973 90.2899C74.3773 90.4264 72.9093 89.5734 71.9428 87.8129C71.9418 87.8194 71.9398 87.8259 71.9383 87.8324C71.4898 89.6519 72.2623 91.7884 74.2113 92.7999C76.0143 93.7354 78.3168 93.3389 79.6923 91.6524Z" fill="#F2CF4F"/>
<path d="M86.4847 95.8911L83.8282 97.2561L81.0867 96.0936L81.0882 96.1041L81.1457 96.4591L81.5657 99.0376L79.6162 101.301L82.5612 101.747L84.1092 104.3L85.3587 101.808L85.4447 101.636L85.4477 101.632L88.3557 100.955L86.2282 98.8591L86.4847 95.8911Z" fill="#D65593"/>
<path d="M45.2018 108.073C42.7908 108.053 42.7468 110.332 42.7613 110.78C42.4413 110.465 40.7353 108.955 39.1163 110.742C36.9873 113.093 39.8628 114.931 41.7523 115.722C43.0143 116.251 44.8638 116.424 45.2203 116.453L45.2318 116.48C45.2318 116.48 45.2393 116.471 45.2513 116.456C45.2708 116.457 45.2823 116.458 45.2823 116.458L45.2708 116.431C45.4903 116.15 46.6153 114.672 47.0813 113.385C47.7783 111.459 48.3738 108.098 45.2018 108.073Z" fill="#9ED9F5"/>
<path d="M49.5382 121.805L46.5787 119.533L46.5772 119.547L46.5357 119.995L46.2342 123.254L43.1582 125.385L46.5892 126.853L47.6632 130.435L49.9622 127.807L50.1207 127.625L50.1257 127.62L53.8652 127.715L51.9447 124.504L53.1887 120.986L49.5382 121.805Z" fill="#F0D2EE"/>
<path d="M66.81 102.158C68.149 102.439 69.9975 102.262 70.353 102.224L70.3695 102.248C70.3695 102.248 70.375 102.238 70.384 102.221C70.403 102.218 70.4145 102.217 70.4145 102.217L70.398 102.193C70.561 101.874 71.388 100.212 71.604 98.8606C71.927 96.8376 71.8805 93.4246 68.76 93.9956C66.3885 94.4301 66.7735 96.6761 66.872 97.1141C66.4985 96.8651 64.5385 95.7016 63.2845 97.7616C61.6355 100.471 64.8055 101.736 66.81 102.158Z" fill="#9ED9F5"/>
<path d="M75.5994 106.669L72.2654 104.994L72.2669 105.007L72.3104 105.456L72.6264 108.713L70.0059 111.385L73.6519 112.181L75.3799 115.498L77.1439 112.484L77.2659 112.276L77.2694 112.27L80.9604 111.66L78.4704 108.867L79.0314 105.178L75.5994 106.669Z" fill="#F0D2EE"/>
<path d="M72.2158 74.6147C71.7568 74.6282 61.4793 75.0307 46.7063 82.6922C46.9723 81.5292 46.8028 80.2167 46.1338 79.0362C44.8123 76.7027 42.0428 75.7732 39.9488 76.9597C37.8548 78.1457 37.2288 80.9992 38.5503 83.3322C39.2098 84.4962 40.2293 85.3108 41.3458 85.6878C25.6648 95.0728 21.6293 103.159 21.4588 103.513C21.4588 103.513 20.8783 105.658 22.4568 106.622C23.6608 107.71 25.2923 105.859 25.2923 105.859C25.3323 105.778 29.5093 97.6678 45.8233 88.4258C45.9808 88.3363 46.1378 88.2493 46.2948 88.1618C61.6128 79.6013 72.6253 79.1257 72.7318 79.1222C72.7318 79.1222 74.7063 78.7052 74.2918 76.9927C74.1403 75.0432 72.2158 74.6147 72.2158 74.6147ZM41.2143 79.1932C42.2018 78.6342 43.5063 79.0722 44.1298 80.1722C44.7528 81.2722 44.4578 82.6168 43.4708 83.1758C42.4843 83.7348 41.1788 83.2968 40.5558 82.1973C39.9323 81.0968 40.2278 79.7522 41.2143 79.1932Z" fill="#6AA3E1"/>
<path d="M192.449 180.183C192.449 180.819 191.933 181.336 191.296 181.336H191.043C190.407 181.336 189.89 180.82 189.89 180.183V157.269C189.89 156.632 190.406 156.115 191.043 156.115H191.296C191.933 156.115 192.449 156.632 192.449 157.269V180.183Z" fill="#6AA3E1"/>
<path d="M201.904 197.457L199.98 194.781L193.033 199.774L186.086 194.781L184.163 197.457L190.21 201.803L184.163 206.15L186.086 208.825L193.033 203.832L199.98 208.825L201.904 206.15L195.857 201.803L201.904 197.457Z" fill="#6AA3E1"/>
<path d="M204.814 208.326C204.814 210.182 203.31 211.686 201.454 211.686C199.598 211.686 198.094 210.182 198.094 208.326C198.094 206.471 199.598 204.967 201.454 204.967C203.31 204.967 204.814 206.471 204.814 208.326Z" fill="#6AA3E1"/>
<path d="M201.454 215.86C197.299 215.86 193.92 212.481 193.92 208.327C193.92 204.173 197.3 200.794 201.454 200.794C205.607 200.794 208.986 204.173 208.986 208.327C208.986 212.481 205.607 215.86 201.454 215.86ZM201.454 203.429C198.754 203.429 196.555 205.626 196.555 208.326C196.555 211.026 198.753 213.224 201.454 213.224C204.154 213.224 206.35 211.026 206.35 208.326C206.35 205.626 204.154 203.429 201.454 203.429Z" fill="#F2CF4F"/>
<path d="M187.679 208.326C187.679 210.182 186.174 211.686 184.318 211.686C182.463 211.686 180.959 210.182 180.959 208.326C180.959 206.471 182.463 204.967 184.318 204.967C186.174 204.967 187.679 206.471 187.679 208.326Z" fill="#6AA3E1"/>
<path d="M184.318 215.86C180.165 215.86 176.785 212.481 176.785 208.327C176.785 204.173 180.165 200.794 184.318 200.794C188.473 200.794 191.852 204.173 191.852 208.327C191.852 212.481 188.472 215.86 184.318 215.86ZM184.318 203.429C181.619 203.429 179.421 205.626 179.421 208.326C179.421 211.026 181.619 213.224 184.318 213.224C187.019 213.224 189.216 211.026 189.216 208.326C189.216 205.626 187.019 203.429 184.318 203.429Z" fill="#F2CF4F"/>
<path d="M190 179V178.434L175.503 158.499C171.763 160.389 168.785 163.639 167.108 167.938L189.132 179H190Z" fill="#F6E278"/>
<path d="M167.053 167.938C166.088 170.414 165.5 173.284 165.5 176.32V179H189.132L167.053 167.938Z" fill="#F2CF4F"/>
<path d="M190 156.5H182.955C180.269 156.5 177.754 157.242 175.503 158.379L190 178.434V156.5Z" fill="#F2CF4F"/>
<path d="M182.955 197H184.466C183.938 197 183.418 196.985 182.901 196.962C182.918 196.974 182.94 197 182.955 197Z" fill="#E9A6B9"/>
<path d="M190 179.58L191.311 180.173L190.506 179H190V179.58Z" fill="#E28E9F"/>
<path d="M189.132 179.509L189.89 179.58V179.509H189.132Z" fill="#E28E9F"/>
<path d="M190.506 179.509L191.257 180.427L189.891 179.581L189.132 179.509H166.133H165.767H165.72C165.72 180.144 165.738 180.75 165.767 181.342V181.978C165.767 182.751 165.863 183.478 166.026 184.171C167.517 194.72 174.366 197.056 182.983 197.471C182.983 197.472 182.984 197.472 182.985 197.473C182.996 197.474 183.006 197.473 183.018 197.473C183.045 197.474 183.072 197.476 183.1 197.478C183.098 197.476 183.096 197.475 183.094 197.474C183.563 197.483 183.978 197.42 184.466 197.42H189.891H201.601C212.155 197.42 220.712 194.862 220.712 179.51H190.506V179.509Z" fill="#BFEDFD"/>
<path d="M225.586 168.679C225.586 167.645 224.747 166.805 223.712 166.805C222.677 166.805 221.838 167.645 221.838 168.679C221.838 169.143 222.013 169.562 222.291 169.889L218.061 180.768L219.903 181.484L224.181 170.487C224.989 170.278 225.586 169.551 225.586 168.679Z" fill="#6AA3E1"/>
<path d="M221.5 180.071C221.5 180.972 220.961 181.5 220.061 181.5H165.936C165.035 181.5 164.5 180.972 164.5 180.071V180.043C164.5 179.142 165.035 178.5 165.936 178.5H220.061C220.961 178.5 221.5 179.142 221.5 180.043V180.071Z" fill="#6AA3E1"/>
<path d="M26.4362 154.149L28.6622 151.009L28.8157 150.793L28.8207 150.785L32.9307 150.47L30.4652 147.165L31.4342 143.169L27.5227 144.477L24.0237 142.319V142.333L24.0282 142.83L24.0637 146.437L20.9307 149.119L24.8572 150.342L26.4362 154.149Z" fill="#F2CF4F"/>
<path d="M196.874 44.7129L200.63 45.5534L200.889 45.6119L200.898 45.6134L202.776 49.2824L204.872 45.7324L208.933 45.0829L206.216 41.9799L206.856 37.9189L206.842 37.9244L206.386 38.1204L203.073 39.5464L199.388 37.6919L199.776 41.7864L196.874 44.7129Z" fill="#F2CF4F"/>
<path d="M116.779 230.477L120.535 231.317L120.794 231.376L120.802 231.377L122.681 235.047L124.777 231.496L128.838 230.846L126.121 227.744L126.76 223.683L126.747 223.688L126.291 223.885L122.977 225.31L119.293 223.456L119.681 227.551L116.779 230.477Z" fill="#F2CF4F"/>
<path d="M67.1406 33.8218L69.8496 34.4273L70.0361 34.4698L70.0421 34.4708L71.3971 37.1173L72.9086 34.5563L75.8371 34.0883L73.8776 31.8503L74.3391 28.9218L74.3296 28.9258L74.0001 29.0673L71.6106 30.0953L68.9536 28.7583L69.2336 31.7113L67.1406 33.8218Z" fill="#F6E278"/>
<path d="M34.0156 147.323L36.7246 147.929L36.9111 147.972L36.9171 147.973L38.2721 150.619L39.7836 148.058L42.7121 147.59L40.7526 145.352L41.2141 142.424L41.2046 142.427L40.8756 142.569L38.4856 143.597L35.8286 142.26L36.1086 145.213L34.0156 147.323Z" fill="#F6E278"/>
<path d="M133.429 224.684L133.785 227.436L133.809 227.626L133.81 227.632L131.786 229.81L134.709 230.356L136.151 232.948L137.583 230.341L140.493 229.774L140.487 229.766L140.241 229.505L138.458 227.611L138.807 224.657L136.127 225.929L133.429 224.684Z" fill="#F6E278"/>
<path d="M199.084 51.7003L199.44 54.4528L199.465 54.6428L199.466 54.6493L197.441 56.8268L200.365 57.3723L201.805 59.9643L203.239 57.3583L206.149 56.7908L206.142 56.7828L205.896 56.5218L204.113 54.6278L204.463 51.6738L201.783 52.9458L199.084 51.7003Z" fill="#F6E278"/>
<path d="M62.8248 40.175C64.1961 40.175 65.3078 39.0633 65.3078 37.692C65.3078 36.3207 64.1961 35.209 62.8248 35.209C61.4535 35.209 60.3418 36.3207 60.3418 37.692C60.3418 39.0633 61.4535 40.175 62.8248 40.175Z" fill="#F6E278"/>
<path d="M34.0152 159.601C35.3865 159.601 36.4982 158.489 36.4982 157.118C36.4982 155.746 35.3865 154.635 34.0152 154.635C32.6439 154.635 31.5322 155.746 31.5322 157.118C31.5322 158.489 32.6439 159.601 34.0152 159.601Z" fill="#F6E278"/>
<path d="M209.24 49.8614C209.24 48.4904 210.352 47.3784 211.723 47.3784C213.094 47.3784 214.206 48.4904 214.206 49.8614C214.206 51.2329 213.094 52.3444 211.723 52.3444C210.352 52.3439 209.24 51.2329 209.24 49.8614Z" fill="#F6E278"/>
<path d="M224.104 126.386C224.104 125.015 225.215 123.903 226.586 123.903C227.957 123.903 229.07 125.015 229.07 126.386C229.07 127.757 227.957 128.869 226.586 128.869C225.215 128.869 224.104 127.757 224.104 126.386Z" fill="#F6E278"/>
<path d="M217.771 216.462C217.771 215.091 218.884 213.979 220.255 213.979C221.626 213.979 222.737 215.091 222.737 216.462C222.737 217.833 221.626 218.945 220.255 218.945C218.884 218.945 217.771 217.833 217.771 216.462Z" fill="#F6E278"/>
<path d="M42.3433 201.02C43.7147 201.02 44.8264 199.908 44.8264 198.537C44.8264 197.165 43.7147 196.054 42.3433 196.054C40.972 196.054 39.8604 197.165 39.8604 198.537C39.8604 199.908 40.972 201.02 42.3433 201.02Z" fill="#F6E278"/>
<path d="M178.002 35.6126C175.011 28.6826 168.333 24.1161 160.992 22.4056C153.831 20.7376 144.895 21.3181 139.64 26.5346C135.44 30.7036 131.189 36.3391 131.142 45.5271C130.96 45.4501 130.773 45.3801 130.575 45.3291C129.853 45.1406 129.124 45.1521 128.443 45.3286C126.933 45.7191 125.661 46.9256 125.229 48.5816C124.603 50.9846 125.98 53.4246 128.306 54.0306C128.771 54.1521 129.239 54.1871 129.696 54.1521C129.586 61.1991 132.498 66.5876 137.366 71.2991C140.24 74.0796 144.589 76.8996 148.68 77.9666C153.005 79.0941 156.747 78.6291 160.65 77.0146C166.827 74.4586 171.843 71.9736 175.069 65.9731C175.456 66.2341 175.889 66.4381 176.364 66.5621C178.69 67.1686 181.084 65.7121 181.71 63.3091C182.109 61.7776 181.692 60.2336 180.736 59.1561C180.193 58.5431 178.633 57.8601 178.633 57.8601C181.861 47.6061 180.213 40.7336 178.002 35.6126Z" fill="#F0D0B0"/>
<path d="M147.548 50.9178C147.106 52.6133 146.371 49.8078 144.675 49.3658C142.98 48.9238 140.967 51.0123 141.41 49.3168C141.852 47.6213 143.585 46.6058 145.279 47.0478C146.974 47.4898 147.99 49.2223 147.548 50.9178Z" fill="#382417"/>
<path d="M167.4 56.094C166.958 57.7895 166.222 54.984 164.527 54.542C162.831 54.1 160.82 56.1885 161.261 54.493C161.704 52.7975 163.436 51.782 165.131 52.224C166.826 52.6665 167.842 54.3985 167.4 56.094Z" fill="#382417"/>
<path d="M130.692 47.5254C130.692 47.5254 128.029 46.4789 127.318 49.0639C126.58 51.7449 129.824 52.1224 129.824 52.1224L130.692 47.5254Z" fill="#E2B586"/>
<path d="M155.79 58.2983C155.79 58.2983 156.662 56.0807 154.51 55.4887C152.277 54.8747 151.963 57.5758 151.963 57.5758L155.79 58.2983Z" fill="#E2B586"/>
<path d="M177.462 59.7207C177.462 59.7207 180.296 60.1072 179.655 62.7102C178.99 65.4107 175.975 64.1567 175.975 64.1567L177.462 59.7207Z" fill="#E2B586"/>
<mask id="mask0_158_3453" style="mask-type:luminance" maskUnits="userSpaceOnUse" x="142" y="57" width="20" height="15">
<path d="M149.291 70.5243C156.682 73.1978 160.145 66.6598 161.302 63.6913C161.583 62.9683 161.175 62.1618 160.425 61.9663L144.674 57.8593C143.919 57.6623 143.165 58.1728 143.064 58.9473C142.691 61.8043 142.683 68.1328 149.291 70.5243Z" fill="white"/>
</mask>
<g mask="url(#mask0_158_3453)">
<path d="M149.291 70.5243C156.682 73.1978 160.145 66.6598 161.302 63.6913C161.583 62.9683 161.175 62.1618 160.425 61.9663L144.674 57.8593C143.919 57.6623 143.165 58.1728 143.064 58.9473C142.691 61.8043 142.683 68.1328 149.291 70.5243Z" fill="#E8A2CC"/>
</g>
<mask id="mask1_158_3453" style="mask-type:luminance" maskUnits="userSpaceOnUse" x="142" y="57" width="20" height="15">
<path d="M149.291 70.5243C156.682 73.1978 160.145 66.6598 161.302 63.6913C161.583 62.9683 161.175 62.1618 160.425 61.9663L144.674 57.8593C143.919 57.6623 143.165 58.1728 143.064 58.9473C142.691 61.8043 142.683 68.1328 149.291 70.5243Z" fill="white"/>
</mask>
<g mask="url(#mask1_158_3453)">
<path d="M143.633 65.1068C149.097 63.0008 155.31 62.9348 160.378 65.6868C160.776 64.9508 161.081 64.2568 161.302 63.6913C161.583 62.9683 161.175 62.1618 160.425 61.9663L144.674 57.8593C143.919 57.6623 143.165 58.1728 143.064 58.9473C142.872 60.4173 142.779 62.8073 143.633 65.1068Z" fill="#382417"/>
</g>
<path d="M146.123 40.6541C144.819 40.3531 143.63 40.6006 142.358 40.9531C141.189 41.2766 139.853 41.8326 139.254 42.9381C139.204 43.0286 139.062 43.3736 139.21 43.4421C139.539 43.5946 139.902 43.3331 140.201 43.1736C140.815 42.8451 141.492 42.6311 142.155 42.4316C143.462 42.0381 144.761 41.7081 146.023 41.1836C146.122 41.1416 146.258 40.6851 146.123 40.6541Z" fill="#7A4522"/>
<path d="M172.206 49.6996C171.173 47.5641 169.348 45.6266 167.171 44.6526C167.085 44.6141 167.003 44.9966 167.056 45.0591C167.874 46.0061 168.712 46.9126 169.571 47.8196C170.355 48.6466 171.098 49.5441 172.081 50.1426C172.176 50.2016 172.237 49.7636 172.206 49.6996Z" fill="#7A4522"/>
<path d="M160.429 24.7945C159.336 25.01 158.32 25.651 157.541 26.5155C157.413 26.46 157.288 26.402 157.171 26.338C155.195 25.2565 157.953 22.581 158.83 21.91C159.491 21.404 160.257 21.13 161.07 21.02C161.342 20.983 162.879 21.0795 162.431 21.594C161.318 22.8715 158.705 23.846 157.114 24.311C156.88 24.379 156.911 25.213 157.135 25.1895C158.725 25.0245 165.763 21.847 161.992 20.1345C158.112 18.3735 153.808 24.966 156.675 27.755C156.282 28.501 156.05 29.32 156.052 30.1395C156.059 33.076 158.605 34.6485 161.19 32.873C161.379 32.7435 161.414 31.9625 161.165 31.875C159.92 31.4375 158.61 31.626 157.411 30.988C156.398 30.449 156.899 29.4135 157.78 28.4635C159.419 29.105 162.222 28.848 162.848 27.053C163.55 25.0425 162.219 24.4425 160.429 24.7945ZM161.056 26.8075C160.59 26.9535 160.065 27.002 159.532 26.9755C159.924 26.708 160.265 26.516 160.47 26.4445C161.439 26.107 163.019 26.193 161.056 26.8075Z" fill="#7A4522"/>
</svg>
