<svg width="662" height="768" viewBox="0 0 662 768" fill="none" xmlns="http://www.w3.org/2000/svg">
<path d="M446.25 457.284C446.25 457.284 325.37 418.544 302.74 420.564C280.11 422.584 242.08 470.624 272.25 502.094C281.64 511.894 399.111 510.974 438.591 505.044C438.591 505.044 464.67 514.754 470.48 516.454C476.29 518.154 484.231 527.794 488.701 528.814C493.171 529.834 496.22 525.504 494.65 522.244C493.08 518.984 480.21 509.364 479.39 508.644C478.56 507.924 479.311 505.684 482.161 505.634C485.011 505.594 498.53 517.644 502.65 518.424C506.77 519.204 512.211 513.404 508.311 509.464C504.411 505.524 491.341 496.374 487.841 494.084C486.831 493.424 487.241 492.644 488.781 492.674C490.321 492.704 511.221 505.264 514.441 505.214C517.871 505.154 523.721 497.254 518.441 492.774C513.161 488.294 495.351 480.834 494.051 480.034C492.751 479.234 514.191 479.924 517.581 479.374C520.961 478.824 521.05 468.104 514.86 467.394C508.67 466.684 493.63 467.454 490.5 466.754C487.37 466.054 478.931 461.514 477.781 460.194C477.781 460.194 491.21 450.664 490.75 447.444C490.29 444.224 485.181 439.654 481.551 440.554C477.921 441.454 471.001 447.904 466.291 448.204C461.591 448.494 456.33 448.344 446.25 457.284Z" fill="#FFDAAE"/>
<path d="M468.72 474.114C470.3 472.594 471.45 470.564 472.05 468.464C472.51 466.864 473.09 464.574 471.94 463.204C471.72 462.944 471.31 463.044 471.14 463.294C470.37 464.434 470.61 465.914 470.18 467.224C469.58 469.054 468.52 470.684 467.09 471.964C463.92 474.794 460.52 474.624 456.59 474.224C455.23 474.084 454.54 476.254 455.82 476.844C460.01 478.764 465.5 477.204 468.72 474.114Z" fill="#F29570"/>
<path d="M461.47 503.204C462.89 500.484 463.19 496.944 464.16 494.004C465.25 490.694 466.67 487.514 468.19 484.394C469.68 481.344 471.33 478.374 473.06 475.454C474.68 472.704 476.6 470.054 477.82 467.094C478.17 466.244 476.92 465.574 476.32 466.194C473.92 468.664 472.12 471.814 470.27 474.704C468.37 477.664 466.55 480.684 464.93 483.804C464.16 485.294 463.43 486.824 462.76 488.374C460.12 483.824 456 480.234 450.99 478.474C450.45 478.284 450.2 479.044 450.61 479.334C455.26 482.684 458.9 486.864 461.32 492.044C461.19 492.394 461.06 492.734 460.94 493.074C459.94 495.984 458.54 499.744 459.07 502.844C459.26 503.934 460.95 504.194 461.47 503.204Z" fill="#F29570"/>
<path d="M439.41 497.274C438.89 493.994 438.12 490.934 438.19 487.564C438.26 484.234 439.06 481.074 439.7 477.824C439.86 477.034 438.81 476.474 438.35 477.234C434.89 482.944 434.25 492.114 436.77 498.284C437.42 499.864 439.65 498.764 439.41 497.274Z" fill="#F29570"/>
<path d="M278.541 634.284C278.541 634.284 292.821 638.314 304.701 653.784C315.071 667.284 323 692.144 326.12 696.454C326.12 696.454 351.041 692.904 358.881 689.274C366.721 685.644 377.581 670.284 381.521 676.414C385.461 682.544 377.39 710.584 369.98 720.524C362.57 730.464 343.07 739.544 338.75 748.144C334.44 756.744 320.051 774.634 303.301 765.444C292.921 759.754 287.811 751.304 287.811 751.304L261.071 730.144L186.6 715.934L278.541 634.284Z" fill="#FFDAAE"/>
<path d="M206.74 496.244C164.14 473.064 69.1703 438.384 54.7903 466.834C48.9203 478.434 52.2104 488.334 55.3204 499.454C55.3204 499.454 33.4204 507.154 13.6804 534.264C-6.05964 561.364 0.730344 602.254 9.79034 622.284C15.6703 635.274 142.87 815.004 264.83 693.344C273.04 685.154 291.24 623.894 288.02 612.734C288.02 612.734 308.29 602.734 309.11 591.724C309.93 580.704 293.39 543.394 206.74 496.244Z" fill="#EFF5F9"/>
<path d="M210.37 591.574C212.93 591.774 215.27 592.704 217.68 593.554C220.17 594.434 222.67 595.284 225.15 596.174C230.41 598.074 235.75 599.764 241.12 601.294C251.73 604.324 262.56 606.484 273.48 607.854C275.42 608.094 274.74 610.954 272.85 610.754C261.75 609.564 250.74 607.534 239.93 604.674C234.67 603.284 229.48 601.634 224.35 599.814C219.58 598.124 213.66 596.264 209.91 592.764C209.51 592.384 209.74 591.524 210.37 591.574Z" fill="#A1C9DB"/>
<path d="M81.7207 514.544C83.6707 514.864 85.1306 516.454 86.6106 517.684C88.2506 519.044 89.8606 520.424 91.4906 521.784C94.8706 524.594 98.2707 527.394 101.711 530.134C108.431 535.494 115.321 540.664 122.361 545.604C129.321 550.494 136.411 555.214 143.651 559.694C151.141 564.334 158.871 568.574 166.381 573.184C167.311 573.754 166.601 575.024 165.611 574.624C149.441 568.034 134.061 558.564 119.641 548.794C112.441 543.914 105.431 538.774 98.6106 533.374C95.2806 530.734 92.0007 528.044 88.8007 525.254C87.2007 523.864 85.6007 522.464 84.0507 521.024C82.5607 519.634 80.6707 518.264 80.1307 516.254C79.8707 515.214 80.6907 514.364 81.7207 514.544Z" fill="#A1C9DB"/>
<path d="M65.0505 504.534C68.9705 509.864 72.8705 515.104 77.2605 520.084C81.5105 524.904 86.0504 529.504 90.6204 534.024C90.9804 534.374 90.4904 534.834 90.1104 534.554C79.4504 526.874 69.8405 516.914 62.4705 506.084C61.3505 504.454 63.8905 502.964 65.0505 504.534Z" fill="#A1C9DB"/>
<path d="M62.6109 507.774C64.7409 512.124 67.061 516.304 69.711 520.374C70.141 521.034 69.1509 521.884 68.6109 521.254C65.4109 517.534 62.651 513.424 60.561 509.004C59.921 507.624 61.9309 506.374 62.6109 507.774Z" fill="#A1C9DB"/>
<path d="M230.751 636.484C234.701 634.884 239.361 634.524 243.501 633.394C247.721 632.234 251.881 630.834 255.931 629.204C259.971 627.574 263.901 625.704 267.731 623.644C269.651 622.614 271.531 621.514 273.411 620.404C275.031 619.444 276.691 617.844 278.641 617.764C279.421 617.734 279.791 618.524 279.531 619.154C278.831 620.874 276.521 621.964 275.021 622.974C273.221 624.194 271.351 625.314 269.461 626.394C265.551 628.624 261.481 630.574 257.311 632.304C253.161 634.024 248.891 635.514 244.551 636.734C240.421 637.894 235.601 639.554 231.241 639.264C229.601 639.154 229.221 637.104 230.751 636.484Z" fill="#A1C9DB"/>
<path d="M240.75 639.034C251.17 637.464 260.98 633.864 270.28 629.144C271.31 628.624 272.2 630.014 271.25 630.674C262.42 636.804 252.03 640.594 241.37 642.434C238.88 642.864 238.23 639.414 240.75 639.034Z" fill="#A1C9DB"/>
<path d="M22.7917 522.484C26.1317 519.054 29.6517 515.814 33.3917 512.804C36.9217 509.974 40.5917 507.324 44.4017 504.864C46.4817 503.524 48.5916 502.244 50.7316 501.014C51.6016 500.514 52.5218 499.794 53.4718 499.454C53.3218 499.064 53.1817 498.684 53.0317 498.314C51.8517 495.254 50.8916 492.084 50.2316 488.884C48.9116 482.554 48.8617 476.044 51.0817 469.974C53.1917 464.224 57.2617 459.574 62.9617 457.094C68.8717 454.524 75.8217 453.824 82.2617 453.904C89.8817 453.994 97.8117 455.074 104.922 458.004C105.842 458.384 105.262 459.744 104.352 459.564C96.3516 457.954 88.5517 456.744 80.3817 457.154C73.0617 457.524 64.6017 458.394 59.1217 463.634C53.6917 468.824 52.1617 476.854 52.9417 484.114C53.3417 487.864 54.3417 491.544 55.5617 495.114C56.6717 498.364 58.8916 502.454 58.7416 505.904C58.7116 506.554 57.9717 506.964 57.4417 506.474C56.3717 505.504 55.5317 504.154 54.8417 502.704C54.2717 503.044 53.6017 503.314 52.9117 503.684C50.9717 504.724 49.0717 505.824 47.2017 506.984C43.1717 509.474 39.2917 512.204 35.5917 515.144C31.9917 517.994 28.5216 521.014 25.2316 524.214C21.9116 527.434 18.9317 531.114 15.4717 534.164C14.7917 534.764 13.6117 534.054 14.0917 533.174C16.2717 529.264 19.6817 525.694 22.7917 522.484Z" fill="#A1C9DB"/>
<path d="M24.4512 557.334C35.1912 549.454 48.0511 544.654 61.2611 543.204C67.7911 542.484 74.3611 542.344 80.8911 543.204C87.5111 544.084 93.7711 546.234 100.151 548.064C102.221 548.654 103.331 545.784 101.581 544.674C92.5812 538.934 80.4811 537.334 69.9911 537.664C69.9911 537.664 69.9911 537.664 69.9811 537.664C63.7111 534.954 56.5411 533.854 49.7611 533.714C43.9511 533.594 36.9311 534.114 32.4111 538.234C32.2511 538.384 32.4211 538.674 32.6211 538.604C38.5211 536.664 44.1811 536.064 50.3611 536.974C53.3611 537.414 56.2812 538.094 59.1612 538.864C52.0612 540.224 45.1912 542.684 38.8212 546.204C33.4912 549.144 28.6212 552.864 24.3212 557.174C24.2512 557.244 24.3512 557.404 24.4512 557.334Z" fill="#A1C9DB"/>
<path d="M118.511 649.884C119.431 648.124 120.191 646.264 120.871 644.454C122.821 639.264 124.071 633.904 124.771 628.414C125.131 625.584 120.131 624.884 119.751 627.734C119.101 632.604 118.031 637.414 116.441 642.064C114.981 646.324 113.2 650.674 109.85 653.814C106.38 657.064 101.211 658.824 96.9406 660.774C92.0906 662.994 87.1806 665.094 82.2906 667.234C81.8106 667.444 82.1605 668.194 82.6405 668.064C88.2005 666.524 93.6606 664.714 99.0806 662.764C103.741 661.094 108.981 659.604 113.021 656.624C110.251 663.594 104.01 668.954 96.3505 670.424C95.7705 670.534 95.9105 671.464 96.4905 671.444C108.541 670.964 117.711 661.664 118.511 649.884Z" fill="#A1C9DB"/>
<path d="M203.471 714.614C206.531 713.414 209.581 712.174 212.591 710.834C218.201 708.334 223.801 705.694 229.101 702.594C233.761 699.874 238.291 696.814 242.201 693.074C245.791 689.644 249.741 685.204 251.091 680.314C251.311 679.514 250.271 679.184 249.831 679.784C248.251 681.924 246.941 684.204 245.191 686.234C243.541 688.154 241.691 689.904 239.731 691.514C235.571 694.924 230.921 697.684 226.141 700.134C220.851 702.854 215.431 705.304 209.951 707.614C207.081 708.824 204.191 709.994 201.281 711.094C198.801 712.034 195.491 712.814 193.831 714.994C193.351 715.624 193.871 716.594 194.551 716.764C197.401 717.504 200.871 715.634 203.471 714.614Z" fill="#A1C9DB"/>
<path d="M197.862 721.944C202.302 720.934 206.492 719.364 210.522 717.244C211.082 716.954 210.692 716.104 210.102 716.244C205.922 717.284 201.692 718.244 197.452 719.024C193.062 719.834 188.642 719.864 184.242 720.454C182.232 720.724 182.112 723.544 184.242 723.674C188.692 723.954 193.552 722.934 197.862 721.944Z" fill="#A1C9DB"/>
<path d="M277.82 666.344C278.79 664.034 279.68 661.714 280.49 659.354C282.19 654.344 283.68 649.274 284.96 644.144C287.44 634.234 288.89 624.124 289.55 613.944C290.16 613.574 290.75 613.194 291.33 612.844C293.56 611.464 295.71 609.964 297.78 608.354C301.72 605.284 306.16 601.774 308.59 597.324C310.8 593.284 310.58 588.654 309.42 584.324C308.13 579.504 305.97 574.424 302.39 570.874C301.88 570.374 300.84 570.904 301.13 571.634C304.17 579.214 310.44 589.044 304.91 596.974C302.31 600.704 298.39 603.834 294.76 606.524C292.99 607.844 291.16 609.074 289.27 610.224C287.46 611.324 285.24 612.194 283.81 613.784C283.15 614.524 283.6 615.954 284.72 615.854C285.34 615.794 285.95 615.644 286.55 615.434C285.42 624.824 283.71 634.134 281.48 643.324C280.3 648.174 278.94 652.974 277.39 657.724C276.57 660.234 275.75 662.734 274.91 665.234C274.24 667.224 272.96 669.434 273.45 671.544C273.56 672.014 274.17 672.234 274.57 671.984C276.41 670.804 277.01 668.274 277.82 666.344Z" fill="#A1C9DB"/>
<path d="M127.531 585.944C128.801 583.264 129.611 580.484 130.311 577.604C131.341 573.344 133.251 567.484 130.971 563.344C130.771 562.984 130.111 563.144 130.171 563.574C130.741 568.084 128.691 572.684 127.271 576.884C126.551 579.024 125.691 581.164 124.711 583.214C125.151 579.514 125.291 575.794 124.931 572.074C124.281 565.434 123.021 557.264 117.341 553.034C116.931 552.724 116.191 553.144 116.551 553.654C120.501 559.244 121.311 566.714 121.271 573.384C121.251 576.984 121.031 580.574 120.391 584.114C119.791 587.424 118.451 590.694 118.181 594.024C118.021 596.014 120.741 596.224 121.641 594.864C122.091 594.184 122.471 593.424 122.791 592.624C124.981 591.114 126.421 588.274 127.531 585.944Z" fill="#A1C9DB"/>
<path d="M154.661 332.994C147.501 337.944 133.511 378.384 116.451 414.534C102.101 444.934 84.541 459.854 84.541 478.094C84.541 492.354 116.671 526.194 185.921 557.894C242.821 583.944 275.721 578.554 287.261 570.564C298.801 562.574 340.931 480.014 299.711 400.224L154.661 332.994Z" fill="#FFDAAE"/>
<path d="M250.289 101.814C250.289 101.814 259.169 95.424 262.279 88.364C265.389 81.304 286.419 74.004 295.979 80.404C305.549 86.814 319.229 87.0039 319.009 71.6339C318.789 56.2639 307.629 45.884 298.479 51.864C292.369 55.864 306.769 26.604 324.759 39.064C342.749 51.524 333.779 69.354 334.099 71.324C334.419 73.294 338.439 72.614 341.449 66.864C344.459 61.114 350.009 55.3039 360.099 60.0239C370.189 64.7339 376.629 72.824 372.079 78.754C367.529 84.684 393.029 71.854 386.859 57.434C380.689 43.014 365.469 34.664 356.889 36.154C348.309 37.644 360.519 27.174 378.579 28.834C396.439 30.474 407.139 39.104 410.609 51.074C413.599 61.374 411.769 73.614 402.549 79.174C402.549 79.174 430.779 77.094 440.189 57.444C449.609 37.804 436.289 22.8239 425.289 20.0239C414.289 17.2339 408.489 19.8039 404.239 19.4139C399.989 19.0339 407.509 3.87396 417.819 0.833961C428.129 -2.20604 448.409 14.954 454.259 33.624C460.109 52.294 463.599 89.284 435.289 98.754C435.289 98.754 467.389 95.634 465.619 110.354C463.849 125.074 441.769 129.804 436.459 125.794C436.459 125.794 448.649 134.374 457.529 129.354C463.589 125.924 443.849 150.474 423.999 131.744L250.289 101.814Z" fill="#6D4F3A"/>
<path d="M489.1 262.834C503.08 216.584 482.62 138.054 384.35 105.364C285.15 72.354 164.97 100.444 145.63 189.384C131.88 252.584 159.62 281.024 159.62 281.024C159.62 281.024 138.29 293.434 155.14 329.604C171.99 365.774 229.9 427.404 311.55 449.414C372.51 465.844 439.63 437.134 448.91 392.154C454.36 365.734 434.7 353.564 449.27 333.324C463.86 313.084 479.52 294.564 489.1 262.834Z" fill="#FFDAAE"/>
<path d="M177.739 231.764C180.509 195.694 116.339 173.064 99.1692 211.634C80.5092 253.534 125.959 286.194 159.619 281.034L177.739 231.764Z" fill="#FFDAAE"/>
<path d="M430.53 217.084C434.86 214.644 441.03 214.834 445.73 215.884C450.31 216.904 454.81 219.514 457.68 223.254C462.54 229.604 466.46 241.104 461.64 248.434C461.29 248.974 460.72 249.094 460.12 248.984C460.03 248.974 459.94 248.944 459.86 248.884C458.86 248.074 459.31 247.014 459.32 245.874C459.32 243.964 458.9 242.044 458.36 240.224C457.3 236.614 455.66 232.864 453.25 229.954C450.93 227.154 447.84 225.084 444.24 224.404C440.11 223.624 436.45 224.994 432.4 225.234C427.85 225.494 427.04 219.044 430.53 217.084Z" fill="#6D4F3A"/>
<path d="M297.491 167.394C305.221 158.184 317.671 154.604 329.371 156.954C341.881 159.474 350.121 172.304 353.771 183.724C355.551 189.314 346.811 192.404 344.241 187.264C341.901 182.584 340.421 177.574 337.391 173.224C334.901 169.654 331.421 166.394 327.351 164.744C317.681 160.844 307.511 163.804 298.961 168.974C298.051 169.534 296.771 168.254 297.491 167.394Z" fill="#6D4F3A"/>
<path d="M411.529 97.364C411.529 97.364 436.519 121.474 424.419 135.514C412.319 149.554 371.309 154.254 358.709 115.094C358.709 115.094 372.319 131.804 383.559 134.524C394.799 137.244 408.719 129.854 410.189 124.224C411.659 118.584 389.239 105.214 389.239 105.214L411.529 97.364Z" fill="#6D4F3A"/>
<path d="M321.55 230.974C323.46 222.824 321.46 207.524 317.4 204.644C313.34 201.764 292.6 193.454 280.37 204.014C268.13 214.584 260.33 226.204 265 239.364C269.67 252.534 294.8 260.354 300.38 259.414C305.96 258.484 321.55 230.974 321.55 230.974Z" fill="white"/>
<path d="M405.46 266.534C411.28 260.514 424.72 254.764 432.44 257.164C437.66 258.784 446.109 269.564 443.859 285.574C441.609 301.584 433.099 310.194 423.909 312.974C411.929 316.594 401.839 309.084 398.659 305.124C395.109 300.714 405.46 266.534 405.46 266.534Z" fill="white"/>
<path d="M433.48 284.264C432.38 275.164 426.42 260.154 413.09 261.714C401.1 263.114 393.21 280.484 393.37 293.164C393.54 306.124 405.43 315.554 418.43 310.374C430.44 305.594 434.45 292.264 433.48 284.264Z" fill="#230D03"/>
<path d="M322.4 231.884C321.3 222.784 315.34 207.774 302.01 209.334C290.02 210.734 282.13 228.104 282.29 240.784C282.46 253.744 294.35 263.174 307.35 257.994C319.35 253.214 323.37 239.884 322.4 231.884Z" fill="#230D03"/>
<path d="M408.97 258.224C414.47 255.104 421.27 253.344 427.57 253.214C433.68 253.084 439.32 255.054 442.38 260.624C444.86 265.154 445.74 270.584 446.22 275.664C446.64 280.084 447.32 286.954 443.86 290.384C443.67 290.574 443.35 290.634 443.09 290.554C443 290.534 442.91 290.514 442.82 290.494C442.71 290.484 442.64 290.404 442.63 290.294C442.59 288.524 443.32 286.694 443.31 284.824C443.29 281.984 442.77 279.104 442.22 276.324C441.75 273.944 441.09 271.624 440.4 269.304C439.51 266.314 438.42 262.884 435.93 260.824C430.91 256.664 422.06 258.954 416.6 260.844C413.55 261.904 410.37 263.234 407.6 264.914C404.4 266.854 402.29 270.204 399.79 272.914C399.36 273.384 398.72 272.904 398.68 272.404C398.14 266.094 403.95 261.074 408.97 258.224Z" fill="#230D03"/>
<path d="M276.219 204.284C281.359 199.014 287.889 196.824 295.069 196.434C301.989 196.054 309.839 196.754 315.879 200.444C328.819 208.354 324.259 226.494 322.249 238.584C322.119 239.394 320.959 239.644 320.729 238.734C319.269 232.934 320.099 227.164 319.839 221.254C319.589 215.694 318.119 209.164 312.999 206.074C307.979 203.044 301.179 202.724 295.489 202.984C292.739 203.114 290.079 203.564 287.449 204.364C284.299 205.324 282.109 207.014 279.379 208.794C276.619 210.584 274.119 206.434 276.219 204.284Z" fill="#230D03"/>
<path d="M330.489 295.104C341.529 290.974 354.939 289.734 365.669 295.444C375.319 300.574 375.899 311.614 374.609 321.224C374.419 322.604 372.139 323.124 371.949 321.484C371.069 313.714 370.239 304.764 362.069 301.344C352.829 297.484 342.269 298.854 333.079 302.104C329.099 303.504 326.489 296.594 330.489 295.104Z" fill="#F29570"/>
<path d="M208.139 316.244C206.839 333.994 211.719 352.434 224.939 369.904C234.919 383.074 249.659 395.704 270.069 407.064C278.789 411.914 287.629 415.324 296.389 417.574C331.459 426.574 365.359 416.954 385.789 406.584C418.409 390.014 431.979 352.704 398.939 340.824C376.789 332.864 356.219 363.974 330.859 351.104C305.499 338.224 314.319 295.784 278.899 277.074C243.499 258.364 210.019 290.624 208.139 316.244Z" fill="#5C0000"/>
<path d="M224.939 369.904C234.919 383.074 249.659 395.704 270.069 407.064C278.789 411.914 287.629 415.324 296.389 417.574C304.879 416.924 310.189 413.794 309.019 402.024C306.239 374.054 258.239 337.484 237.989 344.424C225.029 348.854 223.439 360.084 224.939 369.904Z" fill="#F99582"/>
<path d="M113.11 217.724C114.61 214.704 116.26 211.754 117.96 208.874C120.77 204.134 123.47 202.404 128.15 202.134C138.33 201.544 147.39 206.944 154.54 214.124C158.24 217.834 161.51 222.074 164.63 226.454C167.46 230.424 169.81 233.564 166.54 239.004C160.57 248.924 153.33 258.364 144.53 264.814C139.98 268.144 135.16 270.304 130.51 267.654C125.98 265.074 123.4 259.064 122.35 253.314C121.73 249.884 126.04 248.004 127.32 250.874C129.22 255.124 130.75 262.784 136.2 262.194C140.59 261.724 145.67 256.404 148.98 252.944C152.7 249.054 156 244.664 159.11 240.104C159.99 238.824 160.85 237.524 161.69 236.214C162.41 235.094 162.6 235.004 162.51 234.174C162.39 233.114 160.66 231.384 160.11 230.564C159.4 229.514 158.68 228.484 157.95 227.454C156.99 226.114 156.01 224.794 154.99 223.504C144.13 227.444 133.47 232.234 125.13 242.484C124.19 243.634 122.81 242.184 123.53 240.914C129.97 229.644 140.75 223.634 151.05 218.904C146.5 214.044 141.3 210.084 135.1 208.244C132.72 207.544 130.26 207.184 127.73 207.254C126.39 207.294 124.6 207.224 123.34 208.094C122.46 208.704 121.66 210.184 121.05 211.114C119.34 213.714 117.74 216.414 116.17 219.124C114.75 221.574 113.55 224.364 111.35 225.944C110.91 226.264 110.52 225.844 110.51 225.354C110.49 222.624 111.92 220.134 113.11 217.724Z" fill="#F29570"/>
<path d="M415.609 265.974C411.059 263.834 401.609 272.504 403.839 276.234C406.069 279.964 413.049 280.774 416.169 277.904C419.299 275.034 419.219 267.664 415.609 265.974Z" fill="white"/>
<path d="M302.599 228.324C307.179 224.744 308.689 214.854 304.149 213.174C299.619 211.494 291.139 218.534 291.259 222.804C291.379 227.084 296.979 232.724 302.599 228.324Z" fill="white"/>
<path d="M150.33 192.574C154.44 193.064 158.82 196.084 162.06 198.514C165.64 201.194 168.8 204.464 171.43 208.074C173.94 211.524 175.95 215.234 177.39 219.244C178.18 221.434 178.77 223.674 179.13 225.984C179.35 227.384 179.92 229.384 178.69 230.414C178.05 230.944 177.21 230.494 177.16 229.714C176.92 226.224 175.1 222.214 173.62 219.094C171.96 215.584 169.87 212.274 167.37 209.314C164.95 206.444 162.18 203.934 159.12 201.744C157.63 200.674 156.07 199.704 154.45 198.834C152.74 197.924 150.77 197.374 149.18 196.284C147.65 195.234 148.25 192.324 150.33 192.574Z" fill="#F29570"/>
<path d="M158.339 279.474C159.549 278.804 161.139 280.364 160.239 281.544C157.249 285.454 154.799 289.204 153.449 294.004C152.159 298.594 152.079 303.464 152.809 308.154C154.309 317.834 158.569 327.074 163.179 335.644C172.259 352.524 184.409 367.914 198.029 381.364C204.829 388.084 214.609 397.594 229.499 407.904C233.899 410.954 238.429 413.814 242.969 416.644C252.049 422.314 261.529 427.264 271.119 432.014C289.669 441.204 309.179 447.634 329.669 450.684C330.879 450.864 332.089 451.024 333.299 451.174C333.519 450.974 333.829 450.864 334.219 450.944C335.859 451.294 337.519 451.564 339.179 451.784C342.399 452.064 345.619 452.254 348.849 452.374C358.849 452.354 368.929 450.524 378.489 448.174C392.149 444.824 405.789 439.814 417.729 432.274C429.529 424.814 439.649 414.044 444.599 400.834C449.759 387.074 448.229 371.894 444.579 357.954C443.579 354.144 442.219 350.384 441.839 346.444C441.429 342.244 443.169 338.644 445.389 335.194C447.849 331.354 450.689 327.724 453.379 324.034C455.939 320.504 458.479 316.864 461.429 313.654C462.079 312.944 463.449 313.784 463.049 314.684C459.709 322.204 455.019 329.384 450.749 336.424C448.619 339.924 446.399 343.504 446.939 347.804C447.399 351.444 448.729 355.034 449.549 358.604C452.789 372.824 454.349 387.864 449.429 401.914C444.709 415.374 434.729 426.484 423.139 434.504C410.999 442.894 397.239 447.444 383.089 451.124C371.359 454.174 359.049 456.914 347.009 455.834C332.259 456.484 317.259 453.684 303.229 449.574C293.129 446.614 283.309 442.764 273.769 438.314C263.899 433.714 254.689 428.174 245.389 422.534C240.139 419.344 234.969 416.034 229.859 412.644C224.879 409.334 205.809 395.334 197.569 386.304C190.529 378.584 182.789 371.524 176.099 363.494C169.589 355.684 163.849 347.284 159.019 338.334C154.159 329.334 149.589 319.484 148.029 309.294C146.439 299.034 148.289 285.014 158.339 279.474Z" fill="#F29570"/>
<path d="M154.971 577.034C154.971 577.034 161.511 560.104 168.811 553.284C176.111 546.464 209.901 535.984 219.401 551.074C228.891 566.164 225.621 589.224 204.531 608.214C183.431 627.204 164.621 674.604 143.491 662.284C135.861 657.844 129.921 652.024 127.311 643.294C127.311 643.294 117.541 638.124 112.961 635.964C108.601 633.914 89.0005 646.434 71.7805 646.434C50.2405 646.434 31.0306 630.914 28.0506 605.894C24.9806 580.094 51.1105 545.334 82.8905 540.134C113.501 535.124 129.841 538.354 134.691 540.724C145.701 546.084 154.971 577.034 154.971 577.034Z" fill="#FFDAAE"/>
<path d="M172.201 650.344C178.331 645.344 183.131 638.784 188.191 632.754C193.301 626.664 198.351 620.524 203.431 614.414C212.261 603.774 221.871 592.744 225.391 579.034C227.011 572.704 227.331 565.924 225.651 559.564C224.061 553.534 220.501 547.254 214.711 544.424C208.671 541.474 201.421 541.834 194.921 542.544C188.021 543.304 180.761 544.694 174.511 547.844C167.781 551.244 163.151 557.894 159.311 564.164C155.371 570.604 151.601 578.004 150.891 585.624C150.831 586.284 151.771 586.454 152.081 585.944C155.391 580.484 157.851 574.524 161.101 569.004C164.251 563.664 167.831 557.934 172.641 553.924C177.601 549.794 184.681 548.304 190.891 547.234C196.971 546.194 203.951 545.404 209.991 547.044C222.781 550.524 223.911 567.624 221.101 578.194C217.731 590.874 208.781 601.124 200.581 610.984C195.411 617.204 190.221 623.404 185.081 629.654C179.981 635.844 174.271 641.904 170.421 648.974C169.791 650.154 171.231 651.134 172.201 650.344Z" fill="#F29570"/>
<path d="M139.831 608.904C141.511 604.564 143.621 600.414 145.531 596.174C145.821 595.524 145.001 594.694 144.451 595.344C141.681 598.554 139.572 602.224 137.842 606.084C136.992 607.984 136.181 609.914 135.531 611.894C135.181 612.964 134.081 615.524 135.561 616.254C137.891 617.404 139.311 610.244 139.831 608.904Z" fill="#F29570"/>
<path d="M132.921 616.474C134.501 615.004 134.431 611.624 134.991 609.614C135.791 606.754 136.931 603.954 138.261 601.304C138.531 600.754 137.811 600.354 137.451 600.834C135.621 603.284 134.221 605.864 133.181 608.744C132.451 610.774 130.861 614.364 132.191 616.384C132.351 616.634 132.691 616.684 132.921 616.474Z" fill="#F29570"/>
<path d="M106.802 631.184C105.982 630.164 104.762 629.554 103.722 628.774C102.452 627.824 101.132 626.904 99.9216 625.884C97.7216 624.024 95.9915 621.724 94.0115 619.654C93.6815 619.304 92.9816 619.664 93.1616 620.144C94.2316 623.024 96.1015 625.424 97.9915 627.804C99.7915 630.084 102.272 633.124 105.162 633.984C106.922 634.494 107.782 632.394 106.802 631.184Z" fill="#F29570"/>
<path d="M648.261 382.084C645.811 384.874 643.131 387.344 640.261 389.514C638.451 390.884 636.581 392.124 634.641 393.244C633.791 393.734 632.931 394.204 632.051 394.644C613.931 403.884 591.151 402.894 572.221 391.464C547.271 418.254 453.611 519.874 445.591 528.974C440.811 534.404 436.011 533.394 433.231 530.944C430.451 528.494 428.841 523.864 433.621 518.434C441.631 509.334 530.611 403.584 554.041 375.454C539.631 357.254 536.091 333.394 544.441 313.664C544.731 312.984 545.031 312.314 545.341 311.644C545.971 310.314 546.651 309.004 547.391 307.724C549.181 304.614 551.301 301.644 553.751 298.854C557.351 294.764 561.441 291.344 565.871 288.584C567.311 287.694 568.781 286.864 570.281 286.114C571.121 285.694 571.971 285.294 572.821 284.914C593.791 275.704 620.111 279.504 639.581 296.654C659.141 313.884 666.221 339.674 659.561 361.714C659.301 362.584 659.021 363.454 658.711 364.314C658.171 365.824 657.571 367.304 656.901 368.764C654.741 373.514 651.861 378.004 648.261 382.084Z" fill="#17A0FF"/>
<path d="M557.8 297.494C559.69 297.744 561.59 297.644 563.49 297.744C565.82 297.864 567.55 299.114 568.84 301.054C570.25 303.174 570.94 306.204 573.4 307.404C575.36 308.354 577.65 307.964 579.75 308.004C582.05 308.044 584.26 308.534 586 310.124C587.03 311.074 587.81 312.244 588.35 313.534C588.85 314.724 589.02 316.054 589.57 317.224C590.94 320.144 594.57 320.704 597.38 321.394C600.13 322.074 603.09 322.784 605.23 324.774C606.95 326.374 607.83 328.554 608.63 330.714C609.53 333.174 610.17 335.874 612.48 337.394C614.45 338.694 616.87 339.214 619.08 339.954C621.47 340.754 623.86 341.774 625.64 343.624C627.35 345.404 628.38 347.654 628.93 350.034C629.38 352.014 629.51 354.204 630.47 356.024C631.78 358.514 634.6 359.384 636.9 360.694C639.43 362.134 641.59 364.384 642.36 367.264C642.96 369.514 642.2 372.894 643.77 374.754C644.75 375.904 646.4 376.284 647.73 376.864C648.88 377.364 649.94 378.044 650.9 378.844C653.3 375.664 655.3 372.284 656.92 368.764C649.66 355.444 637.73 339.544 617.51 321.734C597.29 303.924 580.01 294.104 565.88 288.584C562.15 290.904 558.67 293.694 555.52 296.954C556.2 297.304 557.06 297.394 557.8 297.494Z" fill="#F5FF73"/>
<path d="M646.091 380.224C642.971 378.844 640.151 377.534 639.441 373.844C638.861 370.814 639.471 367.844 637.131 365.414C634.871 363.074 631.321 362.484 629.001 360.144C627.341 358.474 626.491 356.384 626.021 354.114C625.561 351.924 625.321 349.594 624.131 347.644C621.431 343.204 615.571 343.294 611.411 340.994C609.021 339.674 607.441 337.774 606.421 335.254C605.481 332.934 604.941 330.154 603.391 328.144C601.771 326.044 598.861 325.524 596.431 324.944C593.361 324.204 590.011 323.464 587.771 321.054C586.781 319.984 586.141 318.794 585.691 317.404C585.261 316.094 585.011 314.724 584.151 313.604C582.831 311.894 581.011 311.694 578.981 311.734C576.671 311.774 574.361 311.814 572.181 310.904C569.641 309.834 568.211 307.594 567.011 305.234C566.461 304.164 565.941 302.974 565.071 302.104C564.841 301.874 564.241 301.504 564.071 301.404C563.971 301.394 563.611 301.334 563.541 301.334C562.151 301.254 560.101 301.274 558.471 301.154C556.721 301.014 554.621 300.554 553.171 299.544C550.961 302.134 549.041 304.874 547.391 307.734C570.191 316.854 583.071 325.034 600.831 340.674C618.591 356.314 628.341 368.054 640.261 389.524C643.121 387.354 645.801 384.874 648.261 382.094C648.361 381.984 648.451 381.874 648.541 381.764C647.821 381.144 647.011 380.624 646.091 380.224Z" fill="#F5FF73"/>
<path d="M634.65 393.254C633.8 393.744 632.94 394.214 632.06 394.654C631.96 394.374 631.87 394.084 631.8 393.794C631.21 391.314 632.15 388.054 629.79 386.354C627.79 384.914 625.2 384.504 623.37 382.794C621.33 380.874 621.76 378.504 621.16 376.024C620.53 373.424 617.83 372.224 615.72 371.014C613.79 369.904 611.95 368.654 610.75 366.724C608.61 363.284 608.55 357.224 604.25 355.614C602.12 354.814 599.81 354.784 598.09 353.084C596.68 351.684 596.05 349.774 595.48 347.914C594.91 346.044 594.38 343.784 592.66 342.614C590.88 341.404 588.49 341.454 586.45 341.104C584.43 340.754 582.53 340.044 581.17 338.444C579.51 336.484 578.94 333.754 576.85 332.154C574.92 330.674 572.37 330.154 570.12 329.364C567.93 328.594 566.02 327.604 564.49 325.824C563.02 324.114 561.84 321.274 559.71 320.304C557.86 319.464 555.65 320.624 553.7 320.184C551.16 319.614 550.7 317.014 548.93 315.494C547.68 314.424 546.08 313.824 544.44 313.664C544.73 312.984 545.03 312.314 545.34 311.644C546.63 311.624 547.93 311.924 549.13 312.524C550.18 313.054 551.12 313.764 551.9 314.644C552.72 315.564 553.27 317.234 554.61 317.394C555.72 317.524 556.88 317.094 557.99 317.064C559.18 317.034 560.33 317.274 561.37 317.864C563.76 319.254 564.84 321.934 566.41 324.064C569.38 328.094 575.07 327.594 578.66 330.764C580.64 332.514 581.21 335.184 582.94 337.094C584.51 338.834 586.95 338.924 589.12 339.234C591.08 339.504 593.09 339.944 594.6 341.304C596.09 342.644 596.79 344.564 597.38 346.424C597.95 348.254 598.4 350.544 600.01 351.774C601.89 353.204 604.57 352.954 606.56 354.244C610.44 356.754 610.41 361.854 612.67 365.464C615.18 369.484 621.16 369.834 623.07 374.414C623.98 376.594 623.16 379.474 625.06 381.174C626.73 382.664 629.13 383.114 630.97 384.364C632.83 385.634 633.8 387.464 634.17 389.654C634.34 390.654 634.33 392.064 634.65 393.254Z" fill="#F5FF73"/>
<path d="M658.721 364.314C657.121 362.604 655.181 361.044 654.171 359.204C652.901 356.924 653.291 354.074 651.101 352.364C649.121 350.814 646.921 349.854 645.931 347.374C645.161 345.454 645.331 343.274 644.461 341.404C643.401 339.144 640.651 338.514 638.641 337.394C636.691 336.304 635.371 334.824 634.451 332.794C633.501 330.694 633.071 328.154 631.401 326.464C629.781 324.834 627.361 324.234 625.281 323.414C623.201 322.584 621.391 321.484 619.951 319.744C617.221 316.414 616.301 310.814 611.991 309.034C609.891 308.164 607.511 308.164 605.491 307.054C603.181 305.774 602.371 303.364 600.561 301.604C597.561 298.714 592.751 298.984 589.281 296.864C588.381 296.314 587.581 295.634 586.921 294.794C586.191 293.874 585.691 292.674 584.491 292.344C582.531 291.804 580.461 292.574 578.471 291.924C576.221 291.184 574.621 289.354 572.911 287.794C572.201 287.144 571.271 286.494 570.291 286.134C571.131 285.714 571.981 285.314 572.831 284.934C574.711 286.044 576.071 287.804 577.931 288.984C580.291 290.464 582.911 289.194 585.421 290.034C587.971 290.884 588.711 293.824 591.071 295.044C594.941 297.044 599.751 296.924 602.781 300.444C603.651 301.444 604.271 302.634 605.121 303.644C606.051 304.754 607.251 305.294 608.631 305.644C610.901 306.224 613.181 306.574 615.061 308.074C618.821 311.054 619.331 316.474 622.991 319.494C624.911 321.074 627.481 321.604 629.721 322.594C631.921 323.574 633.671 325.014 634.761 327.184C635.791 329.234 636.181 331.714 637.621 333.544C639.231 335.584 642.051 336.124 644.121 337.534C645.961 338.774 646.891 340.514 647.321 342.654C647.831 345.174 647.971 347.254 650.211 348.874C652.161 350.284 654.221 351.354 655.001 353.794C655.391 355.024 655.441 356.344 656.021 357.524C656.471 358.434 657.131 359.244 657.811 359.984C658.361 360.574 658.951 361.154 659.551 361.734C659.321 362.584 659.031 363.454 658.721 364.314Z" fill="#F5FF73"/>
<path d="M193.69 375.514C194.11 370.724 191.1 361.434 187.74 352.834C189.31 352.504 190.91 352.034 192.51 351.384C198.4 348.984 202.8 344.204 210.16 340.234C216.8 336.644 223.28 335.634 226.48 332.064C230.06 328.064 230.76 321.024 227.81 316.144C224.89 311.314 218.8 310.914 213.9 312.524C208.53 314.284 203.1 319.574 197.06 317.934C193.63 317.004 191.75 283.024 193.15 279.864C195.33 274.914 195.71 263.144 173.33 265.394C160.74 266.654 158.9 276.924 158.76 278.124C155.11 279.004 142.17 282.924 138.29 287.494C137.44 288.504 134.61 294.724 133.48 295.864C131.5 297.874 122.3 300.824 120.93 303.324C117.96 308.734 114.02 325.154 116.86 336.914C118.1 342.054 119.83 346.084 121.82 349.244C117.24 355.834 112.58 365.804 114.38 377.724C117.66 399.504 126.93 415.284 145.25 417.444C163.57 419.614 192.14 393.194 193.69 375.514Z" fill="#FFDAAE"/>
<path d="M156.55 360.594C159.19 360.004 161.81 359.324 164.38 358.484C167.05 357.614 169.55 356.344 172.19 355.424C174.97 354.454 177.96 355.074 180.85 354.894C183.64 354.714 186.47 354.124 189.05 353.024C189.57 352.804 189.41 351.934 188.81 352.024C186.06 352.414 183.35 352.694 180.56 352.444C178 352.214 175.49 351.634 172.92 352.144C170.46 352.634 168.19 353.944 165.85 354.824C163.32 355.774 160.74 356.564 158.13 357.234C153.09 358.524 147.62 359.734 142.4 359.764C139.56 359.784 136.92 359.084 134.32 358.004C131.9 356.994 129.65 355.454 127.21 354.554C126.56 354.314 126.09 355.084 126.58 355.564C128.33 357.254 130.92 358.744 133.06 359.884C135.23 361.044 137.67 361.904 140.1 362.264C145.52 363.064 151.28 361.764 156.55 360.594Z" fill="#F29570"/>
<path d="M167.941 344.654C164.491 341.454 165.431 336.904 167.291 333.114C168.111 331.454 169.151 329.914 170.341 328.504C171.031 327.694 171.861 327.004 172.591 326.234C174.911 326.064 177.211 325.844 179.461 325.314C184.441 324.144 189.601 321.744 191.581 316.694C191.631 316.574 191.461 316.454 191.381 316.574C183.571 327.494 168.661 321.144 157.831 325.294C152.581 327.304 149.241 331.914 144.501 334.704C142.011 336.174 139.231 337.264 136.381 337.774C134.911 338.034 133.411 338.154 131.921 338.084C130.541 338.024 129.191 337.644 127.811 337.724C126.571 337.804 126.561 339.364 127.451 339.904C129.761 341.284 133.441 341.004 136.001 340.634C138.791 340.234 141.521 339.364 144.051 338.114C145.841 337.224 147.471 336.084 149.071 334.874C149.751 334.994 150.441 334.994 151.111 335.284C151.911 335.624 152.591 336.214 153.201 336.824C154.691 338.324 155.971 340.244 156.121 342.404C156.131 342.484 156.231 342.474 156.251 342.404C157.171 339.314 155.151 334.184 151.901 332.684C154.231 330.884 156.601 329.184 159.351 328.184C161.211 327.504 163.121 327.114 165.071 326.854C163.201 329.024 162.271 331.884 161.961 334.824C161.961 334.854 162.001 334.864 162.011 334.834C162.891 331.734 164.431 328.544 167.081 326.644C167.661 326.594 168.251 326.544 168.841 326.504C168.271 327.204 167.761 327.924 167.321 328.554C166.011 330.464 164.981 332.544 164.281 334.744C163.131 338.384 163.081 344.104 167.761 345.064C167.991 345.114 168.101 344.804 167.941 344.654Z" fill="#F29570"/>
<path d="M131.639 411.854C130.679 409.534 128.509 407.664 127.039 405.634C125.499 403.514 124.099 401.284 122.909 398.944C120.499 394.234 118.749 389.134 117.779 383.924C115.799 373.324 116.939 362.944 120.059 352.694C120.209 352.204 119.489 352.084 119.269 352.454C113.519 361.954 112.359 374.124 114.359 384.884C115.369 390.324 117.129 395.604 119.689 400.514C120.999 403.024 122.469 405.454 124.149 407.734C125.659 409.774 127.469 412.474 129.859 413.524C130.889 413.974 132.089 412.944 131.639 411.854Z" fill="#F29570"/>
<path d="M192.451 278.694C192.051 282.764 191.001 286.634 190.961 290.754C190.911 294.924 191.271 299.094 191.821 303.224C192.351 307.164 192.871 311.204 193.821 315.074C194.531 317.974 196.381 320.724 199.721 320.104C201.261 319.814 201.311 317.814 199.811 317.404C196.711 316.554 196.751 310.774 196.351 308.304C195.781 304.814 195.271 301.314 194.981 297.784C194.691 294.184 194.711 290.604 195.051 287.014C195.381 283.544 196.551 280.044 196.231 276.544C195.711 270.974 191.181 266.614 186.061 264.934C180.321 263.054 173.251 263.584 167.671 265.824C162.781 267.794 158.231 272.184 158.641 277.634C152.211 278.244 145.611 280.384 140.151 283.864C137.841 285.334 136.131 287.264 134.761 289.624C133.501 291.794 132.561 294.474 130.511 296.054C128.301 297.754 125.301 297.954 123.061 299.694C121.071 301.244 119.711 303.454 118.721 305.734C117.541 308.434 116.691 311.344 115.971 314.194C115.361 316.604 113.661 320.904 115.161 323.164C115.381 323.494 115.881 323.554 116.191 323.324C118.071 321.944 118.191 318.344 118.771 316.224C119.551 313.354 120.351 310.434 121.481 307.674C122.471 305.254 123.811 302.824 126.211 301.574C128.521 300.364 131.041 300.004 133.041 298.214C136.761 294.874 137.461 289.594 141.791 286.734C146.971 283.314 153.461 281.504 159.321 279.624C159.421 279.594 159.501 279.554 159.571 279.504C159.711 279.444 159.831 279.324 159.871 279.174C159.941 279.024 159.971 278.854 159.971 278.684C161.471 270.594 169.311 267.464 176.801 267.064C184.121 266.664 193.321 269.824 192.451 278.694Z" fill="#F29570"/>
<path d="M198.19 349.274C201.56 347.434 204.51 344.944 207.97 343.194C211.1 341.604 214.28 340.224 217.54 338.934C222.66 336.904 228.26 334.314 229.9 328.564C231.51 322.934 230.05 315.024 224.49 312.104C218.07 308.724 211.65 312.234 206.69 316.394C206.48 316.574 206.65 316.964 206.94 316.844C211.89 314.764 219.25 311.674 224.11 315.564C228.3 318.924 228.42 327.444 224.8 331.204C221.35 334.784 215.88 335.954 211.49 337.934C208.88 339.114 206.38 340.504 203.98 342.064C201.45 343.714 198.67 345.364 196.66 347.654C195.76 348.694 197.16 349.834 198.19 349.274Z" fill="#F29570"/>
</svg>
