<svg width="1387" height="1390" viewBox="0 0 1387 1390" fill="none" xmlns="http://www.w3.org/2000/svg">
<path d="M503.917 1088.33C499.933 1088.33 495.973 1086.87 492.991 1084.01L162.434 766.905C156.472 761.187 156.53 751.97 162.563 746.32C168.594 740.664 178.316 740.72 184.276 746.44L436.777 988.664L258.435 682.6C254.335 675.563 257.027 666.708 264.45 662.82C271.874 658.927 281.213 661.487 285.314 668.523L517.351 1066.74C521.058 1073.1 519.247 1081.08 513.107 1085.43C510.366 1087.38 507.133 1088.33 503.917 1088.33Z" fill="white"/>
<path d="M881.35 1059.33C878.133 1059.33 874.903 1058.38 872.16 1056.43C866.02 1052.08 864.208 1044.1 867.916 1037.73L1099.95 639.52C1104.06 632.484 1113.4 629.93 1120.82 633.818C1128.24 637.705 1130.93 646.56 1126.83 653.598L948.491 959.66L1200.99 717.437C1206.95 711.719 1216.67 711.661 1222.71 717.317C1228.74 722.967 1228.8 732.185 1222.84 737.903L892.276 1055.01C889.295 1057.87 885.334 1059.33 881.35 1059.33Z" fill="white"/>
<path d="M693.19 517.311C941.658 517.311 1159.56 655.438 1281.93 862.966C1307.66 906.614 1371.46 892.621 1378.68 841.767C1384.77 798.877 1387.34 754.769 1386.06 709.778C1374.86 317.484 1068.58 2.17626 697.096 0.0113787C312.463 -2.22852 0 326.512 0 732.352C0 769.373 2.60706 805.747 7.63517 841.289C14.8612 892.371 78.6239 906.771 104.475 862.934C226.843 655.423 444.736 517.311 693.19 517.311Z" fill="#1AAAAA"/>
<path d="M697.156 356.82C381.92 354.984 115.159 575.466 29.1602 878.509C52.1062 895.578 87.0122 892.642 104.531 862.937C226.9 655.427 444.793 517.314 693.247 517.314C941.714 517.314 1159.62 655.441 1281.98 862.969C1299.41 892.528 1334.28 895.625 1357.22 878.767C1271.49 578.284 1007 358.624 697.156 356.82Z" fill="white"/>
<path d="M693.319 194.908C707.325 194.908 718.68 182.915 718.68 168.115V0.525914C711.552 0.250838 704.407 0.0507833 697.228 0.0114868C687.419 -0.0456717 677.67 0.168673 667.959 0.536631V168.115C667.959 182.915 679.314 194.908 693.319 194.908Z" fill="white"/>
<path d="M352.079 294.078C355.085 294.078 358.142 293.51 361.121 292.309C374.207 287.029 380.763 271.543 375.769 257.721L326.282 120.787C325.315 118.112 323.98 115.704 322.373 113.585C308.016 123.213 294.014 133.373 280.4 144.058L328.382 276.834C332.244 287.515 341.867 294.078 352.079 294.078Z" fill="white"/>
<path d="M1010.88 257.722C1005.89 271.543 1012.44 287.03 1025.53 292.31C1028.5 293.51 1031.56 294.078 1034.57 294.078C1044.78 294.078 1054.41 287.516 1058.27 276.834L1105.98 144.801C1092.32 134.056 1078.28 123.817 1063.88 114.136C1062.46 116.122 1061.26 118.341 1060.37 120.791L1010.88 257.722Z" fill="white"/>
<path d="M751.166 1283.07C748.117 1274.04 747.435 1240.42 772.601 1237.95C797.767 1235.48 813.423 1241.03 818.712 1246.65C824.001 1252.27 837.137 1292.23 838.753 1317.7C840.244 1341.23 822.78 1366.31 822.78 1366.31C822.78 1366.31 836.695 1371.61 834.195 1378.56C829.338 1392.1 790.007 1391.6 777.977 1382.94C765.677 1374.09 767.322 1364.57 778.246 1358.05C778.246 1358.05 786.083 1340.68 780.573 1327.82C775.082 1314.95 757.147 1300.8 751.166 1283.07Z" fill="#FFDAAE"/>
<path d="M715.335 1125.65C752.945 1123.05 807.192 1117.59 823.309 1131.74C839.417 1145.89 826.473 1165.15 826.473 1165.15C826.473 1165.15 831.512 1174.05 837.128 1192.64C842.744 1211.22 832.916 1241.26 819.444 1259.51C805.971 1277.77 779.141 1308.14 720.316 1312.17C661.492 1316.19 593.282 1278.36 582.819 1253.16C572.366 1227.96 598.533 1172.81 609.149 1164.45C609.149 1164.45 602.379 1155.7 609.524 1145.43C616.67 1135.16 666.416 1129.04 715.335 1125.65Z" fill="#EFF5F9"/>
<path d="M714.47 1211.18C711.191 1209.97 707.662 1209.7 704.2 1209.28C700.353 1208.8 696.516 1208.24 692.689 1207.64C685.524 1206.5 678.379 1205.27 671.282 1203.72C658.319 1200.9 645.741 1196.42 634.307 1189.61C627.96 1185.83 622.257 1181.22 616.737 1176.33C615.968 1175.65 614.978 1176.67 615.622 1177.45C623.921 1187.59 635.903 1194.75 647.77 1199.88C660.848 1205.54 674.86 1209.27 688.977 1211.08C693.237 1211.63 697.516 1212.04 701.786 1212.46C705.988 1212.86 710.277 1213.48 714.46 1212.8C715.374 1212.65 715.172 1211.43 714.47 1211.18Z" fill="#A1C9DB"/>
<path d="M779.965 1187.2C779.388 1188.23 779.176 1189.4 778.647 1190.46C778.042 1191.69 777.263 1192.85 776.349 1193.87C774.753 1195.66 772.791 1196.74 770.8 1197.93C770.925 1197.77 771.06 1197.61 771.175 1197.45C772.349 1195.89 774.541 1193.16 773.781 1191.08C773.56 1190.49 772.993 1190.26 772.426 1190.53C770.733 1191.33 769.983 1193.95 768.944 1195.43C767.665 1197.28 766.146 1198.93 764.425 1200.36C760.876 1203.3 756.491 1205.14 751.962 1205.88C750.875 1206.05 751.125 1207.86 752.221 1207.81C757.27 1207.53 761.963 1205.68 765.992 1202.62C767.425 1201.53 768.742 1200.3 769.925 1198.96C769.993 1199.17 770.166 1199.33 770.416 1199.33C773.301 1199.28 776.003 1197.54 777.994 1195.55C779.888 1193.67 782.119 1190.56 782.004 1187.77C781.975 1186.69 780.523 1186.21 779.965 1187.2Z" fill="#A1C9DB"/>
<path d="M787.889 1186.28C787.87 1185.66 786.917 1185.28 786.61 1185.94C786.302 1186.59 785.879 1187.15 785.629 1187.83C785.311 1188.67 785.129 1189.57 784.84 1190.43C784.59 1191.18 784.427 1192.08 783.994 1192.74C783.821 1193 783.234 1193.83 782.965 1193.77C782.879 1193.75 782.84 1193.84 782.888 1193.9C783.061 1194.12 783.157 1194.35 783.35 1194.56C783.523 1194.75 783.859 1194.85 784.109 1194.76C785.523 1194.24 786.196 1193.17 786.792 1191.82C787.158 1191 787.485 1190.12 787.735 1189.26C788.043 1188.16 787.918 1187.41 787.889 1186.28Z" fill="#A1C9DB"/>
<path d="M816.86 1165.97C810.57 1172.84 803.483 1178.43 795.742 1183.56C795.347 1183.82 795.588 1184.57 796.088 1184.38C804.849 1181 812.878 1175.25 819.427 1168.54C821.072 1166.86 818.437 1164.24 816.86 1165.97Z" fill="#A1C9DB"/>
<path d="M711.021 1274.53C709.011 1276.68 708.049 1279.7 706.117 1281.98C704.049 1284.43 701.616 1286.52 698.933 1288.26C692.855 1292.21 686.018 1294.02 679.402 1296.78C678.171 1297.29 678.142 1299.42 679.748 1299.33C683.422 1299.13 687.374 1297.56 690.836 1296.36C694.538 1295.08 698.221 1293.56 701.568 1291.5C704.482 1289.72 707.271 1287.54 709.521 1284.95C711.608 1282.55 714.329 1279.21 714.214 1275.85C714.185 1274.3 712.175 1273.3 711.021 1274.53Z" fill="#A1C9DB"/>
<path d="M723.798 1285.08C721.038 1286.08 718.586 1288.28 716.008 1289.71C713.268 1291.23 710.412 1292.55 707.488 1293.68C704.67 1294.77 701.776 1295.68 698.833 1296.37C697.429 1296.69 696.006 1296.99 694.592 1297.28C693.448 1297.52 692.39 1297.42 691.727 1298.44C691.659 1298.54 691.688 1298.7 691.775 1298.79C692.631 1299.66 693.698 1299.34 694.862 1299.26C696.41 1299.15 697.939 1298.93 699.468 1298.65C702.565 1298.09 705.613 1297.3 708.594 1296.3C711.469 1295.33 714.268 1294.13 716.97 1292.76C719.663 1291.4 723.288 1289.84 725.192 1287.44C725.971 1286.48 725.288 1284.55 723.798 1285.08Z" fill="#A1C9DB"/>
<path d="M731.255 1286.07C729.37 1287.38 727.908 1289.25 726.023 1290.6C724.148 1291.94 721.975 1292.78 720.09 1294.09C719.686 1294.37 719.811 1295.05 720.349 1295.05C722.763 1295.04 725.167 1293.85 727.216 1292.66C729.245 1291.48 731.755 1289.83 732.909 1287.74C733.457 1286.74 732.293 1285.35 731.255 1286.07Z" fill="#A1C9DB"/>
<path d="M637.214 1294.02C633.108 1290.53 628.319 1288.09 623.665 1285.4C619.279 1282.86 614.875 1280.36 610.528 1277.77C603.191 1273.4 595.998 1268.6 590.555 1261.91C584.631 1254.63 582.41 1245.77 582.871 1236.49C583.371 1226.51 586.016 1216.42 588.785 1206.85C590.305 1201.58 591.997 1196.38 594.046 1191.29C595.103 1188.66 596.219 1186.06 597.431 1183.5C598.633 1180.97 600.018 1178.52 600.71 1175.8C600.816 1175.4 600.354 1175.2 600.075 1175.43C596.2 1178.45 593.824 1183.54 591.651 1187.86C589.343 1192.45 587.506 1197.3 585.852 1202.16C582.515 1211.96 579.929 1222.42 578.832 1232.74C577.794 1242.54 579.005 1252.69 584.67 1260.98C589.699 1268.36 597.056 1273.82 604.48 1278.58C609.172 1281.59 614 1284.38 618.799 1287.22C624.338 1290.5 629.752 1294.26 635.791 1296.49C637.137 1297 638.32 1294.96 637.214 1294.02Z" fill="#A1C9DB"/>
<path d="M837.613 1189.98C835.959 1181.15 833.247 1170.8 826.852 1164.07C830.016 1160.45 832.199 1155.83 832.593 1151.05C833.016 1145.94 831.362 1139.38 827.073 1136.2C826.573 1135.82 825.996 1136.53 826.266 1137.01C827.525 1139.23 828.833 1141.32 829.458 1143.83C830.064 1146.29 830.074 1148.82 829.603 1151.3C828.66 1156.24 825.929 1160.26 822.256 1163.58C820.582 1165.1 822.9 1167.53 824.621 1166.32C826.323 1169.5 828.026 1172.64 829.343 1176.03C830.901 1180.04 832.064 1184.16 832.988 1188.36C834.959 1197.36 836.517 1207.05 835.757 1216.28C835.007 1225.5 831.439 1234.14 827.122 1242.21C822.611 1250.61 817.717 1259.05 811.774 1266.54C808.446 1270.73 804.58 1274.34 800.897 1278.19C799.128 1280.05 797.474 1281.9 795.579 1283.63C793.521 1285.51 791.406 1287.34 789.309 1289.17C788.319 1290.03 789.761 1291.45 790.742 1290.61C798.253 1284.11 805.946 1277.98 812.437 1270.41C818.928 1262.83 824.439 1254.35 829.314 1245.65C833.93 1237.4 838.084 1228.45 839.469 1219.02C840.864 1209.43 839.383 1199.44 837.613 1189.98Z" fill="#A1C9DB"/>
<path d="M874.452 1067.59C873.423 1064.56 863.855 1060.25 862.845 1057.71C861.835 1055.17 863.355 1040.73 866.384 1034.64C869.413 1028.56 874.596 1017.88 873.087 1016.64C871.567 1015.41 868.788 1014.58 865.374 1016.39C861.96 1018.2 854.508 1029.57 850.709 1031.35C846.92 1033.12 841.352 1036.92 841.352 1036.92C811.291 1035.04 782.134 1027.24 769.363 1028.56C768.834 1028.03 646.31 1045.42 646.31 1045.42C631.135 1032.11 554.914 1075.08 554.914 1075.08L536.883 1067.48C532.815 1060.6 532.2 1046.97 527.901 1046.41C523.603 1045.85 518.439 1052.12 517.881 1054.09C516.919 1057.5 524.593 1078.56 526.267 1081.37C526.267 1081.37 514.409 1067 512.005 1057.49C511.044 1053.71 500.821 1063.53 501.831 1067.48C502.85 1071.43 509.543 1084.73 516.15 1092.17C516.15 1092.17 501.148 1084.01 498.783 1082.65C496.407 1081.29 494.715 1092.93 495.734 1095.44C496.753 1097.94 517.881 1107.14 517.881 1107.14C517.881 1107.14 499.465 1105.42 497.773 1105.25C496.071 1105.09 497.263 1113.58 500.821 1114.1C503.6 1114.49 516.083 1116.31 521.43 1117.08C521.641 1117.38 521.853 1117.68 522.083 1117.98C537.028 1137.42 552.481 1124.04 552.481 1124.04C566.627 1120.78 603.189 1120.51 628.923 1119.33C629.952 1123.5 630.76 1126.84 631.135 1128.53C632.779 1136.04 630.798 1148.79 631.135 1156.33C631.471 1163.87 664.389 1190.95 717.616 1189.74C748.514 1189.02 801.299 1163.33 806.723 1149.24C812.147 1135.14 806.713 1098.72 803.175 1085.7C802.655 1083.77 801.828 1081.42 800.761 1078.79C815.272 1074.59 838.188 1068.11 841.612 1068.11C846.67 1068.11 851.219 1068.36 855.767 1069.58C860.316 1070.81 869.163 1078.26 872.202 1076.22C875.231 1074.17 875.481 1070.64 874.452 1067.59Z" fill="#FFDAAE"/>
<path d="M544.358 1102.81C539.328 1102.69 534.414 1101.63 529.847 1099.47C527.702 1098.46 525.231 1097.28 523.865 1095.25C522.586 1093.34 522.375 1090.77 522.471 1088.53C522.557 1086.52 522.923 1083.86 525.317 1083.48C527.452 1083.14 529.895 1084.55 531.847 1085.21C536.674 1086.84 541.665 1087.85 546.762 1087.96C547.781 1087.98 548.051 1086.5 546.983 1086.34C543.377 1085.78 539.78 1085.07 536.29 1083.99C533.501 1083.13 530.866 1081.76 528.058 1080.98C522.903 1079.54 519.672 1083.14 519.451 1088.11C519.201 1093.62 520.932 1097.9 525.75 1100.73C528.5 1102.34 531.443 1103.57 534.501 1104.41C534.482 1106.92 535.088 1109.57 536.713 1111.55C537.953 1113.06 540.271 1115.08 542.358 1114.76C542.579 1114.73 542.665 1114.48 542.55 1114.3C541.559 1112.76 540.03 1111.82 539.136 1110.15C538.29 1108.57 537.684 1106.94 537.646 1105.13C539.713 1105.52 541.819 1105.74 543.935 1105.79C545.858 1105.83 546.291 1102.85 544.358 1102.81Z" fill="#F29570"/>
<path d="M647.696 1117.01C646.138 1115.6 643.946 1116.07 641.974 1116.11C639.493 1116.15 637.012 1116.21 634.531 1116.27C629.569 1116.41 624.616 1116.6 619.654 1116.89C614.827 1117.18 610.018 1117.55 605.21 1117.99C600.325 1118.45 595.353 1118.74 590.555 1119.79C589.574 1120.01 589.833 1121.47 590.785 1121.51C595.584 1121.67 600.412 1121.15 605.21 1120.92C610.163 1120.68 615.115 1120.46 620.068 1120.26C624.886 1120.06 629.703 1119.87 634.531 1119.74C636.877 1119.67 639.214 1119.61 641.561 1119.57C643.58 1119.53 646.128 1120.01 647.696 1118.53C648.11 1118.14 648.119 1117.38 647.696 1117.01Z" fill="#F29570"/>
<path d="M556.703 796.305C556.703 796.305 561.521 787.78 561.415 780.875C561.309 773.961 575.648 760.161 585.803 761.801C595.958 763.44 607.132 758.474 601.218 746.053C595.304 733.623 582.379 729.351 577.177 737.644C573.705 743.179 574.484 713.989 593.736 717.402C612.989 720.816 612.344 738.676 613.344 740.161C614.345 741.646 617.345 739.592 617.643 733.787C617.941 727.981 620.278 721.183 630.231 721.24C640.175 721.298 648.416 725.474 646.945 732.003C645.473 738.531 661.379 718.55 650.984 709.119C640.598 699.688 625.134 698.588 618.73 703.005C612.325 707.421 618.326 694.335 633.606 688.935C648.714 683.593 660.61 686.611 667.899 695.049C674.169 702.31 677.246 712.957 671.842 720.932C671.842 720.932 693.969 708.685 694.287 689.176C694.604 669.668 678.218 662.454 668.245 664.296C658.273 666.138 654.532 670.401 650.935 671.673C647.339 672.946 647.791 657.806 655.032 651.471C662.273 645.135 685.122 651.519 696.835 664.528C708.548 677.537 725.175 706.332 705.721 724.625C705.721 724.625 730.608 710.083 734.667 722.726C738.725 735.368 722.569 747.47 716.761 746.198C716.761 746.198 729.849 748.628 735.186 741.222C738.831 736.168 731.964 763.527 708.856 755.706L556.703 796.305Z" fill="#6D4F3A"/>
<path d="M810.561 838.04C804.657 795.176 758.767 738.916 666.823 749.051C574.004 759.283 486.956 827.086 504.41 906.701C516.815 963.279 549.944 976.047 549.944 976.047C549.944 976.047 537.26 994.128 564.426 1017.25C591.593 1040.39 661.573 1068.89 736.043 1056.26C791.646 1046.83 835.41 998.371 826.169 958.293C820.736 934.754 800.243 932.198 804.522 910.279C808.811 888.379 814.61 867.443 810.561 838.04Z" fill="#FFDAAE"/>
<path d="M546.28 929.179C535.077 898.792 474.56 904.366 475.002 942.178C475.483 983.259 524.547 992.835 549.944 976.055L546.28 929.179Z" fill="#FFDAAE"/>
<path d="M745.956 822.708C748.562 819.101 753.64 816.951 757.852 816.045C761.949 815.157 766.574 815.601 770.305 817.578C776.614 820.924 784.086 828.822 782.903 836.595C782.816 837.163 782.403 837.482 781.884 837.607C781.807 837.636 781.72 837.636 781.634 837.626C780.528 837.337 780.489 836.305 780.066 835.379C779.355 833.827 778.297 832.419 777.181 831.136C774.969 828.59 772.248 826.16 769.199 824.685C766.276 823.277 762.997 822.747 759.814 823.537C756.169 824.444 753.717 826.932 750.515 828.639C746.918 830.548 743.86 825.611 745.956 822.708Z" fill="#6D4F3A"/>
<path d="M619.471 832.013C622.308 821.627 631.078 814.057 641.455 811.597C652.552 808.965 664.024 816.332 671.237 824.259C674.766 828.146 668.823 833.932 664.823 830.711C661.178 827.769 658.11 824.259 654.023 821.848C650.667 819.871 646.638 818.522 642.714 818.705C633.415 819.139 626.26 825.359 621.25 832.765C620.721 833.556 619.202 832.987 619.471 832.013Z" fill="#6D4F3A"/>
<path d="M685.897 732.377C685.897 732.377 715.17 742.647 710.583 758.607C705.995 774.567 674.472 793.718 649.643 766.563C649.643 766.563 666.914 775.068 677.059 773.082C687.195 771.085 695.735 759.88 694.821 754.74C693.917 749.6 670.732 747.112 670.732 747.112L685.897 732.377Z" fill="#6D4F3A"/>
<path d="M662.69 874.772C661.2 867.424 653.872 855.717 649.506 854.897C645.14 854.078 625.205 855.061 619.214 868.234C613.223 881.407 611.222 893.78 619.925 902.758C628.619 911.726 651.939 908.698 656.122 905.844C660.296 902.989 662.69 874.772 662.69 874.772Z" fill="white"/>
<path d="M744.07 872.333C746.542 865.255 755.312 855.554 762.476 854.618C767.323 853.982 778.19 859.594 782.334 873.462C786.479 887.329 782.786 897.522 776.363 903.221C767.987 910.646 757.005 908.313 752.937 906.278C748.417 904.021 744.07 872.333 744.07 872.333Z" fill="white"/>
<path d="M773.413 876.278C769.134 869.286 758.69 859.296 748.458 865.545C739.255 871.167 739.322 888.255 744.188 898.515C749.16 909.007 762.325 912.228 770.942 903.154C778.894 894.774 777.183 882.43 773.413 876.278Z" fill="#230D03"/>
<path d="M663.722 875.186C659.442 868.195 648.999 858.204 638.767 864.453C629.564 870.075 629.631 887.163 634.497 897.424C639.469 907.916 652.634 911.137 661.25 902.062C669.203 893.682 667.491 881.338 663.722 875.186Z" fill="#230D03"/>
<path d="M743.812 864.252C747.111 859.652 751.977 855.679 757.045 853.21C761.949 850.818 767.267 850.317 771.825 853.702C775.527 856.46 778.268 860.549 780.557 864.502C782.548 867.945 785.663 873.278 784.134 877.367C784.048 877.598 783.817 877.762 783.576 877.791C783.5 877.81 783.413 877.83 783.336 877.849C783.24 877.878 783.153 877.849 783.115 877.752C782.423 876.325 782.336 874.57 781.624 873.046C780.547 870.742 779.057 868.591 777.566 866.537C776.297 864.782 774.893 863.143 773.47 861.503C771.633 859.401 769.469 857.019 766.68 856.277C761.055 854.772 754.727 859.941 750.996 863.528C748.909 865.534 746.832 867.8 745.216 870.202C743.341 872.979 742.879 876.499 741.86 879.633C741.687 880.173 740.994 880.028 740.773 879.633C737.965 874.705 740.802 868.456 743.812 864.252Z" fill="#230D03"/>
<path d="M615.956 869.997C618.158 863.787 622.649 859.563 628.332 856.554C633.804 853.652 640.44 851.289 646.719 852.031C660.173 853.632 663.24 870.093 666.116 880.692C666.308 881.405 665.462 882.032 664.942 881.376C661.596 877.201 660.125 872.196 657.701 867.49C655.432 863.064 651.797 858.29 646.488 857.692C641.286 857.104 635.651 859.389 631.121 861.733C628.938 862.861 626.948 864.221 625.111 865.86C622.909 867.818 621.774 870.016 620.216 872.485C618.639 874.973 615.062 872.524 615.956 869.997Z" fill="#230D03"/>
<path d="M693.872 923.616C701.295 916.123 711.71 910.106 722.548 910.733C732.299 911.302 736.886 920.058 739.415 928.37C739.781 929.557 738.117 930.839 737.357 929.576C733.742 923.578 729.741 916.605 721.827 916.885C712.893 917.194 704.825 922.266 698.584 928.341C695.881 930.964 691.189 926.326 693.872 923.616Z" fill="#F29570"/>
<path d="M602.448 986.578C608.007 1001.52 618.845 1014.7 636.097 1023.97C649.108 1030.96 665.783 1035.72 686.583 1037.33C695.469 1038.02 703.912 1037.49 711.865 1036.04C743.677 1030.25 767.612 1009.75 780.325 993.656C800.616 967.976 797.722 932.527 766.478 935.217C745.533 937.021 740.446 970.04 715.058 969.037C689.68 968.044 681.006 930.193 645.29 928.216C609.565 926.249 594.428 965.016 602.448 986.578Z" fill="#5C0000"/>
<path d="M636.103 1023.97C649.115 1030.96 665.79 1035.72 686.59 1037.33C695.476 1038.02 703.919 1037.49 711.872 1036.04C718.517 1032.34 721.662 1027.8 716.324 1018.66C703.64 996.935 651.047 985.132 637.2 998.343C628.333 1006.8 631.228 1016.53 636.103 1023.97Z" fill="#F99582"/>
<path d="M488.597 941.93C488.684 938.912 488.924 935.894 489.232 932.914C489.741 928.005 491.29 925.585 494.982 923.618C503.022 919.336 512.388 920.339 520.87 923.502C525.255 925.141 529.496 927.369 533.66 929.77C537.439 931.949 540.517 933.618 539.892 939.269C538.747 949.577 536.391 959.963 531.65 968.508C529.198 972.924 526.092 976.483 521.332 976.058C516.696 975.644 512.359 971.728 509.359 967.447C507.57 964.891 510.369 961.748 512.484 963.599C515.61 966.347 519.716 972.008 523.909 969.491C527.294 967.466 529.438 961.236 530.833 957.177C532.4 952.615 533.439 947.813 534.266 942.933C534.497 941.564 534.718 940.185 534.91 938.806C535.074 937.62 535.199 937.475 534.814 936.839C534.324 936.019 532.275 935.257 531.516 934.804C530.554 934.216 529.583 933.647 528.602 933.087C527.323 932.354 526.034 931.65 524.726 930.985C517.379 938.256 510.513 946.135 507.57 957.601C507.243 958.893 505.57 958.228 505.686 956.916C506.705 945.334 513.215 936.414 519.812 928.709C514.312 926.453 508.609 925.17 502.887 925.999C500.695 926.318 498.56 926.944 496.531 927.947C495.454 928.478 493.982 929.085 493.28 930.271C492.79 931.101 492.694 932.605 492.549 933.579C492.136 936.337 491.847 939.124 491.578 941.921C491.338 944.447 491.405 947.157 490.213 949.269C489.972 949.693 489.501 949.5 489.309 949.105C488.289 946.906 488.52 944.341 488.597 941.93Z" fill="#F29570"/>
<path d="M752.084 868.071C747.593 868.032 743.16 878.621 746.363 880.819C749.565 883.018 755.537 881.07 756.998 877.57C758.46 874.069 755.652 868.109 752.084 868.071Z" fill="white"/>
<path d="M646.325 879.7C648.709 875.071 646.238 866.469 641.939 866.787C637.631 867.115 633.371 876.016 635.064 879.449C636.756 882.882 643.401 885.38 646.325 879.7Z" fill="white"/>
<path d="M509.413 907.542C512.932 906.404 517.616 907.223 521.154 907.985C525.059 908.824 528.838 910.299 532.319 912.257C535.637 914.128 538.657 916.394 541.32 919.114C542.782 920.608 544.09 922.209 545.244 923.945C545.946 925.006 547.158 926.414 546.542 927.715C546.225 928.39 545.369 928.333 545.032 927.715C543.542 924.967 540.561 922.383 538.195 920.396C535.541 918.159 532.608 916.25 529.473 914.774C526.434 913.347 523.251 912.334 519.962 911.698C518.346 911.389 516.721 911.177 515.086 911.081C513.355 910.975 511.557 911.264 509.855 910.984C508.23 910.714 507.634 908.12 509.413 907.542Z" fill="#F29570"/>
<path d="M548.324 975.267C549.055 974.264 550.921 974.949 550.632 976.241C549.661 980.532 549.074 984.515 549.767 988.922C550.43 993.136 552.19 997.138 554.527 1000.68C559.354 1008 566.259 1013.92 573.192 1019.17C586.857 1029.52 602.465 1037.5 618.525 1043.35C626.545 1046.27 638.037 1050.36 653.962 1053.18C658.674 1054.01 663.415 1054.64 668.156 1055.26C677.637 1056.48 687.177 1056.96 696.736 1057.24C715.219 1057.78 733.452 1055.71 751.214 1050.53C752.262 1050.23 753.3 1049.91 754.339 1049.58C754.445 1049.34 754.656 1049.13 755.002 1049.05C756.464 1048.72 757.916 1048.33 759.339 1047.87C762.051 1046.9 764.744 1045.85 767.408 1044.74C775.514 1040.98 783.015 1035.72 789.901 1030.23C799.739 1022.39 808.942 1013.22 815.817 1002.62C822.616 992.133 826.809 979.578 825.895 966.983C824.943 953.859 818.048 942.075 809.884 932.094C807.653 929.365 805.143 926.819 803.364 923.752C801.469 920.483 801.537 916.905 802.046 913.27C802.614 909.229 803.566 905.208 804.364 901.196C805.133 897.368 805.826 893.453 807.028 889.73C807.287 888.91 808.72 889.084 808.73 889.962C808.826 897.329 807.691 904.928 806.855 912.248C806.432 915.893 805.97 919.634 808.009 922.932C809.74 925.719 812.163 928.149 814.154 930.744C822.087 941.101 828.963 952.759 830.204 966.029C831.396 978.748 827.444 991.526 821.02 1002.38C814.298 1013.75 804.826 1022.6 794.709 1030.89C786.323 1037.76 777.351 1044.59 767.187 1048.21C755.454 1054.25 742.241 1057.58 729.317 1059.49C720.018 1060.86 710.613 1061.4 701.208 1061.34C691.485 1061.29 681.936 1060.23 672.291 1059.12C666.848 1058.49 661.414 1057.73 656 1056.87C650.721 1056.04 630.026 1051.78 619.967 1047.51C611.37 1043.85 602.465 1041.01 594.031 1036.97C585.838 1033.04 578.049 1028.35 570.788 1022.88C563.48 1017.37 556.104 1011.06 551.046 1003.35C545.958 995.644 542.237 983.541 548.324 975.267Z" fill="#F29570"/>
<path d="M616.488 1249C620.094 1240.18 635.557 1236.08 656.175 1250.77C676.793 1265.45 684.986 1279.93 685.304 1287.65C685.621 1295.38 669.715 1333.39 662.628 1342.03C655.54 1350.67 616.142 1358.93 616.142 1358.93C616.142 1358.93 623.181 1372.08 616.747 1375.7C604.236 1382.73 574.858 1356.49 571.444 1342.03C567.953 1327.26 575.416 1321.15 587.927 1323.42C587.927 1323.42 605.198 1315.47 609.458 1302.13C613.709 1288.79 609.42 1266.31 616.488 1249Z" fill="#FFDAAE"/>
</svg>
