<svg width="60" height="60" viewBox="0 0 60 60" fill="none" xmlns="http://www.w3.org/2000/svg">
<path d="M12.7355 25.8935C12.5682 25.8863 12.3996 25.8814 12.228 25.8814C8.70422 25.8814 6.04688 27.4524 6.04688 29.5357C6.04688 31.5422 8.5125 33.0728 11.8427 33.1828C11.8881 33.2315 13.1147 34.0616 13.2219 34.4196C13.3487 34.8428 12.9229 35.8074 12.5807 36.5824C12.002 37.8932 11.4037 39.2485 12.0809 40.3354C12.3682 40.7968 12.8089 41.0716 13.2649 41.242C12.0812 43.1737 11.9428 45.1082 13.0622 46.2101C13.5806 46.7205 14.2802 46.9652 15.0771 46.9652C16.1706 46.9652 17.4469 46.502 18.6884 45.6335C18.8671 46.4748 19.202 47.2989 19.9625 47.7069C20.2818 47.8781 20.6171 47.9495 20.9634 47.9495C21.8508 47.9495 22.8089 47.4806 23.7439 47.023C24.5125 46.6469 25.4677 46.1784 25.905 46.2816C25.9659 46.2961 26.0927 46.3493 26.2993 46.5318C26.292 46.6964 26.287 46.8625 26.287 47.0313C26.287 50.5006 27.8827 53.1168 29.9986 53.1168C32.0461 53.1168 33.6061 50.6673 33.7051 47.3657C33.7794 47.3108 34.7263 46.1206 34.9594 46.0529C35.3899 45.9281 36.3691 46.3473 37.1562 46.6842C38.4874 47.2538 39.8637 47.8429 40.9682 47.1763C41.435 46.8944 41.7156 46.4667 41.8922 46.0031C42.4403 46.3262 42.9977 46.5764 43.5438 46.7397C44.037 46.8871 44.5046 46.96 44.9379 46.96C45.7445 46.96 46.4306 46.7069 46.935 46.2103C47.7103 45.447 47.9013 44.2613 47.4729 42.8716C47.2479 42.1419 46.8604 41.3917 46.3451 40.6721C47.2011 40.4964 48.0403 40.1667 48.4555 39.4167C49.0752 38.2969 48.4071 36.9735 47.7608 35.6937C47.3788 34.937 46.9032 33.9952 47.0078 33.5663C47.0221 33.5075 47.0755 33.3825 47.2617 33.1779C47.4289 33.1851 47.5977 33.19 47.7693 33.19C51.2931 33.19 53.9504 31.6191 53.9504 29.5358C53.9504 27.5391 51.5088 26.0141 48.2033 25.8907C47.7163 25.5719 46.8851 25.0184 46.7753 24.6518C46.6485 24.2286 47.0743 23.2641 47.4165 22.489C47.9952 21.1783 48.5936 19.8229 47.9163 18.7359C47.6256 18.2691 47.1803 17.9953 46.7245 17.8266C47.0528 17.2869 47.3071 16.7379 47.4729 16.2001C47.9013 14.8103 47.7103 13.6246 46.9351 12.8613C46.1599 12.098 44.9552 11.9099 43.5439 12.3319C42.8028 12.5534 42.0408 12.9349 41.3099 13.4422C41.1314 12.5994 40.7966 11.7732 40.0348 11.3646C38.8971 10.7544 37.5532 11.4123 36.2534 12.0484C35.4847 12.4245 34.5286 12.8929 34.0923 12.7898C34.0305 12.7752 33.9034 12.7207 33.698 12.5393C33.7054 12.3748 33.7103 12.2089 33.7103 12.0401C33.7103 8.5708 32.1146 5.95459 29.9986 5.95459C27.9688 5.95459 26.4188 8.36266 26.2958 11.6213C26.2773 11.6433 25.4142 12.9093 25.0378 13.0186C24.6087 13.1434 23.6285 12.7241 22.8411 12.3874C21.51 11.8176 20.1334 11.2284 19.0291 11.8953C18.5562 12.1808 18.279 12.6165 18.1082 13.061C16.1461 11.8957 14.1813 11.7596 13.0621 12.8614C11.8322 14.0723 12.1216 16.2884 13.6473 18.4014C12.7746 18.5807 11.9538 18.9104 11.5419 19.6551C10.9222 20.7749 11.5903 22.0982 12.2365 23.3779C12.6186 24.1347 13.0941 25.0765 12.9895 25.5055C12.9754 25.5637 12.9218 25.689 12.7355 25.8935ZM7.8048 29.5355C7.8048 28.7323 9.48762 27.6119 12.2282 27.6119C14.9687 27.6119 16.6515 28.7323 16.6515 29.5355C16.6515 30.3388 14.9687 31.4592 12.2282 31.4592C9.48762 31.4592 7.8048 30.3388 7.8048 29.5355ZM13.5795 39.4304C13.3808 39.1116 13.8892 37.9601 14.1928 37.272C14.6954 36.1334 15.2154 34.9559 14.9079 33.9299C14.8029 33.5793 14.6007 33.2674 14.3464 32.985C16.3209 32.5853 17.7789 31.6304 18.2473 30.4007H24.5449C24.6844 31.256 25.0275 32.0447 25.523 32.7181L21.0669 37.1052C20.3463 36.7846 19.4341 36.7688 18.4125 37.0742C17.1901 37.4394 15.9102 38.238 14.8084 39.3228C14.6648 39.4641 14.5277 39.6073 14.3958 39.7516C13.7764 39.6438 13.6187 39.4934 13.5795 39.4304ZM29.9988 25.8271C32.0759 25.8271 33.7657 27.4907 33.7657 29.5355C33.7657 31.5804 32.0759 33.244 29.9988 33.244C27.9218 33.244 26.2321 31.5804 26.2321 29.5355C26.2321 27.4907 27.9218 25.8271 29.9988 25.8271ZM14.3053 44.9862C13.7284 44.4182 14.1136 42.4545 16.0515 40.5467C16.9396 39.6724 17.9863 39.0104 18.9231 38.7303C19.2437 38.6345 19.5405 38.587 19.7971 38.587C20.1318 38.587 20.3982 38.6678 20.5604 38.8271L20.5608 38.8275C20.5609 38.8276 20.5611 38.8277 20.5613 38.8278C20.8472 39.1098 20.8839 39.7123 20.6596 40.4398C20.3752 41.3622 19.7027 42.3926 18.8147 43.2671C16.8769 45.1748 14.8823 45.5542 14.3053 44.9862ZM26.5566 44.6731C26.4765 44.6438 26.3962 44.6177 26.3154 44.5986C25.2585 44.3489 24.0909 44.9205 22.9617 45.4731C22.2793 45.807 21.1373 46.3661 20.8037 46.1869C20.4769 46.0117 20.3277 44.8673 20.2594 44.2867C21.2584 43.2496 21.9936 42.0711 22.3416 40.9424C22.6518 39.9365 22.6356 39.0384 22.3099 38.3291L26.766 33.942C27.4501 34.4299 28.2512 34.7676 29.1198 34.9049V41.1051C27.9301 41.5444 26.9936 42.8679 26.5566 44.6731ZM29.9988 51.386C29.183 51.386 28.0451 49.7292 28.0451 47.0311C28.0451 44.333 29.183 42.6762 29.9988 42.6762C30.8147 42.6762 31.9527 44.333 31.9527 47.0311C31.9527 49.7294 30.8147 51.386 29.9988 51.386ZM40.0494 45.7007C39.7249 45.8963 38.5559 45.3958 37.8571 45.0968C36.7004 44.6018 35.5044 44.0901 34.4621 44.3928C34.1077 44.4957 33.7915 44.6931 33.5026 44.9457C33.0967 43.0017 32.1267 41.5662 30.8777 41.1051V34.9049C31.7464 34.7676 32.5475 34.4298 33.2317 33.942L37.6869 38.3283C36.9518 39.9206 37.8076 42.3911 39.9401 44.4906C40.0825 44.6308 40.228 44.766 40.3759 44.8964C40.2662 45.5048 40.1152 45.6611 40.0494 45.7007ZM45.6923 44.9862C45.4062 45.268 44.794 45.3043 44.0546 45.0834C43.1179 44.8034 42.0711 44.1414 41.1831 43.2671C39.2455 41.3596 38.8601 39.3963 39.4364 38.8279C39.4365 38.8278 39.4366 38.8277 39.4369 38.8276L39.4372 38.8273C39.5968 38.6705 39.8643 38.586 40.2089 38.586C41.1118 38.586 42.544 39.1662 43.9463 40.5468C44.8343 41.4211 45.5067 42.4516 45.7911 43.374C46.0155 44.1017 45.9786 44.7044 45.6923 44.9862ZM46.187 36.4637C46.5262 37.1355 47.0938 38.2598 46.9121 38.5883C46.734 38.9102 45.5712 39.0571 44.9817 39.1243C42.8955 37.1712 40.4952 36.4042 38.9299 37.1046L34.4747 32.7183C34.9703 32.0448 35.3133 31.2561 35.4527 30.4008H41.7503C42.1964 31.5722 43.5407 32.4943 45.3742 32.9245C45.3444 33.0033 45.318 33.0823 45.2987 33.162C45.0452 34.2023 45.6257 35.352 46.187 36.4637ZM52.1929 29.5355C52.1929 30.3388 50.51 31.4592 47.7695 31.4592C45.0289 31.4592 43.3461 30.3388 43.3461 29.5355C43.3461 28.7323 45.0289 27.6119 47.7695 27.6119C50.51 27.6119 52.1929 28.7323 52.1929 29.5355ZM46.4182 19.6406C46.6168 19.9594 46.1085 21.111 45.8048 21.7989C45.3021 22.9376 44.7821 24.1151 45.0896 25.1412C45.1944 25.4908 45.3898 25.7996 45.6489 26.0864C43.6754 26.4863 42.2184 27.441 41.7503 28.6702H35.4527C35.3133 27.815 34.9702 27.0263 34.4747 26.3527L38.9309 21.9654C39.313 22.1364 39.7437 22.2225 40.2089 22.2225C41.712 22.2225 43.5609 21.3513 45.1893 19.7481C45.3316 19.6079 45.4689 19.4647 45.6013 19.3191C46.2221 19.4273 46.3794 19.5783 46.4182 19.6406ZM44.0546 13.9877C44.3753 13.8918 44.6721 13.8444 44.9286 13.8444C45.2636 13.8444 45.5303 13.9253 45.6925 14.0848C45.9786 14.3666 46.0155 14.9694 45.7911 15.6972C45.5067 16.6196 44.8343 17.6501 43.9463 18.5244C42.0087 20.4321 40.014 20.8116 39.437 20.2436C38.8601 19.6756 39.2453 17.712 41.1832 15.804C42.0711 14.9298 43.1179 14.2677 44.0546 13.9877ZM33.4412 14.3978C33.5212 14.4273 33.6015 14.4533 33.6824 14.4724C34.7394 14.722 35.9067 14.1505 37.0361 13.5978C37.7184 13.264 38.8604 12.7051 39.1941 12.8839C39.5209 13.0593 39.6701 14.204 39.7385 14.7845C37.7545 16.8382 36.9755 19.2015 37.687 20.7426L33.2318 25.1288C32.5477 24.6409 31.7466 24.3032 30.8779 24.1659V17.9658C32.0677 17.5267 33.0042 16.2031 33.4412 14.3978ZM29.9988 7.68508C30.8147 7.68508 31.9527 9.34184 31.9527 12.04C31.9527 14.7381 30.8147 16.3948 29.9988 16.3948C29.183 16.3948 28.0451 14.7381 28.0451 12.04C28.0451 9.34172 29.183 7.68508 29.9988 7.68508ZM19.9482 13.3703C20.2729 13.1747 21.4418 13.6753 22.1406 13.9743C23.2971 14.4693 24.4927 14.9811 25.5354 14.6783C25.8895 14.5755 26.2055 14.3785 26.495 14.1252C26.9009 16.0694 27.8709 17.5049 29.1199 17.966V24.1662C28.2512 24.3035 27.4502 24.6413 26.7661 25.1291L22.3099 20.742C22.6356 20.0327 22.6518 19.1346 22.3416 18.1287C21.9705 16.9253 21.1594 15.6652 20.0577 14.5805C19.9141 14.4392 19.7687 14.3042 19.6221 14.1744C19.7319 13.5632 19.8854 13.4083 19.9482 13.3703ZM14.3052 14.085C14.4647 13.9279 14.7325 13.8434 15.0772 13.8434C15.9803 13.8434 17.4124 14.4236 18.8147 15.8041C19.7027 16.6784 20.3752 17.709 20.6596 18.6314C20.884 19.3591 20.8472 19.9618 20.5608 20.2437C20.2746 20.5254 19.6624 20.5618 18.9231 20.3408C17.9863 20.0608 16.9396 19.3988 16.0515 18.5245C14.1136 16.6166 13.7284 14.6528 14.3052 14.085ZM13.0856 20.4828C13.2579 20.1714 14.3489 20.0236 15.0158 19.9468C16.0691 20.9304 17.2662 21.6541 18.4126 21.9968C18.9057 22.1443 19.3734 22.2172 19.8067 22.2172C20.2709 22.2172 20.6933 22.1306 21.0661 21.9647L25.5232 26.3528C25.0277 27.0264 24.6846 27.8151 24.5452 28.6704H18.2475C17.8014 27.499 16.4571 26.5769 14.6237 26.1467C14.6535 26.0679 14.6797 25.9888 14.6991 25.9092C14.9527 24.8689 14.3722 23.7192 13.8109 22.6075C13.4715 21.9355 12.9039 20.8112 13.0856 20.4828Z" fill="#C75B4A"/>
<path d="M54.9345 44.3797C54.5272 44.1197 53.9829 44.2342 53.719 44.6354C48.4827 52.5909 39.6158 57.3405 30 57.3405C22.4563 57.3405 15.364 54.4483 10.0298 49.1966C4.69559 43.945 1.75781 36.9624 1.75781 29.5355C1.75781 22.9845 4.11621 16.623 8.39848 11.6229C8.71137 11.2575 8.66426 10.7116 8.29313 10.4035C7.92199 10.0954 7.36746 10.1419 7.05469 10.5072C2.50547 15.8191 0 22.5769 0 29.5355C0 37.4247 3.12047 44.8418 8.78672 50.4203C14.453 55.9988 21.9867 59.0711 30 59.0711C40.2142 59.0711 49.6325 54.0264 55.1941 45.5763C55.4582 45.1753 55.3419 44.6395 54.9345 44.3797Z" fill="#C75B4A"/>
<path d="M51.2151 8.65082C45.549 3.07228 38.0152 0 30.0019 0C23.0804 0 16.3269 2.37612 10.9856 6.69074C10.6102 6.99382 10.5556 7.53908 10.8636 7.9085C11.1714 8.27793 11.7254 8.33169 12.1005 8.02861C17.1283 3.96735 23.4858 1.7306 30.0019 1.7306C37.5458 1.7306 44.6381 4.62278 49.9722 9.87447C55.3064 15.1262 58.2441 22.1086 58.2441 29.5356C58.2441 33.2615 57.5084 36.8774 56.0574 40.283C55.8696 40.7237 56.0803 41.2308 56.5279 41.4156C56.639 41.4614 56.7542 41.4832 56.8675 41.4832C57.211 41.4832 57.5373 41.2837 57.6783 40.9524C59.2202 37.3337 60.0019 33.4926 60.0019 29.5356C60.0019 21.6464 56.8814 14.2294 51.2151 8.65082Z" fill="#C75B4A"/>
</svg>
