<svg width="700" height="700" viewBox="0 0 700 700" fill="none" xmlns="http://www.w3.org/2000/svg">
<path d="M400 16.6667L416.537 14.5993C415.497 6.259 408.407 0 400 0V16.6667ZM300 16.6667V0C291.593 0 284.503 6.259 283.463 14.5993L300 16.6667ZM409.157 89.918L392.62 91.985C393.49 98.9497 398.63 104.622 405.473 106.173L409.157 89.918ZM492.057 124.279L483.167 138.377C489.103 142.121 496.747 141.744 502.29 137.435L492.057 124.279ZM550.347 78.942L562.133 67.157C556.19 61.2133 546.75 60.6257 540.113 65.7863L550.347 78.942ZM621.057 149.653L634.213 159.885C639.373 153.25 638.787 143.811 632.843 137.868L621.057 149.653ZM575.72 207.944L562.563 197.711C558.257 203.251 557.88 210.898 561.623 216.834L575.72 207.944ZM610.083 290.843L593.827 294.527C595.377 301.37 601.05 306.51 608.013 307.38L610.083 290.843ZM683.333 300H700C700 291.593 693.74 284.503 685.4 283.463L683.333 300ZM683.333 400L685.4 416.537C693.74 415.497 700 408.407 700 400H683.333ZM610.083 409.157L608.013 392.62C601.05 393.49 595.377 398.63 593.827 405.473L610.083 409.157ZM575.72 492.057L561.623 483.167C557.88 489.103 558.257 496.75 562.563 502.29L575.72 492.057ZM621.057 550.347L632.843 562.133C638.787 556.19 639.373 546.75 634.213 540.113L621.057 550.347ZM550.347 621.057L540.113 634.213C546.75 639.373 556.19 638.787 562.133 632.843L550.347 621.057ZM492.057 575.72L502.29 562.563C496.747 558.257 489.103 557.88 483.167 561.623L492.057 575.72ZM409.157 610.083L405.473 593.827C398.63 595.377 393.49 601.05 392.62 608.013L409.157 610.083ZM400 683.333V700C408.407 700 415.497 693.74 416.537 685.4L400 683.333ZM300 683.333L283.463 685.4C284.503 693.74 291.593 700 300 700V683.333ZM290.843 610.083L307.38 608.013C306.51 601.05 301.37 595.377 294.527 593.827L290.843 610.083ZM207.944 575.72L216.835 561.623C210.898 557.88 203.252 558.257 197.712 562.563L207.944 575.72ZM149.653 621.057L137.868 632.843C143.812 638.787 153.251 639.373 159.885 634.213L149.653 621.057ZM78.9423 550.347L65.7867 540.113C60.626 546.75 61.2137 556.19 67.1573 562.133L78.9423 550.347ZM124.28 492.057L137.436 502.29C141.745 496.75 142.121 489.103 138.377 483.167L124.28 492.057ZM89.918 409.157L106.173 405.473C104.622 398.63 98.9497 393.49 91.985 392.62L89.918 409.157ZM16.6667 400H0C0 408.407 6.259 415.497 14.5993 416.537L16.6667 400ZM16.6667 300L14.5993 283.463C6.259 284.503 0 291.593 0 300H16.6667ZM89.918 290.843L91.985 307.38C98.9497 306.51 104.622 301.37 106.173 294.527L89.918 290.843ZM124.28 207.944L138.377 216.834C142.121 210.898 141.745 203.252 137.436 197.711L124.28 207.944ZM78.9423 149.653L67.1573 137.868C61.2137 143.811 60.626 153.25 65.7863 159.885L78.9423 149.653ZM149.653 78.9423L159.885 65.7863C153.251 60.626 143.811 61.2137 137.868 67.157L149.653 78.9423ZM207.944 124.28L197.712 137.435C203.252 141.744 210.898 142.121 216.835 138.377L207.944 124.28ZM290.843 89.918L294.527 106.173C301.37 104.622 306.51 98.9497 307.38 91.985L290.843 89.918ZM400 0H300V33.3333H400V0ZM425.693 87.8507L416.537 14.5993L383.463 18.734L392.62 91.985L425.693 87.8507ZM500.947 110.182C474.263 93.353 444.563 80.8483 412.837 73.663L405.473 106.173C433.433 112.506 459.62 123.528 483.167 138.377L500.947 110.182ZM502.29 137.435L560.58 92.098L540.113 65.7863L481.823 111.124L502.29 137.435ZM538.563 90.7273L609.273 161.438L632.843 137.868L562.133 67.157L538.563 90.7273ZM607.903 139.42L562.563 197.711L588.877 218.176L634.213 159.885L607.903 139.42ZM626.337 287.163C619.153 255.438 606.647 225.738 589.817 199.053L561.623 216.834C576.473 240.379 587.493 266.565 593.827 294.527L626.337 287.163ZM685.4 283.463L612.15 274.306L608.013 307.38L681.267 316.537L685.4 283.463ZM700 400V300H666.667V400H700ZM612.15 425.693L685.4 416.537L681.267 383.463L608.013 392.62L612.15 425.693ZM589.817 500.947C606.647 474.263 619.153 444.563 626.337 412.837L593.827 405.473C587.493 433.433 576.473 459.62 561.623 483.167L589.817 500.947ZM634.213 540.113L588.877 481.823L562.563 502.29L607.903 560.58L634.213 540.113ZM562.133 632.843L632.843 562.133L609.273 538.563L538.563 609.273L562.133 632.843ZM481.823 588.877L540.113 634.213L560.58 607.903L502.29 562.563L481.823 588.877ZM412.837 626.337C444.563 619.153 474.263 606.647 500.947 589.817L483.167 561.623C459.62 576.473 433.433 587.493 405.473 593.827L412.837 626.337ZM416.537 685.4L425.693 612.15L392.62 608.013L383.463 681.267L416.537 685.4ZM300 700H400V666.667H300V700ZM274.306 612.15L283.463 685.4L316.537 681.267L307.38 608.013L274.306 612.15ZM199.053 589.817C225.738 606.647 255.438 619.153 287.163 626.337L294.527 593.827C266.565 587.493 240.38 576.473 216.835 561.623L199.053 589.817ZM159.885 634.213L218.176 588.877L197.712 562.563L139.421 607.903L159.885 634.213ZM67.1573 562.133L137.868 632.843L161.438 609.273L90.7277 538.563L67.1573 562.133ZM111.124 481.823L65.7867 540.113L92.0983 560.58L137.436 502.29L111.124 481.823ZM73.663 412.837C80.8483 444.563 93.353 474.263 110.182 500.947L138.377 483.167C123.528 459.62 112.506 433.433 106.173 405.473L73.663 412.837ZM14.5993 416.537L87.8507 425.693L91.985 392.62L18.734 383.463L14.5993 416.537ZM0 300V400H33.3333V300H0ZM87.8507 274.306L14.5993 283.463L18.734 316.537L91.985 307.38L87.8507 274.306ZM110.182 199.053C93.353 225.738 80.8483 255.438 73.663 287.163L106.173 294.527C112.506 266.565 123.528 240.379 138.377 216.834L110.182 199.053ZM65.7863 159.885L111.124 218.176L137.436 197.711L92.0983 139.421L65.7863 159.885ZM137.868 67.157L67.1573 137.868L90.7273 161.438L161.438 90.7273L137.868 67.157ZM218.176 111.124L159.885 65.7863L139.421 92.098L197.712 137.435L218.176 111.124ZM287.163 73.663C255.438 80.8483 225.738 93.353 199.053 110.182L216.835 138.377C240.38 123.528 266.565 112.506 294.527 106.173L287.163 73.663ZM283.463 14.5993L274.306 87.8507L307.38 91.985L316.537 18.734L283.463 14.5993Z" fill="#67CDFD"/>
<path d="M350 483.333C423.638 483.333 483.334 423.638 483.334 350C483.334 276.362 423.638 216.667 350 216.667C276.362 216.667 216.667 276.362 216.667 350C216.667 423.638 276.362 483.333 350 483.333Z" stroke="#67CDFD" stroke-width="33.3333" stroke-linejoin="round"/>
</svg>
