<svg width="230" height="288" viewBox="0 0 230 288" fill="none" xmlns="http://www.w3.org/2000/svg">
<path d="M0.164554 90.2931C-1.40694 98.2967 8.72049 131.518 11.6989 142.866C17.1421 163.612 37.397 189.306 46.01 193.909C50.1369 196.114 58.2496 185.992 61.8257 184.886C65.4019 183.78 109.555 176.133 136.23 162.139C162.905 148.144 179.984 130.469 186.666 128.444C193.345 126.42 198.083 128.523 201.266 125.49C204.449 122.454 197.075 89.1947 189.94 73.521C182.804 57.8473 158.077 24.9218 152.2 22.9874C146.324 21.053 147.278 27.6846 142.224 28.7905C137.17 29.8964 93.118 36.573 73.8168 46.6272C54.5156 56.6815 13.707 84.3962 7.61908 86.1881C1.52449 87.9801 0.685029 87.6352 0.164554 90.2931Z" fill="#00A0A0"/>
<path d="M48.6801 185.935C45.7855 173.702 42.5183 161.508 38.5627 149.65C34.6575 137.939 29.906 126.516 23.6469 116.129C20.0842 110.213 15.8566 104.789 12.9755 98.3856C12.9251 98.2731 12.7606 98.3519 12.7908 98.4718C14.3925 104.504 18.0694 109.471 21.0882 114.674C24.1271 119.911 26.8168 125.407 29.2546 131.019C34.1538 142.295 37.8844 154.175 41.1785 166.137C43.0489 172.93 44.711 179.787 46.5041 186.606C46.9138 188.158 49.0528 187.509 48.6801 185.935Z" fill="#016865"/>
<path d="M55.2838 92.8668C54.3503 92.387 53.1717 92.5144 52.1643 92.432C51.0663 92.342 49.9716 92.2408 48.8837 92.0646C46.6439 91.701 44.4277 91.1386 42.2417 90.4751C40.0221 89.8003 37.8126 89.0918 35.5998 88.402C33.5917 87.776 31.5669 87.1124 29.485 86.895C27.4703 86.6851 25.3615 87.1312 23.8908 88.7807C23.5382 89.1743 24.0117 89.9278 24.4415 89.5791C25.9424 88.3608 27.8195 88.4133 29.5723 88.7769C31.5669 89.1893 33.5145 89.9803 35.4319 90.7C39.6695 92.2895 43.8669 93.9915 48.3262 94.6063C49.5451 94.775 50.8178 94.8574 52.0434 94.7412C53.1448 94.6363 54.5081 94.5725 55.3845 93.7478C55.6162 93.5191 55.5625 93.0093 55.2838 92.8668Z" fill="#016865"/>
<path d="M48.1179 87.1798C42.4632 84.0684 36.3383 81.9765 30.1195 80.8444C29.7602 80.7769 29.599 81.3467 29.9651 81.4667C35.8918 83.4273 41.5465 86.074 47.0434 89.2304C48.2623 89.9315 49.3401 87.8546 48.1179 87.1798Z" fill="#016865"/>
<path d="M78.485 154.562C78.3171 154.116 77.7865 153.726 77.3433 153.936C75.8759 154.622 74.5562 155.807 73.3138 156.902C72.0613 158.004 70.8995 159.226 69.8149 160.53C68.7638 161.798 67.7968 163.151 66.917 164.568C66.4536 165.314 66.0137 166.082 65.604 166.866C65.1776 167.679 64.8787 168.62 64.3448 169.355C64.0896 169.707 64.4254 170.364 64.8217 170.045C66.0036 169.104 66.6887 167.402 67.5516 166.127C68.4986 164.729 69.5496 163.413 70.6644 162.18C71.7423 160.988 72.8941 159.882 74.1029 158.859C75.3756 157.783 76.8194 156.977 78.0854 155.912C78.4783 155.586 78.6864 155.098 78.485 154.562Z" fill="#016865"/>
<path d="M72.6964 151.81C72.008 151.533 71.4103 152.076 70.826 152.432C70.1847 152.826 69.54 153.22 68.8986 153.621C67.6797 154.382 66.4876 155.188 65.3862 156.151C63.3983 157.891 61.7765 160.181 61.3467 163.015C61.2896 163.386 61.7496 163.54 61.8604 163.173C62.6428 160.515 64.4729 158.423 66.5548 156.95C67.6528 156.174 68.8247 155.518 70.0134 154.933C70.6212 154.633 71.2324 154.34 71.8435 154.056C72.4714 153.763 72.9885 153.606 73.2169 152.83C73.3478 152.376 73.059 151.956 72.6964 151.81Z" fill="#016865"/>
<path d="M143.683 43.0073C142.857 42.6099 141.943 43.011 141.117 43.2884C140.278 43.5696 139.465 43.9257 138.673 44.3493C137.034 45.2303 135.546 46.3662 134.19 47.7157C132.843 49.0578 131.671 50.6623 130.687 52.3492C129.71 54.0249 128.656 56.0605 128.575 58.0961C128.528 59.2358 129.902 59.5094 130.402 58.6472C130.859 57.86 131.127 56.9752 131.49 56.1318C131.853 55.2845 132.246 54.4523 132.685 53.6501C133.545 52.0981 134.576 50.7185 135.734 49.4327C136.886 48.1506 138.176 46.9885 139.549 46.0175C140.227 45.5377 140.926 45.0804 141.641 44.6717C142.366 44.2519 143.249 44.0119 143.74 43.2584C143.79 43.1872 143.76 43.0448 143.683 43.0073Z" fill="#016865"/>
<path d="M137.912 40.524C135.954 41.525 134.195 43.0695 132.731 44.8239C132.039 45.6561 131.394 46.5371 130.84 47.4893C130.447 48.164 129.417 49.716 130.014 50.5445C130.672 51.4555 131.562 49.791 131.851 49.2774C132.392 48.314 132.946 47.3506 133.574 46.4509C134.937 44.4902 136.586 42.8558 138.345 41.3525C138.785 40.9776 138.426 40.2616 137.912 40.524Z" fill="#016865"/>
<path d="M171.625 111.081C170.557 111.1 169.496 111.238 168.425 111.246C167.414 111.253 166.397 111.197 165.389 111.133C163.455 111.01 161.501 110.837 159.57 111.085C157.894 111.298 156.259 111.763 154.768 112.667C153.348 113.525 151.985 114.897 151.679 116.719C151.535 117.589 152.468 118.369 153.089 117.638C154.087 116.468 155 115.317 156.303 114.549C157.599 113.784 159.093 113.36 160.541 113.143C162.394 112.862 164.285 112.929 166.148 112.809C167.982 112.693 170.114 112.49 171.679 111.317C171.769 111.25 171.743 111.081 171.625 111.081Z" fill="#016865"/>
<path d="M165.116 107.489C163.014 107.519 160.942 107.785 158.883 108.247C157.879 108.472 156.879 108.734 155.891 109.038C154.894 109.345 153.648 109.589 152.816 110.293C152.278 110.747 152.345 112.014 153.208 111.917C154.206 111.804 155.139 111.231 156.073 110.852C157.077 110.443 158.091 110.072 159.118 109.742C161.116 109.101 163.155 108.591 165.196 108.157C165.532 108.078 165.451 107.482 165.116 107.489Z" fill="#016865"/>
<path d="M176.267 67.4371C175.699 65.9001 175.102 64.3781 174.433 62.8898C173.05 59.8008 171.495 56.8205 169.779 53.9452C166.391 48.2696 162.378 43.13 157.923 38.4702C156.673 37.1619 155.384 35.8948 154.061 34.6765C152.772 33.4881 151.415 32.2435 149.944 31.355C149.874 31.3138 149.803 31.415 149.857 31.4788C150.878 32.6634 152.053 33.7168 153.151 34.8114C154.259 35.9173 155.347 37.0495 156.405 38.2191C158.55 40.5958 160.552 43.115 162.442 45.7466C166.2 50.9687 169.48 56.6331 172.264 62.5674C173.023 64.1869 173.748 65.8251 174.447 67.4783C175.169 69.184 175.756 71.0247 176.787 72.5279C176.999 72.8391 177.553 72.7941 177.526 72.3068C177.439 70.6011 176.848 69.0078 176.267 67.4371Z" fill="#016865"/>
<path d="M186.179 91.4117C185.86 90.2496 185.541 89.0912 185.225 87.9291C184.577 85.5598 183.922 83.1906 183.257 80.8289C182.143 76.8814 181.128 72.4054 178.674 69.1776C178.536 68.9977 178.311 69.2264 178.395 69.4176C179.255 71.3519 180.047 73.2826 180.642 75.3406C181.239 77.41 181.75 79.5093 182.277 81.6011C182.841 83.8391 183.425 86.0697 184.006 88.3039C184.308 89.4698 184.614 90.6319 184.916 91.7978C185.198 92.8812 185.38 94.1595 185.87 95.1455C186.155 95.719 187.059 95.4904 187.015 94.8006C186.944 93.6647 186.478 92.4988 186.179 91.4117Z" fill="#016865"/>
<path d="M138.311 182.251C155.513 175.027 169.489 170.266 175.09 171.12C180.694 171.975 180.328 180.609 179.899 184.151C179.469 187.694 193.7 190.622 196.759 204.871C199.818 219.12 187.719 237.245 169.523 246.006C151.326 254.771 124.564 248.308 114.44 237.568C108.318 231.075 116.491 216.717 112.331 212.71C108.17 208.702 99.6682 205.546 111.535 196.054C119.95 189.321 131.854 184.961 138.311 182.251Z" fill="#EFF5F9"/>
<path d="M161.126 197.477C160.482 197.106 159.948 197.335 159.296 197.612C158.611 197.905 157.943 198.249 157.285 198.606C155.948 199.329 154.656 200.143 153.38 200.99C150.77 202.726 148.205 204.536 145.448 205.976C142.701 207.412 139.81 208.544 136.896 209.481C133.917 210.437 130.912 211.325 127.873 212.011C124.283 212.817 120.68 213.567 117.003 213.372C116.842 213.365 116.812 213.638 116.966 213.683C120.126 214.654 123.427 214.137 126.617 213.642C129.73 213.158 132.89 212.727 135.952 211.929C138.927 211.153 141.862 210.193 144.679 208.87C147.567 207.516 150.206 205.796 152.822 203.884C154.253 202.838 155.673 201.773 157.15 200.806C157.852 200.349 158.564 199.91 159.293 199.513C160.011 199.119 160.911 198.876 161.25 198.013C161.324 197.826 161.308 197.582 161.126 197.477Z" fill="#A1C9DB"/>
<path d="M177.051 186.587C176.235 187.202 175.597 188.199 174.908 188.983C174.166 189.83 173.401 190.651 172.612 191.446C171.023 193.054 169.365 194.572 167.618 195.963C165.899 197.335 164.042 198.524 162.175 199.626C161.235 200.181 160.302 200.739 159.348 201.256C158.404 201.766 157.424 202.171 156.739 203.093C156.457 203.472 156.645 204.008 157.091 204.042C158.236 204.132 159.237 203.509 160.234 202.951C161.181 202.422 162.125 201.867 163.028 201.253C164.878 199.989 166.614 198.561 168.334 197.092C170.029 195.641 171.661 194.093 173.182 192.417C173.938 191.585 174.673 190.73 175.382 189.849C176.067 189.002 176.99 188.049 177.413 186.996C177.507 186.749 177.293 186.404 177.051 186.587Z" fill="#A1C9DB"/>
<path d="M176.973 189.958C175.969 191.581 174.978 193.219 173.944 194.82C173.42 195.63 172.883 196.428 172.326 197.208C171.792 197.958 171.134 198.666 170.711 199.498C170.392 200.124 171.103 200.664 171.563 200.233C172.211 199.626 172.708 198.726 173.212 197.972C173.749 197.167 174.27 196.346 174.774 195.513C175.781 193.845 176.701 192.102 177.463 190.28C177.621 189.909 177.185 189.62 176.973 189.958Z" fill="#A1C9DB"/>
<path d="M178.311 190.711C177.837 191.851 177.374 193.017 176.793 194.097C176.501 194.644 176.175 195.176 175.836 195.69C175.537 196.143 175.228 196.436 175.302 197.017C175.322 197.163 175.487 197.291 175.614 197.283C176.135 197.253 176.363 196.796 176.639 196.353C177.008 195.761 177.32 195.135 177.595 194.483C178.096 193.294 178.442 192.087 178.526 190.775C178.536 190.652 178.361 190.595 178.311 190.711Z" fill="#A1C9DB"/>
<path d="M154.617 235.387C154.389 232.017 153.156 228.729 150.792 226.555C150.702 226.472 150.591 226.611 150.672 226.705C152.643 229.081 153.633 232.35 153.492 235.57C153.415 237.336 153.019 239.169 152.444 240.815C152.636 238.704 152.602 236.579 152.196 234.446C151.42 230.371 149.254 226.438 146.323 223.852C146.011 223.578 145.655 224.028 145.913 224.354C148.324 227.391 150.426 230.828 150.943 234.941C151.518 239.507 150.265 244.084 149.214 248.447C148.925 249.647 151.403 246.847 151.628 245.835C152.099 245.467 152.465 244.687 152.716 244.238C153.207 243.372 153.559 242.397 153.862 241.433C154.469 239.48 154.758 237.456 154.617 235.387Z" fill="#A1C9DB"/>
<path d="M183.44 227.078C183.37 226.793 183.077 226.482 182.792 226.527C182.178 226.617 181.926 226.969 181.529 227.449C181.19 227.861 180.811 228.214 180.391 228.517C179.478 229.173 178.47 229.642 177.44 230.021C176.295 230.441 175.133 230.823 173.971 231.183C172.584 231.61 171.117 232.105 169.686 232.296C169.481 232.322 169.478 232.634 169.686 232.656C171.227 232.84 172.644 232.814 174.182 232.551C175.512 232.322 176.845 232.075 178.145 231.678C178.675 231.516 179.209 231.329 179.726 231.104C179.636 231.337 179.535 231.565 179.427 231.79C179.031 232.611 178.538 233.365 177.957 234.039C176.758 235.43 175.213 236.424 173.591 237.08C173.366 237.17 173.38 237.593 173.652 237.578C175.583 237.447 177.309 236.487 178.756 235.082C179.495 234.366 180.139 233.522 180.673 232.607C181.09 231.888 181.691 230.834 181.765 229.904C182.624 229.241 183.726 228.214 183.44 227.078Z" fill="#A1C9DB"/>
<path d="M145.969 273.527C145.855 268.147 150.287 249.71 149.891 244.695C149.394 238.423 144.384 227.555 134.968 229.062C121.54 231.214 124.603 243.431 125.194 251.491C125.301 252.942 125.516 254.55 125.795 256.211C125.029 257.452 124.347 258.775 123.629 260.038C122.772 261.538 121.745 263.052 121.302 264.788C120.875 266.468 121.268 268.102 121.671 269.729C122.084 271.401 122.531 273.062 123.169 274.647C123.776 276.154 124.599 277.515 125.63 278.7C126.735 279.971 128.011 281.039 129.173 282.242C130.301 283.416 131.339 284.679 132.584 285.703C133.766 286.67 135.153 287.326 136.604 287.581C139.73 288.136 143.857 287.142 145.704 284.079C146.637 282.535 146.55 280.762 146.056 279.041C146.039 277.556 146.013 275.675 145.969 273.527Z" fill="#FFDAAE"/>
<path d="M144.568 274.489C144.142 273.582 143.611 272.743 143.178 271.839C142.728 270.891 142.335 269.901 142.013 268.889C141.439 267.074 141.22 265.133 140.508 263.374C139.897 261.867 139.377 260.3 138.453 258.984C137.574 257.725 136.546 256.623 135.384 255.693C134.179 254.73 132.839 253.965 131.432 253.444C129.921 252.881 128.376 252.672 127.016 253.766C125.589 254.917 124.847 256.859 124.031 258.531C123.172 260.3 122.161 262.047 121.489 263.922C119.988 268.098 121.731 273.009 123.954 276.435C124.021 276.54 124.149 276.45 124.105 276.338C123.447 274.609 122.916 272.773 122.523 270.947C122.131 269.11 121.791 267.194 122.194 265.32C122.591 263.468 123.585 261.732 124.39 260.072C125.173 258.46 125.868 256.525 127.02 255.194C127.523 254.613 128.155 254.145 128.89 254.059C129.716 253.961 130.569 254.291 131.338 254.598C132.594 255.097 133.779 255.821 134.854 256.698C135.932 257.579 136.892 258.628 137.741 259.775C138.608 260.949 139.518 262.175 139.941 263.64C140.505 265.601 140.831 267.655 141.512 269.571C142.154 271.37 143.111 273.211 144.138 274.771C144.326 275.048 144.719 274.808 144.568 274.489Z" fill="#F29570"/>
<path d="M185.702 203.274C182.68 202.498 178.58 222.764 181.696 229.204C182.942 231.776 205.772 235.656 215.601 239.772C218.277 240.893 217.988 245.103 222.844 244.143C227.699 243.184 225.711 235.304 226.823 234.115C227.934 232.927 231.003 225.992 229.657 216.687C229.412 214.985 228.176 211.289 227.296 211.33C225.778 211.401 221.772 222.94 217.535 225.032C217.538 225.025 194.499 205.531 185.702 203.274Z" fill="#FFDAAE"/>
<path d="M193.404 132.997C192.712 133.057 191.923 133.312 191.251 132.986C190.257 132.506 191.046 131.419 191.671 131.018C192.866 130.253 194.542 130.234 195.036 128.506C195.532 126.774 194.327 125.121 192.786 124.956C191.939 124.866 191.181 125.215 190.512 125.769C190.079 126.129 189.072 127.07 188.511 126.587C189.374 125.451 190.217 124.277 190.935 123.029C191.624 121.833 191.402 120.712 190.63 119.644C189.935 118.68 188.901 117.473 187.675 117.912C186.52 118.324 185.677 119.914 185.133 121.023C184.985 121.323 184.841 121.627 184.703 121.934C184.569 122.234 184.468 122.658 184.277 122.913C183.981 123.314 183.756 122.954 183.686 122.557C183.602 122.073 183.696 121.492 183.756 121.008C183.928 119.614 184.163 118.204 183.548 116.896C183.075 115.891 182.108 115.172 181.067 115.434C180.039 115.693 179.381 116.769 179.065 117.822C178.155 120.859 180.066 125.023 177.783 127.55C177.433 127.213 177.218 126.77 177.262 126.111C177.323 125.211 177.292 124.349 176.503 123.858C175.717 123.374 174.787 123.674 174.005 124C173.226 124.326 172.658 124.847 172.447 125.781C172.219 126.804 172.292 127.955 172.336 128.997C172.417 130.965 172.618 133.466 173.824 135.029C174.109 135.4 174.455 135.64 174.831 135.812L169.898 144.971C167.491 144.971 153.485 143.261 151.379 143.947C149.274 144.63 148.129 145.998 148.129 145.998L155.896 164.787C155.896 164.787 175.67 165.128 178.599 160.622C181.829 155.643 183.924 146.845 184.908 141.908C185.277 141.964 185.66 141.987 186.053 141.964C187.406 141.885 188.756 141.301 189.609 140.09C190.009 139.52 190.267 138.557 190.848 138.185C191.231 137.945 191.708 138.103 192.114 138.159C192.5 138.212 192.883 138.223 193.269 138.178C194.639 138.009 195.878 137.076 196.003 135.445C196.147 133.691 194.807 132.877 193.404 132.997Z" fill="#FFDAAE"/>
<path d="M188.587 136.978C187.982 136.382 187.297 135.939 186.75 135.257C186.199 134.571 185.897 133.75 185.45 132.989C185.034 132.28 184.396 131.808 183.771 131.347C182.972 130.758 182.193 130.11 181.296 129.716C181.273 129.705 181.246 129.697 181.223 129.694C180.92 129.203 180.521 128.783 180.047 128.517C179.984 128.483 178.835 128.014 178.943 128.397C179.006 128.629 179.043 128.595 179.241 128.719C179.544 128.91 179.809 129.116 180.034 129.42C180.423 129.949 180.632 130.653 180.699 131.332C180.769 132.044 180.675 132.79 180.528 133.48C180.356 134.293 180.01 135.062 179.913 135.887C179.829 136.606 180.773 136.768 181.068 136.235C181.575 135.313 181.804 133.982 181.894 132.91C181.934 132.453 181.921 131.977 181.854 131.512C183.019 132.378 184.332 133.026 185.161 134.335C185.954 135.591 187.028 137.034 188.489 137.236C188.607 137.255 188.67 137.06 188.587 136.978Z" fill="#F29570"/>
<path d="M183.215 140.717C182.383 140.586 181.604 140.237 180.972 139.6C180.358 138.978 180.015 138.138 179.548 137.388C178.706 136.035 177.433 135.289 175.949 135.563C175.512 135.645 175.62 136.429 176.053 136.417C176.808 136.399 177.581 136.635 178.148 137.208C178.732 137.801 179.015 138.663 179.441 139.386C180.233 140.725 181.509 141.621 182.933 141.838C183.591 141.936 183.877 140.819 183.215 140.717Z" fill="#F29570"/>
<path d="M101.482 157.334C101.482 157.334 110.975 205.273 115.055 206.878C119.138 208.482 136.865 202.038 146.734 197.146C156.602 192.254 170.037 182.762 172.348 179.455C173.701 177.517 154.88 147.924 147.882 140.749L101.482 157.334Z" fill="#FFDAAE"/>
<path d="M112.638 183.436L106.688 159.863C106.688 159.863 103.807 158.945 99.7469 160.737C95.2607 162.716 84.1293 173.089 77.4638 176.729C77.1851 176.605 76.893 176.508 76.6076 176.444C75.6271 176.23 74.6197 176.215 73.6493 175.949C72.6687 175.679 71.9334 175.076 71.1879 174.341C69.9321 173.104 68.2195 171.608 66.46 172.549C65.7045 172.95 65.0396 173.846 64.6266 174.645C64.1497 175.563 64.3277 176.395 64.828 177.243C65.9563 179.147 67.3801 180.785 69.0086 182.154C67.4539 186.615 62.1753 187.544 59.5998 191.068C58.992 191.9 58.4984 192.939 58.7234 194.041C58.898 194.907 59.4923 195.619 60.1874 196.017C61.9369 197.029 63.7636 196.159 65.0631 194.704C65.4023 194.326 65.7078 193.91 65.9999 193.486C66.0973 193.344 66.3357 192.826 66.4835 192.781C66.8864 192.654 67.004 193.302 67.014 193.576C67.0644 194.772 66.1679 195.66 65.4526 196.395C64.7643 197.104 64.0692 197.876 63.7972 198.911C63.5319 199.927 63.7334 201.066 64.3042 201.902C65.5567 203.732 67.8199 203.432 69.1564 201.932C69.9018 201.096 70.4324 200.043 70.9932 199.057C71.1611 198.761 71.329 198.461 71.4969 198.165C71.6177 197.951 71.7823 197.494 71.9871 197.362C72.8131 196.838 72.6553 198.787 72.6117 199.139C72.5109 199.957 72.4102 200.77 72.3027 201.583C72.2154 202.243 72.0946 202.926 72.3229 203.567C72.652 204.485 73.5821 204.935 74.4283 204.856C76.8191 204.635 77.0273 201.55 77.3295 199.405C77.615 199.807 77.5411 200.654 77.5646 201.066C77.5982 201.692 77.6989 202.315 77.9239 202.896C78.3201 203.911 79.1227 204.695 80.1367 204.77C81.0367 204.837 81.8593 204.26 82.1683 203.308C82.504 202.262 82.222 201.119 81.9735 200.088C81.7351 199.087 81.49 197.681 82.5947 197.295C83.0111 197.149 83.4342 197.059 83.7868 196.755C84.2099 196.391 84.3677 195.874 84.4483 195.312C89.3441 193.602 105.334 187.87 112.638 183.436Z" fill="#FFDAAE"/>
<path d="M84.4996 188.925C84.1873 187.511 83.7877 186.12 83.3042 184.771C82.3673 182.169 81.1048 179.571 79.3519 177.54C79.1135 177.266 78.7139 177.614 78.8818 177.944C80.1243 180.362 81.3868 182.724 82.3102 185.329C82.7501 186.57 83.1195 187.841 83.415 189.134C83.7239 190.492 83.8012 191.957 84.1773 193.284C84.3384 193.854 85.0469 193.723 85.0839 193.146C85.1745 191.781 84.7884 190.24 84.4996 188.925Z" fill="#F29570"/>
<path d="M81.8018 193.92C81.644 192.803 79.8643 192.308 79.0517 192.072C77.8831 191.731 76.6407 191.528 75.5897 190.82C74.6999 190.22 74.2163 189.253 73.7529 188.27C74.035 188.495 74.3338 188.687 74.6528 188.833C75.9188 189.418 77.4231 189.08 78.4708 188.113C78.9073 187.712 78.3499 187.108 77.9167 187.315C77.3727 187.577 76.8926 187.956 76.2982 188.091C75.7509 188.214 75.1767 188.128 74.6562 187.914C73.9745 187.633 73.4272 187.142 72.9 186.617C72.2822 185.609 71.4427 184.657 70.4823 184.166C70.3446 184.098 70.207 184.27 70.3178 184.402C70.8147 185.002 71.3419 185.53 71.7482 186.224C72.1344 186.883 72.4165 187.607 72.7187 188.315C73.2694 189.605 73.8603 190.831 74.9752 191.618C75.9456 192.304 77.1075 192.582 78.1988 192.926C78.7965 193.118 79.4009 193.328 79.9583 193.642C80.4385 193.916 80.8717 194.43 81.4157 194.49C81.7011 194.52 81.8388 194.179 81.8018 193.92Z" fill="#F29570"/>
<path d="M145.094 84.3068C145.094 84.3068 147.716 74.9574 153.173 76.8655C161.991 79.9507 161.551 96.2992 156.168 99.0433C150.785 101.784 145.446 99.3582 145.446 99.3582L145.094 84.3068Z" fill="#F29570"/>
<path d="M53.8945 67.4624C53.8945 67.4624 54.9892 63.6874 54.4419 60.9545C53.8979 58.2216 57.9979 51.5675 61.7352 51.3876C65.4726 51.2039 69.0924 48.3211 66.0737 43.875C63.0583 39.429 58.1356 38.7954 56.8932 42.5105C56.0638 44.9922 54.2001 33.3447 61.3088 33.1198C68.4175 32.8948 69.4987 40.0325 69.9655 40.5424C70.4288 41.0484 71.3489 39.9875 71.0299 37.6595C70.7109 35.3316 71.0467 32.4412 74.596 31.6502C78.1453 30.8593 81.3857 31.8377 81.3387 34.5481C81.2917 37.2584 85.4958 28.0289 81.1036 25.1386C76.7115 22.252 71.1206 23.0805 69.1629 25.3598C67.2019 27.639 68.3839 21.9559 73.4308 18.5557C78.4207 15.1968 82.8833 15.418 86.0968 18.1696C88.8604 20.5389 90.7408 24.5051 89.3976 28.1151C89.3976 28.1151 96.3855 21.4386 95.0692 13.6748C93.7529 5.9111 87.3829 4.39284 83.9679 5.94109C80.5496 7.48933 79.5288 9.48743 78.3401 10.2859C77.1514 11.0882 76.2044 5.04138 78.3199 1.93739C80.4354 -1.16661 89.0451 -0.510571 94.1726 3.68807C99.3001 7.8867 107.332 17.9484 101.741 26.7993C101.741 26.7993 109.545 18.9906 111.916 23.6728C114.29 28.3551 109.417 34.4806 107.255 34.4506C107.255 34.4506 112.097 34.3419 113.457 30.9642C114.384 28.6587 113.941 40.0775 105.136 38.8667L53.8945 67.4624Z" fill="#6D4F3A"/>
<path d="M147.416 63.1995C142.171 46.6786 121.701 28.1259 89.6801 39.6872C57.3569 51.3609 31.3029 85.3961 43.3578 115.548C51.9238 136.972 64.6637 139.322 64.6637 139.322C64.6637 139.322 61.467 147.536 72.8436 154.482C84.2202 161.429 111.241 167 136.855 155.884C155.979 147.585 168.023 124.77 161.791 109.628C158.131 100.736 150.643 101.403 150.562 92.3576C150.482 83.3118 151.012 74.5321 147.416 63.1995Z" fill="#FFDAAE"/>
<path d="M59.9388 121.034C53.7233 109.896 32.5652 117.071 35.4933 132.036C38.6732 148.295 56.8596 148.07 64.6802 139.328L59.9388 121.034Z" fill="#FFDAAE"/>
<path d="M95.2937 31.5081C95.2937 31.5081 106.479 33.1838 106.012 39.8866C105.545 46.5894 95.7168 56.7786 84.8809 48.0402C84.8809 48.0402 91.6605 49.9971 95.1258 48.3776C98.5945 46.7544 100.814 41.6073 100.112 39.6429C99.4105 37.6786 90.9687 38.5933 90.9687 38.5933L95.2937 31.5081Z" fill="#6D4F3A"/>
<path d="M107.633 111.189C109.802 106.953 113.375 102.739 117.898 101.011C121.964 99.4551 124.876 101.997 126.887 104.733C127.176 105.123 126.645 105.922 126.182 105.573C123.996 103.92 121.534 101.967 118.321 103.511C114.691 105.258 111.975 108.673 110.121 112.152C109.318 113.655 106.847 112.722 107.633 111.189Z" fill="#F29570"/>
<path d="M40.3444 130.82C40.1564 129.613 40.0187 128.398 39.9113 127.191C39.7333 125.2 40.1061 124.117 41.2813 123.034C43.8333 120.676 47.2449 120.304 50.4987 120.867C52.1811 121.155 53.8533 121.692 55.5155 122.303C57.0198 122.857 58.2387 123.266 58.4301 125.56C58.776 129.744 58.6988 134.055 57.6377 137.834C57.0903 139.787 56.2408 141.451 54.5148 141.676C52.8325 141.894 50.9991 140.694 49.619 139.24C48.7963 138.374 49.5619 136.893 50.4517 137.459C51.768 138.295 53.6418 140.199 54.9547 138.857C56.0124 137.778 56.318 135.127 56.5195 133.406C56.7445 131.468 56.7646 129.478 56.7008 127.476C56.684 126.914 56.6605 126.348 56.6269 125.785C56.5967 125.302 56.6336 125.234 56.4489 125.013C56.2139 124.728 55.4282 124.593 55.126 124.473C54.7398 124.319 54.3503 124.173 53.9641 124.031C53.4571 123.843 52.9433 123.671 52.4295 123.513C50.3443 127 48.4739 130.689 48.2657 135.48C48.2422 136.019 47.6009 135.892 47.5438 135.363C47.0603 130.685 48.7258 126.614 50.5122 123.015C48.3866 122.569 46.2611 122.531 44.2833 123.33C43.5244 123.637 42.8092 124.061 42.1611 124.623C41.8186 124.923 41.335 125.287 41.1738 125.811C41.0597 126.179 41.1369 126.786 41.1571 127.184C41.2108 128.312 41.3115 129.444 41.4223 130.572C41.5231 131.596 41.7447 132.664 41.4727 133.601C41.419 133.789 41.2343 133.751 41.1403 133.609C40.5996 132.814 40.4956 131.78 40.3444 130.82Z" fill="#F29570"/>
<path d="M45.1996 115.468C46.3681 114.73 48.0975 114.67 49.4138 114.681C50.8677 114.696 52.3217 114.97 53.7085 115.461C55.0282 115.929 56.2672 116.582 57.419 117.444C58.0469 117.916 58.6346 118.445 59.1719 119.041C59.4976 119.405 60.0348 119.866 59.9106 120.428C59.8468 120.72 59.5379 120.769 59.3733 120.552C58.638 119.584 57.3888 118.801 56.4016 118.209C55.2901 117.541 54.1081 117.02 52.8825 116.694C51.6971 116.376 50.4883 116.237 49.266 116.256C48.6683 116.263 48.074 116.316 47.483 116.409C46.8584 116.51 46.2372 116.773 45.6126 116.799C45.0116 116.822 44.6086 115.843 45.1996 115.468Z" fill="#F29570"/>
<path d="M64.0008 139.148C64.1888 138.69 64.9041 138.807 64.894 139.343C64.8638 141.127 64.9444 142.75 65.5152 144.441C66.0592 146.06 66.9793 147.5 68.0706 148.715C70.3271 151.223 73.2216 153.007 76.0758 154.521C81.7037 157.505 87.8486 159.391 94.0003 160.392C97.0728 160.894 101.465 161.573 107.348 161.385C109.087 161.329 110.823 161.194 112.556 161.048C116.025 160.756 119.46 160.163 122.885 159.489C129.51 158.188 135.857 155.875 141.803 152.362C142.153 152.156 142.502 151.942 142.848 151.725C142.864 151.62 142.928 151.519 143.042 151.462C143.539 151.211 144.026 150.934 144.503 150.641C145.4 150.03 146.28 149.393 147.149 148.737C149.762 146.582 152.048 143.882 154.1 141.142C157.031 137.225 159.641 132.831 161.313 128.063C162.968 123.347 163.543 118.023 162.293 113.101C160.994 107.969 157.878 104.441 155.937 102.635C154.953 101.716 155.228 100.711 156.686 102.012C160.248 105.202 162.347 107.212 163.761 112.378C165.117 117.326 164.644 122.717 163.153 127.553C161.592 132.614 158.862 136.898 155.866 141.018C153.381 144.43 150.685 147.879 147.327 150.147C143.59 153.506 139.124 155.912 134.661 157.727C131.448 159.035 128.137 160.017 124.782 160.767C121.313 161.543 117.835 161.907 114.316 162.251C112.328 162.446 110.336 162.593 108.345 162.698C106.404 162.803 98.7182 162.81 94.8196 161.937C91.4886 161.194 88.1072 160.793 84.8064 159.882C81.5962 158.997 78.4801 157.775 75.4915 156.201C72.4862 154.615 69.3936 152.718 67.0263 150.075C64.6489 147.425 62.436 142.93 64.0008 139.148Z" fill="#F29570"/>
<path d="M91.3467 76.1764C90.0674 73.9046 87.0452 73.0986 84.6208 73.631C82.042 74.2008 79.9534 75.8802 78.0998 77.6122C74.4128 81.0536 71.5049 85.4134 70.0912 90.2343C69.9132 90.8454 70.7426 91.1415 71.0348 90.5942C73.0629 86.7854 75.6351 83.2091 78.9158 80.3413C81.3099 78.2495 85.7626 74.3695 88.8518 77.6796C89.9566 78.868 92.2164 77.7134 91.3467 76.1764Z" fill="#6D4F3A"/>
<path d="M134.224 64.0688C131.907 60.7286 128.177 59.2703 124.493 59.1166C123.499 59.0754 122.502 59.1129 121.511 59.1991C120.524 59.2853 119.473 59.3491 118.529 59.7127C116.82 60.3725 116.263 62.4418 116.011 64.2487C115.769 65.9844 118.204 66.2393 118.445 64.5074C118.536 63.8551 118.61 63.1578 118.889 62.5655C119.171 61.9657 119.648 61.8495 120.208 61.7483C121.857 61.4521 123.529 61.2834 125.202 61.3884C128.23 61.5796 131.229 62.6105 133.519 64.9085C133.972 65.3659 134.57 64.5711 134.224 64.0688Z" fill="#6D4F3A"/>
<path d="M100.967 102.735C101.01 101.295 99.2139 100.253 98.4281 101.67C98.0419 102.364 97.8539 103.117 97.3972 103.773C96.9674 104.388 96.4335 104.883 95.8895 105.363C94.6504 106.465 93.2771 107.387 91.9171 108.287C88.9252 110.262 85.7083 111.811 82.1892 111.931C81.4807 111.953 81.3599 113.029 82.0818 113.172C85.883 113.918 89.7412 112.384 93.136 110.596C94.7512 109.745 96.4066 108.834 97.8505 107.65C98.5456 107.08 99.187 106.394 99.731 105.648C100.302 104.864 100.933 103.77 100.967 102.735Z" fill="#230D03"/>
<path d="M138.245 86.0967C136.402 88.0761 134.417 89.7143 131.956 90.584C130.814 90.9889 129.605 91.2775 128.407 91.3187C127.137 91.36 125.929 91.0638 124.706 90.7152C123.981 90.509 123.202 90.7639 122.913 91.6112C122.675 92.3159 122.984 93.4181 123.716 93.613C126.536 94.3628 129.773 93.9317 132.473 92.7883C135.062 91.6936 137.664 89.6468 139.045 86.9252C139.32 86.3741 138.732 85.5756 138.245 86.0967Z" fill="#230D03"/>
<path d="M130.72 143.534C139.084 143.534 145.864 135.965 145.864 126.627C145.864 117.29 139.084 109.72 130.72 109.72C122.356 109.72 115.576 117.29 115.576 126.627C115.576 135.965 122.356 143.534 130.72 143.534Z" fill="#00A0A0"/>
<path d="M129.315 122.108C129.463 119.934 132.065 110.854 139.043 109.988C146.676 109.036 153.012 123.113 148.546 128.74C144.08 134.366 134.557 131.84 133.784 131.424C132.361 130.659 131.36 128.503 133.123 127.889C134.805 127.304 141.074 129.152 142.931 124.174C144.788 119.199 140.205 115.218 137.518 116.71C134.446 118.419 133.23 122.678 132.639 123.293C131.31 124.691 129.228 123.401 129.315 122.108Z" fill="#E4F9F8"/>
</svg>
