<svg width="800" height="478" viewBox="0 0 800 478" fill="none" xmlns="http://www.w3.org/2000/svg">
<path d="M756.357 197.442C752.434 196.731 748.419 180.948 744.404 180.176C737.145 162.385 729.918 130.325 722.628 112.596C738.041 108.086 753.392 110.434 765.067 104.967C765.067 104.967 757.16 83.4694 638.802 83.2223C623.42 64.0725 572.951 26.823 559.917 32.5679C559.484 33.2783 556.704 35.6875 576.719 50.5132V51.5942C508.212 70.8985 552.164 115.098 528.844 170.231C512.011 210.044 423.366 233.61 382.966 198.554C380.063 185.056 377.128 171.682 374.256 158.216C369.005 142.371 359.677 126.062 350.288 113.615C339.261 98.8819 318.412 78.0642 301.332 70.0645C285.456 67.9642 261.303 82.5428 245.365 80.3499C218.277 71.9177 193.197 59.9954 171.36 45.5095C156.102 35.4404 130.744 0.754467 113.633 0.878015C96.5831 1.00156 111.007 47.0538 144.118 72.7208C124.35 66.8523 98.1893 50.8529 82.2208 40.8765C78.9159 38.7762 74.6844 38.7453 71.3486 40.7838C67.9819 42.8223 66.0361 46.5596 66.3449 50.4823C68.5997 80.1336 95.3786 100.117 109.37 118.433C99.1467 112.688 68.5997 94.8049 55.9978 103.237C55.9978 103.237 41.203 111.422 83.24 157.69C78.1746 155.127 47.9055 165.752 104.984 205.534C109.37 208.777 110.698 214.182 117.37 227.309C149.894 272.126 250.307 242.104 250.307 242.104C236.995 245.811 227.821 269.13 224.238 282.412C176.704 271.941 5.55963 243.062 0 283.4C0 284.481 0 297.206 47.9055 289.886C47.9055 290.349 17.4511 296.712 18.3468 306.102C21.3119 318.889 53.3725 319.63 72.8929 320.371C72.8929 320.742 49.3881 341.56 118.575 342.208C166.109 341.56 198.016 334.95 243.728 338.965C243.79 339.027 244.964 340.077 245.921 340.973L118.297 406.731C106.745 408.986 93.5871 398.052 84.1666 410.839C78.9468 421.279 101.896 423.039 101.803 424.12C95.0388 431.502 83.1474 430.823 77.7731 439.934C70.2984 452.722 119.594 462.605 130.775 445.741C136.458 437.371 128.397 429.649 133.524 422.02C136.705 417.356 216.857 374.547 261.612 351.876C268.716 356.015 277.302 360.246 288.39 363.026L177.754 428.29C166.387 431.379 152.488 421.371 143.964 434.776C139.485 445.556 162.496 445.71 162.496 446.822C156.257 454.667 144.334 454.791 139.639 464.242C133.091 477.555 182.974 483.979 192.95 466.281C198.016 457.54 189.46 450.436 194.062 442.467C198.726 434.375 306.027 371.52 316.683 367.258C392.201 372.076 482.576 325.591 482.916 263.725C497.278 260.08 510.652 261.161 522.142 256.065C567.206 236.174 547.778 161.397 573.63 122.325C615.173 128.472 646.894 115.19 685.78 116.92C685.78 116.92 673.457 139.591 672.654 164.887C612.023 164.208 586.016 229.626 613.876 281.361C633.551 317.901 686.553 330.471 733.655 313.916C770.009 301.16 791.939 269.254 798.487 249.949C803.923 225.95 795.614 194.291 756.357 197.442Z" fill="#C75B4A"/>
<path d="M730.961 230.77C730.961 230.77 730.231 228.116 730.746 226.245C731.259 224.374 728.279 219.621 725.373 219.359C722.465 219.099 719.739 216.97 722.236 214.003C724.733 211.035 728.589 210.773 729.437 213.389C730.004 215.136 731.833 207.143 726.3 206.733C720.766 206.32 719.691 211.223 719.311 211.557C718.933 211.892 718.25 211.124 718.574 209.525C718.898 207.925 718.73 205.913 715.989 205.238C713.249 204.564 710.69 205.124 710.64 207.002C710.591 208.88 707.612 202.339 711.13 200.498C714.647 198.657 718.978 199.432 720.431 201.081C721.884 202.73 721.149 198.753 717.324 196.219C713.544 193.715 710.057 193.708 707.463 195.498C705.23 197.036 703.638 199.716 704.566 202.264C704.566 202.264 699.336 197.392 700.614 192.066C701.892 186.738 706.905 185.918 709.518 187.113C712.131 188.307 712.864 189.727 713.764 190.324C714.664 190.921 715.599 186.771 714.052 184.546C712.505 182.321 705.771 182.466 701.639 185.188C697.507 187.909 690.918 194.584 694.988 200.913C694.988 200.913 689.16 195.226 687.159 198.381C685.158 201.536 688.756 205.953 690.44 206.009C690.44 206.009 686.67 205.758 685.72 203.372C685.073 201.744 685.047 209.66 691.948 209.143L730.961 230.77Z" fill="#6D4F3A"/>
<path d="M658.209 224.455C662.835 213.209 679.394 201.104 703.974 210.26C728.788 219.502 747.989 243.998 737.613 264.431C730.239 278.952 720.233 280.12 720.233 280.12C720.233 280.12 722.459 285.919 713.365 290.318C704.272 294.716 683.03 297.602 663.428 288.983C648.794 282.549 640.147 266.328 645.496 256.072C648.636 250.05 654.455 250.781 654.809 244.523C655.166 238.264 655.036 232.17 658.209 224.455Z" fill="#FFDAAE"/>
<path d="M724.525 267.63C729.732 260.145 745.989 265.874 743.22 276.125C740.213 287.262 726.047 286.454 720.235 280.121L724.525 267.63Z" fill="#FFDAAE"/>
<path d="M699.897 204.398C699.897 204.398 691.125 205.154 691.272 209.813C691.416 214.469 698.747 221.875 707.477 216.216C707.477 216.216 702.128 217.329 699.479 216.08C696.828 214.832 695.267 211.19 695.876 209.857C696.486 208.525 703.037 209.459 703.037 209.459L699.897 204.398Z" fill="#6D4F3A"/>
<path d="M691.709 245.797C692.633 243.834 696.094 240.171 697.353 240.255C698.612 240.34 704.025 242.054 704.75 246.195C705.476 250.336 705.159 253.968 702.14 255.868C699.12 257.767 692.548 255.463 691.969 254.128C690.239 250.151 691.709 245.797 691.709 245.797Z" fill="white"/>
<path d="M672.147 241.345C672.889 237.977 670.383 233.857 668.715 233.103C667.588 232.594 664.625 233.363 662.775 236.845C660.925 240.328 661.192 243.356 662.39 245.352C663.952 247.954 666.725 247.996 667.843 247.813C670.765 247.338 672.147 241.345 672.147 241.345Z" fill="white"/>
<path d="M662.689 236.435C663.679 234.506 666.042 231.779 668.253 233.609C670.242 235.253 670.112 240.047 668.974 242.888C667.809 245.795 664.891 246.603 663.055 243.993C661.359 241.586 661.82 238.133 662.689 236.435Z" fill="#230D03"/>
<path d="M692.101 244.661C693.148 242.6 695.752 239.625 698.424 241.373C700.829 242.944 700.937 247.912 699.766 250.926C698.568 254.008 695.215 255.034 692.935 252.455C690.833 250.076 691.18 246.474 692.101 244.661Z" fill="#230D03"/>
<path d="M672.616 237.023C672.103 235.543 671.175 234.124 670.107 233.1C669.072 232.11 667.822 231.601 666.516 232.206C665.455 232.697 664.545 233.62 663.751 234.536C663.062 235.335 661.984 236.567 662.102 237.787C662.11 237.855 662.154 237.918 662.211 237.941C662.23 237.953 662.247 237.963 662.265 237.974C662.287 237.988 662.31 237.986 662.324 237.965C662.577 237.625 662.707 237.152 662.972 236.789C663.373 236.236 663.863 235.756 664.347 235.302C664.76 234.913 665.197 234.564 665.642 234.217C666.211 233.775 666.879 233.276 667.598 233.269C669.044 233.25 670.251 235.098 670.931 236.33C671.309 237.019 671.671 237.782 671.917 238.548C672.198 239.433 672.094 240.422 672.146 241.344C672.155 241.504 672.33 241.511 672.408 241.419C673.386 240.274 673.084 238.375 672.616 237.023Z" fill="#230D03"/>
<path d="M705.524 246.928C705.352 245.022 704.414 243.506 703.062 242.249C701.758 241.038 700.102 239.892 698.321 239.651C694.51 239.131 693.461 242.206 691.928 244.982C691.824 245.167 691.436 246.931 691.578 246.734C692.497 245.462 693.225 244.364 694.217 243.214C695.153 242.129 696.485 241.047 697.988 241.263C699.459 241.473 700.851 242.52 701.931 243.506C702.453 243.982 702.904 244.509 703.296 245.101C703.764 245.811 703.925 246.514 704.18 247.319C704.44 248.137 705.595 247.706 705.524 246.928Z" fill="#230D03"/>
<path d="M676.122 252.449C675.111 250.095 673.341 247.999 670.962 247.673C668.824 247.378 667.156 249.526 665.965 251.641C665.795 251.943 666.053 252.364 666.315 252.06C667.558 250.612 668.961 248.921 670.641 249.359C672.536 249.851 673.875 251.584 674.742 253.503C675.118 254.334 676.488 253.301 676.122 252.449Z" fill="#F29570"/>
<path d="M655.4 272.799C656.364 275.671 658.715 279.357 662.169 282.435C668.675 288.236 679.096 291.878 691.547 283.856C692.984 282.929 694.446 281.849 695.935 280.598C700.884 276.437 704.986 263.545 695.935 260.843C686.883 258.14 676.181 261.508 669.793 259.48C664.895 257.924 666.525 254.296 661.439 252.121C657.925 250.624 650.391 257.889 655.4 272.799Z" fill="#5C0000"/>
<path d="M662.169 282.437C668.675 288.238 679.097 291.88 691.548 283.858C692.008 282.484 692.065 280.954 691.451 279.289C689.178 273.115 671.473 271.864 664.439 278.319C662.724 279.893 662.1 281.212 662.169 282.437Z" fill="#F99582"/>
<path d="M739.502 275.111C739.688 274.284 739.835 273.448 739.958 272.614C740.161 271.244 739.906 270.478 739.027 269.687C737.115 267.963 734.467 267.583 731.913 267.855C730.592 267.996 729.272 268.307 727.956 268.668C726.765 268.996 725.801 269.237 725.577 270.818C725.17 273.701 725.09 276.689 725.796 279.341C726.16 280.711 726.767 281.896 728.105 282.111C729.409 282.322 730.876 281.559 732 280.601C732.671 280.029 732.121 278.98 731.41 279.338C730.358 279.87 728.835 281.121 727.854 280.144C727.065 279.357 726.911 277.514 726.812 276.315C726.699 274.966 726.751 273.586 726.864 272.204C726.895 271.815 726.933 271.427 726.978 271.038C727.015 270.705 726.992 270.656 727.141 270.511C727.332 270.324 727.951 270.258 728.19 270.185C728.497 270.094 728.804 270.005 729.111 269.921C729.513 269.811 729.919 269.708 730.323 269.616C731.835 272.104 733.172 274.727 733.179 278.048C733.179 278.42 733.685 278.357 733.744 277.994C734.273 274.774 733.108 271.895 731.833 269.34C733.505 269.108 735.162 269.157 736.676 269.783C737.257 270.021 737.801 270.34 738.287 270.755C738.545 270.975 738.909 271.242 739.02 271.614C739.095 271.874 739.017 272.289 738.989 272.565C738.911 273.345 738.795 274.122 738.672 274.9C738.561 275.605 738.353 276.336 738.533 276.994C738.568 277.125 738.712 277.106 738.793 277.01C739.237 276.483 739.353 275.771 739.502 275.111Z" fill="#F29570"/>
<path d="M667.435 234.29C668.422 234.311 669.327 237.316 668.609 237.909C667.891 238.501 666.589 237.913 666.291 236.918C665.991 235.925 666.65 234.274 667.435 234.29Z" fill="white"/>
<path d="M696.599 245.855C695.954 244.527 696.521 242.007 697.629 242.073C698.737 242.138 699.895 244.696 699.486 245.705C699.078 246.715 697.391 247.485 696.599 245.855Z" fill="white"/>
<path d="M736.183 264.311C735.295 263.758 733.95 263.655 732.923 263.616C731.789 263.573 730.645 263.712 729.551 264C728.507 264.276 727.519 264.684 726.593 265.239C726.088 265.543 725.615 265.887 725.176 266.281C724.909 266.52 724.476 266.82 724.554 267.215C724.595 267.422 724.833 267.464 724.968 267.321C725.57 266.677 726.572 266.18 727.361 265.805C728.247 265.384 729.187 265.065 730.154 264.883C731.089 264.705 732.037 264.653 732.986 264.709C733.452 264.737 733.915 264.794 734.373 264.88C734.855 264.972 735.332 265.178 735.819 265.218C736.285 265.255 736.63 264.59 736.183 264.311Z" fill="#F29570"/>
<path d="M720.738 280.02C720.605 279.697 720.045 279.753 720.034 280.123C719.998 281.359 719.882 282.479 719.384 283.631C718.907 284.732 718.144 285.697 717.253 286.498C715.412 288.154 713.097 289.283 710.824 290.229C706.343 292.091 701.49 293.175 696.663 293.649C694.251 293.885 690.806 294.197 686.225 293.855C684.871 293.754 683.522 293.597 682.176 293.433C679.482 293.105 676.825 292.571 674.176 291.983C669.054 290.845 664.185 289.013 659.66 286.369C659.393 286.212 659.129 286.053 658.867 285.891C658.855 285.819 658.81 285.746 658.723 285.702C658.342 285.51 657.974 285.301 657.61 285.081C656.932 284.627 656.265 284.154 655.611 283.666C653.645 282.081 651.949 280.13 650.439 278.158C648.282 275.343 646.392 272.206 645.242 268.846C644.105 265.522 643.831 261.817 644.963 258.454C646.142 254.95 648.863 252.226 651.807 250.08C652.613 249.495 653.48 248.975 654.184 248.265C654.935 247.509 655.164 246.532 655.28 245.506C655.408 244.368 655.427 243.209 655.488 242.063C655.545 240.97 655.628 239.857 655.559 238.761C655.545 238.52 655.138 238.468 655.075 238.705C654.531 240.703 654.312 242.848 654.03 244.897C653.891 245.919 653.759 246.97 652.965 247.722C652.294 248.359 651.458 248.851 650.728 249.42C647.819 251.685 645.112 254.376 643.843 257.898C642.626 261.273 642.82 265.023 643.824 268.424C644.878 271.984 646.865 275.047 649.067 278.006C650.893 280.458 652.882 282.94 655.424 284.631C658.226 287.091 661.631 288.917 665.052 290.334C667.516 291.356 670.063 292.154 672.652 292.794C675.331 293.456 678.032 293.831 680.763 294.199C682.306 294.407 683.853 294.578 685.403 294.724C686.913 294.864 692.904 295.147 695.971 294.684C698.591 294.288 701.242 294.133 703.843 293.623C706.373 293.126 708.842 292.393 711.224 291.409C713.619 290.419 716.088 289.22 718.023 287.475C719.96 285.725 721.834 282.694 720.738 280.02Z" fill="#F29570"/>
<path d="M697.587 226.732C698.936 225.819 700.479 225.095 702.076 224.732C702.887 224.547 703.747 224.441 704.564 224.643C705.311 224.826 705.859 225.271 706.414 225.772C707.494 226.748 708.221 228.079 708.831 229.379C709.495 230.793 710.007 232.271 710.147 233.829C710.182 234.224 709.613 234.243 709.49 233.918C708.618 231.59 707.643 228.793 705.568 227.217C704.63 226.503 703.444 226.695 702.395 227.001C701.093 227.385 699.9 227.994 698.797 228.777C698.273 229.149 697.465 228.868 697.16 228.35C696.812 227.767 697.051 227.093 697.587 226.732Z" fill="#6D4F3A"/>
<path d="M668.027 223.097C669.608 220.924 671.635 219.235 673.969 217.902C674.614 217.535 675.266 217.448 675.923 217.848C676.459 218.176 676.944 218.652 677.345 219.13C678.165 220.104 679.039 221.554 678.994 222.87C678.961 223.851 677.442 224.446 676.97 223.413C676.745 222.919 676.648 222.392 676.443 221.891C676.277 221.488 676.051 221.111 675.814 220.743C675.562 220.352 675.264 219.973 674.91 219.664C674.529 219.331 674.243 219.549 673.82 219.76C671.878 220.734 670.104 221.996 668.526 223.479C668.278 223.718 667.808 223.402 668.027 223.097Z" fill="#6D4F3A"/>
</svg>
