<svg width="45" height="61" viewBox="0 0 45 61" fill="none" xmlns="http://www.w3.org/2000/svg">
<path d="M44.0996 49.7793C44.0983 49.7793 44.097 49.7793 44.0956 49.7793C43.5984 49.7815 43.197 50.1801 43.1992 50.6697C43.2102 53.1756 42.0077 55.5788 39.9825 57.0983C38.5685 58.1593 36.8105 58.7436 35.0326 58.7436H9.97098C8.19294 58.7436 6.43508 58.1593 5.02106 57.0983C2.53265 55.2312 1.35766 52.1931 1.95458 49.1694L3.56442 41.0158H14.6428C15.3764 44.5143 18.5297 47.1526 22.2973 47.1526C26.0649 47.1526 29.2182 44.5143 29.9518 41.0158H41.439L42.5091 46.4353C42.5928 46.8588 42.9696 47.1527 43.392 47.1527C43.449 47.1527 43.5068 47.1474 43.5648 47.1363C44.0529 47.0428 44.3717 46.5775 44.2768 46.097L39.4651 21.7265C38.9335 19.0341 36.5255 17.0799 33.7396 17.0799H32.5833V16.4421C32.5833 14.3116 31.2535 12.4818 29.3685 11.7132V11.3633C29.3685 10.5269 29.0154 9.71667 28.3999 9.14046L27.7149 8.49935C26.7981 7.641 26.4603 6.36848 26.8335 5.17823C27.1384 4.20534 27.0516 3.16792 26.5892 2.25733C26.129 1.3511 25.3427 0.662011 24.3751 0.316874C23.1904 -0.105565 21.8854 -0.105684 20.7006 0.316874C19.733 0.661893 18.9467 1.3511 18.4866 2.25733C18.024 3.16804 17.9373 4.20534 18.2423 5.17823C18.6154 6.36836 18.2775 7.641 17.3607 8.49935L16.6759 9.14046C16.0603 9.71667 15.7073 10.5268 15.7073 11.3633V11.5441C13.5713 12.1799 12.0115 14.1348 12.0115 16.4422V17.08H11.2639C8.47784 17.08 6.06999 19.0342 5.53838 21.7266L4.35643 27.7135C4.26158 28.1941 4.58033 28.6594 5.06848 28.7528C5.55711 28.846 6.02929 28.5323 6.12414 28.0517L7.30609 22.0649C7.67358 20.2038 9.33804 18.853 11.2639 18.853H33.7396C35.6654 18.853 37.3299 20.2039 37.6974 22.0649L41.089 39.243H30.1074C29.991 35.0994 26.5336 31.7634 22.2973 31.7634C18.061 31.7634 14.6037 35.0994 14.4873 39.243H3.9145L5.37462 31.8477C5.46947 31.3671 5.15072 30.9017 4.66257 30.8084C4.17466 30.715 3.70176 31.0288 3.60692 31.5094L0.186873 48.8313C-0.541748 52.5218 0.892324 56.2299 3.92951 58.5086C5.65532 59.8036 7.80096 60.5167 9.97098 60.5167H35.0325C37.2025 60.5167 39.3481 59.8035 41.074 58.5086C43.5458 56.6541 45.0134 53.7209 44.9999 50.6622C44.9977 50.1738 44.5951 49.7793 44.0996 49.7793ZM18.6016 9.78404C20.0174 8.45846 20.5392 6.49318 19.9629 4.65521C19.7953 4.12048 19.843 3.55041 20.0971 3.04996C20.3501 2.55199 20.7822 2.17329 21.3139 1.9837C22.1033 1.70227 22.9726 1.70227 23.7617 1.9837C24.2934 2.17341 24.7255 2.55211 24.9785 3.05008C25.2326 3.55053 25.2803 4.1206 25.1127 4.65532C24.5366 6.49342 25.0582 8.45857 26.474 9.78416L27.1589 10.4253C27.4105 10.6607 27.5568 10.989 27.5659 11.33C27.5062 11.3279 27.4466 11.3255 27.3863 11.3255H17.51C17.5202 10.986 17.6663 10.6597 17.9168 10.4253L18.6016 9.78404ZM13.8122 16.4421C13.8122 14.5984 15.3357 13.0984 17.2084 13.0984H27.3862C29.2589 13.0984 30.7825 14.5984 30.7825 16.4421V17.0799H13.8122V16.4421ZM22.2974 33.5362C25.6139 33.5362 28.3122 36.1927 28.3122 39.458C28.3122 42.7232 25.6139 45.3797 22.2974 45.3797C18.9808 45.3797 16.2826 42.7232 16.2826 39.458C16.2826 36.1927 18.9808 33.5362 22.2974 33.5362Z" fill="#FDF1E7"/>
<path d="M21.7658 40.175C21.9257 40.2893 22.1108 40.3443 22.2942 40.3443C22.5726 40.3443 22.8472 40.2176 23.0235 39.9789L25.0254 37.2665C25.3177 36.8704 25.2285 36.3161 24.8262 36.0283C24.4238 35.7405 23.8607 35.8283 23.5685 36.2244L21.5666 38.9367C21.2742 39.3327 21.3634 39.8872 21.7658 40.175Z" fill="#FDF1E7"/>
<path d="M19.0938 51.9112C19.0938 53.526 20.7145 54.8397 22.7064 54.8397C24.6985 54.8397 26.3193 53.5259 26.3193 51.9112C26.3193 50.2964 24.6985 48.9827 22.7064 48.9827C20.7145 48.9828 19.0938 50.2964 19.0938 51.9112ZM24.5184 51.9112C24.5184 52.5268 23.6717 53.0667 22.7064 53.0667C21.7412 53.0667 20.8946 52.5268 20.8946 51.9112C20.8946 51.2957 21.7412 50.7556 22.7064 50.7556C23.6717 50.7556 24.5184 51.2957 24.5184 51.9112Z" fill="#FDF1E7"/>
<path d="M28.5195 48.9585C28.5195 50.5733 30.1403 51.887 32.1323 51.887C34.1244 51.887 35.745 50.5733 35.745 48.9585C35.745 47.3437 34.1243 46.03 32.1323 46.03C30.1402 46.0299 28.5195 47.3437 28.5195 48.9585ZM33.9442 48.9585C33.9442 49.574 33.0976 50.1141 32.1323 50.1141C31.1671 50.1141 30.3204 49.574 30.3204 48.9585C30.3204 48.3429 31.1671 47.803 32.1323 47.803C33.0976 47.803 33.9442 48.3429 33.9442 48.9585Z" fill="#FDF1E7"/>
<path d="M9.26172 48.9585C9.26172 50.5733 10.8825 51.887 12.8745 51.887C14.8666 51.887 16.4872 50.5733 16.4872 48.9585C16.4872 47.3437 14.8665 46.03 12.8745 46.03C10.8825 46.0299 9.26172 47.3437 9.26172 48.9585ZM14.6864 48.9585C14.6864 49.574 13.8398 50.1141 12.8745 50.1141C11.9093 50.1141 11.0625 49.574 11.0625 48.9585C11.0625 48.3429 11.9093 47.803 12.8745 47.803C13.8398 47.803 14.6864 48.3429 14.6864 48.9585Z" fill="#FDF1E7"/>
<path d="M26.8751 26.9575C27.3724 26.9575 27.7756 26.5606 27.7756 26.071C27.7756 25.5815 27.3724 25.1846 26.8751 25.1846H18.127C17.6297 25.1846 17.2266 25.5815 17.2266 26.071C17.2266 26.5606 17.6297 26.9575 18.127 26.9575H26.8751Z" fill="#FDF1E7"/>
</svg>
