<svg width="24" height="56" viewBox="0 0 24 56" fill="none" xmlns="http://www.w3.org/2000/svg">
<path d="M23.6464 4.68018H17.7754V6.37418H23.6464V4.68018Z" fill="#AA3131"/>
<path d="M20.9364 9.47803H17.7754V11.172H20.9364V9.47803Z" fill="#AA3131"/>
<path d="M23.6464 14.2759H17.7754V15.9699H23.6464V14.2759Z" fill="#AA3131"/>
<path d="M20.9364 19.0752H17.7754V20.7692H20.9364V19.0752Z" fill="#AA3131"/>
<path d="M23.6464 23.873H17.7754V25.567H23.6464V23.873Z" fill="#AA3131"/>
<path d="M20.9364 28.6709H17.7754V30.3649H20.9364V28.6709Z" fill="#AA3131"/>
<path d="M23.6464 33.4702H17.7754V35.1642H23.6464V33.4702Z" fill="#AA3131"/>
<path d="M16.9136 45.4658C16.9136 42.9398 15.4246 40.6328 13.1196 39.5888L11.9346 39.0518V37.7498V27.6908C11.9346 26.6228 11.2666 25.7198 10.4746 25.7148V51.9178C14.0256 51.9138 16.9136 49.0208 16.9136 45.4658Z" fill="#AA3131"/>
<path d="M8.99975 27.6909V37.7499V39.0519L7.81476 39.5889C5.10476 40.8169 3.08175 44.0689 4.46075 47.9079C5.05675 49.5669 6.28276 50.8199 7.91376 51.4359C8.76276 51.7559 9.62175 51.9189 10.4687 51.9189C10.4707 51.9189 10.4738 51.9189 10.4758 51.9189V25.7149C10.4738 25.7149 10.4707 25.7139 10.4687 25.7139C9.67175 25.7139 8.99975 26.6189 8.99975 27.6909Z" fill="#AA3131"/>
<path d="M20.9496 45.469C20.9496 51.247 16.2546 55.949 10.4766 55.955V53.936H10.4966C10.5576 53.936 10.6116 53.929 10.6726 53.922C10.9436 53.915 11.2076 53.902 11.4716 53.868C11.5796 53.854 11.6886 53.841 11.7896 53.821C12.0066 53.787 12.2166 53.746 12.4196 53.699C12.5346 53.672 12.6436 53.645 12.7516 53.611C12.9616 53.557 13.1576 53.489 13.3616 53.415C13.4566 53.381 13.5516 53.354 13.6466 53.313C13.9036 53.211 14.1476 53.096 14.3916 52.968C14.4256 52.954 14.4596 52.941 14.4866 52.921C14.7576 52.772 15.0146 52.616 15.2656 52.44C15.3466 52.386 15.4216 52.325 15.4956 52.271C15.6646 52.142 15.8346 52.014 15.9966 51.871L16.2406 51.647C16.3896 51.512 16.5316 51.369 16.6676 51.22C16.7426 51.139 16.8166 51.057 16.8846 50.976C17.0336 50.807 17.1696 50.631 17.3046 50.448C17.3516 50.38 17.4066 50.319 17.4536 50.252C17.6226 50.001 17.7856 49.737 17.9276 49.466C17.9616 49.405 17.9886 49.337 18.0226 49.276C18.1306 49.059 18.2256 48.849 18.3206 48.626C18.3616 48.524 18.3946 48.423 18.4286 48.321C18.4966 48.125 18.5636 47.928 18.6186 47.725C18.6526 47.61 18.6796 47.502 18.7066 47.393C18.7536 47.176 18.7946 46.959 18.8286 46.743C18.8416 46.641 18.8626 46.547 18.8696 46.445C18.9106 46.12 18.9306 45.795 18.9306 45.469C18.9306 42.028 16.8846 39.081 13.9516 37.753V6.016C13.9516 5.46 13.8566 4.932 13.6806 4.458C13.1526 3.022 11.9126 2.019 10.4766 2.019V0C13.5046 0 15.9706 2.696 15.9706 6.015V36.539C19.0326 38.437 20.9496 41.811 20.9496 45.469Z" fill="#AA3131"/>
<path d="M2.55804 48.592C3.35104 50.787 5.01704 52.501 7.19804 53.32C7.53704 53.449 7.87503 53.55 8.21403 53.638C8.30903 53.665 8.40403 53.686 8.50503 53.706C8.75603 53.76 9.01304 53.808 9.26404 53.841C9.35204 53.854 9.44004 53.868 9.52804 53.882C9.84604 53.916 10.158 53.936 10.47 53.936C10.47 53.936 10.47 53.936 10.477 53.936V55.955C10.47 55.955 10.47 55.955 10.47 55.955C9.13505 55.955 7.79404 55.704 6.48704 55.21C3.77004 54.187 1.65004 52.019 0.66104 49.269C-1.09396 44.378 0.749042 39.135 4.96304 36.54V6.01598C4.96304 2.69698 7.43605 0.000976562 10.47 0.000976562C10.47 0.000976562 10.47 0.000976562 10.477 0.000976562V2.01998C10.47 2.01998 10.47 2.01998 10.47 2.01998C9.02005 2.01998 7.78704 3.02298 7.25204 4.45898C7.07604 4.93298 6.98105 5.46198 6.98105 6.01698V37.754C3.18805 39.467 0.878044 43.904 2.55804 48.592Z" fill="#AA3131"/>
</svg>
