<svg width="204" height="299" viewBox="0 0 204 299" fill="none" xmlns="http://www.w3.org/2000/svg">
<rect x="109.32" y="90.0219" width="35" height="8" rx="4" transform="rotate(25 109.32 90.0219)" fill="#C75B4A" stroke="#C75B4A"/>
<rect x="100.023" y="109.96" width="35" height="8" rx="4" transform="rotate(25 100.023 109.96)" fill="#C75B4A" stroke="#C75B4A"/>
<rect x="90.7262" y="129.899" width="35" height="8" rx="4" transform="rotate(25 90.7262 129.899)" fill="#C75B4A" stroke="#C75B4A"/>
<rect x="81.4293" y="149.837" width="35" height="8" rx="4" transform="rotate(25 81.4293 149.837)" fill="#C75B4A" stroke="#C75B4A"/>
<rect x="72.1286" y="169.777" width="35" height="8" rx="4" transform="rotate(25 72.1286 169.777)" fill="#C75B4A" stroke="#C75B4A"/>
<rect x="62.8317" y="189.715" width="35" height="8" rx="4" transform="rotate(25 62.8317 189.715)" fill="#C75B4A" stroke="#C75B4A"/>
<rect x="118.617" y="70.0824" width="35" height="8" rx="4" transform="rotate(25 118.617 70.0824)" fill="#C75B4A" stroke="#C75B4A"/>
<rect x="127.918" y="50.144" width="35" height="8" rx="4" transform="rotate(25 127.918 50.144)" fill="#C75B4A" stroke="#C75B4A"/>
<path d="M120.827 38.5358L49.3938 191.726C47.0507 196.75 43.2053 200.924 38.3886 203.669C28.3136 209.412 23.082 220.988 25.4297 232.345L26.4713 237.383C26.805 238.998 27.2646 240.608 27.8297 242.157C35.1047 262.093 57.0359 272.983 77.179 266.303L78.2884 265.935C80.1216 265.327 81.8984 264.561 83.5986 263.645L87.7524 261.406C97.9611 255.905 103.467 244.456 101.39 233.047C100.397 227.592 101.122 221.964 103.465 216.939L141.031 136.377L174.491 64.6236C179.107 54.7231 178.026 43.1024 171.661 34.2238L171.38 33.8311C165.246 25.2735 155.004 20.6486 144.528 21.7051C134.214 22.7454 125.209 29.1401 120.827 38.5358Z" stroke="#C75B4A" stroke-width="5"/>
</svg>
