<svg width="204" height="298" viewBox="0 0 204 298" fill="none" xmlns="http://www.w3.org/2000/svg">
<rect x="109.234" y="89.1117" width="35" height="8" rx="4" transform="rotate(25 109.234 89.1117)" fill="white" stroke="white"/>
<rect x="99.9372" y="109.05" width="35" height="8" rx="4" transform="rotate(25 99.9372 109.05)" fill="white" stroke="white"/>
<rect x="90.6403" y="128.989" width="35" height="8" rx="4" transform="rotate(25 90.6403 128.989)" fill="white" stroke="white"/>
<rect x="81.3434" y="148.927" width="35" height="8" rx="4" transform="rotate(25 81.3434 148.927)" fill="white" stroke="white"/>
<rect x="72.0426" y="168.867" width="35" height="8" rx="4" transform="rotate(25 72.0426 168.867)" fill="white" stroke="white"/>
<rect x="62.7458" y="188.805" width="35" height="8" rx="4" transform="rotate(25 62.7458 188.805)" fill="white" stroke="white"/>
<rect x="118.531" y="69.1723" width="35" height="8" rx="4" transform="rotate(25 118.531 69.1723)" fill="white" stroke="white"/>
<rect x="127.832" y="49.2338" width="35" height="8" rx="4" transform="rotate(25 127.832 49.2338)" fill="white" stroke="white"/>
<path d="M120.741 37.6256L49.3079 190.815C46.9648 195.84 43.1194 200.013 38.3027 202.759C28.2277 208.501 22.996 220.078 25.3438 231.435L26.3853 236.473C26.7191 238.087 27.1786 239.698 27.7438 241.247C35.0188 261.183 56.95 272.073 77.093 265.393L78.2025 265.025C80.0357 264.417 81.8125 263.651 83.5127 262.735L87.6665 260.496C97.8752 254.995 103.381 243.546 101.304 232.137C100.311 226.682 101.036 221.054 103.379 216.029L140.945 135.467L174.405 63.7135C179.021 53.813 177.94 42.1922 171.576 33.3137L171.294 32.9209C165.16 24.3633 154.918 19.7384 144.442 20.795C134.128 21.8353 125.123 28.2299 120.741 37.6256Z" stroke="white" stroke-width="5"/>
</svg>
